<?xml version="1.0" encoding="UTF-8" standalone="no"?>
<!-- Created with Inkscape (http://www.inkscape.org/) -->

<svg
   xmlns:dc="http://purl.org/dc/elements/1.1/"
   xmlns:cc="http://creativecommons.org/ns#"
   xmlns:rdf="http://www.w3.org/1999/02/22-rdf-syntax-ns#"
   xmlns:svg="http://www.w3.org/2000/svg"
   xmlns="http://www.w3.org/2000/svg"
   xmlns:sodipodi="http://sodipodi.sourceforge.net/DTD/sodipodi-0.dtd"
   xmlns:inkscape="http://www.inkscape.org/namespaces/inkscape"
   width="180"
   height="180"
   viewBox="0 0 47.625 47.625001"
   version="1.1"
   id="svg827"
   inkscape:version="0.92.3 (2405546, 2018-03-11)"
   sodipodi:docname="caveira.svg">
  <defs
     id="defs821" />
  <sodipodi:namedview
     id="base"
     pagecolor="#ffffff"
     bordercolor="#666666"
     borderopacity="1.0"
     inkscape:pageopacity="0.0"
     inkscape:pageshadow="2"
     inkscape:zoom="0.35"
     inkscape:cx="400"
     inkscape:cy="560"
     inkscape:document-units="mm"
     inkscape:current-layer="layer1"
     showgrid="false"
     units="px"
     inkscape:window-width="1920"
     inkscape:window-height="1017"
     inkscape:window-x="-8"
     inkscape:window-y="-8"
     inkscape:window-maximized="1" />
  <metadata
     id="metadata824">
    <rdf:RDF>
      <cc:Work
         rdf:about="">
        <dc:format>image/svg+xml</dc:format>
        <dc:type
           rdf:resource="http://purl.org/dc/dcmitype/StillImage" />
        <dc:title></dc:title>
      </cc:Work>
    </rdf:RDF>
  </metadata>
  <g
     inkscape:label="Camada 1"
     inkscape:groupmode="layer"
     id="layer1"
     transform="translate(0,-249.37494)">
    <g
       id="g714"
       transform="matrix(0.35277777,0,0,-0.35277777,-108.21824,415.99491)">
      <g
         id="g22"
         transform="translate(409.7715,365.2031)">
        <path
           inkscape:connector-curvature="0"
           d="m 0,0 c 10.477,3.173 20.543,26.611 20.652,37.844 0.3,21.233 -11.09,36.473 -38.27,46.692 -19.965,7.917 -43.473,5.348 -59.274,-13.882 -7.131,-8.679 -17.023,-36.799 -10.535,-45.607 5.354,-7.359 22.295,-3.671 24.27,-8.626 2.213,-5.535 0.673,-7.224 -1.892,-12.771 -0.42,-0.806 -3.488,-7.548 0.39,-9.872 0,0 0.864,-0.742 2.071,-1.094 1.372,-0.395 3.189,-0.286 4.732,1.981 -0.538,-1.454 -0.656,-3.59 2.242,-5.03 0.01,-0.008 0.024,-0.016 0.037,-0.023 0.478,-0.231 0.928,-0.385 1.35,-0.466 0.437,-0.084 0.844,-0.097 1.223,-0.047 0.152,0.021 0.305,0.047 0.448,0.081 2.158,0.548 3.296,2.983 3.638,3.848 -0.289,-0.867 -0.89,-3.401 1.037,-5.336 0.051,-0.048 0.104,-0.101 0.159,-0.15 0.743,-0.687 1.829,-1.289 3.39,-1.689 0.017,-0.008 0.03,-0.015 0.05,-0.018 l 0.002,-0.001 c 1.376,-0.349 4.597,1.124 5.058,4.436 -0.136,-1.081 -0.414,-5.623 4.807,-6.124 l 0.003,0.004 c 4.599,-0.765 5.416,2.954 6.136,7.344 1.06,5.663 0.604,8.341 5.06,11.555 C -18.849,6.198 -8.689,-2.695 0,0"
           style="fill:#000000;fill-opacity:1;fill-rule:nonzero;stroke:none"
           id="path24" />
      </g>
      <g
         id="g26"
         transform="translate(337.0713,397.9321)">
        <path
           inkscape:connector-curvature="0"
           d="M 0,0 C -11.317,3.872 7.404,27.251 17.06,31.66 24.908,35.187 30.294,27.128 32.355,20.636 34.604,13.435 34.968,3.238 27.814,-1.385 19.952,-6.193 8.062,-2.119 0,0"
           style="fill:#ffa729;fill-opacity:1;fill-rule:nonzero;stroke:none"
           id="path28" />
      </g>
      <g
         id="g30"
         transform="translate(402.7998,375.418)">
        <path
           inkscape:connector-curvature="0"
           d="M 0,0 C 11.32,-3.875 10.857,26.071 5.933,35.475 1.895,43.07 -7.299,40.006 -12.909,36.141 -19.1,31.833 -25.639,23.998 -22.817,15.961 -19.557,7.343 -7.669,3.269 0,0"
           style="fill:#ffa729;fill-opacity:1;fill-rule:nonzero;stroke:none"
           id="path32" />
      </g>
      <g
         id="g34"
         transform="translate(365.9424,384.5356)">
        <path
           inkscape:connector-curvature="0"
           d="M 0,0 C -1.092,1.891 2.977,3.829 4.843,4.855 4.69,2.639 3.236,-3.382 0,0"
           style="fill:#fefefe;fill-opacity:1;fill-rule:nonzero;stroke:none"
           id="path36" />
      </g>
      <g
         id="g38"
         transform="translate(373.8682,382.2021)">
        <path
           inkscape:connector-curvature="0"
           d="M 0,0 C 2.021,0.822 -0.007,4.851 -0.853,6.802 -2.09,4.957 -4.629,-0.689 0,0"
           style="fill:#fefefe;fill-opacity:1;fill-rule:nonzero;stroke:none"
           id="path40" />
      </g>
      <g
         id="g42"
         transform="translate(420.6729,409.7852)">
        <path
           inkscape:connector-curvature="0"
           d="m 0,0 c 0.297,-1.035 1.176,-0.688 1.184,0.179 0.188,13.413 -7.01,23.039 -24.178,29.494 -0.844,0.335 -2.263,-0.091 -0.849,-0.964 C -16.682,24.295 -4.71,16.425 0,0"
           style="fill:#3b3b3d;fill-opacity:1;fill-rule:nonzero;stroke:none"
           id="path44" />
      </g>
    </g>
  </g>
</svg>
