<?xml version="1.0" encoding="UTF-8" standalone="no"?>
<svg
   xmlns:dc="http://purl.org/dc/elements/1.1/"
   xmlns:cc="http://creativecommons.org/ns#"
   xmlns:rdf="http://www.w3.org/1999/02/22-rdf-syntax-ns#"
   xmlns:svg="http://www.w3.org/2000/svg"
   xmlns="http://www.w3.org/2000/svg"
   xmlns:sodipodi="http://sodipodi.sourceforge.net/DTD/sodipodi-0.dtd"
   xmlns:inkscape="http://www.inkscape.org/namespaces/inkscape"
   width="579.20001"
   height="179.2"
   version="1.1"
   id="svg4"
   sodipodi:docname="p1.svg"
   inkscape:version="0.92.3 (2405546, 2018-03-11)">
  <metadata
     id="metadata10">
    <rdf:RDF>
      <cc:Work
         rdf:about="">
        <dc:format>image/svg+xml</dc:format>
        <dc:type
           rdf:resource="http://purl.org/dc/dcmitype/StillImage" />
        <dc:title />
      </cc:Work>
    </rdf:RDF>
  </metadata>
  <defs
     id="defs8" />
  <sodipodi:namedview
     pagecolor="#ffffff"
     bordercolor="#666666"
     borderopacity="1"
     objecttolerance="10"
     gridtolerance="10"
     guidetolerance="10"
     inkscape:pageopacity="0"
     inkscape:pageshadow="2"
     inkscape:window-width="1369"
     inkscape:window-height="769"
     id="namedview6"
     showgrid="false"
     inkscape:zoom="1.3169643"
     inkscape:cx="220.44007"
     inkscape:cy="34.929011"
     inkscape:window-x="173"
     inkscape:window-y="83"
     inkscape:window-maximized="0"
     inkscape:current-layer="svg4" />
  <path
     glyph-name="gamepad"
     unicode=""
     horiz-adv-x="1920"
     d="m 87.147217,104.82245 -9.963185,-9.714388 q -1.089725,-1.062513 -2.490798,-1.062513 -1.401073,0 -2.490797,1.062513 L 57.257652,109.67966 42.312867,95.108062 q -1.089723,-1.062513 -2.490798,-1.062513 -1.401073,0 -2.490796,1.062513 l -9.963191,9.714398 q -1.089724,1.06251 -1.089724,2.4286 0,1.36609 1.089724,2.4286 l 14.944785,14.5716 -14.944785,14.5716 q -1.089724,1.06252 -1.089724,2.4286 0,1.36609 1.089724,2.4286 l 9.963185,9.71441 q 1.089725,1.0625 2.490798,1.0625 1.401073,0 2.490798,-1.0625 l 14.944784,-14.57162 14.944785,14.57162 q 1.089724,1.0625 2.490798,1.0625 1.401073,0 2.490798,-1.0625 l 9.963189,-9.71441 q 1.089724,-1.06251 1.089724,-2.4286 0,-1.36609 -1.089724,-2.42861 l -14.944785,-14.5716 14.944785,-14.5716 q 1.089724,-1.06251 1.089724,-2.4286 0,-1.36608 -1.089724,-2.4286 z m 49.815943,-38.8576 q -4.12538,-4.022369 -9.96319,-4.022369 -5.83781,0 -9.96319,4.022369 -4.12538,4.02237 -4.12538,9.714402 0,5.692033 4.12538,9.714401 4.12538,4.022367 9.96319,4.022367 5.83781,0 9.96319,-4.022367 4.12538,-4.022368 4.12538,-9.714401 0,-5.692032 -4.12538,-9.714402 z m 0,-38.857602 q -4.12537,-4.02237 -9.96318,-4.02237 -5.8378,0 -9.96319,4.02237 -4.12539,4.02237 -4.12539,9.714402 0,5.692032 4.12539,9.714402 4.12539,4.022368 9.96319,4.022368 5.8378,-4e-6 9.96318,-4.022373 4.12538,-4.02237 4.12539,-9.714397 0,-5.692032 -4.12539,-9.714402 z m 29.88957,-9.714406 q 16.50153,16.089478 16.50153,38.857607 0,22.768129 -16.50153,38.857602 -14.94478,14.571599 -36.27224,15.937699 l -17.12423,16.69662 q -1.40107,20.79489 -16.345854,35.36649 -16.501532,16.08949 -39.852759,16.08949 -23.351226,0 -39.852759,-16.08949 -16.5015295,-16.08947 -16.5015295,-38.8576 0,-22.76812 16.5015335,-38.857601 L 87.147222,17.392846 Q 103.64875,1.3033677 126.99998,1.3033677 q 23.35122,0 39.85275,16.0894743 z"
     id="path2"
     inkscape:connector-curvature="0"
     style="fill:#ff0000;stroke-width:0.10869568" />
  <rect
     style="fill:#00ffff;stroke-width:1.02910924"
     id="rect3731"
     width="195.14575"
     height="20.501694"
     x="387.25424"
     y="84.284744" />
  <rect
     style="fill:#00ffff;stroke-width:0.32732686"
     id="rect3731-0"
     width="19.742376"
     height="20.501694"
     x="190.13559"
     y="83.90509" />
  <g
     aria-label="P1"
     transform="translate(-1.0372881,-55.430508)"
     style="font-style:normal;font-weight:normal;font-size:40px;line-height:1.25;font-family:sans-serif;letter-spacing:0px;word-spacing:0px;fill:#ff0000;fill-opacity:1;stroke:none"
     id="flowRoot3750">
    <path
       d="m 228.10417,127.90547 h 40.19922 q 13.13281,0 19.64583,6.24609 6.56641,6.24609 6.56641,17.77734 0,11.85157 -7.15365,18.52474 -7.10026,6.67318 -21.72786,6.67318 h -13.23959 v 29.04167 h -24.29036 z m 24.29036,33.36588 h 5.92578 q 6.99349,0 9.82292,-2.40234 2.82943,-2.45573 2.82943,-6.2461 0,-3.68359 -2.45573,-6.24609 -2.45573,-2.5625 -9.23568,-2.5625 h -6.88672 z"
       style="font-style:normal;font-variant:normal;font-weight:900;font-stretch:normal;font-size:109.33333588px;font-family:Arial;-inkscape-font-specification:'Arial Heavy';fill:#ff0000"
       id="path3773"
       inkscape:connector-curvature="0" />
    <path
       d="M 371.13022,81.918485 V 206.16849 h -34.33334 v -81.41667 q -8.33333,6.33333 -16.16667,10.25 -7.75,3.91667 -19.5,7.5 v -27.83333 q 17.33334,-5.58334 26.91667,-13.41667 9.58333,-7.833335 15,-19.333335 z"
       style="font-size:170.66667175px;fill:#ff0000"
       id="path3775"
       inkscape:connector-curvature="0" />
  </g>
  <rect
     style="fill:#00ffff;stroke-width:0.98601329"
     id="rect3731-5"
     width="69.098297"
     height="53.152538"
     x="453.13898"
     y="67.681358" />
</svg>
