<?xml version="1.0" encoding="UTF-8" standalone="no"?>
<svg
   xmlns:dc="http://purl.org/dc/elements/1.1/"
   xmlns:cc="http://creativecommons.org/ns#"
   xmlns:rdf="http://www.w3.org/1999/02/22-rdf-syntax-ns#"
   xmlns:svg="http://www.w3.org/2000/svg"
   xmlns="http://www.w3.org/2000/svg"
   xmlns:sodipodi="http://sodipodi.sourceforge.net/DTD/sodipodi-0.dtd"
   xmlns:inkscape="http://www.inkscape.org/namespaces/inkscape"
   viewBox="0 0 576 512"
   version="1.1"
   id="svg4"
   sodipodi:docname="volume-up.svg"
   inkscape:version="0.92.3 (2405546, 2018-03-11)">
  <metadata
     id="metadata10">
    <rdf:RDF>
      <cc:Work
         rdf:about="">
        <dc:format>image/svg+xml</dc:format>
        <dc:type
           rdf:resource="http://purl.org/dc/dcmitype/StillImage" />
      </cc:Work>
    </rdf:RDF>
  </metadata>
  <defs
     id="defs8" />
  <sodipodi:namedview
     pagecolor="#ffffff"
     bordercolor="#666666"
     borderopacity="1"
     objecttolerance="10"
     gridtolerance="10"
     guidetolerance="10"
     inkscape:pageopacity="0"
     inkscape:pageshadow="2"
     inkscape:window-width="741"
     inkscape:window-height="480"
     id="namedview6"
     showgrid="false"
     inkscape:zoom="0.4609375"
     inkscape:cx="17.898305"
     inkscape:cy="256"
     inkscape:window-x="0"
     inkscape:window-y="0"
     inkscape:window-maximized="0"
     inkscape:current-layer="svg4" />
  <path
     d="M256 88.017v335.964c0 21.438-25.943 31.998-40.971 16.971L126.059 352H24c-13.255 0-24-10.745-24-24V184c0-13.255 10.745-24 24-24h102.059l88.971-88.954c15.01-15.01 40.97-4.49 40.97 16.971zm182.056-77.876C422.982.92 403.283 5.668 394.061 20.745c-9.221 15.077-4.473 34.774 10.604 43.995C468.967 104.063 512 174.983 512 256c0 73.431-36.077 142.292-96.507 184.206-14.522 10.072-18.129 30.01-8.057 44.532 10.076 14.528 30.016 18.126 44.531 8.057C529.633 438.927 576 350.406 576 256c0-103.244-54.579-194.877-137.944-245.859zM480 256c0-68.547-36.15-129.777-91.957-163.901-15.076-9.22-34.774-4.471-43.994 10.607-9.22 15.078-4.471 34.774 10.607 43.994C393.067 170.188 416 211.048 416 256c0 41.964-20.62 81.319-55.158 105.276-14.521 10.073-18.128 30.01-8.056 44.532 6.216 8.96 16.185 13.765 26.322 13.765a31.862 31.862 0 0 0 18.21-5.709C449.091 377.953 480 318.938 480 256zm-96 0c0-33.717-17.186-64.35-45.972-81.944-15.079-9.214-34.775-4.463-43.992 10.616s-4.464 34.775 10.615 43.992C314.263 234.538 320 244.757 320 256a32.056 32.056 0 0 1-13.802 26.332c-14.524 10.069-18.136 30.006-8.067 44.53 10.07 14.525 30.008 18.136 44.53 8.067C368.546 316.983 384 287.478 384 256z"
     id="path2"
     style="fill:#00ffff" />
</svg>
