<?xml version="1.0" encoding="iso-8859-1"?>
<!DOCTYPE svg PUBLIC "-//W3C//DTD SVG 1.1//EN" "http://www.w3.org/Graphics/SVG/1.1/DTD/svg11.dtd">
<svg width="100.0" height="100.0" version="1.1" xmlns="http://www.w3.org/2000/svg" xmlns:xlink="http://www.w3.org/1999/xlink">
<path fill="#00f0ff" transform="scale(.1,-.1) translate (0, -800)" glyph-name="d" unicode="d" horiz-adv-x="838" 
d="M784 206c0 -22 -11 -29 -45 -29c-14 0 -16 6 -20 36c0 8 19 33 25 33c17 0 40 -23 40 -40zM830 69c0 -40 -22 -63 -89 -94c-41 -22 -42 -22 -135 -25c-9 0 -18 4 -25 11c-14 -30 -60 -57 -115 -65c-49 0 -94 18 -106 43l-6 1c-5 0 -8 1 -22 9c0 5 -1 11 -2 19
c-26 17 -44 53 -47 95c0 20 0 22 10 52v4c2 3 5 9 29 67v36c-9 15 -10 15 -11 15c-22 -13 -36 -19 -42 -19c-9 0 -15 6 -16 18c-33 -56 -44 -69 -63 -69c-2 0 -4 1 -7 4c1 1 2 4 4 8c18 2 27 8 27 19c0 13 -11 29 -22 29c-11 -11 -17 -14 -36 -17l-71 -37h65c5 1 10 3 14 6
c1 3 2 6 2 12c2 0 2 0 12 -18c0 -7 -81 -13 -108 -14l-6 3c-1 0 -2 -1 -43 -24c-2 0 -4 1 -7 4v8c29 38 87 117 104 141l-2 1c1 0 2 15 3 44l-2 51c2 5 4 13 7 23c6 43 65 88 120 88c51 0 119 -75 119 -121c0 -9 -1 -23 -3 -40c3 -3 8 -19 8 -23c0 -12 0 -13 -17 -45
c-3 0 -4 -1 -4 -4c11 -16 13 -21 13 -39c0 -53 -7 -90 -23 -122c-5 -14 -7 -25 -7 -34c0 -17 3 -31 10 -40c7 11 26 36 51 58c0 1 1 3 2 5c37 12 37 12 88 12l2 2c-4 14 -11 54 -12 69c-3 5 -5 20 -5 46c0 41 0 41 10 99c-1 4 -2 8 -2 16c5 5 26 8 45 8h46c9 0 18 3 18 6h-1
c4 -2 8 -3 9 -3v-19l2 -2h-2c0 4 48 13 97 19c8 -8 19 -55 21 -87l2 -2v-49c-3 -6 -5 -16 -8 -27c-6 -11 -14 -27 -23 -48c-5 -3 -11 -14 -18 -32c-47 -42 -47 -43 -63 -53c-4 -2 -8 -7 -14 -13c5 0 8 -3 12 -9c2 4 4 6 7 6c2 -1 5 -3 8 -6c3 1 6 2 7 2c2 -1 4 -2 7 -5
c0 9 3 13 9 13c4 -4 6 -5 8 -5c1 2 2 5 3 10c1 0 3 0 9 -2c2 3 4 5 6 5s4 -2 7 -7c6 17 6 17 10 17c2 0 3 -2 5 -4c3 7 5 9 29 18l7 -2v-4c-22 -8 -23 -10 -31 -24c-6 0 -9 -2 -12 -5l1 -6c49 34 79 69 89 105c17 35 26 65 26 91c0 30 0 34 -71 47c-4 1 -6 3 -7 7l9 4
l77 -25v-48c-7 -13 -8 -16 -8 -25l2 -2l7 2c16 -35 25 -70 26 -106c0 -1 1 -5 3 -8zM777 207c0 7 -8 16 -23 27c9 -13 13 -21 13 -23c0 -5 -1 -12 -3 -21c9 3 13 9 13 17zM760 209c0 7 -3 10 -9 10c-13 0 -19 -4 -19 -12c0 -13 5 -20 15 -20c9 0 13 7 13 22zM819 83
c0 33 -13 75 -28 93l-21 -60l-8 -16l25 9c3 0 14 -9 32 -26zM816 65l-4 12v-10c-3 -13 -7 -19 -13 -19l-1 -4c6 0 18 14 18 21zM804 70c0 11 -5 17 -16 17s-16 -7 -16 -20c0 -11 5 -16 15 -16c11 0 17 6 17 19zM703 238l-4 30c-11 67 -11 67 -31 67s-70 -12 -70 -17h2
c-1 0 -1 0 -4 1l-2 -33v-27c4 -10 6 -27 6 -50c0 -56 -5 -74 -28 -130v-6h4c4 5 6 8 7 8s1 0 7 -6c2 0 3 1 5 3c2 -1 2 -1 7 -2c0 7 2 10 6 10l13 -6l-5 8c1 1 1 1 1 4c9 5 10 5 25 5c3 7 4 13 4 20c1 2 4 3 7 4l1 -11c22 18 41 63 49 128zM584 296c0 36 0 41 -10 41l-65 -2
c-2 -1 -7 -3 -22 -6c-10 -21 -11 -23 -16 -109c0 -30 1 -32 22 -118c6 0 9 0 20 -5l21 -11c3 3 5 5 6 5c3 -2 12 -4 13 -4c12 0 26 28 26 46c0 3 -2 12 -3 12v-2c4 34 4 38 9 38c3 0 5 -2 7 -5c0 48 -2 78 -8 120zM812 41c-8 -6 -16 -9 -25 -9c-19 0 -33 18 -33 41
c0 1 1 8 3 19c-30 -42 -83 -84 -110 -91c-16 -1 -37 -4 -65 -8v-23c4 -2 5 -2 10 -2v4c-2 2 -3 6 -5 13c2 3 5 4 7 4c3 -1 5 -3 12 -9l5 1c2 -1 2 -1 7 -5l6 5c9 -3 21 -6 23 -8c4 7 6 11 7 12c2 -1 6 -3 12 -7c1 3 3 5 6 5l6 -2c7 5 11 7 12 7c10 -4 10 -4 11 -4
c16 8 16 8 17 8c5 0 8 -2 8 -7c0 -1 -1 -2 -2 -4l-5 2c-21 -8 -23 -9 -24 -9h-2l-16 -6h-3c-1 0 -2 0 -7 -4c-1 0 -4 3 -8 7h-4c-2 -5 -3 -7 -3 -10h11c3 2 6 3 9 3c61 5 116 35 140 77zM314 444c0 4 -2 6 -6 6c-7 -7 -15 -18 -26 -33c10 0 32 22 32 27zM302 459
c-8 5 -13 7 -14 7c1 -1 3 -3 4 -5c-7 -2 -7 -3 -21 -36c7 2 8 3 31 34zM325 421c0 7 -2 11 -6 11c-7 0 -32 -23 -32 -29v-2c25 5 38 12 38 20zM283 468c-1 1 -3 3 -8 5c-7 -9 -12 -24 -13 -43c3 5 8 12 12 22c3 14 5 16 9 16zM262 477l-6 2c-2 0 -9 -21 -9 -29
c0 -5 1 -8 3 -10c7 10 8 15 8 31c1 1 3 3 4 6zM335 387c0 13 -3 19 -10 19l-36 -18c-2 0 -4 1 -5 2c0 -4 2 -8 5 -13c20 0 32 3 46 10zM244 479h-6v-39zM348 339v7h-2v-7h2zM669 22c-3 2 -4 4 -6 4c-1 -8 -1 -8 -12 -8c-4 -4 -5 -5 -7 -5c-1 0 -4 2 -7 5c-1 -2 -2 -5 -5 -8
h11c13 0 18 2 26 12zM338 359c0 7 0 11 -2 17c-9 -2 -23 -6 -40 -11c3 -1 10 -3 21 -7zM283 402c-3 0 -5 1 -6 2c0 -3 1 -7 3 -11zM274 403v8h-5c2 -1 4 -4 5 -8zM257 422v4h-6v-4h6zM232 447l-1 19l-7 12c-3 -1 -6 -3 -11 -6c2 -10 5 -24 10 -42h5l1 13c1 1 2 2 3 4z
M337 350h-26l21 -12c0 1 1 5 5 12zM329 328c-4 3 -10 6 -18 8c2 -3 7 -8 16 -15zM213 428c-5 26 -9 39 -12 39c-2 0 -6 -2 -11 -6c1 -5 7 -16 18 -33h5zM614 8c-1 1 -3 3 -5 4l-1 -4h6zM321 308v6c-5 1 -34 25 -34 30c0 3 2 5 5 6v7h-5c-1 -4 -3 -9 -6 -16
c9 -11 21 -23 37 -37c1 3 2 4 3 4zM553 51l-1 2l-2 -1l1 -2zM198 424c-5 19 -11 29 -18 29c-4 0 -6 -2 -6 -6c6 -6 13 -14 21 -25c1 1 1 2 3 2zM531 65v5c-1 2 -4 4 -8 5c2 -5 5 -8 8 -10zM522 78c-1 1 -2 3 -6 5h-4c4 -5 5 -5 10 -5zM311 296c-5 6 -14 15 -25 26
c4 -7 10 -18 19 -32zM275 333c-3 -3 -6 -7 -11 -11l5 -1c2 1 4 5 6 12zM277 361c0 14 -4 27 -15 34c0 11 -18 23 -34 23c-3 0 -7 -1 -10 -2c0 -6 -4 -9 -15 -12c-16 -7 -23 -18 -23 -33v-2c0 -33 13 -47 43 -47c27 0 54 23 54 39zM190 408c-1 2 -2 5 -5 7
c-3 17 -9 25 -18 25c-5 0 -7 -3 -7 -8c0 -6 10 -14 30 -24zM549 22c0 20 -3 22 -9 22c1 -6 4 -15 7 -26c1 1 2 3 2 4zM359 313l-4 9c-19 -51 -33 -56 -77 -72c-10 -7 -15 -13 -15 -17l1 -5c32 0 95 56 95 85zM298 287c-9 17 -18 28 -26 32l15 -36c1 -1 3 -2 6 -3
c3 3 5 6 5 7zM501 55v5c-5 4 -10 8 -13 12c3 -5 7 -10 13 -17zM178 397c-1 7 -9 16 -26 27c-2 -4 -4 -9 -6 -15c18 -12 21 -12 32 -12zM281 275c0 9 -8 23 -23 44l-3 -2c2 0 6 -15 15 -46zM346 219l-9 31c-1 0 -3 1 -6 3c-2 0 -4 -2 -7 -5c2 -1 4 -2 7 -4l9 -32
c0 -1 -1 -6 -8 -37c0 -2 1 -5 4 -8zM262 277c-3 8 -9 20 -17 35c0 -16 9 -37 11 -37l5 -2zM165 385c-5 5 -13 11 -23 16c0 -4 -1 -8 -2 -11c7 -3 16 -4 25 -5zM542 -27c0 11 -1 22 -3 35c-1 1 -3 4 -4 7c-6 36 -15 48 -41 65c18 -19 21 -26 34 -71v-28
c0 -28 -11 -61 -16 -61c-1 0 -1 1 -1 4v-5c22 9 22 9 31 54zM250 264c0 6 -5 20 -18 46v-20c0 -19 3 -29 9 -29c2 0 5 1 9 3zM558 -50h-2v-5zM520 -3c0 15 -3 31 -19 58l1 -3c3 0 15 -39 15 -62c0 -17 -1 -20 -14 -59c11 19 17 41 17 66zM170 367c-8 9 -17 14 -26 14
c-6 0 -9 -3 -9 -9v-5h35zM232 256l-10 49c-2 -12 -3 -20 -3 -24c0 -7 2 -15 5 -25h8zM508 -10c0 26 -1 30 -31 80c0 4 -2 8 -4 14c-2 0 -4 2 -7 5v5l2 1h-10c22 -27 31 -53 31 -95c0 -26 -7 -48 -30 -89v-4h12c29 29 35 44 35 72c0 2 1 9 2 11zM482 1c0 49 -24 95 -45 95v-5
c7 -6 15 -24 24 -53c2 -1 4 -4 5 -8c0 -12 0 -16 5 -32v-39c-1 -1 -2 -3 -2 -9c9 13 13 30 13 51zM167 356c-5 3 -11 4 -18 4c-5 0 -11 -1 -18 -4v-11l2 -1c11 1 23 5 34 12zM211 258v42c-3 -6 -3 -6 -5 -31c0 -3 2 -7 5 -11zM171 344c-17 -3 -30 -7 -37 -12
c0 -7 2 -10 6 -10c22 16 28 20 31 22zM202 280l-2 28c-7 -9 -10 -22 -10 -39c0 -4 4 -10 6 -10h2c0 6 1 13 4 21zM184 326c0 3 -2 5 -5 6c0 -3 -1 -6 -2 -7c-16 -16 -18 -18 -19 -29c3 -3 8 -5 14 -8c0 7 0 8 12 38zM190 313c-9 -15 -13 -27 -13 -34c0 -3 2 -7 5 -14
c1 11 4 27 8 48zM167 330c-10 0 -20 -12 -20 -25v-5c4 5 11 15 20 30zM466 -17c0 1 -1 2 -2 4c0 11 -8 40 -23 86l-20 19c-2 -1 -2 -1 -5 -2c26 -34 40 -68 40 -100c0 -30 -23 -79 -36 -79c5 -1 12 -3 21 -4v8h-2c21 18 27 32 27 68zM449 -8c0 26 -25 82 -41 88
c11 -27 25 -72 25 -92v-42c15 8 16 39 16 46zM408 -5v20c0 3 -14 46 -20 46c2 -5 6 -15 12 -31zM494 -85l-7 -4h4c1 1 2 2 3 4zM427 -33c0 43 -11 84 -33 111l-3 -3l20 -35c4 -9 6 -28 6 -55c0 -9 -2 -27 -6 -56c-4 -4 -7 -8 -8 -13c4 0 8 -1 12 -3c-2 1 -3 3 -3 5
c13 24 13 26 15 49zM408 -17v7h-2v-7h2zM338 -5c-1 3 -4 8 -9 15c-11 4 -19 26 -19 53c0 6 2 15 5 28c2 3 17 22 17 63c-15 -21 -18 -32 -28 -103c0 -23 5 -34 20 -45c0 -14 1 -16 11 -16c0 1 1 2 3 5zM401 -6c0 15 -19 65 -26 65c-3 -1 -5 -4 -5 -9c9 0 16 -25 25 -63
c0 -10 0 -12 -10 -42c11 6 16 22 16 49zM387 -16c-2 36 -4 43 -19 60c-4 -3 -6 -6 -6 -9c4 0 14 -31 14 -45c0 -16 -3 -31 -9 -45c20 25 20 27 20 39zM411 -20l-5 1c-3 -31 -4 -38 -23 -52c2 -3 5 -5 8 -6c4 3 9 10 14 21c1 10 3 22 6 36zM177 247c-1 0 -2 4 -4 12
c-2 1 -4 3 -6 5c0 20 -21 29 -28 29s-88 -98 -106 -137c52 27 107 55 132 72c3 -2 5 -3 6 -3zM687 272c0 -7 -2 -13 -7 -18l-15 -9c-6 -3 -12 -4 -17 -4c-13 0 -22 5 -27 15l-4 28c0 8 17 24 26 24c4 0 12 -2 24 -6c13 -17 20 -27 20 -30zM565 269c0 -15 -22 -32 -39 -32
c-15 0 -36 23 -36 38c0 18 5 21 45 33c9 0 17 -6 26 -19zM268 376c0 -29 -12 -43 -41 -43c-3 0 -10 4 -22 11c-6 11 -6 13 -8 31c0 14 26 28 45 28c7 0 13 -4 19 -12c0 -3 2 -7 7 -15zM679 274l-2 1v-4zM669 270c0 10 -7 15 -20 15c-6 -2 -10 -3 -12 -3l-5 -18
c0 -10 6 -12 16 -13c14 0 21 6 21 19zM628 286l-3 -4l2 -1zM551 272c0 13 -5 19 -15 19c-6 0 -11 -2 -15 -7c0 -3 -1 -6 -3 -10l-6 -1c0 -15 2 -22 15 -22c16 0 24 7 24 21zM504 262v23c-3 -6 -5 -9 -5 -10c0 -3 2 -7 5 -13zM253 383l-3 3l-2 -2l3 -3z" />
</svg>