<?xml version="1.0" encoding="iso-8859-1"?>
<!DOCTYPE svg PUBLIC "-//W3C//DTD SVG 1.1//EN" "http://www.w3.org/Graphics/SVG/1.1/DTD/svg11.dtd">
<svg width="100.0" height="100.0" version="1.1" xmlns="http://www.w3.org/2000/svg" xmlns:xlink="http://www.w3.org/1999/xlink">
<path fill="#00f0ff" transform="scale(.1,-.1) translate (0, -800)" glyph-name="h" unicode="h" horiz-adv-x="427" 
d="M406 757c0 -10 -4 -15 -17 -22c-18 -13 -19 -14 -35 -32c-1 -5 -4 -10 -8 -15v-16h-8c-12 0 -13 0 -17 -4c-1 -36 -16 -45 -66 -72c0 -2 0 -6 -1 -14c-3 -1 -4 -1 -5 -27c-1 -2 -3 -5 -4 -9l-7 -124l2 -2c10 2 14 2 15 2c22 0 33 -9 33 -28c0 -8 -3 -11 -10 -11h-86
c2 -5 8 -7 19 -8l-1 -8c3 -1 9 -3 17 -6l-4 -9c-4 0 -17 3 -37 7c-3 0 -5 -1 -5 -4c0 -7 31 -25 51 -30l-1 -10c-15 -1 -31 -2 -47 -3c-1 -1 -1 -2 -3 -2c2 -3 4 -5 6 -5c3 -7 14 -13 33 -17c2 -4 7 -6 15 -7v-10l-3 -3h-19c-4 1 -14 3 -33 5c0 -6 1 -11 8 -16
c0 -1 1 -3 2 -4c8 -1 11 -2 29 -9l1 -12h-36c-2 -1 -3 -4 -3 -7c2 -4 8 -6 17 -6c12 3 54 9 63 10v6c-4 3 -18 6 -41 11v10h11c0 1 11 6 33 16c0 4 0 5 -3 8c-20 7 -21 7 -37 21v8l5 1c24 -7 25 -7 38 -7l1 5c0 5 -9 10 -28 16l-9 13c1 1 1 1 3 5l33 -2v12h-27
c-1 1 -4 3 -11 8c3 5 6 8 7 8h3c33 10 36 11 41 11c0 -5 0 -5 2 -5c1 0 1 0 9 4c4 0 7 -1 9 -4l4 -7c16 6 48 42 59 64c0 14 -2 33 -6 56l-10 10c-2 16 -3 16 -7 16c-32 0 -35 0 -39 4c1 3 2 5 3 7c10 1 19 5 26 11c2 3 2 6 2 7c-9 30 -9 31 -9 42l5 2c7 0 14 -13 23 -41
l4 4c0 1 -3 25 -5 38c0 2 2 5 6 8c9 -2 14 -13 17 -32c0 -1 1 -2 3 -3c1 7 2 18 5 33h9c3 -12 3 -18 3 -52h-6c-1 -1 -2 -3 -2 -5c0 -4 1 -10 4 -17c-3 -4 -5 -6 -8 -6h-7c0 -9 -1 -11 -10 -20c0 -43 0 -52 8 -59c0 -1 0 -5 4 -17c0 -9 -3 -14 -9 -15c-16 0 -21 -4 -61 -46
c0 -9 -6 -14 -17 -14l-14 5l-2 -94c0 -7 -2 -17 -5 -29c6 -3 13 -14 13 -20c-4 -10 -4 -15 -4 -30s0 -21 3 -60c0 -6 0 -10 -2 -12c7 -7 8 -11 9 -15c0 -3 -1 -6 -2 -9l3 -3c10 -30 10 -36 10 -125c1 -1 2 -6 4 -16l13 1c4 0 10 -4 19 -13c1 -4 2 -10 5 -17
c-1 -1 -2 -3 -2 -7l13 -32c0 -3 -1 -6 -4 -7c-5 7 -12 17 -21 32h-6l-1 -4c8 -34 8 -34 8 -35c0 -5 -1 -7 -4 -7s-5 4 -8 12l-12 30l-7 1c-1 -2 -1 -5 -2 -12c1 -11 2 -26 3 -43c0 -4 -3 -6 -8 -6c-5 4 -6 8 -4 13l-11 34c-11 4 -15 12 -15 29c0 9 7 17 22 22l-3 10
c0 2 2 6 7 13c9 10 9 11 10 41c0 33 -5 60 -14 83h-8c-9 0 -14 4 -14 11l15 29v49c0 26 -5 32 -25 32c-9 0 -11 0 -67 -14c0 -38 3 -67 7 -79c0 -1 -1 -2 -2 -3c3 -6 5 -12 5 -17c0 -8 -2 -13 -8 -19v-31c0 -7 2 -16 5 -28v-48c1 -1 3 -3 4 -6l-1 -6c2 -3 4 -6 6 -11l-2 -11
c29 -19 29 -19 29 -35c0 -3 -1 -5 -5 -11c0 -3 3 -13 7 -30c0 -2 -1 -5 -3 -8h-4c0 4 -7 17 -22 38c-2 0 -2 0 -5 -1c0 -1 0 -6 2 -11c-4 -3 -4 -4 -4 -27v-13l-4 -1c-4 15 -10 31 -18 48c-16 -3 -17 -8 -23 -59h-4c-2 0 -3 2 -4 3c0 14 -1 31 -3 50c-3 3 -4 5 -4 8
c9 11 14 21 19 36c4 3 11 6 28 10c-3 5 -5 10 -5 13s2 7 6 11v5c2 2 3 6 5 11l-8 106l-7 15l12 37c1 5 -3 26 -6 66c-6 5 -9 13 -9 22l2 3c-1 3 -2 6 -2 8l7 7v95l-2 3v19l-2 2c-3 -4 -7 -6 -11 -6c-7 0 -12 3 -14 9c0 25 -52 59 -66 59l-3 -1c-12 10 -13 11 -13 12v11
c-8 20 -8 21 -12 55c-3 2 -6 5 -11 10c1 3 2 5 2 7c0 6 -3 8 -14 10c-7 2 -11 9 -12 20c2 6 2 8 2 9c-3 19 -4 30 -4 31c0 11 1 13 5 17c3 -2 4 -3 22 -45c3 39 3 39 7 45c2 -2 2 -2 12 -38c0 1 1 1 3 2v32l5 2c3 0 4 0 17 -41c10 -3 19 -4 26 -4c3 2 4 2 6 2
c1 -2 2 -5 2 -9c-15 -4 -19 -7 -43 -23l-11 -2c0 -1 0 -4 2 -9c0 -5 -3 -10 -10 -13c0 -9 1 -12 10 -47c18 -9 21 -13 24 -29c0 -5 49 -37 56 -37c10 3 11 3 28 3l-5 19c0 17 15 26 46 26l4 2c6 63 7 71 8 71l2 46c1 3 2 5 2 6c0 28 -1 35 -6 35c-2 0 -6 -1 -12 -2
c0 11 -1 18 -3 19c-29 11 -49 33 -52 52l-3 3c0 4 -1 9 -4 14h-16l-1 13c0 8 -11 23 -43 59c-6 0 -19 8 -19 14c0 7 3 11 10 11c2 0 7 -3 14 -10c0 -10 6 -23 30 -48c2 2 4 8 6 18l8 1l5 -3c7 0 8 6 8 15c1 1 3 2 5 5c10 26 40 47 86 47c36 0 48 -14 67 -43
c5 -17 13 -25 22 -25l10 1c0 -1 2 -10 4 -13c29 29 30 32 33 52c0 4 11 13 16 13l8 -1c0 -3 1 -6 3 -12zM336 683v20c-4 2 -7 3 -8 3c-2 0 -4 -1 -6 -3l1 -23zM306 712c0 4 -14 15 -18 15l-17 1c-6 -3 -13 -8 -21 -14c0 -2 -2 -5 -5 -10l5 -13c15 -13 22 -20 22 -21
c20 0 32 14 32 37c1 1 2 3 2 5zM388 560l-2 11h-2l2 -11h2zM219 713v-1v6h-6c1 -3 3 -5 6 -5zM369 553c0 9 -7 26 -10 26l2 -19c1 0 2 -1 3 -2v-8c2 2 4 3 5 3zM210 702c0 6 -3 9 -8 9c-5 -4 -7 -5 -8 -5h-6v-10c0 -5 4 -7 12 -7c7 0 10 4 10 13zM226 698l-6 9
c1 -2 2 -4 2 -6c0 -9 -11 -23 -20 -23c-20 0 -25 5 -25 28c0 6 9 12 26 17l-6 4h-14c-1 -3 -4 -4 -7 -4l-5 -17l2 -9c0 -19 0 -20 36 -26c16 23 17 25 17 27zM343 546c-2 12 -4 16 -12 29l-1 -9c5 -13 9 -20 13 -20zM379 532c-5 5 -7 7 -7 13c-8 -3 -18 -8 -29 -15
c3 -6 17 -10 26 -10c4 0 10 8 10 12zM137 707c0 -7 4 -31 5 -33h5c0 29 0 33 -10 33zM246 593c-9 0 -18 -1 -27 -3l1 -5c7 0 15 3 26 8zM239 556v15h-2v-15h2zM74 547c-2 5 -4 12 -6 20v-23zM91 529v2l-10 -1v-3zM31 538c-3 7 -6 18 -9 31c-1 2 -3 3 -5 3
c-2 -12 -1 -17 9 -37c2 1 4 2 5 3zM72 516c-1 7 -2 12 -3 17c-25 -3 -26 -3 -33 -8h-10v-4c4 -5 8 -7 11 -7c1 0 7 1 10 3c7 -4 9 -5 10 -5c5 0 10 1 15 4zM173 365c-3 -1 -5 -2 -5 -4c1 -2 1 -2 2 -5zM326 -89c0 10 -9 14 -32 14c-2 -3 -5 -6 -10 -9c-10 -3 -15 -8 -15 -14
c1 -7 3 -11 8 -11c28 0 49 7 49 20zM290 -145c-1 3 -3 6 -7 10c0 -9 1 -11 5 -18c1 4 2 7 2 8zM219 -143v6c-3 6 -6 11 -8 14l-3 -3c0 -3 4 -9 11 -17zM211 -104l-7 7c-7 3 -13 5 -18 5c-2 0 -5 -1 -18 -7c0 1 -1 1 -2 1c-7 0 -13 -9 -18 -27c9 0 33 5 63 14v7zM184 -144v5
h-3v-5h3zM149 -135h-7v-28c2 6 4 15 7 28zM298 703c0 -9 -13 -21 -23 -21c-13 0 -20 7 -20 22c0 5 1 9 3 14c10 4 17 5 18 5c7 -4 22 -13 22 -20zM286 703c0 5 -2 7 -6 7l-6 -3c-1 0 -1 0 -7 2c-3 0 -4 -3 -4 -8c0 -7 3 -10 10 -10c9 0 13 4 13 12z" />
</svg>