<?xml version="1.0" encoding="iso-8859-1"?>
<!DOCTYPE svg PUBLIC "-//W3C//DTD SVG 1.1//EN" "http://www.w3.org/Graphics/SVG/1.1/DTD/svg11.dtd">
<svg width="100.0" height="100.0" version="1.1" xmlns="http://www.w3.org/2000/svg" xmlns:xlink="http://www.w3.org/1999/xlink">
<path fill="#00f0ff" transform="scale(.1,-.1) translate (0, -800)" glyph-name="i" unicode="i" horiz-adv-x="1526" 
d="M1513 8c0 -1 0 -1 -2 -11l-37 -1c-1 -2 0 -3 9 -28c-1 -1 -2 -4 -5 -11l-38 11c0 -4 -23 -16 -37 -16c-11 0 -14 6 -33 66c-3 1 -7 3 -11 5c-3 5 -8 11 -15 18l-39 9c-23 5 -50 15 -79 28c-6 3 -11 4 -14 4c-17 -11 -20 -13 -24 -13c-13 0 -18 7 -19 28c0 6 1 11 4 15
c-3 1 -6 4 -9 8c0 54 -27 89 -32 89c-4 -22 -20 -43 -67 -75c7 -8 9 -11 10 -13c0 -9 -10 -52 -17 -53c-15 -3 -25 -5 -29 -5c-21 0 -41 14 -41 33c0 7 3 17 10 30l-7 1c-3 -2 -5 -3 -6 -3s-5 4 -12 11c-47 27 -48 28 -67 63c-6 0 -7 -38 -7 -79c0 -43 -5 -55 -27 -55
c-1 0 -6 2 -13 5h3c-37 -9 -59 -15 -65 -18l-46 -21l-9 4h-11c-23 -10 -27 -11 -32 -11c-3 2 -4 3 -5 3c-11 0 -31 -11 -61 -32c47 -33 62 -50 62 -67c0 -8 -24 -19 -29 -19c-13 0 -33 2 -54 21h-4c-1 -16 -8 -29 -22 -40h-9c-1 9 -2 18 -4 24c-10 -5 -17 -8 -21 -8
c-7 0 -11 4 -11 11c0 3 2 6 5 9l-1 3c-1 0 -8 -1 -29 -4c-7 0 -10 4 -10 11c0 14 9 26 28 37c0 3 -19 14 -27 14c0 -5 -33 -10 -61 -10c-3 2 -7 5 -13 7v34c-8 16 -10 22 -10 25c7 4 15 11 23 20c-6 5 -8 8 -18 26c-7 -3 -14 -4 -22 -4c-46 19 -50 20 -59 20c2 0 3 0 3 -1
s-29 -11 -41 -11c-6 0 -9 5 -9 15c-3 1 -7 2 -10 2c-29 -26 -31 -27 -40 -27c-25 15 -26 15 -45 18c-23 -12 -37 -18 -40 -18c-5 0 -11 6 -18 17c-61 2 -62 2 -69 5c-1 0 -1 0 -23 -8c-11 0 -23 14 -23 27c0 12 8 31 22 31c9 0 19 -2 28 -5l4 -8l7 6l48 4c17 24 19 24 45 29
c8 0 13 -4 36 -24c41 25 44 26 49 26c12 0 29 -13 30 -24c1 3 4 9 8 16l15 9l6 -1c3 2 6 4 7 4c7 0 15 -8 24 -25c17 14 30 21 40 21c9 0 25 -3 37 -12c12 15 18 24 18 27c33 14 34 15 65 17c16 0 38 -14 65 -43c6 -39 8 -52 9 -52v2c0 -11 -5 -24 -14 -39c0 -2 0 -2 1 -6
c-7 -12 -10 -19 -10 -21c0 -8 14 -34 28 -34c16 0 47 12 56 21h12c19 13 20 14 135 47l26 13l18 3c3 2 8 5 15 8c2 3 3 7 9 39l3 2v49c-3 3 -4 6 -6 24c0 12 13 27 23 27c3 0 6 -1 8 -2c11 37 30 54 85 79c3 45 4 50 8 74v39c-12 8 -18 14 -18 19c0 12 10 18 29 18
c5 0 14 -13 14 -20c0 -10 -4 -13 -16 -19c-2 -5 -2 -14 -4 -76c-2 -2 -3 -4 -3 -6c0 -4 1 -12 3 -24c63 0 100 -17 123 -55c1 -7 5 -18 10 -33c2 6 8 9 17 9c12 0 21 -2 24 -8c0 -3 1 -13 3 -28c-1 -1 -2 -1 -4 -5c14 -36 16 -44 25 -78c11 -11 14 -17 19 -34
c41 -11 93 -18 103 -18h35l16 -8c27 0 29 2 42 41c2 2 7 7 15 14c13 0 22 -11 24 -29c0 -4 0 -5 -13 -21c27 -5 64 -24 66 -35c0 -3 -2 -7 -5 -12c2 -2 16 -25 16 -28zM1496 8c0 12 -7 19 -20 19l-17 -2c0 -9 10 -18 34 -18zM1483 45c-4 11 -30 24 -45 24
c-8 -2 -13 -3 -15 -3c-6 0 -9 3 -9 10c22 24 22 24 22 25c0 5 -3 11 -8 18c-8 -7 -15 -24 -21 -49c-18 -35 -20 -37 -29 -42c18 -54 22 -60 35 -60c5 0 8 2 8 5l-6 18c0 4 3 6 10 6c4 -2 17 -10 39 -23v5c0 4 -2 6 -20 34c0 5 3 9 9 12v14c5 6 5 7 31 7c0 -1 0 -1 -1 -1z
M1161 229v5c-3 4 -8 7 -14 9c-5 -9 -8 -15 -10 -17l10 -6c0 1 5 4 14 9zM1349 70c0 2 -2 3 -4 5c-85 11 -101 13 -114 13c20 -15 48 -23 111 -35c5 7 7 13 7 17zM1185 137c0 42 -27 67 -31 67l23 -83c2 0 4 1 6 3c1 6 2 12 2 13zM1204 98c0 9 -3 13 -9 13
c-10 0 -15 -5 -15 -15c0 -11 3 -16 9 -16c10 0 15 6 15 18zM1117 221c0 61 -46 104 -102 104c-41 0 -100 -37 -100 -80l-5 -5c8 -8 9 -12 9 -30c3 -28 40 -69 94 -69c27 0 28 0 66 17c25 29 38 50 38 63zM901 227c0 9 -3 14 -10 14c-6 0 -9 -3 -9 -10c0 -8 3 -12 9 -12
c7 0 10 3 10 8zM891 165v29h-7l-6 -73l8 1c0 8 3 27 5 43zM887 95c0 3 -2 6 -7 11h-5c-2 -6 -6 -10 -12 -11v-13c7 -4 12 -6 14 -6c7 0 10 6 10 19zM846 87l-2 6c-4 -2 -10 -4 -18 -5c-4 -5 -7 -8 -8 -8c-2 0 -2 1 -6 2c-10 0 -63 -17 -90 -29c-24 0 -44 -10 -48 -22
c6 0 6 0 30 12c6 -2 10 -3 12 -3c3 0 14 2 33 6h13c84 33 84 33 84 41zM569 128c0 9 -3 18 -9 25c0 -11 -1 -22 -9 -49l4 -4c9 4 14 15 14 28zM549 137c0 17 0 17 -25 44h-6c11 -19 16 -35 16 -46c0 -3 -3 -16 -8 -40l6 -2c3 4 8 9 13 14c3 13 4 23 4 30zM525 135
c0 18 -8 31 -23 40c9 -15 14 -29 14 -42l-6 -26c0 -1 2 -3 5 -6c7 9 10 20 10 34zM661 24h-14l-31 -10c-2 -1 -3 -2 -3 -5l4 -4l18 5c2 0 9 4 26 14zM459 142v6h-2v-6h2zM441 142v7c-5 5 -10 8 -15 10c3 -4 8 -10 15 -17zM561 39l-7 14c-8 -2 -18 -7 -31 -13c1 -2 2 -4 4 -6
h7c3 3 6 5 9 5l8 -4c1 1 5 2 10 4zM597 -83c0 5 -3 8 -8 11l-1 -24c6 7 9 12 9 13zM365 121c-1 16 -2 23 -3 24c-4 -4 -6 -7 -6 -13v-11h9zM574 -66c0 2 -3 5 -8 8c-7 -12 -9 -16 -10 -19c0 -2 1 -4 2 -5c11 4 16 9 16 16zM552 -47c0 5 -2 8 -5 10c-22 -9 -26 -11 -26 -20
c0 -3 1 -4 2 -4c19 5 29 9 29 14zM343 132v20h-3v-20h3zM505 -5v6c-9 6 -20 15 -32 28c-3 -5 -9 -12 -19 -21l-10 -2v-9c5 -7 11 -10 17 -10c39 8 40 8 44 8zM340 116v14c-3 -5 -7 -12 -12 -21c5 5 9 7 12 7zM327 135v6c-23 0 -24 0 -29 -5c7 -4 12 -6 17 -6s9 2 12 5z
M285 154c0 4 -9 13 -12 13l-6 -2c3 -5 5 -11 5 -19c0 -20 -7 -35 -20 -46l9 -2c15 11 24 44 24 56zM259 133l-41 -4c20 -2 27 -3 41 4zM203 125c0 13 -8 34 -13 36l6 -26c0 -7 -6 -18 -18 -32c5 1 10 2 16 4c6 9 9 15 9 18zM153 134c-1 0 -12 1 -31 4c-25 0 -38 -1 -38 -2
l4 -10c0 -1 10 -5 11 -5c4 0 13 2 42 9h3c4 0 6 1 9 4zM71 126c0 6 -9 15 -16 15l-13 -8c0 -17 3 -25 9 -25c17 3 20 4 20 18zM1076 248c0 -11 -11 -29 -21 -29c-7 0 -12 2 -16 5l-8 9c-1 1 -2 3 -2 7c0 12 11 28 26 28c14 0 21 -7 21 -20zM976 223c-17 0 -26 8 -26 25
c0 11 7 17 21 17c3 0 12 -3 26 -8c0 -32 0 -34 -21 -34zM1075 193c0 -7 -3 -10 -10 -10c-30 0 -57 -2 -83 -9c-4 0 -4 0 -9 10c2 5 5 7 9 7c5 -1 14 -3 19 -3c6 0 40 2 68 11c4 -3 6 -5 6 -6z" />
</svg>