<?xml version="1.0" encoding="iso-8859-1"?>
<!DOCTYPE svg PUBLIC "-//W3C//DTD SVG 1.1//EN" "http://www.w3.org/Graphics/SVG/1.1/DTD/svg11.dtd">
<svg width="100.0" height="100.0" version="1.1" xmlns="http://www.w3.org/2000/svg" xmlns:xlink="http://www.w3.org/1999/xlink">
<path fill="#00f0ff" transform="scale(.1,-.1) translate (0, -800)" glyph-name="k" unicode="k" horiz-adv-x="969" 
d="M953 37c0 -11 -21 -24 -62 -39c-37 -45 -39 -48 -51 -78c-3 -3 -7 -7 -12 -13c-18 0 -24 2 -30 7c0 8 0 9 -4 15c3 1 4 5 4 12v14c4 7 4 10 5 12c-5 16 -5 21 -6 46c-3 1 -6 2 -11 5c-2 33 -8 76 -19 131l-6 -49l3 -120c-17 -21 -18 -25 -22 -52c-7 -1 -17 -5 -31 -10
l9 -26c-1 0 -4 -9 -9 -29c-14 -14 -40 -28 -51 -28c-25 0 -38 17 -42 54c1 4 3 9 7 16v9c-36 5 -37 6 -37 42c-16 10 -19 13 -20 21v24c-6 8 -9 17 -9 26c0 2 1 6 3 12c-2 7 -4 19 -4 36c0 20 1 30 3 42c0 1 -1 3 -2 5c0 2 0 9 2 17c-1 1 -2 7 -3 16c-9 5 -12 6 -15 7
l-30 -4h-29c-26 -4 -34 -5 -39 -5c-15 0 -38 2 -57 3c-31 -11 -48 -19 -75 -36v-20l10 -90c0 -18 -6 -27 -17 -27c-2 0 -43 5 -59 7v14c4 10 4 13 4 40c2 3 2 3 5 7v54c-3 1 -4 4 -4 7c0 2 1 5 2 8c-9 3 -16 7 -16 18c3 51 3 52 14 59c0 1 2 19 4 27c-2 10 -9 42 -9 47l7 23
c-1 0 -2 4 -5 14c0 15 0 16 -7 31c-31 -4 -39 -4 -40 -4l-82 3c-55 0 -84 5 -84 35c8 25 8 27 8 29c0 1 -3 19 -4 25c3 0 3 0 3 3l4 128c-1 2 -2 9 -4 23c-3 0 -5 2 -5 6c0 7 14 20 20 21c21 -4 32 -5 36 -5s9 1 35 5c43 -9 44 -9 57 -9c8 0 14 -1 36 -7c9 0 16 2 21 7
c0 12 0 17 -3 44c0 9 2 17 6 24c7 -1 25 -4 54 -7c-2 -19 -3 -30 -3 -37c0 -15 3 -22 10 -22c52 8 62 10 65 10h74c10 6 10 6 11 6c3 -2 10 -6 11 -6l11 -1c0 1 11 3 33 7c4 -11 6 -22 6 -32c-2 -25 -9 -198 -9 -199c0 -8 1 -17 3 -27c-9 -16 -10 -16 -47 -11l-51 3
c-18 -1 -76 -5 -107 -12l5 -90c-4 -40 -1 -47 24 -53l28 -2c6 -6 31 -11 43 -11c70 9 71 9 94 9c4 6 10 9 17 9c23 0 37 -1 42 -4c1 0 3 1 4 3v59c3 3 4 6 4 9v10c5 9 6 11 8 23c0 4 -1 4 -6 23c8 8 9 12 9 21c2 3 3 6 3 9s-1 5 -3 6c3 7 5 36 5 92c6 24 7 31 9 76
c16 78 23 92 56 101c3 6 3 7 3 80l-13 13c0 17 8 29 20 29s18 -9 18 -26c0 -8 -4 -14 -13 -18l-3 -52v-21c13 -3 29 -9 49 -16c1 -1 14 -15 37 -40c1 -7 3 -13 7 -18c23 -86 23 -93 23 -212c-3 -11 -11 -44 -12 -50c5 -26 5 -27 5 -45c0 -38 2 -39 27 -57
c0 -61 1 -75 15 -157c15 -36 15 -43 15 -57c3 -3 5 -8 8 -15c19 9 29 24 30 45c2 2 4 3 7 4c4 5 8 10 11 17c0 21 23 38 44 38c14 0 26 -20 26 -34zM742 542v7c-7 11 -18 28 -32 51l-7 2l-2 -5c15 -22 18 -27 41 -55zM746 535l-2 3l-2 -2l2 -3zM615 563h-3l-2 -8h3zM760 337
c-1 0 -3 1 -4 3c-5 0 -9 2 -12 8c4 4 4 4 4 5v116c-5 8 -5 8 -5 9c-10 64 -52 127 -81 127c-6 0 -21 -12 -24 -20l-14 -48c-8 -26 -18 -81 -18 -103v-100l19 -2v6c-3 1 -4 1 -7 14v79c1 3 3 8 7 15c-1 0 -2 0 -3 2h2c4 72 13 89 42 89c45 0 55 -50 61 -151
c-6 -14 -7 -18 -7 -19s2 -12 5 -30h35zM711 435v14c-3 2 -4 3 -4 22c0 8 -22 51 -41 51c-22 0 -36 -56 -36 -146c0 -3 4 -20 7 -34c0 -3 -2 -5 -7 -8l13 -2l15 7c8 -4 9 -4 13 -4c0 1 16 1 35 2c4 14 5 33 5 78l-16 -7c-3 0 -10 5 -19 14c-3 -7 -6 -11 -10 -11
c-13 0 -20 8 -20 23c0 9 5 13 16 13c9 0 14 -7 15 -20c7 11 14 17 21 17c3 0 8 -3 13 -9zM595 386v8h-3v-8h3zM939 43c0 9 -5 14 -15 14c-1 0 -1 0 -7 -2v-7c0 -4 2 -8 5 -11c3 -1 5 -2 5 -4h10zM595 365v11h-3v-11h3zM754 285v7c-4 3 -12 5 -23 5h-38l-27 -8l-9 3h-35
c-4 0 -13 -3 -31 -8c-3 -4 -5 -7 -5 -9l59 -2c62 12 77 14 83 14c3 2 5 3 7 3c9 -5 10 -5 12 -5h7zM917 24c-3 3 -8 9 -13 16h-6c-3 -5 -4 -9 -4 -11c0 -9 3 -13 10 -13c5 0 9 3 13 8zM760 266c-15 5 -25 7 -31 7c-89 -15 -90 -15 -147 -16v-8c11 -5 17 -5 29 -5l147 9
c1 6 2 12 2 13zM758 232c-11 5 -24 7 -41 7l-88 -9h-47v-15h31l25 4c30 7 31 7 118 10zM287 600c-3 49 -4 49 -12 49h-19v-40c0 -9 6 -13 18 -13c4 0 8 1 13 4zM754 101v53c-9 0 -18 18 -18 32c0 10 3 18 8 24c-27 3 -44 4 -52 4c-6 0 -36 -5 -89 -14l2 -12
c0 -14 -16 -33 -30 -34l-4 -76c0 -3 1 -10 3 -20c0 -35 3 -40 36 -42c8 -4 8 -4 10 -4h4c35 -7 37 -7 39 -7h23c30 0 31 0 65 23v71c1 1 2 2 3 2zM506 569c0 21 -4 32 -12 32c-21 -4 -32 -5 -36 -5c-18 4 -18 5 -44 7c-21 0 -46 -1 -75 -4c-39 -12 -91 -19 -126 -19
c-14 0 -15 0 -62 11l-98 -2c3 0 3 -1 3 -19c0 -26 -1 -94 -4 -202c11 -4 12 -6 12 -11c6 -8 10 -9 39 -9l90 -1c7 0 22 2 46 6l41 -2c2 0 10 2 19 5c6 -2 10 -3 12 -3c12 0 43 4 84 10l65 -2c17 0 28 1 35 4c6 64 11 162 11 204zM830 -66c-5 5 -7 9 -7 13h-6
c-6 -3 -9 -8 -9 -13c2 -10 5 -15 10 -15c2 1 6 6 12 15zM728 -45c-12 0 -12 0 -40 -7h-29c-1 0 -25 2 -41 4c-9 -1 -14 -6 -14 -13s4 -10 12 -10c107 0 112 6 112 26zM299 273l-3 6c2 8 3 16 3 23c0 13 -3 25 -8 38h-21c-3 -4 -5 -9 -5 -16c0 -8 1 -22 3 -42
c0 -9 -2 -20 -6 -36c1 -11 4 -26 11 -43c6 1 14 2 23 5zM371 174c-15 6 -24 9 -26 9l-6 -2c2 -3 4 -12 5 -27h6c7 4 14 11 21 20zM327 163v6h-3v-6h3zM295 164c-6 14 -7 19 -7 24c-28 -3 -32 -5 -32 -18c0 -17 2 -28 5 -33l20 2c10 1 14 18 14 25zM309 17l-12 53
c1 3 2 7 3 12c0 6 -1 11 -3 17c2 3 3 5 3 8c-3 5 -5 11 -5 17c-13 -3 -15 -3 -29 -3v2l-1 -82l-3 -29c0 -8 7 -12 21 -12h13c9 0 13 6 13 17zM699 378c0 -7 -3 -10 -9 -10c-15 0 -28 1 -37 4c10 7 20 10 30 10h14c1 -1 2 -2 2 -4z" />
</svg>