<?xml version="1.0" encoding="iso-8859-1"?>
<!DOCTYPE svg PUBLIC "-//W3C//DTD SVG 1.1//EN" "http://www.w3.org/Graphics/SVG/1.1/DTD/svg11.dtd">
<svg width="100.0" height="100.0" version="1.1" xmlns="http://www.w3.org/2000/svg" xmlns:xlink="http://www.w3.org/1999/xlink">
<path fill="#00f0ff" transform="scale(.1,-.1) translate (0, -800)" glyph-name="m" unicode="m" horiz-adv-x="582" 
d="M572 114l-5 -30l2 -2c0 -59 -9 -72 -87 -157v-14c-7 -7 -10 -12 -10 -15s1 -5 3 -7c-3 -6 -4 -9 -4 -10c0 -4 1 -12 5 -32c0 -13 -5 -19 -15 -19c-2 0 -6 3 -12 9c-10 -27 -11 -28 -20 -28c-10 0 -11 6 -15 47c-13 -24 -21 -36 -25 -36c-7 0 -10 7 -10 20c6 26 6 26 6 30
c-2 -3 -10 -10 -13 -11c-2 -7 -8 -11 -18 -11c-5 0 -13 7 -13 12s4 15 11 28c8 13 12 23 12 30c-3 2 -4 2 -41 8c-14 -14 -29 -21 -44 -21c-31 0 -59 31 -59 58c0 2 1 4 2 5l-2 4c2 2 3 2 3 4c0 1 -1 3 -3 4c0 1 0 1 4 9c0 2 -4 3 -22 6c-15 0 -16 -1 -16 -60
c0 -6 0 -7 48 -10c-1 -5 -6 -7 -16 -7h-35c-5 0 -7 4 -7 13c0 5 1 10 5 29l-1 11c-10 1 -13 3 -13 12c-4 -4 -7 -6 -8 -6c-3 0 -6 1 -9 4l-8 -8l-12 2l-11 -4l-3 2c-7 -5 -7 -5 -10 -7c-1 0 -1 0 -4 1c0 -9 -1 -13 -5 -35h-5c-3 3 -4 7 -4 11s1 9 5 27c-3 8 -7 18 -7 19v17
l5 3c0 -1 11 -6 39 -7c18 0 27 7 27 21c0 5 -1 8 -2 8c-32 -19 -34 -19 -77 -19v5c44 0 57 8 71 21l8 4v13h-2c3 0 4 0 4 -1c0 -5 -59 -25 -91 -25l-2 -2c4 -6 10 -15 18 -28l-2 -4c-15 4 -54 84 -54 104c0 3 1 5 4 8c-10 14 -15 30 -15 49c0 27 1 30 18 48
c15 42 17 46 30 74l31 29c0 4 3 10 10 18c5 1 38 9 53 13c1 0 3 -1 4 -3v24c0 8 2 22 13 22l12 -2c13 0 15 10 15 112c-19 0 -26 6 -28 22c0 2 1 4 11 23l-1 22v-2c1 0 2 14 4 40c-2 5 -2 8 -2 9l8 94c-7 8 -7 11 -9 13c0 11 4 17 12 17c12 0 18 -4 18 -13
c0 -8 -4 -15 -12 -21c-3 -14 -5 -23 -5 -28v-35c0 -1 -1 -2 -4 -5v-36l-3 -23c1 -2 1 -11 2 -27c1 -1 4 -2 9 -4c4 105 21 122 124 138c28 0 45 -15 66 -62v-51c0 -1 1 -8 3 -19l10 1c7 0 9 1 9 13v35l2 4c-1 0 -1 1 -2 4c3 6 11 62 11 116c-6 12 -7 16 -7 17
c0 3 7 21 11 21c9 0 14 -5 14 -15c0 -3 -4 -10 -11 -23v-14c-2 -3 -3 -8 -5 -14v-21l-8 -124c11 -11 16 -18 16 -24c0 -21 -11 -28 -40 -30c-1 0 -5 -44 -5 -45v-71h17l3 -41c0 -1 -1 -2 -5 -8c0 -1 1 -3 2 -5c48 -10 53 -12 77 -41c0 -1 1 -3 3 -6c39 -29 50 -45 65 -103
c1 -1 3 -2 6 -4c-1 -3 -2 -5 -2 -6c12 -24 13 -27 15 -45zM203 -108c0 -9 -4 -14 -12 -14c-2 0 -4 1 -5 2c-4 -10 -7 -15 -9 -15c-1 0 -6 4 -15 12c0 -27 -3 -34 -12 -34c-5 0 -10 8 -15 23c-2 -19 -6 -32 -12 -39c-20 0 -21 0 -28 51c0 13 1 19 5 50c4 -95 5 -95 16 -95
c4 0 4 0 18 64l2 -1v-12c3 -3 4 -4 12 -34c6 3 6 4 6 58l3 2c17 -33 18 -36 18 -38c1 0 1 4 4 19c-1 4 -3 11 -4 20h6c2 -14 2 -15 10 -24h3c0 16 0 21 -3 24v4l6 1c4 -9 6 -17 6 -24zM437 733v6l-5 3c-2 -1 -2 -1 -5 -2v-6c1 -2 4 -3 7 -4zM427 516c0 8 -10 20 -17 20
l-15 -5v-31h15c11 0 17 5 17 16zM383 575v33c-1 0 -7 21 -8 24l-3 3c-6 16 -32 32 -49 32c-50 0 -83 -15 -100 -46l2 -4c3 3 6 6 11 9v5c22 18 67 32 70 32c1 0 2 -1 4 -3c50 -4 69 -26 73 -85zM208 711c0 8 -1 9 -7 9l-6 -1v-8h13zM387 534c-1 3 -2 16 -4 39
c-2 -4 -3 -6 -3 -23l-2 -28l5 -4c-5 -21 -5 -21 -3 -33c1 1 1 1 1 2l-5 -20l3 -8l-8 -26c0 -1 2 -7 5 -15c0 -11 -1 -18 -4 -20c1 -2 2 -4 2 -6s0 -3 -6 -16l11 1zM367 519v-2c-9 49 -25 70 -55 70h-5c-1 0 -9 1 -23 4c-24 -4 -40 -16 -40 -31h-5c-7 -11 -7 -14 -7 -60v-25
c13 -38 38 -57 76 -57c31 0 50 41 57 88l-1 2zM494 251c-3 -5 -6 -10 -11 -16v-6c8 7 11 10 11 22zM399 325v2h-6v-2h6zM223 615l-3 -1c0 -11 -1 -15 -6 -28l1 -23c-2 -10 -3 -14 -3 -17c0 -1 0 -1 2 -7l-3 -18l1 -47c-1 -10 -6 -83 -6 -86c0 -4 1 -7 3 -9c0 21 1 24 10 54
v31l-5 53zM204 513v17c-1 0 -4 0 -9 2c-7 0 -11 -5 -11 -15c0 -11 4 -17 12 -17c5 0 8 4 8 13zM342 378c-10 20 -10 21 -10 34c-7 -2 -15 -3 -23 -3c-32 0 -33 1 -51 12c-1 -18 -2 -22 -7 -42c0 -2 0 -2 1 -5h90v4zM480 263c0 15 -3 17 -36 36l-2 -2l-34 12
c-3 0 -4 -2 -4 -6l16 -137c2 0 6 4 26 46c34 48 34 48 34 51zM247 427v4h-2v-4h2zM516 238c-5 7 -9 10 -11 10s-4 -1 -5 -3c-9 -26 -52 -79 -69 -85v-6c0 -4 0 -5 4 -9c48 46 52 50 81 93zM534 204c-2 1 -6 3 -9 7c0 3 1 6 2 8c-1 2 -3 5 -4 10c-41 -57 -66 -86 -85 -91
c1 -3 2 -5 3 -6c18 0 41 15 83 57c1 3 2 7 5 12c2 0 4 1 5 3zM541 186c-2 3 -3 6 -3 9c-24 -30 -36 -38 -85 -72v-3c0 1 5 2 44 16c3 7 12 18 44 50zM383 353c0 9 -3 14 -9 14l-14 -5l-81 2c-4 0 -14 1 -26 3c-4 -3 -4 -3 -5 -3c-3 0 -12 3 -14 4l-34 3l4 -30
c3 -1 6 -2 10 -2l142 4c1 0 3 0 15 -2c8 0 12 4 12 12zM565 116c0 16 -8 30 -17 30c-41 -24 -41 -25 -90 -43l5 -8l87 -7c8 0 14 9 15 28zM449 181l-2 1l-1 -4zM375 331c-33 4 -38 4 -51 4l-108 -6c12 -2 22 -3 26 -3c2 0 6 1 12 3l56 -6c3 0 53 4 65 8zM555 47v4
c-6 -1 -11 -2 -15 -2c-7 0 -14 2 -67 19c-6 0 -12 -1 -19 -4c12 -14 48 -33 61 -33l25 1l2 -2c-3 -5 -6 -7 -9 -7c-17 0 -30 2 -39 6l-42 23c-1 0 -2 -1 -3 -2c35 -42 44 -45 74 -45c0 4 0 4 -2 9l2 1c4 -1 6 -4 6 -9c0 -6 -4 -9 -12 -9c-25 0 -28 2 -69 41
c-4 -11 -6 -17 -6 -18c0 -17 33 -45 53 -45c3 0 5 1 6 2l-2 7h3c4 -3 6 -6 7 -9c13 0 46 51 46 72zM397 198v13h-16c0 4 5 7 14 8c-2 3 -3 7 -3 12c-5 0 -10 1 -13 4v3c10 2 11 2 12 3v4c-3 1 -8 3 -13 7c-1 5 -2 6 -11 22v5c-4 3 -7 9 -8 17c-4 1 -8 5 -12 10l-11 -1
c-3 0 -8 3 -13 10c-15 0 -16 0 -79 8c-4 0 -9 -1 -15 -2l-1 -7h-8c2 -2 4 -4 4 -5c-1 -2 -2 -5 -3 -8c2 -1 4 -3 5 -5c-2 -4 -2 -6 -2 -7l2 -2v-18c-1 -4 -1 -9 -1 -11c2 -5 4 -16 4 -17c0 -3 -1 -6 -4 -9c0 -5 0 -7 -13 -32c1 -1 2 -4 3 -7c-4 -9 -6 -16 -6 -21
c0 -6 1 -16 3 -23c7 -8 12 -15 15 -22c2 -9 8 -16 17 -23c0 -17 0 -18 -12 -37v-7c3 -1 4 -1 12 -38l8 -7c4 0 6 -1 8 -2v-8c18 5 19 5 48 5h24c8 0 15 2 22 7c-6 0 -14 2 -24 5c31 5 31 5 31 9c0 3 -28 9 -29 9v4c1 3 3 4 5 4c10 -3 22 -7 25 -7s5 3 8 8
c-28 8 -28 9 -28 12c0 4 2 6 7 6c11 -4 18 -7 20 -7c4 0 7 4 8 13h-25c-2 2 -3 4 -3 7h21c12 2 12 3 12 11l-24 3l-3 3c1 2 2 4 5 6c10 0 13 0 27 -4c0 4 2 8 4 14c-1 3 -2 5 -2 11c1 1 2 4 2 7c-1 -1 -2 -2 -5 -2c-5 0 -11 1 -18 2l-4 4c4 3 6 4 7 4c5 -2 8 -2 9 -2
c2 0 3 1 8 3c1 0 1 0 4 -1c1 5 2 8 2 11c-14 1 -23 4 -26 8c2 3 4 4 5 4c2 -1 11 -4 14 -4l9 1v10c-15 0 -18 1 -22 6c1 3 3 5 5 5c1 0 1 0 13 -4c3 0 4 5 4 14c-8 0 -12 3 -12 8v2zM453 86c-5 6 -5 7 -6 27l-2 2c-4 0 -10 6 -33 30c-3 -14 -3 -15 -18 -54
c0 -4 -1 -9 -2 -15c-6 -6 -12 -49 -12 -95l-1 -9v-25c10 6 16 11 20 16v8c8 9 9 9 16 10v18c4 3 9 10 14 21c-1 1 -2 3 -2 7c4 2 8 2 9 2c4 19 4 22 17 57zM498 -33c-17 1 -31 7 -43 18l-18 24l-10 -18c0 -18 29 -38 61 -38c3 3 6 8 10 14zM453 -50c-16 12 -18 14 -31 34
c-2 -3 -3 -6 -3 -8c0 -9 23 -26 34 -26zM178 305c0 11 -4 20 -11 27c-3 -5 -6 -7 -9 -7s-6 1 -9 3c-4 -3 -4 -3 -7 -5h-8l-2 -2c-19 0 -28 -6 -28 -17l17 -36l51 -78l3 3l1 105c1 2 2 6 2 7zM406 -34l-3 -3zM166 179l-69 116l-12 -9c5 -3 8 -9 8 -18c17 -37 37 -64 61 -80
c1 -1 2 -2 2 -4c-1 -3 -3 -5 -6 -5c-7 0 -27 27 -57 69c-4 13 -7 25 -10 37c-9 -7 -18 -22 -27 -43c3 0 4 -1 5 -2l7 -18v-7l13 -8c0 -2 0 -2 -1 -4h6c-15 22 -22 40 -22 53c0 3 1 5 4 6c2 -2 4 -3 4 -5c11 -51 44 -85 67 -85l3 -10c-1 0 -1 0 -1 -4h4c10 7 17 14 21 21z
M371 -70v62h-6c-1 0 -4 2 -7 6h-27l7 -36l-8 -26c16 -5 28 -8 35 -8c3 0 5 1 6 2zM120 171c-3 5 -8 8 -13 11v-5c7 -4 12 -6 13 -6zM470 -152c-1 2 -3 11 -7 26v14l-73 51c-6 1 -10 2 -12 3c0 -7 -1 -17 -4 -30l-25 -51c0 -3 2 -5 7 -5c10 0 13 4 15 11c13 15 21 22 25 22
c1 0 2 -1 3 -2v-3c-1 -1 -2 -2 -4 -3c1 -2 2 -3 2 -4c-7 -16 -11 -27 -11 -32v2c1 -2 1 -5 1 -12c3 -2 5 -3 6 -3c22 45 26 53 30 53c1 0 2 0 3 -2v-3c-6 -2 -7 -6 -8 -14c0 -1 0 -1 4 -5c0 -11 1 -25 3 -43c2 -1 4 -2 6 -4c7 7 10 21 11 44c0 2 1 2 2 3c5 0 5 -2 5 -11
c2 -3 5 -7 10 -13l4 -1c5 0 7 4 7 12zM91 198c-1 1 -2 2 -2 3c-1 0 -2 -2 -3 -6c3 1 4 2 5 3zM193 47l-20 107v15h-4c-1 -3 -8 -8 -21 -15v-5c4 0 6 -2 6 -5s-2 -6 -7 -7c13 -22 15 -27 15 -64l5 -42c0 -19 0 -19 12 -38c1 4 4 7 9 8c0 12 0 19 5 37v9zM140 145
c-3 3 -6 5 -8 5c-1 0 -3 0 -11 -2c-5 0 -57 25 -74 46h-4c-9 0 -13 -15 -13 -44c0 -18 3 -27 10 -27c21 0 22 0 70 14c3 3 4 4 30 8zM318 -63c-9 -3 -19 -5 -26 -5c-4 6 -18 26 -18 28c-4 3 -8 6 -11 11c-5 2 -8 5 -8 8c0 2 1 7 4 16h-7c-4 -3 -6 -8 -6 -15l6 -9h5
c0 -9 0 -13 9 -15v-7c2 -1 4 -2 4 -5c10 -1 12 -3 12 -13c3 -2 5 -4 5 -5c-2 -5 -2 -8 -2 -9c17 0 23 4 33 20zM125 113v-1l-3 1l-9 -6c-4 0 -8 1 -11 3c-5 -4 -11 -8 -17 -15c10 2 23 8 40 18zM154 93c0 2 0 3 -7 26c-5 -5 -33 -23 -55 -29l-41 -10c-2 2 -5 4 -10 7v-5
c2 -1 6 -6 11 -16c60 0 69 0 96 25zM75 92l2 2c0 2 -1 2 -2 3c-2 -2 -4 -3 -7 -3zM155 72l-1 10h-5c-21 -15 -53 -24 -94 -27c2 -6 5 -15 10 -27c3 10 3 10 18 10c27 0 72 21 72 34zM179 -24v6h-4c1 -3 2 -5 4 -6zM352 503c0 -11 -4 -17 -12 -17c-18 0 -27 4 -27 13
c0 19 8 27 25 27c9 0 14 -8 14 -23zM286 471h-4l-2 21c7 9 7 9 8 27c1 1 4 1 8 2c0 -14 -4 -45 -10 -50zM282 515c0 -11 -9 -19 -23 -19c-9 0 -20 16 -20 28s5 18 16 18c4 -4 5 -5 7 -5c3 2 4 2 6 2c9 0 14 -8 14 -24zM330 455c0 -3 -31 -22 -37 -22c-13 0 -36 19 -36 32
c0 3 2 5 5 5c10 -14 22 -25 30 -25c2 0 6 2 33 15c3 0 5 -2 5 -5zM366 216l-5 -31h-6c-1 5 -3 14 -7 24h-2c-11 -17 -18 -26 -21 -26c-3 1 -3 1 -10 3c0 29 23 88 35 88c7 0 10 -11 15 -47l-1 -7c0 -1 1 -3 2 -4zM351 163c-7 -14 -8 -14 -13 -14s-7 4 -7 12c0 10 4 15 11 15
c6 0 9 -4 9 -13zM387 114l-6 -3h-20l-2 4c2 3 6 4 13 4h15v-5z" />
</svg>