<?xml version="1.0" encoding="iso-8859-1"?>
<!DOCTYPE svg PUBLIC "-//W3C//DTD SVG 1.1//EN" "http://www.w3.org/Graphics/SVG/1.1/DTD/svg11.dtd">
<svg width="100.0" height="100.0" version="1.1" xmlns="http://www.w3.org/2000/svg" xmlns:xlink="http://www.w3.org/1999/xlink">
<path fill="#00f0ff" transform="scale(.1,-.1) translate (0, -800)" glyph-name="o" unicode="o" horiz-adv-x="862" 
d="M852 716l-8 -82c0 -15 -1 -17 -4 -20c-5 0 -5 0 -33 12l-4 -2l-75 21c-7 -5 -11 -7 -12 -7s-8 1 -10 2c-10 0 -63 -35 -63 -41l2 -7c-3 -6 -4 -10 -4 -11s1 -2 3 -3c5 -18 12 -45 21 -81c16 -3 23 -11 23 -22c0 -19 -4 -22 -25 -24c-1 -1 -2 -3 -5 -4
c-21 -10 -55 -39 -70 -71c-7 -6 -10 -7 -22 -7l-10 -1l-4 -126v3c-1 0 -2 -6 -6 -42l1 -46c16 -27 17 -29 17 -36c-4 -4 -16 -6 -35 -7c-29 0 -31 -4 -43 -40l-17 -34l-3 -12c-3 -1 -5 -2 -6 -2c-2 1 -2 1 -6 2c-11 -32 -14 -41 -15 -48l-3 -3l-7 -53c0 -10 5 -18 16 -23
c0 -52 -12 -70 -49 -70c-5 0 -9 1 -12 3l-16 14c-7 7 -11 14 -11 23c0 6 2 14 6 23c12 15 15 23 15 33c0 48 -15 105 -27 105l-4 -2c-5 0 -8 3 -9 10c0 18 -2 27 -23 84c-2 3 -7 4 -17 4h-4c-15 3 -17 4 -34 15v-2c2 14 7 19 19 33v100c1 1 1 1 2 4l-2 7c1 0 2 2 2 4
s-1 4 -2 6l4 12v65l-11 -1c-5 -14 -6 -20 -6 -75c0 -6 -5 -13 -15 -21c-21 0 -21 6 -21 29c-10 13 -11 15 -60 70l-20 -88c5 -9 5 -10 7 -26c8 -4 15 -12 54 -54c-2 -5 -2 -5 -36 -27c-10 -11 -23 -24 -40 -39c-1 1 -2 2 -4 2l-1 6c35 51 35 52 35 56c0 7 -27 34 -33 34
c-7 0 -23 -15 -23 -18v-41l9 -25c0 -5 -3 -7 -8 -7c-3 0 -7 8 -12 24s-17 30 -35 43v6c13 7 29 19 46 37c2 2 5 3 8 3c24 63 25 89 25 146c6 1 7 3 7 13c9 5 16 7 19 7c9 0 27 -25 72 -101h2c3 4 4 9 4 51c0 30 8 46 23 46c3 -2 5 -3 7 -3c1 4 4 8 7 11c0 11 10 20 31 34
c-5 6 -14 35 -14 43v34c0 6 10 25 20 46c34 31 53 34 107 42c0 19 -4 25 -14 37c-3 0 -6 1 -10 2l-5 21c2 3 3 7 6 20c19 17 31 25 36 25c33 0 38 -11 44 -44c0 -13 -9 -25 -26 -36v-25c61 -25 71 -43 82 -114c0 -17 -4 -32 -11 -44c4 -8 22 -33 29 -41v-14c1 1 3 2 5 5
c3 0 8 1 14 3c1 0 1 0 11 -6c42 40 50 47 55 50c3 9 8 18 17 28c0 8 -20 68 -30 72v-2c0 -11 3 -20 23 -71c0 -1 -1 -3 -3 -5h-5c0 2 -2 3 -4 5v4c0 5 -3 12 -9 21c-4 21 -8 36 -11 45c-4 3 -9 9 -16 17c0 21 4 28 23 35l4 -2v6c14 8 36 23 66 45v3c22 13 23 13 24 41
c0 9 -1 15 -3 18c2 6 5 9 9 9h2c28 0 70 11 88 21c2 0 4 -1 6 -3v-7c-44 -31 -45 -31 -55 -35c-11 -7 -17 -20 -17 -38c0 -1 1 -3 4 -5l65 -17c16 68 17 70 24 70c5 0 7 -2 7 -7zM838 674h-2l-2 -10h3zM794 739c-22 0 -46 -6 -64 -17v-42c4 0 7 -1 10 -3c3 39 4 40 15 41
c10 2 25 10 39 21zM833 640c-9 0 -40 10 -71 20c-2 0 -9 -2 -20 -5c5 -10 68 -23 80 -23c7 0 10 3 11 8zM701 650v3h-5c-15 -9 -36 -22 -64 -38c2 -2 4 -4 7 -5zM467 699c0 6 -5 8 -7 8c-4 0 -10 -2 -18 -7v-13l9 -5c11 11 16 16 16 17zM449 640c0 2 -1 4 -2 5
c-5 -5 -7 -8 -7 -10v-7c6 2 9 6 9 12zM428 601c0 5 -1 11 -3 17c-1 -4 -4 -13 -5 -13zM433 591c0 2 -2 4 -5 7c-5 -11 -7 -17 -7 -19c0 -1 1 -3 2 -4c7 9 10 14 10 16zM485 523l-2 1l-2 -4zM474 533c-1 1 -2 2 -2 5h-11l9 -7c2 0 3 0 4 2zM422 566v5h-2v-5h2zM461 541
c-23 8 -38 12 -44 12l-10 -3h20c8 -5 8 -5 34 -9zM487 484h-2l-1 -4l2 -1zM368 603c-5 -1 -9 -4 -12 -7c3 -3 5 -4 6 -4c1 3 3 6 6 11zM523 434v4h-3v-4h3zM367 585h-2l-3 -11h2zM457 490l-6 6c-3 -1 -6 -4 -9 -7c4 -4 7 -6 8 -6c3 1 5 4 7 7zM504 422c0 -1 -1 -1 -3 -1
l3 -3v4zM369 546l-2 16c-3 -1 -6 -9 -6 -17zM384 539l-1 2l-8 -4l1 -2zM494 428c-2 -1 -4 -2 -9 -2c-11 -18 -12 -20 -12 -28c4 0 8 2 15 4c3 7 5 15 6 26zM402 494c-3 6 -6 9 -9 9s-7 -2 -11 -6c5 -5 9 -7 14 -7c3 0 5 1 6 4zM370 525v6c-8 -7 -8 -11 -8 -19zM451 435l-2 1
l-2 -3l2 -1zM475 437l-6 -3c-3 -8 -8 -20 -13 -36h4c3 2 3 3 16 32zM360 510h-2l-3 -7h2zM455 424c-4 -6 -9 -15 -15 -27h5c1 2 5 11 10 27zM439 412v2h-3v-2h3zM358 483l-1 17c-1 -3 -2 -5 -2 -8c0 -2 1 -5 3 -9zM370 465c-2 6 -5 10 -9 13v-6c3 -2 5 -5 6 -7h3zM429 437
c-14 0 -17 -3 -29 -35h8c5 5 12 17 21 35zM407 431v5h-6c-10 -17 -15 -27 -15 -29c0 -3 2 -5 5 -5c7 12 11 21 12 27c1 0 2 1 4 2zM391 440l-21 -27v-8h7c13 18 14 22 14 35zM379 445c-4 -4 -16 -23 -16 -29v-4c6 11 12 22 16 33zM367 449c-24 -27 -24 -28 -24 -29l4 -8
c8 7 15 20 20 37zM332 440c-17 -8 -17 -9 -17 -20h7c5 8 8 15 10 20zM337 424h-2l-3 -9zM322 447c-2 0 -2 1 -3 2c-3 -3 -7 -6 -14 -9l-1 -13c9 11 15 18 18 20zM546 294v118h-5c-27 -17 -73 -28 -93 -28c-53 0 -136 17 -154 34l-3 -129l-3 -66l-1 -37c3 -23 17 -31 88 -47
l58 -14c36 0 63 8 77 22c2 -2 2 -2 3 -2c2 0 6 4 20 18v10c-1 -3 -3 -5 -6 -5l-8 3v6l10 2h3zM259 334v33c-5 -23 -8 -37 -8 -44c0 -3 1 -4 2 -4c5 0 6 11 6 15zM485 103c-5 -3 -6 -5 -17 -29l2 -6c6 11 7 13 15 35zM229 324c-10 20 -25 42 -44 65c0 -1 -1 -3 -4 -9
c0 -4 16 -23 48 -56zM470 102h-4c-3 -12 -7 -28 -11 -51c7 20 12 37 15 51zM457 95l-2 7c-5 -2 -10 -16 -16 -43c-1 -2 -2 -3 -3 -3v-9h7c4 12 9 28 14 48zM411 99l-4 2c0 -7 1 -10 4 -24v22zM423 100l-11 -54h8c3 16 3 18 3 54zM398 83v6h-2v-6h2zM160 376c0 2 -2 4 -7 6
l-17 -95h5c11 15 16 39 16 72c0 3 1 8 3 17zM401 73l-4 -4l2 -1zM390 59c-4 27 -5 39 -5 44l-2 2c0 -17 0 -22 4 -59c2 3 3 8 3 13zM349 112c0 1 -1 2 -3 3v-6zM332 114v7c-2 0 -2 -1 -3 -2c1 -3 2 -4 3 -5zM375 71v5h-3v-5h3zM366 85l-4 -3l2 -1zM376 66v3h-2v-3h2z
M335 101l-1 8h-2l1 -8h2zM376 55v9h-2v-9h2zM357 60c0 14 -4 29 -10 38v-13c0 -3 3 -12 10 -25zM400 32c0 1 -1 3 -3 3c-1 0 -2 -1 -3 -3h6zM442 29c0 3 -2 5 -6 5c-1 -3 -5 -5 -10 -6h-7c-3 0 -4 1 -4 3v3c-2 -1 -4 -1 -5 -3c0 -15 0 -23 1 -23v2c5 1 8 2 11 2
c7 -1 10 -4 10 -7v3c-2 0 -3 -4 -8 -35c3 5 6 13 10 24c0 10 5 32 8 32zM360 44v6h-2v-6h2zM191 206c-34 41 -37 45 -43 45l-3 -6c0 -10 18 -28 36 -36v-4c-5 -3 -10 -11 -15 -23c17 12 25 20 25 24zM425 -29c-15 -28 -15 -31 -15 -52l6 2zM118 247c-3 0 -15 -9 -38 -28v-5
c4 -7 11 -14 20 -25c0 19 -3 31 -7 31zM436 -121c0 19 -1 20 -28 24l-5 -1c5 -5 8 -9 8 -11c0 -1 -1 -3 -4 -6c1 -3 3 -9 4 -18l20 -5c4 10 4 14 5 17zM373 -113l-3 -3zM371 -116h-2l-2 -9h2zM534 354l-4 -8c0 -73 -5 -84 -14 -84l-28 1l-27 -8c-7 0 -13 2 -16 6
c-2 61 -2 66 -5 85c0 6 2 9 6 9c3 -2 7 -3 8 -3c2 0 3 1 5 3c4 0 17 -3 20 -4l46 10c6 0 9 -2 9 -7zM319 380c0 -5 -3 -8 -9 -8c-4 0 -6 2 -6 7s3 7 9 7c4 0 6 -2 6 -6zM510 159c-2 -5 -6 -8 -11 -8s-7 2 -7 6c2 6 2 6 2 7l6 1c3 0 7 -2 10 -6zM315 338l-4 -1c0 1 -2 2 -6 4
c1 2 3 4 6 7c1 -1 2 -2 4 -3v-7zM472 149c-2 -5 -3 -5 -14 -5v12l4 1c0 -1 4 -4 10 -8zM317 297c-3 -3 -6 -4 -9 -4l-4 5c0 5 2 8 7 8c2 0 3 -2 6 -4v-5zM441 144c-6 -6 -10 -9 -12 -9s-5 1 -8 4v8c4 2 8 2 9 2h-2c0 -1 5 -3 13 -5zM314 262l-5 -3c-3 0 -5 3 -8 9
c3 3 4 3 13 3v-9zM415 143c-1 -1 -2 -2 -2 -3h-10c-3 3 -4 5 -4 7c0 4 2 6 7 6c6 0 9 -3 9 -10zM314 235l-6 -6h-4c-2 2 -3 4 -3 5c0 5 2 7 7 7zM389 176c0 -17 -5 -25 -14 -25c-15 0 -27 4 -51 16c-24 0 -30 2 -30 11l7 19c-2 2 -3 3 -3 4v7h3c3 0 4 -1 17 -6
c36 -15 37 -16 66 -19c3 -2 5 -4 5 -7zM519 313v35h-4c-13 0 -26 -3 -54 -9v-6l9 5c1 -1 5 -2 10 -5c4 3 8 4 12 4c2 0 5 -5 10 -16c5 0 8 -1 10 -2c-1 -2 -2 -5 -2 -8l-21 -3c-1 0 -5 2 -12 6v-9c5 -1 14 -3 24 -7v-7c-1 -1 -3 -2 -4 -2c-2 1 -2 1 -6 2
c-9 -4 -17 -7 -18 -7c-2 0 -6 4 -11 11v-16h16c9 0 22 3 37 8zM370 170l-1 4c-6 1 -12 2 -18 2h2c0 2 -15 7 -44 15v-6c47 -19 53 -21 55 -21c4 0 6 2 6 6z" />
</svg>