<?xml version="1.0" encoding="iso-8859-1"?>
<!DOCTYPE svg PUBLIC "-//W3C//DTD SVG 1.1//EN" "http://www.w3.org/Graphics/SVG/1.1/DTD/svg11.dtd">
<svg width="100.0" height="100.0" version="1.1" xmlns="http://www.w3.org/2000/svg" xmlns:xlink="http://www.w3.org/1999/xlink">
<path fill="#00f0ff" transform="scale(.1,-.1) translate (0, -800)" glyph-name="p" unicode="p" horiz-adv-x="746" 
d="M730 461c-6 -23 -14 -44 -25 -63v-4c-3 -4 -5 -6 -7 -6c-14 6 -14 6 -15 6h-27c0 -1 -6 -6 -20 -14c-12 -3 -18 -8 -18 -16c4 -8 4 -9 6 -20c0 -25 -10 -35 -45 -59c-4 -2 -13 -3 -26 -3h-34c-9 6 -10 6 -14 6c-6 0 -10 -4 -13 -12c0 -18 -10 -65 -27 -122
c-9 -27 -15 -55 -19 -84c-3 -1 -9 -4 -16 -9c11 -11 17 -47 17 -69c0 -2 -10 -38 -20 -53c-2 -3 -11 -10 -27 -22c-3 0 -7 -2 -13 -5v-8l6 -11c0 -16 -4 -20 -37 -25c-15 0 -24 17 -24 27c0 14 1 15 11 21c-41 24 -63 52 -63 77c0 28 1 30 16 48c-9 18 -48 138 -69 238l-2 1
c-15 -7 -20 -9 -21 -9l-58 -10c-30 0 -72 27 -72 66c0 37 19 62 49 64c10 12 10 12 10 13c0 3 0 3 -18 30c-47 16 -47 16 -47 22c12 12 13 13 15 32c4 0 5 0 16 49c1 1 5 2 10 3c0 -25 -3 -55 -6 -55l8 -15c3 -1 9 -4 18 -9c2 5 9 9 26 16v4c-5 2 -10 3 -17 3
c-5 17 -11 65 -11 68s1 5 4 7h4c11 -26 20 -35 32 -41c7 -5 11 -8 11 -11l-13 -35c14 -8 24 -24 24 -34c0 -2 -1 -4 -6 -18c4 -22 4 -23 7 -29c0 -13 -12 -21 -21 -21l-3 2l-28 -14v-2c0 -3 -2 -6 -6 -8v-19c9 -9 13 -10 26 -10c5 0 9 3 14 9l6 9c1 0 2 0 2 -1
c14 8 17 9 23 9c4 0 8 -1 12 -3c3 2 4 5 5 8c8 7 20 23 47 67c1 3 4 5 8 5l28 -2h25c0 30 -10 68 -18 72c-5 12 -27 66 -37 94c7 2 28 15 39 23c-11 18 -11 18 -20 53c-1 6 -8 21 -19 45h-7c-7 8 -11 14 -11 17c0 8 11 20 18 20c2 0 12 -8 12 -15v-28c8 -14 8 -15 16 -52
c4 -10 10 -21 19 -35l72 -9h50c9 0 17 6 22 17c0 10 22 48 33 63l2 9c-5 7 -6 9 -7 11c0 5 6 11 19 18c9 0 13 -6 13 -18c0 -4 -5 -10 -16 -17c-1 -1 -31 -53 -43 -77h20c1 -3 2 -6 5 -10c-8 -10 -10 -17 -22 -76c-6 -6 -28 -85 -34 -110c0 -1 1 -2 2 -3h65c2 0 6 1 12 3
c2 0 4 -1 6 -2v-5c3 0 4 -3 4 -8c0 -4 -1 -7 -4 -8c0 -8 -1 -19 -4 -34c3 -3 5 -4 6 -4c2 1 2 1 5 2c2 -9 15 -15 36 -15c8 0 12 4 12 13v-1c-1 0 -18 40 -18 43c0 15 10 22 30 22c3 0 4 -2 4 -5s-2 -6 -6 -8c-2 3 -4 5 -5 5c-5 0 -9 -3 -11 -9v-2l2 2c26 0 38 -4 43 -16
c1 1 3 3 6 5c-19 11 -28 21 -28 28c0 12 10 21 36 31c5 22 6 26 6 40c2 4 4 6 7 6h-2c0 -1 7 -3 31 -6c38 9 49 11 56 11c5 0 8 -3 8 -9c-40 -18 -41 -19 -71 -40c0 -2 0 -3 -6 -18c0 -5 5 -8 16 -8c20 0 24 1 39 34l21 22c2 -1 2 -1 5 -2zM516 708c-1 3 -2 5 -5 5
c-4 0 -6 -2 -6 -5v-3c2 -2 6 -3 10 -4zM716 489c-8 -1 -32 -2 -32 -4l-41 -1c-2 -8 -5 -20 -10 -35c4 -2 10 -5 17 -10c1 6 9 25 13 29c22 4 31 8 53 21zM720 453c-5 -3 -13 -14 -22 -35c-1 -2 -4 -3 -7 -3s-5 1 -11 3c-3 0 -10 -1 -22 -3v-9c2 -3 6 -4 11 -4l28 -2
c16 31 16 32 23 53zM473 590c-2 -3 -4 -7 -8 -10v-4l6 1c0 2 0 7 2 13zM469 562v5h-4c-3 -3 -6 -6 -11 -9v-4c3 2 8 5 15 8zM463 548l-12 -4v-11c1 2 5 4 11 6zM278 723l-4 11h-4c-1 -3 -3 -6 -6 -9v-4c5 -3 7 -4 8 -4c4 0 6 2 6 6zM457 521v5c-2 -1 -3 -3 -5 -5h5zM601 384
c0 5 -16 10 -17 10c-8 -2 -9 -2 -16 -2c4 -7 7 -11 8 -11c3 0 12 1 25 3zM611 358c-2 5 -6 9 -11 16l-10 2c-7 0 -10 -2 -10 -7c0 -2 1 -4 3 -5c7 0 16 -2 28 -6zM613 332c0 17 -9 24 -28 24l-1 -8c8 -3 17 -9 26 -18c1 1 1 2 3 2zM449 501v3l-11 3c-5 -24 -6 -24 -8 -24
v-10c6 4 10 7 13 8l2 6h-8v8zM608 326v-1c-2 -2 -4 -3 -6 -3h-3c1 4 2 7 2 8c-10 8 -10 8 -18 8c1 -1 4 -12 9 -33c5 5 11 12 16 21zM584 312c0 10 -6 17 -17 22c2 -6 3 -10 3 -15c0 -11 -3 -20 -10 -27c14 0 14 0 19 2v7c4 7 5 10 5 11zM563 318c0 5 -2 8 -5 11h-4
c-3 -8 -7 -20 -11 -38h8c0 2 1 5 2 8c3 2 10 6 10 19zM505 366c-2 -2 -4 -5 -7 -10c1 1 3 2 6 2zM512 389c0 3 -1 4 -2 5c-9 -9 -30 -37 -45 -63c8 4 17 14 27 31c1 1 3 3 5 4c3 7 7 12 12 13c0 2 1 4 3 10zM437 466l-3 -1c-2 0 -4 2 -7 5c-19 -63 -21 -66 -23 -77l1 -3
c3 3 5 6 7 6l-3 5c6 5 10 7 12 7c-1 1 -2 3 -2 4c0 4 3 8 7 10l-1 4c-2 1 -2 1 -4 3c2 5 6 8 11 9v7c-3 -3 -5 -4 -6 -4c-3 0 -4 1 -4 4c15 16 15 16 15 21zM449 568c0 6 -24 9 -47 7l-19 -1l-98 8c0 -7 22 -60 32 -78c2 -10 6 -22 12 -38c2 1 6 2 7 2c20 -4 28 -5 32 -5
l26 7c4 0 6 -4 6 -11c-3 -3 -5 -5 -5 -6v-13c-4 -4 -5 -4 -48 -4c-5 0 -5 0 -14 20v-4c14 -71 14 -71 28 -71l23 -4c8 0 10 5 26 72c5 5 28 79 39 119zM543 311v-2c-1 0 -3 4 -5 11c-1 -3 -4 -12 -10 -28h5c2 6 3 8 10 19zM463 347h-7l6 -3zM470 323c-1 -1 -2 -2 -5 -2v-6
c1 1 3 3 5 8zM472 302c0 1 -1 3 -2 5l-10 -11c-2 -3 -4 -6 -5 -10c11 9 17 15 17 16zM483 289c-2 3 -5 6 -9 7c-10 -14 -15 -20 -23 -26v-11c4 2 8 6 14 11v5c3 4 10 8 18 14zM482 259l-1 -4zM477 278c-5 -9 -15 -19 -28 -30l-1 -7c9 9 14 13 17 13c1 0 3 -1 5 -3
c2 5 4 14 7 27zM481 253c-3 -8 -7 -24 -11 -47c3 9 6 24 11 47zM470 244c-1 1 -2 2 -5 2c-5 0 -8 -4 -25 -28c0 -2 -1 -5 -3 -8h3c26 22 30 27 30 34zM425 283c0 10 0 11 -45 13v-39c45 0 45 0 45 26zM168 501c0 5 -2 7 -32 37c0 -29 8 -46 29 -52v9c2 3 3 5 3 6zM464 222
c-26 -23 -26 -24 -28 -36c6 5 15 12 26 19c0 2 0 9 2 17zM423 249l-7 4c-7 -2 -30 -5 -36 -6l36 -1c1 1 4 2 7 3zM460 199c-8 -7 -14 -13 -18 -19c4 2 6 3 7 3c2 0 2 0 5 -1c-1 -2 -1 -3 -2 -3c-7 -4 -10 -8 -26 -31l23 14c-6 -9 -13 -17 -20 -24h-6v-10c9 8 15 12 16 12
c2 0 4 -1 6 -3c5 14 10 35 15 62zM120 450c-17 17 -17 17 -25 17c-3 2 -4 4 -4 5c1 2 3 11 9 37c-4 0 -5 -4 -12 -37l-5 -15c13 -11 19 -13 32 -13c3 0 5 2 5 6zM180 400l-5 17c-8 -1 -17 -4 -28 -10c5 2 11 3 17 3c2 0 7 -3 16 -10zM181 390c0 3 -17 13 -18 13
c-2 0 -4 -1 -7 -3c12 -4 19 -9 21 -15c3 1 4 3 4 5zM443 135c-7 -2 -16 -10 -25 -25c25 14 25 14 25 25zM170 381c-6 7 -11 10 -15 10c-1 0 -7 0 -13 -2c3 -1 8 -6 16 -14zM453 320c0 5 -1 8 -4 11l-163 12c-6 -2 -8 -3 -10 -3s-3 0 -6 2c-34 0 -38 -1 -51 -7
c4 -8 43 -141 55 -184c30 -77 35 -93 36 -96c29 -3 46 -5 51 -5c9 0 19 2 30 7c-4 4 -5 5 -5 9c5 4 8 10 11 18c2 15 6 36 13 65c20 61 28 98 29 108c0 -2 -2 -5 -5 -8v36c-2 -13 -3 -19 -3 -26l2 -4c-1 -2 -2 -5 -5 -7c5 0 7 0 8 -3v-4c-15 -2 -62 -5 -63 -5
c-3 0 -6 1 -8 4c5 7 7 25 7 53c-1 1 -1 2 -2 4c7 6 9 8 11 9l34 -5c1 0 1 0 9 4c8 0 9 -4 9 -11l6 1c3 0 5 -2 5 -6l-1 -19c7 31 10 48 10 50zM138 392l3 -3zM435 112c-8 -2 -13 -6 -25 -23v-4c15 8 16 8 25 15v12zM148 374c-4 5 -10 8 -19 8l-13 -2c5 0 21 -10 21 -13z
M428 78l-1 2l-6 -5l1 -2zM130 360c0 3 -4 6 -11 8c-7 3 -10 6 -10 9c-3 0 -6 -2 -8 -5c7 -3 16 -8 27 -17zM184 282c-6 9 -7 10 -10 28c-6 -3 -9 -8 -9 -13v-7l16 -10c1 0 2 1 3 2zM425 47c-1 1 -2 4 -2 5c-4 -1 -8 -2 -16 -2c1 -4 3 -7 5 -8c3 1 7 2 13 5zM432 30l-2 10
c-5 -1 -9 -4 -14 -7v-3h16zM123 342v4c-9 12 -17 16 -19 16c-6 -2 -10 -2 -11 -2c-4 -4 -6 -8 -6 -12c0 -1 1 -3 2 -4c3 1 14 8 18 9c5 0 10 -4 16 -11zM171 276c-11 4 -11 5 -11 34c-1 0 -3 1 -5 2c-5 -11 -7 -18 -7 -23s1 -10 4 -14l3 1l4 -4c4 0 12 1 12 4zM435 15l-1 6
c-1 2 -3 3 -6 3l-10 -2l1 -11c9 0 11 1 16 4zM113 338l-4 7c-5 -1 -10 -3 -13 -4c-1 -2 -5 -5 -13 -8v-8c6 4 17 8 30 13zM437 5c-2 -1 -7 -2 -15 -4l7 -1c5 1 7 3 8 5zM145 307l-7 -7c-5 0 -8 -8 -8 -24c0 -3 3 -5 9 -5l5 2c1 0 1 11 1 34zM137 315l-4 1
c-4 0 -15 -17 -15 -24c0 -1 0 -1 2 -6c-1 -1 -2 -2 -3 -4c2 -2 4 -3 7 -3zM116 326c-2 2 -4 3 -7 3c-10 0 -13 -5 -17 -16l-4 -6c0 -1 1 -2 3 -3c1 7 18 22 25 22zM436 -8l-8 1c-4 -1 -7 -3 -9 -5l2 -3h5c5 3 9 5 10 7zM121 316l-1 3c-12 0 -20 -9 -20 -22c0 -7 1 -8 9 -8
c0 7 1 9 12 27zM430 -36v8c-4 -2 -10 -4 -18 -5v-4c1 -1 4 -2 9 -2c4 0 7 1 9 3zM424 -47h-16c3 -3 5 -4 8 -4c2 1 5 3 8 4zM417 -57h-8v-4h4zM409 -1c0 19 -10 45 -17 45c-9 0 -18 -5 -18 -7l-60 -2l-13 3c-8 -11 -12 -22 -12 -35c0 -37 28 -66 68 -66c30 0 52 27 52 62z
M404 -67v1c-3 2 -6 3 -9 3h-4c1 -2 3 -6 7 -9c4 2 6 4 6 5zM385 -71l-6 2c0 -3 1 -6 3 -7c2 2 3 4 3 5zM427 524c0 -13 -6 -19 -18 -19c-13 0 -27 10 -27 20c0 12 16 32 26 32c9 0 19 -29 19 -33zM364 535c0 -10 -13 -24 -24 -24l-11 2c-6 7 -9 13 -9 18c0 13 11 27 22 29
c7 0 22 -18 22 -25zM339 297l-5 -35l-10 -5l2 -1c-1 0 -1 -3 -1 -8c-1 -1 -3 -2 -5 -2c-7 3 -13 5 -18 5l-38 -4l-1 4c0 2 2 4 5 7c-2 0 -4 2 -7 5v46c19 0 61 4 61 6h-2c5 0 7 -2 7 -6v-6l5 1c5 0 7 -2 7 -7zM360 107c0 -5 -5 -8 -15 -8h-11c-1 1 -3 3 -6 5v25h20v-6
c-2 -1 -5 -3 -9 -4v-9h4c2 0 3 0 10 10c5 -7 7 -11 7 -13zM417 526l-1 3l-2 -1zM405 514l-2 30c-3 -1 -12 -16 -12 -19s8 -11 14 -11zM353 535c0 1 -6 14 -9 14v-29c6 6 9 11 9 15zM337 535l-1 11c-6 -1 -9 -5 -9 -12c0 -1 0 -4 2 -9c2 -2 4 -2 5 -2c0 2 1 6 3 12zM327 295
c-4 -12 -4 -12 -4 -27c2 5 3 14 4 27zM319 298c0 2 -1 4 -3 7h-15c-2 0 -22 -1 -31 -5l-1 -12c0 -15 8 -22 14 -22h29c1 3 2 6 7 32zM280 258l-8 1l2 -3c2 1 2 1 6 2z" />
</svg>