<?xml version="1.0" encoding="iso-8859-1"?>
<!DOCTYPE svg PUBLIC "-//W3C//DTD SVG 1.1//EN" "http://www.w3.org/Graphics/SVG/1.1/DTD/svg11.dtd">
<svg width="100.0" height="100.0" version="1.1" xmlns="http://www.w3.org/2000/svg" xmlns:xlink="http://www.w3.org/1999/xlink">
<path fill="#00f0ff" transform="scale(.1,-.1) translate (0, -800)" glyph-name="q" unicode="q" horiz-adv-x="357" 
d="M340 523c-7 -3 -11 -12 -13 -27c-10 -3 -16 -9 -18 -17v-19l8 -48c0 -12 -13 -25 -24 -25c-16 0 -38 -12 -75 -43l2 -17c-1 -9 -5 -13 -13 -13c-3 1 -16 5 -20 6c-1 0 -5 -3 -10 -8v-56c3 -3 5 -4 6 -4s5 1 19 7c3 -1 8 -3 16 -7c-3 -9 -5 -17 -5 -19h39v-30
c17 -54 17 -55 23 -97c2 -1 3 -5 5 -9c0 -20 5 -30 15 -32c2 -9 3 -14 3 -15c0 -5 -1 -17 -3 -34c-9 -12 -9 -13 -16 -90c3 -3 9 -8 18 -14c3 -14 8 -27 14 -39c-2 -2 -3 -4 -3 -5c-5 0 -12 7 -27 27v-29c-4 0 -7 1 -8 2c-1 8 -5 19 -10 34c-12 -4 -12 -6 -12 -27
c-5 -2 -8 -4 -9 -5c-5 5 -7 10 -7 17l7 31c0 29 4 32 22 44c9 34 13 54 13 59c0 7 -3 12 -9 15c-5 3 -8 8 -8 14c1 7 3 29 3 31c-3 22 -7 51 -10 75c-13 24 -14 26 -16 44c-2 8 -5 12 -9 12c-7 0 -10 -2 -10 -5c0 -5 3 -12 10 -21v-7c-3 -3 -6 -5 -11 -5c-1 0 -3 0 -27 6
l-48 -6c-6 0 -12 2 -17 5c0 18 0 18 -3 18c-6 0 -11 -11 -22 -87c0 -5 1 -10 3 -15v-21c2 -3 3 -4 4 -15c0 -5 -1 -10 -3 -13c-11 -11 -17 -18 -17 -21c0 -8 6 -32 17 -73c3 -2 7 -5 12 -9v-42c5 -3 7 -9 7 -18s2 -14 7 -16v-7c0 -2 -2 -3 -5 -3c-4 0 -5 1 -14 17
c-2 -1 -4 -4 -4 -6c0 -4 2 -7 6 -14v-9h-9c-2 5 -5 13 -11 23v-21l-5 -5h-10l-6 16c0 6 12 33 18 33c2 0 3 0 6 -2l3 3c-9 6 -13 15 -13 26c1 3 3 37 3 38c0 18 -6 35 -17 50l-15 43c0 11 9 21 26 30c-5 8 -6 12 -7 14c11 27 20 60 22 89c0 1 -1 9 -4 25c1 7 12 13 35 18
c1 5 5 13 11 24c20 0 24 1 27 8v22c0 19 -2 29 -7 30c-10 -7 -12 -8 -13 -8c-14 0 -14 0 -14 38c-11 1 -23 11 -34 29c-11 19 -22 28 -35 28l-6 -2c-12 0 -18 6 -18 17c0 2 4 12 11 32c0 60 0 62 -32 102v9c3 0 10 2 10 3c17 -21 17 -22 18 -22c2 8 4 21 6 40c6 2 9 2 10 2
v-40c4 1 4 2 12 17c1 1 4 4 8 9l10 -3c-25 -41 -32 -59 -32 -72c0 -17 1 -29 3 -36c3 -4 5 -10 8 -19c9 -5 18 -18 29 -38c17 -31 18 -31 29 -31c2 2 3 5 3 9c-7 15 -8 16 -8 18c0 6 12 18 18 18c5 -3 9 -5 10 -5h12c2 5 5 12 8 21v56l-3 9c-1 17 -7 34 -19 51
s-18 30 -18 39c0 20 4 33 12 40c22 9 33 20 33 32c0 34 -3 48 -11 60l9 16c5 10 11 15 17 15c9 0 14 -7 14 -22s0 -16 -14 -30c-3 -3 -5 -8 -5 -14c0 -8 1 -23 3 -47c22 -13 29 -26 29 -52c0 -12 -11 -27 -34 -46l2 -126c7 -2 14 -7 21 -16c3 -1 8 -5 14 -12v-7
c9 1 25 11 49 29c0 13 1 18 8 29c12 10 13 13 14 36c0 14 -2 25 -5 32c-8 16 -14 38 -14 51c1 0 3 1 5 2c3 -4 8 -14 15 -31h2c1 10 3 20 8 31h10l-2 -26l3 -3c3 3 9 7 17 12c1 -1 6 -2 7 -2v-8zM203 356c0 7 -8 21 -15 21c-1 0 -7 -1 -13 -2h2c0 1 -9 4 -27 8v-57h8l30 8
c10 3 15 10 15 22zM205 196c-2 9 -6 23 -11 41h-16c0 -12 0 -12 -8 -12l-12 8c-5 0 -12 -25 -12 -30c0 -8 4 -12 11 -12c6 0 20 2 48 5z" />
</svg>