<?xml version="1.0" encoding="iso-8859-1"?>
<!DOCTYPE svg PUBLIC "-//W3C//DTD SVG 1.1//EN" "http://www.w3.org/Graphics/SVG/1.1/DTD/svg11.dtd">
<svg width="100.0" height="100.0" version="1.1" xmlns="http://www.w3.org/2000/svg" xmlns:xlink="http://www.w3.org/1999/xlink">
<path fill="#00f0ff" transform="scale(.1,-.1) translate (0, -800)" glyph-name="u" unicode="u" horiz-adv-x="502" 
d="M486 279c-8 -9 -18 -20 -31 -35c-29 -13 -40 -26 -45 -66c-6 -26 -10 -29 -25 -29c-4 0 -17 4 -43 11c-17 -4 -32 -13 -32 -34c0 -1 0 -1 8 -17c0 -28 0 -28 10 -64v-6c-18 -27 -20 -39 -20 -95c10 -6 15 -12 15 -18c-11 -20 -12 -22 -12 -23c10 -22 10 -22 10 -23
s-2 -5 -4 -9h-9c-1 4 -3 10 -8 19c-6 -21 -6 -21 -11 -21c-2 0 -4 3 -7 6l-7 -7h-6c-3 3 -4 4 -4 5v-2c9 28 9 29 17 37v23c13 13 16 33 16 56c0 12 -2 22 -6 29l-12 12c2 10 4 22 5 36v33c-2 2 -4 3 -5 3c-24 0 -30 -8 -34 -51c15 -11 15 -11 15 -18c0 -13 -6 -21 -21 -32
c0 -65 0 -66 5 -74c0 -3 -1 -5 -12 -30v2c1 0 3 -10 7 -29c-6 -2 -6 -2 -7 -2c-3 0 -5 3 -13 17v-23l-16 2c2 0 4 1 4 2s-4 5 -5 6l2 8c0 3 -1 7 -2 14c-3 0 -5 -4 -7 -11s-5 -13 -11 -13c-3 0 -5 2 -5 6c0 3 5 14 16 35h11v22c15 1 22 14 22 38c0 28 -4 34 -19 50
c0 -2 0 -3 1 -3c2 7 10 31 10 39c0 11 -3 23 -8 38c0 28 -12 63 -17 63c-7 -4 -10 -5 -11 -5s-1 0 -5 2c-20 -10 -20 -10 -21 -10c-9 0 -37 6 -37 23c0 4 2 8 5 12c-1 35 -11 40 -44 54c0 3 -1 8 -3 15l-18 15v8c0 2 2 3 6 3c5 0 11 -4 19 -13c0 3 1 7 2 14c1 1 3 2 5 2
c3 0 6 -4 10 -11c1 3 3 7 7 11c4 0 6 -1 8 -4v-25c0 -28 22 -62 44 -62c1 0 5 1 15 5c6 -2 6 -2 7 -2c21 0 39 22 43 27c4 -2 4 -2 5 -2c4 0 8 3 13 10v28c-2 2 -3 6 -5 11c-27 7 -30 8 -42 15c0 8 -19 25 -31 28c-1 3 -6 11 -16 23c0 4 0 5 -10 32v22c-1 6 -3 9 -7 9l-4 -2
c-5 0 -29 19 -72 57c-9 18 -10 22 -16 51c14 31 14 32 16 46c20 23 31 53 34 91c11 3 12 8 12 31l12 4c7 0 11 -5 11 -14l-9 -34l4 -55c1 -11 10 -22 26 -32c4 15 9 24 26 45c7 1 19 4 34 8l8 6h24c2 0 6 6 12 17v18c0 25 0 26 -6 32c0 31 0 31 -12 50c0 23 10 41 40 41
c8 0 12 -7 12 -21c0 -9 -2 -12 -21 -36v-55c1 -10 5 -40 13 -40c14 3 22 4 23 4c43 0 63 -14 73 -51c47 54 51 75 51 112c1 5 5 8 12 8c3 0 9 -2 10 -2c2 -15 9 -32 21 -49c6 -33 9 -62 9 -88c0 -44 -40 -108 -86 -108l-2 -24l-3 -2c-4 -45 -18 -80 -43 -107
c-44 -26 -45 -26 -47 -39l-12 -33c1 -2 8 -5 17 -10c1 -3 4 -7 7 -12l39 -8c48 0 49 0 65 38c11 9 21 51 21 67l9 2c5 -4 7 -5 9 -5c3 0 7 1 12 3c2 -1 3 -3 3 -5c0 -4 -7 -16 -10 -18c0 -1 2 -1 4 -1c1 1 6 6 16 15h9v-7zM442 603v30c0 -10 -1 -12 -8 -17v-9c3 0 5 -1 8 -4
zM450 564c0 10 -2 20 -5 30c-3 0 -3 0 -3 5c-9 -12 -9 -13 -9 -14c5 -3 8 -5 8 -8c0 -5 -3 -8 -9 -8c-3 0 -8 2 -15 6c0 -3 -1 -5 -4 -5c7 -7 18 -18 31 -33c4 17 6 26 6 27zM270 724v6l-11 2c0 -1 -1 -3 -4 -6c3 -2 7 -4 10 -7zM443 525c-2 2 -6 3 -9 4
c-4 13 -22 27 -29 27c-5 0 -22 -16 -22 -22v2c1 -2 1 -6 2 -15c14 -7 22 -28 22 -38c0 -3 -1 -6 -3 -8c-4 0 -7 1 -8 3v-14c19 5 31 15 34 28c-29 32 -35 38 -44 39v7c5 2 8 3 9 3c6 0 6 0 39 -39c4 0 5 0 9 23zM379 456c0 9 -2 15 -5 18c0 36 0 40 -31 98
c-11 7 -26 10 -44 10l-71 -11c-55 0 -58 -3 -69 -68v-42c0 -6 -2 -10 -7 -12v-71c3 -1 5 -8 8 -21c10 -36 55 -79 77 -79c55 0 90 15 103 38c1 2 3 3 6 4c6 10 13 24 21 42c4 48 7 68 12 94zM122 538c0 2 -12 21 -16 27c-3 -6 -7 -14 -14 -25l2 -16c5 7 9 10 11 10v-5
c-6 -11 -9 -19 -9 -26c0 -5 2 -8 5 -11c1 4 2 9 4 16c9 6 17 21 17 30zM146 516c-8 4 -14 8 -18 12c-4 -11 -12 -25 -23 -42v-16l9 -4l4 22c4 13 8 19 13 19l6 -1v-9c-7 -3 -8 -5 -15 -42v2c0 -7 5 -13 16 -19c3 6 7 60 8 78zM101 438v10c0 6 -3 12 -8 19
c-11 15 -17 32 -17 51c-7 -3 -10 -8 -10 -15c0 -31 16 -62 35 -65zM141 421c-3 1 -12 4 -26 7c1 -5 17 -14 24 -14c1 2 2 6 2 7zM364 471c0 -17 -7 -26 -20 -26c-17 0 -25 7 -25 22c0 12 15 23 30 23c10 0 15 -6 15 -19zM214 488c0 -12 -15 -37 -26 -37c-1 0 -4 1 -9 3
c-10 14 -11 16 -11 33c13 11 25 16 34 16c3 0 12 -11 12 -15zM343 374c-4 -8 -4 -8 -4 -9c-36 -28 -42 -29 -80 -34c-28 0 -35 2 -59 16v5c1 3 6 14 16 32c4 2 6 3 7 3c18 -9 19 -9 48 -11c14 0 21 3 21 8c-1 2 -2 3 -4 4l9 3c9 9 14 13 16 13c1 0 2 -1 26 -19
c0 -3 1 -7 4 -11z" />
</svg>