<?xml version="1.0" encoding="iso-8859-1"?>
<!DOCTYPE svg PUBLIC "-//W3C//DTD SVG 1.1//EN" "http://www.w3.org/Graphics/SVG/1.1/DTD/svg11.dtd">
<svg width="100.0" height="100.0" version="1.1" xmlns="http://www.w3.org/2000/svg" xmlns:xlink="http://www.w3.org/1999/xlink">
<path fill="#00f0ff" transform="scale(.1,-.1) translate (0, -800)" glyph-name="x" unicode="x" horiz-adv-x="506" 
d="M483 650c0 -38 -11 -59 -34 -68c-9 -5 -14 -10 -14 -15c0 -1 3 -4 9 -7c21 -9 22 -12 27 -48c0 -15 -6 -19 -47 -39c-1 -1 -2 -2 -2 -4c23 -30 23 -31 23 -46c0 -30 -18 -46 -89 -82c-5 -32 -13 -77 -24 -136c0 -1 -9 -8 -28 -23l1 -31l-9 -4c-4 0 -21 -14 -21 -18
c0 -6 2 -19 5 -40c1 -1 2 -2 17 -4l11 1l2 -3l-5 -83c-6 -15 -10 -19 -20 -20l1 -28h-12v-44c-1 -5 -3 -22 -6 -50c-18 -6 -31 -9 -38 -9c-8 0 -13 15 -13 24l2 2c3 41 3 50 3 71c-4 0 -5 4 -9 34c-10 0 -10 1 -10 6c0 1 0 3 2 4l2 49v21c6 11 14 17 27 17c2 5 3 11 3 18v32
c-6 1 -13 3 -22 8v14l2 12l-15 2h-8c-1 1 -2 2 -18 98c-7 19 -17 57 -18 61c-3 -1 -6 -2 -9 -2c-10 4 -10 4 -11 4l-11 -7l-17 -6c-3 1 -10 5 -21 11l-7 -4v15c-10 13 -15 25 -15 38c0 18 6 33 22 60c0 2 1 4 2 6c-50 31 -56 35 -56 59c0 28 15 53 47 79l-1 5l14 14
c0 -2 0 -2 -1 -2c-3 0 -12 19 -12 27l-1 2c-29 6 -33 32 -33 46l-3 5v38c0 16 12 28 38 39c1 0 1 -1 2 -2l2 -21l7 -4v-4c-3 -1 -7 -3 -11 -7h10l1 -3l-8 -19c1 -1 4 -2 11 -3v-6c0 -3 -3 -7 -8 -12c2 -3 3 -4 10 -4c1 -1 2 -2 2 -4c0 -5 -1 -7 -4 -8v-9l14 -3c1 0 3 1 5 3
v6l-12 10l3 6l8 -1l2 2c-2 3 -5 5 -8 7v5c1 2 5 3 9 5l-8 12c0 5 2 7 7 7l4 1l-10 11l1 5h9v3c-1 3 -4 7 -9 11v23l13 4c1 -1 5 -3 13 -7c14 0 31 -45 31 -54c-14 -65 -14 -66 -42 -78c0 -45 0 -45 -44 -89c-7 -9 -8 -12 -11 -34c0 -20 9 -25 37 -34c12 -7 18 -16 18 -25
c0 -6 -5 -16 -10 -26c-9 -7 -16 -16 -20 -25v-16c6 -13 6 -13 12 -13l10 -1v-3c3 2 15 9 23 16c1 0 1 0 4 -1c0 2 1 5 2 8c12 8 44 32 44 34l-7 76c0 10 35 41 47 41c4 -2 4 -2 5 -2c9 0 14 1 15 3c6 47 9 73 9 77c0 5 -2 10 -7 14l3 15l8 2c10 0 15 -3 15 -9
c0 -5 -3 -9 -13 -16c-6 -63 -7 -73 -10 -82c24 2 37 3 55 3l5 -10l-5 -102c5 -2 9 -3 14 -3c3 0 13 2 31 5c3 0 7 -2 11 -5c-4 -11 -6 -18 -6 -26c3 -2 5 -3 6 -3h-2c38 17 45 22 45 37c-28 30 -28 31 -28 39c0 9 6 18 18 28c10 0 38 11 38 23c0 13 -7 21 -20 24
c-14 4 -14 8 -14 21c-2 1 -6 3 -9 7c-3 14 -4 16 -10 20c-14 16 -15 22 -19 43c-2 2 -3 3 -4 17c0 53 15 74 52 74l1 -5c-2 0 -9 -14 -13 -28l14 3c1 0 2 -1 4 -2v-4c0 1 0 2 -1 2s-2 -3 -14 -29c1 -2 3 -3 6 -3h8l2 -3c-10 -26 -12 -30 -12 -35c0 -9 2 -14 6 -14
c17 0 18 1 18 39l-9 10v3l8 4c0 -1 0 -1 1 -1c4 0 6 2 6 5c0 6 -3 14 -10 23c-1 2 -2 4 -2 5c0 5 4 7 12 7c0 14 -5 22 -16 25v3c3 3 6 4 7 4c28 0 52 -37 52 -82zM473 657l-1 11h-2l1 -11h2zM474 643v5h-2v-5h2zM473 636v5h-2v-5h2zM466 650c0 10 -9 49 -19 69
c-1 -1 -1 -3 -2 -6c1 -1 2 -7 3 -17c3 -1 5 -2 5 -4l-9 -8c2 -14 2 -15 7 -23c0 -5 -3 -8 -8 -10v-5c-2 -30 -2 -32 -9 -46c0 -8 3 -12 9 -12c14 14 20 30 20 55c0 1 1 4 3 7zM464 603l-3 -6zM460 596l-1 -3zM411 642v8h-14l12 32c-3 0 -5 -1 -13 -4l-4 4c2 5 10 25 11 26
l-1 6c-15 -7 -23 -28 -23 -62c0 -22 4 -32 19 -53c2 0 4 1 6 3c-1 2 -2 4 -4 6v14c1 5 5 11 11 20zM373 653v4h-2v-4h2zM374 642l-1 10h-2l1 -10h2zM379 625h-2l-1 -5h2zM456 543c-5 4 -8 6 -9 6c-2 0 -4 -4 -7 -11c0 -3 1 -4 3 -5c5 5 9 9 13 10zM463 524c0 6 0 6 -3 12h-6
c-3 -2 -5 -5 -8 -9v-6c7 2 10 3 17 3zM440 553v-1l-3 1c-6 -1 -9 -2 -11 -4v-4c6 -1 9 -2 9 -3c2 3 2 4 5 11zM430 557c-4 5 -8 7 -11 7c-4 -2 -7 -3 -9 -3c3 -8 6 -12 8 -12l7 8h5zM465 510c-2 3 -3 5 -3 7l-5 2c-3 0 -7 -3 -12 -8c7 -2 10 -7 10 -14c7 5 10 9 10 13z
M448 492v7l-5 5c-2 0 -4 -1 -5 -4c2 -3 4 -5 7 -8h3zM438 488l-7 7h-6v-2c0 -1 2 -4 4 -8zM422 483c0 1 0 1 -1 4c-7 2 -12 3 -13 3c0 -1 -3 -2 -8 -5c5 -1 12 -3 19 -7c2 3 3 4 3 5zM414 472c-1 3 -4 5 -9 5l-6 -2c-1 0 -3 1 -6 2c-2 -4 -3 -8 -3 -11c1 1 9 3 24 6z
M436 434c-4 9 -8 13 -12 13c-6 0 -9 -3 -9 -8c0 -2 2 -3 4 -6l7 3c3 -1 3 -1 10 -2zM415 462c-3 3 -7 4 -10 4c-7 0 -11 -3 -12 -9c2 -2 4 -4 7 -5c1 3 6 7 15 10zM417 453v-1l-8 1c-1 -2 -1 -4 -3 -5l3 -3c3 0 8 5 8 8zM439 426c-7 0 -12 1 -14 3c-4 0 -6 -3 -6 -10
c16 -2 16 -5 16 -15c3 9 4 16 4 22zM153 694c0 6 -2 15 -7 28l-9 12c-4 5 -9 10 -14 13l-2 -3c4 -20 9 -25 10 -25l-6 -8c5 -5 7 -9 7 -10c0 -3 0 -3 -10 -9c5 -5 8 -9 8 -10c0 -4 -3 -7 -8 -8l6 -11c0 -2 -2 -4 -5 -6c2 -1 3 -3 3 -5c-7 -16 -7 -16 -7 -18h4
c23 19 23 20 30 60zM433 401h-7c1 4 2 7 2 8l-6 3c-1 0 -5 -1 -10 -3c12 -12 12 -14 12 -19c2 2 5 6 9 11zM308 517l-2 3c-3 -3 -8 -6 -14 -10v-5c11 3 16 7 16 12zM418 389c0 11 -4 12 -12 12l8 -18c3 3 4 5 4 6zM307 501l-1 7c-3 -3 -7 -6 -12 -8c0 -2 0 -2 1 -5
c7 4 10 5 12 6zM148 645l-5 -3l2 -1zM307 495c-3 -1 -7 -4 -12 -7v-7h4c2 2 4 4 8 7v7zM408 383c-5 8 -8 12 -11 12c-2 0 -3 -1 -4 -4c4 -3 6 -6 6 -18c2 0 4 1 5 3v3c0 2 1 3 4 4zM307 473l-1 7c-9 -7 -12 -11 -12 -15c3 1 7 3 13 8zM56 716l-3 -2zM393 376c0 3 -2 7 -7 11
c2 -7 3 -14 3 -21c3 6 4 9 4 10zM93 656c-3 1 -8 3 -13 6c2 4 5 9 9 16c-3 0 -7 2 -11 5c0 4 2 7 8 17c-8 3 -12 5 -12 6l7 12c-1 0 -2 6 -4 18c-3 -3 -7 -7 -12 -11c-5 -15 -7 -26 -7 -33c1 -3 3 -16 7 -39l18 -18c2 0 4 1 6 4v8c-1 0 -1 0 -2 -1c2 3 4 6 6 10zM54 705v5
h-2v-5h2zM307 465l-16 -8v-5h4c9 7 12 10 12 13zM383 369c0 8 -2 14 -7 18h-4c5 -5 5 -9 5 -17l-1 -9h3c3 1 4 4 4 8zM356 400c-1 -1 -3 -3 -4 -6c0 -1 1 -1 2 -1c1 3 2 5 2 7zM306 451c-12 -4 -18 -10 -19 -17l2 -1c15 9 17 13 17 18zM358 413c-21 -19 -32 -30 -32 -33
c1 -2 1 -2 2 -5c7 9 17 18 30 29v9zM305 423c-10 -6 -14 -8 -17 -9l-2 3c12 9 18 15 18 19l-17 -10c-2 -13 -3 -20 -4 -20v2l1 -7c21 12 21 12 21 22zM119 595l-1 7c-5 -3 -10 -5 -15 -6zM304 406l-19 -10l-2 5l-2 -7c14 0 19 3 23 12zM119 585c-5 3 -8 4 -9 4
c-3 0 -6 -2 -8 -5c4 -4 8 -9 14 -13c2 4 3 9 3 14zM288 488c-1 5 -2 10 -3 17c-5 2 -8 3 -9 3l-78 -8c-2 0 -3 -2 -4 -3v-34l6 -72l75 6zM328 369c0 -4 -1 -9 -3 -13h3v13zM344 344h-4c-2 -4 -6 -8 -11 -13v-3c7 5 12 11 15 16zM110 564c-3 10 -9 15 -16 15
c-1 0 -5 -4 -10 -11l16 -12c5 3 8 5 10 8zM337 348c0 2 -2 3 -4 5h-4c-7 -10 -8 -15 -14 -43c2 4 6 9 12 14c-3 0 -5 1 -6 2zM329 325v3h-2v-3h2zM347 337c-11 -9 -16 -15 -34 -38v-6c34 36 34 37 34 44zM93 553c-5 6 -9 9 -12 9c-5 0 -11 -4 -17 -12c2 0 8 -3 18 -8
c3 2 6 6 11 11zM345 318c-7 -5 -17 -16 -30 -31h-3v-11c14 14 25 25 32 34zM341 299c-32 -31 -33 -38 -33 -49c28 35 33 42 33 48v1zM76 536c0 8 -8 8 -20 8l-8 -16c9 -2 16 -5 20 -9c5 10 8 16 8 17zM273 317c0 12 0 12 -7 19c-3 -9 -4 -14 -4 -17c0 -5 3 -10 8 -14
c2 4 3 8 3 12zM336 275c-7 -9 -18 -20 -31 -34v-5c9 9 20 20 31 32v7zM246 334c0 1 -1 4 -3 4c-1 0 -5 -2 -10 -7l3 -8c7 4 10 8 10 11zM65 493v18c-7 7 -11 10 -14 10s-5 -1 -6 -2l-4 -18c0 -4 1 -6 4 -7c3 3 5 4 6 4c3 0 7 -2 14 -5zM333 258c-10 -9 -19 -19 -26 -28h-3
c-1 -3 -2 -8 -2 -14c17 19 31 35 31 42zM252 308c0 6 -5 8 -19 8v-18l8 -4c7 0 11 5 11 14zM97 461c-7 4 -12 6 -13 6l-3 -2c-1 0 -1 0 -4 1l-1 -2c0 -7 6 -14 12 -14c2 0 5 4 9 11zM121 437c0 7 -9 19 -17 19c-6 0 -9 -3 -9 -8c0 -4 2 -6 6 -6c0 1 1 1 2 1
c2 0 15 -6 15 -10c-3 -3 -5 -4 -6 -4s-3 2 -8 7c-7 0 -11 -4 -12 -12l8 1c1 -1 5 -3 13 -7c5 5 8 12 8 19zM69 483c-1 2 -2 3 -2 7c-2 -2 -3 -3 -4 -3c-5 4 -9 6 -12 6c-4 0 -6 -3 -6 -8c0 -3 10 -16 11 -16c10 14 10 14 13 14zM76 472c-4 3 -6 5 -7 5c-5 -1 -7 -5 -7 -12
l9 -6c1 4 2 8 5 13zM329 238c-16 -16 -26 -27 -31 -34v-8c21 19 31 33 31 42zM321 376c-2 2 -6 3 -11 5l-40 -7c-16 0 -43 -3 -86 -7c-5 0 -10 1 -29 5l-5 -1c5 -11 9 -22 11 -34c4 -1 6 -2 6 -5c0 -1 -1 -3 -2 -5l35 -154l81 -5c3 0 12 51 31 163c-7 3 -9 4 -11 4
s-14 -27 -14 -42l-7 -6c-1 0 -2 1 -3 2c2 8 5 18 14 43c0 3 -2 5 -7 5h-4l-2 2l2 -21c0 -13 -5 -21 -12 -21l-11 7c-6 -11 -12 -16 -17 -16c-1 0 -1 0 -7 2c-1 0 -3 -1 -4 -2c-2 0 -3 2 -4 6l3 37c-2 1 -3 4 -4 7c0 2 2 4 5 7c2 -1 3 -2 4 -2c2 0 12 2 15 3c5 -1 7 -3 7 -5
s-3 -8 -9 -19c3 0 5 -2 9 -4c1 4 2 9 2 18l8 8c5 0 9 -1 12 -3c1 3 3 5 7 5c10 -3 20 -5 22 -6c6 2 8 2 9 2c6 21 6 23 6 34zM106 413c-2 4 -2 4 -18 4c-1 -3 -2 -5 -4 -8l14 -4c3 0 5 3 8 8zM94 397c-1 4 -3 6 -6 6c-9 0 -13 -7 -13 -20c18 8 19 9 19 14zM133 332v-2
c-2 0 -3 7 -5 26l-5 -22v-8h5c3 3 5 5 5 6zM92 370v7c-3 3 -6 5 -7 5s-4 -1 -6 -3v-4l-2 1v-17c4 2 9 6 15 11zM121 321l-2 28c-8 -1 -12 -8 -12 -22c0 -2 1 -5 2 -8c3 1 6 2 12 2zM98 354c-3 6 -5 9 -7 9c-6 0 -10 -5 -11 -15c0 -2 2 -5 6 -9c4 3 8 8 12 15zM107 348l-4 3
c-2 0 -8 -4 -14 -10l-1 -5c0 -3 5 -8 14 -13c0 11 0 16 5 25zM265 161l-44 3l-2 -5c3 -21 4 -22 31 -26h-2h14zM298 79h-20c3 -3 6 -5 7 -5h9c3 0 4 2 4 5zM284 -11v71c-8 -1 -14 -2 -19 -2c-3 0 -5 1 -8 3l4 8c-2 13 -4 28 -4 42c1 0 2 1 3 2c-5 13 -6 13 -9 13h-9
c3 -18 4 -32 4 -41c0 -23 -1 -26 -6 -26c-1 0 -4 0 -9 2l-15 -3c-1 -16 -2 -39 -3 -70h4l3 3c2 8 3 13 3 14c0 27 -2 32 -4 37c1 4 3 6 6 6c27 0 30 0 47 4c5 0 8 -2 8 -7c0 -1 -1 -2 -2 -3l-1 -53h7zM236 76c-2 -3 -5 -5 -9 -6c6 -2 6 -2 7 -2zM294 -6l-1 -2zM264 28
c0 -7 -2 -13 -7 -17v-11c4 0 7 -1 10 -2c0 27 0 28 -3 30zM278 -38l-1 10c-1 -1 -2 -5 -2 -10h3zM239 14c-3 0 -6 1 -8 3v-22c6 10 8 15 8 19zM268 -66l-2 60c-2 -5 -5 -11 -9 -19c5 -3 7 -6 7 -9v-34l-5 -41c0 -3 2 -8 5 -15c0 13 1 21 4 58zM261 -137v4c-1 1 -2 2 -4 3
l-5 15c0 1 1 6 2 7v25l6 42c-5 7 -7 11 -7 12l4 24c-5 3 -7 6 -7 9c7 14 7 14 7 17l-14 4c-1 0 -1 0 -8 -2c-2 0 -4 1 -5 2v-5h5c7 -1 11 -3 11 -5l-8 -20c6 -8 7 -9 7 -10c-3 -9 -4 -13 -4 -14s2 -6 5 -15l-6 -24c0 -3 2 -7 6 -12c0 -4 0 -5 -8 -27l7 -22
c-1 -3 -2 -6 -2 -12c4 1 10 3 18 4zM240 -48c0 3 -1 4 -7 17l6 13c-8 9 -8 9 -10 9l2 -41c-1 -4 -4 -84 -4 -85c0 -2 2 -4 5 -8h4l2 9c0 7 -1 11 -7 25c0 5 2 10 9 23c0 3 -2 5 -7 8v14zM272 473c0 -11 -5 -17 -15 -17c-7 0 -10 3 -10 10c0 4 12 16 16 16c3 0 9 -8 9 -9z
M231 468c0 -6 -6 -9 -18 -9c-7 0 -10 3 -10 8c0 8 3 11 11 11l7 2c7 0 10 -4 10 -12zM270 430c0 -6 -2 -9 -6 -9l-8 1l-39 -10c-4 0 -6 1 -6 4c0 4 1 9 2 15c9 3 12 4 38 7c7 3 11 5 12 5c5 0 7 -4 7 -13zM221 316c-3 -3 -6 -5 -7 -5c-5 0 -8 1 -11 2v7h17zM205 336
c0 -7 -6 -16 -9 -16v1c6 -13 7 -15 8 -28v-10c-1 -2 -3 -3 -5 -4h-3v14c0 15 -4 23 -11 23c-2 0 -2 0 -2 -2c0 -7 2 -16 7 -26c0 -2 -2 -3 -4 -6c-4 1 -7 11 -17 62c1 1 2 2 3 2c3 0 4 -1 5 -3c4 6 10 9 18 9c7 0 10 -5 10 -16zM290 267c-5 -10 -14 -61 -14 -66
c-2 -2 -5 -5 -10 -8c-2 -7 -3 -8 -31 -11c0 1 -3 2 -9 5c-9 0 -13 1 -14 5v4c0 3 -1 5 -3 8c-2 19 -7 35 -14 48v3c1 0 3 1 6 3c-1 1 -2 2 -3 4c3 3 6 5 9 5c9 -2 14 -2 15 -2l57 7h3c3 0 5 -2 8 -5zM196 335c0 6 -4 7 -10 7c-3 -2 -5 -6 -8 -11c1 -1 1 -2 2 -4h11
c3 2 5 5 5 8zM270 257v4l-25 -3c2 -2 4 -3 6 -3zM270 249l-12 -1h-45v-3l9 -3l48 5v2zM230 255h-16h16zM267 236c0 3 -2 4 -6 4c-18 -3 -41 -5 -44 -5v-7c35 0 41 0 49 3zM266 219v3l-47 -2l1 -7c3 3 4 4 5 4c10 -2 10 -2 11 -2c7 0 17 1 30 4zM264 207v3h-43v-8
c0 1 2 2 4 2h15c19 0 21 0 24 3z" />
</svg>