<?xml version="1.0" encoding="iso-8859-1"?>
<!DOCTYPE svg PUBLIC "-//W3C//DTD SVG 1.1//EN" "http://www.w3.org/Graphics/SVG/1.1/DTD/svg11.dtd">
<svg width="100.0" height="100.0" version="1.1" xmlns="http://www.w3.org/2000/svg" xmlns:xlink="http://www.w3.org/1999/xlink">
<path fill="#00f0ff" transform="scale(.1,-.1) translate (0, -800)" glyph-name="y" unicode="y" horiz-adv-x="696" 
d="M685 13c-3 -5 -5 -9 -5 -13v-52c0 -18 -16 -47 -35 -57c-138 -41 -146 -42 -205 -47l-142 -4c-9 3 -10 3 -95 5c-19 6 -29 9 -34 9c-53 6 -70 13 -78 30l-24 170c3 4 3 5 3 6s-1 1 -3 2c0 19 -2 42 -5 71c-10 87 -17 179 -17 203c0 15 1 27 3 34c16 9 35 13 56 13
c29 -4 36 -5 43 -5c2 0 4 0 11 3h48c5 0 10 5 13 15l4 5c0 3 -5 9 -14 17l-20 76c0 16 11 59 38 82c-3 6 -9 15 -18 26c-2 18 -18 46 -48 83c-1 15 -8 24 -21 27c-13 4 -19 11 -19 22c0 20 8 30 24 30c12 0 25 -15 25 -33c0 -7 -2 -12 -5 -15c9 -30 58 -117 76 -130
c31 25 91 40 121 40c12 0 42 -11 67 -29c8 6 11 13 17 42c6 10 13 27 23 48c4 26 6 30 28 67c2 23 7 34 15 34c12 0 28 -19 28 -32c0 -5 -12 -22 -17 -22c-2 0 -8 2 -16 5c-12 0 -64 -143 -64 -153c1 -3 1 -3 2 -8c21 -23 47 -80 47 -103v-51c-2 -3 -10 -17 -24 -42
c7 -8 17 -12 28 -12c48 6 48 6 88 6c4 0 11 1 33 5c47 0 53 -31 65 -173l1 -189zM479 449c0 77 -59 160 -125 160c-40 0 -88 -20 -113 -48v-10c-15 -19 -19 -34 -19 -69c3 -3 5 -6 8 -11c6 -48 7 -50 40 -91c1 -3 4 -8 7 -13l9 -3c12 -15 34 -24 60 -24c68 0 133 55 133 109
zM400 272c-1 1 -2 7 -3 19c-4 3 -6 5 -6 7l6 15c0 8 -6 17 -12 17c-7 0 -19 -12 -19 -43c7 0 8 0 29 -29c1 4 3 9 5 14zM359 324c-4 2 -5 2 -10 2v-28c9 17 10 18 10 21v5zM263 353c-6 6 -15 17 -27 32c-5 -5 -11 -9 -20 -14c11 -4 27 -10 47 -18zM299 300v9l-8 8
c-3 -5 -5 -11 -7 -19c12 2 14 2 15 2zM659 -57c-1 7 -3 27 -6 61c-9 2 -9 5 -9 20c0 9 -53 258 -54 260c-5 5 -8 14 -11 27c-7 17 -16 30 -27 41c-28 0 -30 0 -38 5c-38 0 -39 0 -55 13c-33 -26 -39 -30 -49 -35c-2 -5 -3 -7 -3 -8l4 -14c9 7 17 10 24 10l6 -2v-7
c-28 -15 -30 -17 -30 -20c0 -7 1 -16 4 -26c32 14 33 14 46 14l3 -1v-10l-5 -5c-25 0 -44 -8 -44 -19c-7 0 -17 -3 -30 -8v-7c20 5 32 7 36 7c1 0 3 -1 5 -3v-7c-9 -3 -23 -8 -41 -15v-31l60 17c5 0 8 -2 8 -6c0 -8 -4 -12 -11 -12c-2 0 -4 1 -8 2l-58 -19c-3 0 -5 2 -8 5
c2 8 3 18 3 29c0 9 -1 25 -4 33c-6 -2 -6 -2 -7 -2c-3 0 -7 3 -10 8c7 7 8 8 25 13c-2 4 -3 8 -3 13c-6 3 -15 7 -23 13c0 -3 -1 -5 -2 -6c0 -20 -2 -22 -9 -24c-2 2 -4 3 -4 5c0 57 -1 60 -5 72c-4 0 -13 3 -26 10v-9c3 -1 6 -6 8 -14c2 -7 5 -11 9 -12c-3 -3 -4 -8 -4 -14
c0 -2 0 -8 2 -24c-5 -5 -7 -7 -8 -7c-3 0 -5 1 -7 4v28h-10c-7 0 -11 -3 -14 -12c-3 -8 -6 -12 -11 -12s-7 3 -7 8c0 3 7 23 21 61c-11 1 -13 2 -26 10l-18 -36v-9c-12 -13 -18 -19 -20 -19l-10 7c14 11 31 39 31 51l3 4l-2 8l-34 11v10c-71 0 -71 0 -71 -101
c-11 -90 -22 -223 -22 -271c-2 -4 -3 -6 -3 -9c0 -7 2 -14 7 -21c-1 -1 -3 -4 -7 -6c-1 -33 -1 -48 -2 -48c3 -7 3 -7 5 -10c-5 -5 -7 -9 -7 -11c21 -21 135 -38 218 -38l128 8c65 4 95 11 193 49c9 3 14 14 14 33zM436 510c0 -14 -7 -21 -21 -21c-8 0 -21 16 -21 26
c0 17 6 25 17 25c17 0 25 -10 25 -30zM284 493c-7 -6 -13 -9 -17 -9c-19 0 -28 11 -28 32c0 14 8 21 24 21c15 0 21 -7 21 -44zM430 402c-35 -9 -56 -13 -63 -13c-1 0 -21 2 -35 4c0 -1 -52 -8 -53 -8c-4 0 -9 3 -14 8c4 7 6 12 6 13c-11 18 -12 21 -12 22c0 13 5 20 15 20
c8 -4 8 -4 9 -4h81c6 0 21 2 52 7c5 0 8 -3 8 -9c0 -3 -2 -5 -6 -7c9 -16 10 -17 12 -33zM566 105c0 -5 -1 -10 -4 -15h-7c0 18 -10 27 -33 38v-5c0 -2 1 -8 6 -22c0 -2 -3 -4 -8 -9c-7 2 -9 7 -20 40v20c5 2 11 8 17 18c7 11 12 16 17 16c9 0 13 -7 13 -21
c0 -4 -4 -12 -13 -23c29 -20 32 -24 32 -37zM619 -1h-9l-5 76c-1 9 -5 17 -12 23c3 6 7 9 10 9c12 0 16 -11 16 -108zM625 -23c-2 -3 -5 -7 -8 -10h-9l-1 2c0 15 0 15 7 15c3 0 6 -2 11 -7zM497 117c0 -10 -11 -39 -17 -39c-12 0 -29 34 -29 53c0 8 3 10 12 10
c9 -38 10 -41 15 -46c6 0 9 8 9 24l-8 20l2 7l16 -2v-27zM595 -9l-8 -11h-7c0 28 -1 32 -22 32c-2 0 -6 -2 -11 -5v-9c-2 -2 -5 -5 -8 -9c-7 2 -13 12 -17 31c-3 6 -8 16 -16 27c3 5 7 7 10 7s5 -1 6 -2c9 15 15 23 20 23c7 0 22 -23 22 -34c-1 -4 -2 -8 -5 -11
c1 -3 5 -6 11 -8c14 -3 25 -9 25 -31zM449 102l-4 -4c0 -23 -5 -31 -21 -31c-11 0 -17 10 -17 30c0 28 8 42 25 42c8 0 12 -11 13 -33zM519 -21c0 -6 -3 -9 -8 -9l-7 2c0 -1 -15 -4 -45 -11c-3 3 -3 3 -5 23c-1 3 -4 5 -8 6c0 13 -2 22 -7 25c1 3 2 5 2 7c0 3 -1 4 -3 5v13
c10 9 37 15 66 15c-57 -25 -58 -26 -59 -27c15 -18 19 -22 22 -22c1 0 10 7 24 19c5 0 10 -1 13 -4c-5 -3 -30 -27 -38 -36l9 -5c3 1 16 3 39 7c3 -3 5 -5 5 -8zM398 130c0 -21 -5 -31 -13 -47c0 -3 -1 -8 -2 -13c3 -4 5 -8 5 -12c0 -5 -3 -10 -10 -14h-7v22
c-24 38 -26 42 -26 51c0 3 2 6 6 11c5 -1 9 -6 12 -15c3 -11 6 -17 9 -19c2 0 5 1 8 3c3 7 5 14 5 22c0 7 -1 15 -4 23c3 5 7 8 12 8c3 -2 5 -9 5 -20zM328 146c0 -7 -4 -11 -13 -11c-6 4 -6 5 -6 23c0 3 -1 6 -3 9c-3 -1 -6 -7 -7 -17s-5 -16 -12 -19c-4 5 -8 18 -11 37
s-6 32 -10 37c-3 -6 -6 -15 -10 -26c0 -9 -4 -22 -12 -39c13 0 19 -2 19 -5c0 -7 -4 -11 -12 -11c-1 0 -5 0 -9 2c-8 0 -24 -54 -25 -64c0 -1 0 -3 2 -5c-1 -4 -4 -8 -11 -13h-7c-2 5 -2 8 -2 9c17 49 19 56 19 60l-3 3l-18 -5c-3 0 -6 1 -8 2c4 6 6 7 50 25
c-4 8 -4 8 -4 10c12 26 21 53 21 82l7 2c1 0 11 -7 14 -10c2 -13 6 -31 12 -56h2c1 17 8 60 13 74c3 2 6 3 7 3s1 0 7 -2l-2 -51c0 -12 4 -22 12 -44zM436 3c0 -22 -24 -53 -41 -53c-5 0 -10 2 -14 6c-1 7 -3 15 -6 23c1 3 2 5 2 8c0 5 -1 9 -10 26v10c2 2 2 2 10 2
c0 13 0 14 3 15c35 0 56 -11 56 -37zM295 105c0 -19 -25 -55 -38 -55c-9 0 -13 6 -13 18c0 17 2 22 12 47c5 2 13 3 22 3c11 0 17 -4 17 -13zM362 -42c0 -7 -4 -10 -11 -10c-2 0 -7 3 -14 10c5 0 8 1 8 4c0 5 -10 20 -15 20c-13 0 -22 -5 -27 -15c0 -12 -6 -27 -13 -27
c-2 0 -4 1 -7 4c-3 -3 -5 -6 -5 -7h-47c-2 0 -3 2 -5 4c3 14 5 30 5 49c0 1 0 1 -8 17c0 7 6 11 17 11l38 -3c-31 -17 -34 -19 -34 -26l3 -3c4 3 7 5 8 5h16c0 -8 0 -9 -31 -24v-12c6 -3 12 -5 17 -5c8 5 11 7 14 7c1 -1 4 -3 10 -6c6 3 13 20 21 49c0 21 4 31 12 31
c5 0 11 -3 17 -8c1 -11 3 -19 7 -26l18 2c-6 -8 -9 -13 -9 -14c0 -2 0 -3 15 -27zM214 -57c-2 -2 -5 -3 -8 -3c-11 4 -14 5 -18 5c-32 2 -41 7 -48 19c4 4 11 12 20 25c0 5 6 19 17 40h7c0 -2 -2 -8 -22 -59v-7c19 -4 31 -6 35 -6s9 1 15 2zM532 164c0 1 -1 3 -3 5
c-10 -14 -10 -15 -10 -22c9 4 13 10 13 17zM551 35c0 12 -5 22 -13 22c-4 -10 -5 -14 -6 -17c0 -5 2 -10 5 -15c3 3 8 6 14 10zM437 104c0 8 -4 14 -12 18c-5 -3 -7 -11 -7 -23c0 -9 2 -16 7 -19c8 6 12 14 12 24zM422 -1c0 13 -11 28 -22 28c-3 0 -9 -1 -17 -4v-5
c1 0 6 -17 15 -51c4 -2 8 -2 9 -2c3 4 7 9 11 16zM282 89v12c-5 3 -10 4 -16 4c-3 -5 -6 -10 -10 -16v-22c1 -1 6 -2 7 -2c13 10 19 18 19 24zM324 -7c-3 6 -5 10 -7 11c-4 -7 -4 -9 -4 -11h11z" />
</svg>