<?xml version="1.0" encoding="iso-8859-1"?>
<!DOCTYPE svg PUBLIC "-//W3C//DTD SVG 1.1//EN" "http://www.w3.org/Graphics/SVG/1.1/DTD/svg11.dtd">
<svg width="100.0" height="100.0" version="1.1" xmlns="http://www.w3.org/2000/svg" xmlns:xlink="http://www.w3.org/1999/xlink">
<path fill="#00f0ff" transform="scale(.1,-.1) translate (0, -800)" glyph-name="A" unicode="A" horiz-adv-x="1134" 
d="M1092 248c-1 -2 -8 -9 -18 -9l-20 4c-28 -8 -32 -8 -63 -8l-30 1c-5 0 -8 -1 -10 -3c-7 -9 -19 -13 -36 -13c-6 0 -6 0 -20 12c-1 0 -1 0 -29 -14l-18 14l-24 -12c-4 0 -11 6 -20 17c-6 -4 -11 -9 -14 -15c-17 -8 -26 -13 -29 -13c-1 0 -4 0 -9 2l-36 -12
c-12 0 -12 2 -15 28l-35 -18c-3 0 -6 3 -8 8v6c6 0 12 2 21 4c8 8 16 12 25 12h5l9 -27l3 -1c0 3 29 10 48 13c9 1 16 5 21 10c7 11 11 17 14 17c13 -11 19 -17 21 -17l28 12c0 -1 4 -3 12 -6v-7h5c26 11 26 11 27 11c5 0 9 -2 14 -7l7 -7c27 21 27 21 56 21
c11 -5 15 -7 17 -7c5 0 14 3 27 8c-3 1 -9 2 -16 3c-4 8 -7 9 -48 9c-8 0 -9 3 -12 15c-14 -5 -15 -5 -18 -5c-2 0 -9 3 -17 7l-26 -16c-1 0 -1 0 -7 2c0 13 -9 25 -18 25l-28 -6c-2 0 -10 3 -29 11c-9 -4 -17 -7 -18 -7c-7 0 -11 4 -14 11c-2 8 -5 12 -9 12
c-13 -4 -14 -4 -15 -4c-2 0 -8 2 -24 9c-15 -6 -20 -7 -21 -7c-5 0 -6 1 -23 10c-1 0 -1 0 -23 -8c-7 0 -8 1 -8 35c0 5 -5 7 -14 7c-3 0 -10 -2 -22 -6c0 -2 -1 -3 -3 -3h-14c-3 2 -4 6 -4 11s1 11 4 19c-3 3 -5 5 -8 5c-1 0 -1 0 -35 -18c-5 0 -6 3 -6 23h-5
c-1 0 -2 0 -41 -14c-3 0 -10 5 -20 15c3 6 6 15 11 28c-3 1 -6 2 -8 2c-7 0 -11 -2 -67 -28c-5 0 -6 2 -13 20l-32 -14c-5 0 -9 5 -12 14c-2 9 -4 14 -7 14c-16 -8 -26 -13 -27 -13c-11 0 -11 0 -11 38c-1 2 -2 3 -3 3c-21 -5 -36 -9 -39 -9c-9 0 -13 4 -13 11l6 16l-2 3
c-6 -4 -10 -6 -12 -6c-3 0 -9 4 -20 12c2 4 3 8 3 11l-41 -15h-9v17l-3 3c-12 -8 -28 -24 -49 -47c-1 3 -4 7 -8 12c-6 -1 -18 -21 -18 -28c-4 -2 -8 -7 -14 -13v-12c0 -5 -2 -12 -6 -19c0 -4 1 -8 3 -12l-8 -13c1 -1 2 -10 5 -27l4 -4v-16c-1 -1 -2 -2 -3 -4l7 -40
c4 2 7 3 8 3c3 0 8 -5 13 -14c6 -13 6 -14 29 -40c6 10 7 10 11 10c0 -1 48 -28 54 -28l3 3c-6 9 -9 15 -9 18v9c5 3 8 4 9 4s42 -26 45 -28l5 -1l-7 20c0 8 4 12 12 12c8 -2 30 -11 68 -25l-10 16c0 6 2 9 7 9c6 0 72 -40 78 -48c3 7 -4 19 -8 26l2 10c24 0 33 -4 78 -46
l-2 28c0 9 4 14 13 14c31 -14 34 -15 41 -15c1 4 3 9 6 16c4 2 7 3 8 3l36 -14c3 0 3 0 21 16h-2c0 -1 9 -3 28 -7h24c1 -1 2 -3 2 -5c0 -3 0 -3 -10 -9c0 -8 2 -21 5 -42l-6 -2c-24 12 -25 12 -48 14c-8 -4 -10 -5 -12 -5l-12 3c-1 -2 -2 -6 -2 -12c-8 -2 -14 -9 -18 -20
l-5 -3c-9 9 -23 21 -43 36v8c11 0 24 -8 36 -25c4 4 4 6 4 12c8 1 13 4 16 10c3 7 7 10 12 10l7 -4c0 1 2 3 7 7c12 0 23 -2 53 -14v5c-5 18 -5 18 -5 19v5c-13 4 -21 5 -23 5c-17 -13 -18 -13 -23 -14c-5 0 -5 0 -37 10c-13 -22 -14 -23 -16 -23c-37 18 -38 18 -39 18
c-3 -3 -5 -7 -5 -12c0 -4 1 -8 5 -22c0 -9 -3 -13 -9 -13c0 3 -36 34 -61 50h-9c0 -14 0 -14 5 -24c0 -9 -4 -13 -12 -13h-4c-5 12 -24 26 -56 43c4 -10 4 -10 4 -11c0 -5 -2 -9 -7 -14c-27 18 -68 30 -77 30l8 -22c0 -7 -2 -11 -7 -11l-51 25c0 -4 1 -4 8 -21
c0 -7 -3 -11 -8 -11l-54 28c-2 -1 -3 -5 -4 -12l-6 -4c-5 0 -24 19 -55 56l-4 -5h-9v5c-1 1 -2 1 -4 2c-6 20 -7 28 -7 71c0 4 -1 8 -3 12c0 2 1 4 2 7c-2 9 -7 20 -13 37c2 1 5 4 8 8v15c7 4 10 9 10 14c0 4 -2 8 -5 13c1 2 3 5 8 10h6c2 2 3 8 6 16c3 1 6 4 10 7
c6 11 8 14 17 15c1 0 5 -3 13 -9c44 48 46 51 58 51c3 0 5 -3 5 -9l-7 -19c1 -1 2 -2 4 -2c7 0 20 4 39 13c1 3 5 7 10 12h6c1 -1 2 -3 2 -6c-1 -1 -4 -8 -9 -21c2 -3 4 -5 7 -5c1 0 14 3 18 4c6 0 9 -3 9 -9c0 -2 -2 -7 -7 -16c3 -3 5 -5 7 -5s13 3 35 9c6 0 9 -12 9 -39
c6 0 7 0 36 13c3 0 5 -5 6 -14c2 -9 5 -14 8 -14c14 0 35 14 35 25c0 7 -2 10 -6 10c-1 0 -1 0 -9 -6c-4 0 -9 3 -16 8c2 7 2 10 2 15c-9 -11 -25 -21 -32 -21c-5 1 -7 4 -7 10c26 7 33 15 33 37c3 4 6 6 9 6c1 -1 4 -2 5 -2c2 -6 3 -18 5 -34h4c4 0 10 -2 18 -6
c1 -4 2 -8 3 -11l8 2c7 0 14 -4 20 -13c-1 -2 -2 -3 -2 -4c-4 3 -9 5 -14 5c-3 0 -7 -3 -13 -10c2 -11 4 -17 7 -17c47 24 48 25 83 25v-5c-1 0 -5 -10 -12 -29c6 -7 10 -10 11 -10c36 15 42 18 44 18c6 0 6 -1 6 -21c1 -1 3 -2 5 -2c-2 0 -4 0 -4 1c0 2 28 13 41 13
c1 0 1 0 7 -2l-1 -22c0 -5 1 -9 2 -11h4c5 5 6 5 36 9l8 -1c4 -5 6 -10 6 -13c0 -1 0 -2 -3 -11v-12c5 0 9 1 32 5l14 -12c1 0 6 2 25 9c13 -8 19 -11 21 -11c1 0 6 2 25 9c4 0 8 -2 11 -6c-4 -6 -5 -10 -5 -11c0 -6 2 -9 7 -9c2 0 8 2 18 7c30 -10 35 -11 38 -11
c5 1 23 2 26 2s4 -1 20 -23l8 7c5 5 11 7 17 7c8 -4 15 -7 17 -7c3 1 7 2 16 7c10 -10 15 -15 16 -15c30 0 65 -6 65 -11c12 4 12 4 13 4s3 -1 21 -13l16 6c4 0 10 -3 18 -8v-8zM693 270c-2 -12 -2 -14 -2 -15c-17 -3 -30 -4 -39 -4c-2 0 -16 4 -20 6c-9 -6 -13 -9 -16 -9
c-41 0 -49 2 -67 10l-12 -8c-1 0 -5 1 -9 3c-13 -6 -18 -9 -20 -9c-3 0 -10 4 -19 13c-3 -4 -5 -10 -5 -18c-2 0 -2 -1 -6 -2c-9 0 -22 11 -38 32c-7 -13 -11 -19 -12 -19c-4 1 -17 7 -18 8c-2 -1 -5 -2 -8 -3c-2 0 -16 12 -18 14c-1 -1 -1 -4 -2 -8c-5 -5 -8 -8 -9 -8
c-9 0 -30 10 -63 30c-3 -19 -4 -21 -9 -21s-14 5 -27 16c-9 -9 -9 -9 -16 -9c-5 0 -8 1 -22 10c-5 -9 -10 -14 -16 -14c-2 0 -5 2 -11 7c2 0 3 0 3 -1c0 -2 -30 -14 -42 -14c-36 0 -72 42 -72 91c0 18 4 28 21 63c23 13 42 19 58 19c14 0 15 0 33 -21h4l3 6c2 4 5 6 8 6
l21 -16c5 7 9 11 10 11c27 -25 27 -25 28 -25s1 0 15 12c16 -12 23 -17 25 -17c1 0 11 4 11 5c20 -22 24 -26 25 -26s11 4 11 5c22 -12 33 -17 35 -17l14 10c14 -10 23 -17 24 -17c8 6 8 6 12 7c13 -8 23 -13 27 -14c3 6 6 9 11 9c11 -9 15 -11 17 -11l8 2
c18 -10 20 -11 22 -12c4 0 7 4 10 13c10 0 10 0 30 -20c11 0 12 0 34 -19c13 -11 21 -16 25 -16c2 0 8 1 20 3c4 0 15 -6 33 -18zM626 268h-14c-5 0 -8 2 -9 5v7c1 2 5 3 10 6c-13 11 -20 16 -23 16c-1 0 -3 0 -8 -2c-4 0 -8 4 -13 13c-4 9 -8 13 -12 13
c-9 -11 -13 -17 -14 -17c-16 14 -18 14 -20 16c-3 -1 -4 -2 -12 -7c-3 0 -4 1 -15 12l-6 -10c7 -3 13 -12 19 -28c3 -1 5 -2 9 -2c5 11 8 16 10 16c20 -25 22 -27 33 -27h5c16 0 26 -6 31 -17h15c5 0 9 2 14 6zM579 263v3l-7 2v-3zM539 275c-4 7 -8 11 -11 13
c-7 -7 -12 -10 -14 -10c-8 0 -15 7 -20 20h-4l-2 -16c4 -15 10 -22 18 -22c25 7 27 9 33 15zM481 323c-10 9 -17 14 -21 14c-3 -1 -4 -2 -12 -7c-1 0 -1 0 -23 18c-11 -9 -15 -11 -17 -11s-3 0 -6 2c0 -19 11 -43 22 -54l6 5c0 -1 9 -6 27 -17c0 9 1 10 4 12l-2 11
c0 4 2 6 6 6c1 0 7 -7 16 -21v-3v45zM475 265c0 3 -4 9 -13 19l3 -26c0 -1 2 -2 5 -3c3 0 5 3 5 10zM426 269c-11 8 -13 12 -29 47l-2 -42l28 -5h3zM392 346c-9 7 -15 10 -16 10c-9 -5 -10 -5 -12 -5c-7 0 -10 3 -26 19c-7 -2 -11 -3 -13 -3c0 -22 0 -22 21 -83
c4 -2 10 -6 17 -11h5c-7 16 -10 27 -10 33c0 13 5 29 9 29c3 0 7 -7 21 -38c0 12 2 27 4 49zM335 287c-18 67 -19 72 -19 90c-5 6 -10 9 -13 9c-5 0 -8 -4 -8 -11c0 -4 4 -10 13 -18c3 -23 5 -37 5 -44c0 -2 -1 -4 -2 -6l-8 1c0 -1 0 -5 2 -9c15 -9 23 -14 26 -14
c1 0 3 1 4 2zM262 396c-3 -4 -5 -7 -5 -10c7 -3 14 -20 20 -49c3 7 7 11 10 11c4 0 15 -32 15 -34c5 31 -21 75 -40 82zM294 292c-1 -1 -2 -2 -3 -2c-8 0 -8 4 -8 25c-1 3 -3 6 -4 8v-34c2 -3 6 -6 12 -11c2 3 3 7 3 14zM269 320c0 1 0 2 -4 11c0 31 -1 35 -31 71h-5
c2 -12 3 -19 3 -21l6 3c9 0 17 -30 17 -48l-2 -51c2 2 4 6 6 12h12l-2 3v20zM243 325c-6 -14 -7 -22 -8 -24c0 -3 3 -4 8 -4v28zM220 324v11l-10 4c-2 0 -4 -1 -6 -4c-7 12 -19 18 -37 18l-4 -2c0 2 -4 5 -11 12v2c0 4 -3 9 -6 9c0 -13 11 -29 50 -45c4 -4 11 -8 20 -13
c1 2 2 5 4 8z" />
</svg>