<?xml version="1.0" encoding="iso-8859-1"?>
<!DOCTYPE svg PUBLIC "-//W3C//DTD SVG 1.1//EN" "http://www.w3.org/Graphics/SVG/1.1/DTD/svg11.dtd">
<svg width="100.0" height="100.0" version="1.1" xmlns="http://www.w3.org/2000/svg" xmlns:xlink="http://www.w3.org/1999/xlink">
<path fill="#00f0ff" transform="scale(.1,-.1) translate (0, -800)" glyph-name="C" unicode="C" 
d="M874 -113c-1 -4 -3 -9 -6 -15h-21c-1 0 -4 0 -15 4l-85 -6c-8 0 -18 12 -18 21h7l13 -8c0 5 44 12 73 12c7 0 20 -3 39 -10c6 1 12 2 13 2zM998 -13c0 -24 -37 -54 -68 -54c-3 -3 -4 -7 -4 -20c0 -10 -3 -13 -33 -26l-2 -18c-3 -16 -4 -16 -169 -16c-8 8 -9 11 -9 19
c0 3 1 11 2 17c-4 3 -7 4 -10 4l-12 -4l-12 4h-29l-4 -3l4 -4c0 -7 -1 -16 -4 -27c-9 0 -10 0 -38 4l-124 -2c-11 0 -19 3 -23 8c0 21 0 21 -37 25h-77c-1 -2 -3 -12 -4 -29l-12 -4c-10 3 -16 3 -65 3l-35 -1c-16 -1 -65 -7 -72 -8c-15 0 -16 3 -17 30c-44 3 -63 10 -63 30
c0 6 3 12 8 17c-6 9 -9 10 -61 28c0 39 11 57 38 65c16 5 35 18 35 25c0 1 0 3 -4 10c0 13 18 27 30 27c10 -2 10 -2 11 -2c6 0 26 17 27 23c-1 3 -2 6 -2 10c0 22 9 33 27 33c14 -4 14 -4 15 -4c3 0 17 11 43 34c-3 5 -4 10 -4 15c0 17 10 26 30 26l18 -10c6 6 15 16 26 30
c0 4 -2 8 -4 15c5 7 6 9 8 31c-3 33 -3 44 -3 45c0 42 10 86 27 144c50 70 77 84 134 88c22 -4 23 -4 24 -4c5 0 9 8 14 24c30 62 44 84 97 121c1 1 3 6 4 14c11 9 19 13 24 13s13 -11 13 -16c0 -8 -9 -26 -21 -26c-3 0 -7 3 -12 8c-51 -27 -79 -65 -104 -136
c45 -7 65 -20 106 -67c35 -37 56 -117 68 -250c23 -20 35 -30 36 -30l12 8c5 0 12 -4 21 -13v-20c11 -7 27 -16 47 -30c5 6 9 9 12 9c12 0 25 -11 25 -20c0 -3 -3 -7 -8 -12c2 -2 12 -11 31 -27c7 7 12 10 17 10h-2c0 -1 5 -2 15 -3c5 -5 8 -10 8 -17c0 -5 -2 -8 -6 -9
c11 -14 20 -21 26 -21l20 8c10 0 16 -4 19 -13c0 -5 -1 -12 -4 -22c27 -21 31 -30 36 -57zM475 544l-18 3c-5 -1 -12 -4 -21 -7l11 -3c7 1 16 4 28 7zM405 517v8c-6 -6 -9 -9 -9 -10zM674 257c0 5 -1 11 -2 17h-10c0 20 -3 37 -13 77c-6 67 -6 73 -51 118c3 4 6 6 9 6
c1 0 4 0 11 -2c-16 26 -30 42 -39 45c-36 10 -58 15 -65 15c-1 0 -1 0 -11 -2c-1 0 -11 3 -21 6l-20 -10l-6 2c-29 0 -48 -14 -81 -65c-9 -9 -14 -22 -19 -66c0 -8 1 -17 3 -27l-10 -73c0 -16 3 -27 10 -34c7 12 8 14 8 39c0 47 3 58 15 58h2c-3 -17 -4 -43 -4 -100
c27 -13 52 -19 74 -19c3 0 6 1 14 3c-5 7 -8 18 -8 28v57c0 11 6 48 17 109c5 5 16 10 35 14c2 2 4 5 8 7c8 1 12 1 14 2c14 0 40 -29 41 -45l5 -79v-50c0 -21 2 -37 6 -49h21c19 0 31 4 67 18zM384 502l-2 1l-3 -5l3 -1zM715 158c-11 29 -13 31 -30 52c0 -1 -1 -2 -4 -3
c13 -23 24 -41 33 -54zM670 206l-5 -3v-7c3 3 5 7 5 10zM380 489l-3 8c-8 -8 -12 -14 -13 -18c4 1 9 4 16 10zM563 244v101c0 1 -1 3 -3 6c0 59 -9 89 -28 89c-23 0 -27 -5 -42 -22c-5 -7 -13 -86 -13 -96v-47h19c6 4 6 4 7 4c7 0 16 -2 16 -9c-5 -6 -7 -7 -46 -18v-11h35
c5 1 12 2 13 2s2 0 9 -4l14 4c1 0 3 0 13 -4c2 0 4 2 6 5zM711 126c-8 17 -21 39 -40 64c0 -15 0 -18 29 -69c3 3 7 5 11 5zM527 334c0 13 -6 19 -17 19c-10 0 -23 -10 -23 -18c0 -7 11 -24 20 -24c8 0 20 14 20 23zM689 102c0 19 -20 68 -42 90c5 -24 13 -59 24 -105h15
c0 2 1 7 3 15zM354 443l-3 1l-2 -5l2 -1zM352 436h-3l-4 -20h3zM658 77c0 71 -17 96 -40 107c5 -25 12 -62 23 -109c7 1 12 2 17 2zM628 63c0 24 -14 93 -29 127h-2c-2 0 -2 -5 -3 -14c1 -1 3 -2 3 -4l5 -61c3 -22 7 -42 12 -60c5 0 8 -1 9 -3c3 3 5 8 5 15zM600 49
c0 23 -8 78 -28 139l2 -102c4 -20 4 -24 4 -25c0 -4 -1 -8 -2 -12h24zM567 49c-3 5 -4 9 -4 12v53c0 48 -2 64 -10 74v-139h14zM541 51v73c0 14 -3 36 -9 66c-1 -2 -2 -4 -4 -7l-5 -71v-65c9 0 15 1 18 4zM336 281v11h-4v-11h4zM515 154c-2 13 -3 22 -3 28
c-3 -19 -7 -47 -11 -85c0 -48 0 -49 -10 -49c-7 0 -10 3 -10 9c7 11 7 12 10 67l5 12v56h-7l-24 -147h42c2 5 3 6 6 72zM359 226h-7c-2 -1 -2 -3 -2 -14c4 4 7 9 9 14zM468 190l-78 -137c0 -3 1 -5 2 -7c39 0 59 1 60 3c-1 2 -1 4 -1 7c7 23 7 24 13 65
c-22 -69 -24 -71 -33 -71c-3 0 -7 6 -7 11c41 76 44 98 44 129zM446 172v10l-82 -123c0 -3 1 -5 2 -7c9 5 34 43 75 116c1 3 3 4 5 4zM430 190c-10 -9 -95 -113 -95 -121l3 -8h9c35 46 36 47 83 129zM403 210c-27 -21 -47 -40 -59 -56c-7 -10 -23 -25 -47 -46l9 -9
c6 5 97 94 97 111zM384 211v7c-6 0 -6 0 -99 -92c1 -1 2 -3 2 -5h7c20 21 50 51 90 90zM410 190c-24 -20 -24 -20 -45 -53c-14 -11 -31 -29 -50 -54l12 -2c59 69 69 80 83 109zM955 -14c0 13 -29 24 -58 24c-1 0 -3 0 -15 -2c-1 0 -10 4 -19 8c-1 0 -8 -1 -29 -4l-90 2
l-34 8l-10 -4c-14 2 -34 4 -35 4l-266 -16c0 2 -45 8 -86 10c-1 0 -78 -10 -87 -12h-71l-45 6c-20 0 -45 -14 -45 -25l10 -25c17 -9 26 -13 27 -13c33 0 39 -1 93 -6l72 6c1 0 2 0 21 -6l171 13l140 -5l184 4c77 -8 79 -8 130 -6c15 0 42 23 42 39zM632 -108v1l-32 -1l-32 6
c-11 -4 -14 -4 -15 -4l-26 6c-1 0 -6 -1 -37 -8c-1 0 -3 1 -6 4c-1 -1 -2 -3 -3 -5c2 -9 11 -14 26 -14h78c18 4 19 4 45 4zM335 -109l-20 -2c-2 -1 -4 -2 -5 -2c-17 3 -70 9 -78 10l-59 -5c-5 -1 -7 -3 -7 -8v-10h23l14 4h61c6 1 25 5 30 5c36 0 36 1 41 8zM345 408v-52
l-2 -2c2 -7 2 -8 2 -10c0 -3 -2 -11 -9 -31c-2 2 -3 7 -3 14c0 13 6 76 12 81z" />
</svg>