<?xml version="1.0" encoding="iso-8859-1"?>
<!DOCTYPE svg PUBLIC "-//W3C//DTD SVG 1.1//EN" "http://www.w3.org/Graphics/SVG/1.1/DTD/svg11.dtd">
<svg width="100.0" height="100.0" version="1.1" xmlns="http://www.w3.org/2000/svg" xmlns:xlink="http://www.w3.org/1999/xlink">
<path fill="#00f0ff" transform="scale(.1,-.1) translate (0, -800)" glyph-name="E" unicode="E" horiz-adv-x="1460" 
d="M1434 375c0 -38 -3 -67 -9 -88c-21 -11 -53 -44 -96 -100c-46 -61 -85 -102 -116 -123c-58 -75 -59 -75 -151 -129c-23 -10 -260 -60 -290 -60c-98 0 -99 0 -296 31c-46 14 -115 34 -208 60c-93 3 -137 17 -151 44c-10 51 -13 56 -34 80c-5 11 -7 33 -7 68
c159 116 197 139 437 254c7 45 33 110 56 138c13 10 30 27 52 51c11 5 18 9 23 12c89 14 95 14 105 14c80 0 165 -70 171 -141c10 -7 27 -10 51 -10c8 1 146 18 147 18c15 -3 40 -6 41 -6c36 0 98 -4 187 -12c1 -9 5 -21 10 -34c7 5 27 12 58 23c3 -4 20 -52 20 -90z
M867 484c-5 23 -32 61 -45 61c-16 -32 -24 -59 -24 -80c9 -4 22 -14 38 -29c7 31 13 39 31 48zM832 385c0 13 -3 23 -8 28c-6 -3 -8 -7 -8 -34c3 0 9 2 16 6zM728 527c-2 8 -6 20 -12 36h-20c-10 -8 -20 -30 -31 -65c-10 -35 -21 -58 -34 -70v-44c13 21 22 44 29 71
c15 17 38 41 68 72zM717 300c-13 7 -33 27 -62 60c5 -33 5 -43 5 -68c29 0 37 1 57 8zM1346 411c-3 0 -4 0 -71 23l-102 8c-129 0 -204 -6 -225 -19c0 -63 0 -68 -16 -84c-16 0 -34 -12 -53 -28c-26 -22 -43 -34 -50 -36c-69 -20 -126 -30 -170 -30c-85 0 -109 16 -188 104
l-193 -114c31 11 50 16 57 16c25 0 46 -15 46 -38c0 -41 -37 -78 -80 -78c-27 0 -41 16 -41 49c0 6 2 12 14 49c-21 -7 -25 -11 -118 -83c196 -91 223 -103 532 -148h69c38 0 135 16 181 45c37 24 38 24 98 51c50 22 50 22 141 120c3 5 6 13 9 23c12 11 27 25 45 42
c-50 14 -58 18 -58 43c0 9 28 58 70 58c20 0 29 -5 45 -25c6 -8 9 -9 11 -9c13 15 28 35 47 61zM1387 347c-5 5 -7 11 -7 19c-41 -36 -97 -91 -170 -165c-75 -98 -92 -120 -235 -186c-98 -45 -163 -60 -268 -60l-91 7c-27 0 -217 37 -289 59c-148 62 -150 62 -170 62v-27
c48 -41 63 -54 123 -54c3 1 4 1 12 6c9 0 51 -11 126 -33c57 -17 125 -28 204 -33c30 -9 56 -15 57 -15l185 6c76 0 178 37 262 94c14 9 43 43 87 101c11 6 26 16 44 31c11 16 26 36 47 60c3 19 8 34 15 45c5 2 12 6 20 12c2 36 3 37 48 71zM1138 256
c-8 -50 -35 -86 -66 -86c-29 0 -43 12 -43 35c0 34 25 75 49 75c15 0 35 -8 60 -24zM919 121c0 -48 -18 -72 -55 -72c-35 0 -61 21 -61 54c0 34 58 61 84 61c21 0 32 -14 32 -43zM630 155c0 -37 -50 -72 -95 -72c-25 0 -38 10 -38 29c0 9 7 28 20 55c27 13 56 20 87 20
c17 0 26 -11 26 -32z" />
</svg>