<?xml version="1.0" encoding="iso-8859-1"?>
<!DOCTYPE svg PUBLIC "-//W3C//DTD SVG 1.1//EN" "http://www.w3.org/Graphics/SVG/1.1/DTD/svg11.dtd">
<svg width="100.0" height="100.0" version="1.1" xmlns="http://www.w3.org/2000/svg" xmlns:xlink="http://www.w3.org/1999/xlink">
<path fill="#00f0ff" transform="scale(.1,-.1) translate (0, -800)" glyph-name="F" unicode="F" horiz-adv-x="1017" 
d="M968 2c-5 -5 -9 -8 -10 -8c-13 4 -29 8 -37 10c-3 -3 -5 -7 -5 -11c0 -3 6 -24 13 -46c0 -5 -4 -10 -11 -17c-7 0 -27 -2 -62 -7c-10 2 -16 3 -19 3c-25 0 -37 -5 -55 -13c-14 0 -14 7 -14 29c0 29 0 49 -46 49c-32 0 -51 -3 -57 -9c-3 -4 -9 -24 -18 -59
c-2 0 -8 -1 -14 -3c-48 24 -64 29 -91 29c-7 0 -23 -2 -34 -3v24c7 16 7 17 8 45c-95 34 -133 48 -148 54c-9 -20 -21 -30 -36 -30c-9 0 -16 5 -22 15c-22 36 -32 44 -80 60c-17 9 -26 19 -26 31c4 0 12 19 16 42l-65 115c-14 -7 -27 -10 -40 -10h-30c0 59 -6 81 -36 111v14
c11 7 27 16 49 29c-15 27 -30 71 -39 114c9 9 18 13 27 13h-1c0 -7 148 -22 156 -22c3 0 28 5 67 13c1 0 5 -3 27 -18l8 -32c9 -39 70 -93 86 -93c60 44 83 55 120 55c20 -5 44 -10 45 -10c8 0 19 9 32 28l26 36c11 11 26 27 43 49c22 82 36 101 58 101c21 0 40 -21 40 -45
c0 -16 -18 -42 -29 -42c-8 0 -21 2 -31 3c-3 0 -6 -3 -11 -9c-4 -13 -28 -44 -71 -94c-5 -11 -14 -27 -26 -48c30 -30 48 -75 48 -121c-10 -28 -13 -36 -13 -39c0 -11 1 -11 29 -21c41 -32 95 -51 164 -58c10 -7 10 -10 7 -33l34 -63c5 -4 5 -4 74 -91v-17zM612 406
c0 5 -3 10 -9 15c-3 -7 -3 -9 -3 -22zM760 197v5h-12v-5h12zM615 282c-3 21 -8 51 -17 91c-5 -6 -8 -15 -8 -28v-46c1 -11 2 -13 4 -17h21zM560 440l-5 4c-21 -23 -31 -48 -31 -73c0 -14 3 -28 10 -42c-4 -8 -10 -14 -19 -19v-14c13 -3 18 -4 38 -4l4 8l-5 48c1 6 4 37 8 92
zM495 348c-4 5 -6 11 -6 17c1 9 3 26 5 47c-3 5 -6 10 -10 16l-6 -4c-6 -18 -9 -27 -9 -30c0 -2 7 -11 17 -25c0 -4 -7 -12 -20 -24c5 -5 12 -11 22 -17c0 8 1 14 7 20zM893 -42v49h-27h2c0 -2 -26 -6 -78 -13v-27c0 -4 2 -11 7 -20c9 2 23 3 43 4l14 7h39zM906 46v18
c-47 54 -72 82 -76 85c-11 0 -20 -3 -26 -9c-127 -20 -127 -20 -213 -26c-65 0 -115 19 -184 68c-6 4 -20 25 -42 62c-49 42 -88 103 -93 224c0 13 2 33 6 59c-1 0 -2 0 -19 4c-36 -10 -36 -10 -37 -10c-3 0 -24 6 -46 13h-23c-3 -3 -4 -8 -4 -13c0 -31 64 -209 97 -232v-21
c12 -9 26 -30 43 -63c28 -42 90 -81 185 -117h45c23 -8 57 -17 104 -27c25 -2 33 -3 185 -35c40 0 47 9 68 36c7 -4 16 -10 30 -16zM437 331l-1 16l-5 -19zM662 18l-54 18c0 -1 -8 -3 -22 -6c18 -14 20 -14 67 -14zM566 34c-19 10 -38 17 -58 21c26 -19 33 -21 58 -21z
M637 -13c-50 4 -51 4 -76 20h-20v-35c10 0 35 -5 77 -13c11 0 18 9 19 28zM256 198c-28 45 -50 90 -66 135c-25 36 -26 38 -31 70c-2 15 -8 25 -17 30v32c-5 7 -11 16 -17 29c1 2 2 8 2 10c0 6 -19 25 -26 27l-4 -18c10 -12 11 -15 21 -52c7 -15 16 -36 27 -61
c14 -50 47 -117 99 -202h12zM143 328c-6 24 -15 50 -27 77h-21l-4 -18c5 -15 14 -37 27 -66c9 0 17 2 25 7zM279 174c-5 9 -10 14 -16 17v-10c0 -3 4 -8 11 -15c2 2 4 5 5 8zM343 79c-10 10 -21 17 -32 21c4 -5 9 -13 17 -21h15zM272 128c-7 10 -15 18 -25 24v-18
c20 -5 24 -6 25 -6z" />
</svg>