<?xml version="1.0" encoding="iso-8859-1"?>
<!DOCTYPE svg PUBLIC "-//W3C//DTD SVG 1.1//EN" "http://www.w3.org/Graphics/SVG/1.1/DTD/svg11.dtd">
<svg width="100.0" height="100.0" version="1.1" xmlns="http://www.w3.org/2000/svg" xmlns:xlink="http://www.w3.org/1999/xlink">
<path fill="#00f0ff" transform="scale(.1,-.1) translate (0, -800)" glyph-name="H" unicode="H" horiz-adv-x="2620" 
d="M1569 77l-129 -22c-41 4 -53 5 -62 13c4 9 9 14 14 14c35 -6 53 -9 59 -9l62 9zM2587 398c-3 -3 -8 -4 -17 -4c-1 0 -62 10 -69 12l-212 6c-41 2 -151 15 -252 28c-5 3 -7 8 -7 15c0 8 5 12 16 12c172 -36 269 -46 360 -46c11 0 28 1 68 3c3 0 36 -2 86 -6
c15 6 16 6 17 6c1 -1 5 -10 10 -26zM2281 377c0 -11 -5 -16 -15 -16c-61 9 -62 9 -291 14c-6 0 -56 -3 -90 -5l-4 14c3 3 6 6 10 9l390 1v-17zM2281 198c0 -5 -3 -10 -10 -16h-10c-2 2 -3 4 -3 6s2 5 5 8c-3 6 -4 7 -121 10l-133 -9c0 3 -2 6 -7 10c1 1 2 4 5 10
c13 5 26 7 37 7h199c25 0 38 -9 38 -26zM2036 514c0 -11 -6 -17 -19 -17l-131 12c-65 0 -168 -20 -270 -54c-9 0 -14 3 -14 9l8 13c61 16 101 25 121 28l139 19l162 -3c3 0 4 -2 4 -7zM2287 311c-3 -9 -10 -14 -20 -14c-1 0 -54 5 -63 6l-96 -6l-195 12c-14 0 -14 0 -50 -3
l-85 9c-1 0 -3 0 -85 -12c-27 0 -58 4 -93 13h-37c3 7 21 12 53 14l82 -12c40 9 47 9 85 9zM1990 231c-5 -5 -9 -7 -12 -7c-11 0 -57 1 -136 4c-2 5 -3 10 -3 13c5 5 11 7 19 7c37 -5 38 -5 76 -6c23 0 23 0 43 6c4 0 8 -2 13 -7v-10zM1929 441c-10 -13 -18 -20 -24 -20
c-24 14 -25 15 -45 18c-149 -10 -216 -19 -338 -42h-19c-1 3 -3 7 -7 11c1 2 3 6 7 9l358 35c4 -1 25 -5 68 -11zM1742 249l-6 -7c0 2 -4 5 -12 12c-99 0 -136 -3 -239 -23h-16l-3 17l272 24zM1496 456l-165 -8c-75 0 -82 7 -92 17c4 9 9 14 15 14h-2c0 -10 89 -15 194 -12
c22 0 39 -4 50 -11zM1923 184c-10 -15 -17 -23 -21 -23c-35 12 -42 12 -80 12l-448 -28c-43 0 -53 1 -68 10v17c13 4 14 4 16 4c24 -12 24 -12 73 -15l256 12c7 -1 16 -2 29 -3l210 18c26 -4 32 -4 33 -4zM1242 481c-73 25 -92 27 -172 34c0 2 -2 4 -4 7c4 9 9 14 15 14
c9 -3 17 -5 20 -5c49 -1 96 -18 141 -50zM1511 350c0 -3 -4 -8 -32 -37c-8 -18 -22 -42 -42 -72c-43 -25 -89 -46 -139 -63c-25 -9 -81 -33 -166 -74l9 -6c21 -3 28 -4 29 -4l52 1c54 0 72 -2 83 -8c-6 -7 -10 -11 -13 -11c-8 0 -50 0 -124 2c-12 0 -14 0 -41 -5l-22 24
c-122 -38 -244 -70 -303 -70l-104 3c-1 0 -79 -10 -93 -12l-24 6c-16 -2 -24 -3 -29 -3c-79 0 -199 41 -210 47c-47 25 -48 26 -78 26c-75 0 -79 -4 -98 -26c-6 -7 -13 -10 -20 -10c-15 0 -25 6 -31 17c0 33 -4 42 -57 101c-18 36 -19 36 -20 46c-3 9 -10 18 -20 25
c-5 27 -7 41 -7 45c0 2 1 6 7 20c37 0 50 4 97 26c11 1 26 4 46 8c25 10 64 24 115 42c3 4 7 8 12 12h24c10 6 25 14 46 23c56 10 62 13 100 32c10 0 17 -2 22 -7l102 72c-3 12 -4 16 -4 18c0 -3 0 -4 1 -4c2 0 5 6 10 18c27 72 45 110 133 138c27 9 54 13 79 13
c49 -25 61 -29 79 -35c39 -18 67 -53 67 -82c23 -80 24 -80 66 -101c23 -11 55 -21 67 -21c1 0 4 1 7 3c10 0 93 -33 132 -54c44 -7 109 -17 197 -29c15 -5 41 -12 79 -23c3 1 7 2 13 2c0 -2 1 -7 3 -13zM678 110c-3 -3 -7 -5 -11 -5c-9 0 -10 3 -10 9c0 3 3 7 10 13h11v-17
zM1369 306c0 5 -4 11 -11 18c-4 -7 -12 -14 -25 -21c0 -17 2 -21 13 -21c10 0 23 14 23 24zM1033 444c-2 2 -5 3 -8 4c-7 -7 -14 -10 -23 -10c3 -2 4 -5 4 -10c10 3 19 9 27 16zM1259 196v5h-8v-5h8zM984 420c-6 10 -16 24 -29 42c-1 0 -4 1 -7 4c-10 28 -13 28 -21 28
l-3 -14c3 -12 10 -28 19 -49c4 -2 9 -6 16 -12c1 -5 2 -10 5 -16c8 0 15 6 20 17zM932 525c0 76 -22 103 -76 121c-21 16 -54 27 -84 27c-53 0 -105 -24 -142 -72c12 -5 14 -10 16 -39c8 -5 13 -12 16 -20c0 9 3 13 10 13s10 -4 28 -37c5 1 10 3 16 6c7 -7 11 -12 13 -12
c3 6 6 9 11 9c7 -7 14 -16 21 -27c9 8 15 12 19 12c6 0 25 -12 28 -19c-1 -2 -2 -5 -3 -8c30 0 65 14 127 46zM935 388c0 17 -1 20 -33 84c-2 0 -4 -9 -6 -28c1 -7 4 -15 7 -24c7 -13 11 -22 11 -29c0 -3 -1 -6 -2 -8c3 0 10 2 23 5zM884 376v38c0 6 -5 23 -16 50
c-4 -1 -9 -4 -14 -7v-84c14 2 18 3 30 3zM1072 155c0 7 -3 14 -10 20h-11l-3 -20c4 -2 8 -3 12 -3s8 1 12 3zM838 358v47c-9 34 -10 38 -16 49c-9 -12 -10 -19 -10 -51l9 9l6 -5c-9 -24 -10 -29 -11 -38c-6 -7 -12 -11 -18 -11c-4 0 -7 1 -8 2v88c-10 -18 -17 -35 -17 -43
c3 -10 5 -16 5 -19c0 -21 -8 -34 -21 -34c-8 0 -12 5 -12 16c0 10 4 35 11 74c-2 0 -4 1 -10 3c-17 -25 -25 -41 -25 -50v-34c4 1 9 5 17 12v-27c3 1 16 2 100 12zM678 486c-12 17 -28 41 -48 72c0 -26 31 -72 48 -72zM714 428v17h-11c-19 -19 -31 -48 -31 -74
c0 -12 12 -26 23 -26c8 0 9 9 14 71c3 5 5 9 5 12zM671 451c-32 -17 -54 -45 -54 -66c0 -12 13 -21 30 -21h3c3 9 10 38 21 87zM638 463c-10 -1 -33 -22 -69 -65c10 -6 20 -10 29 -13zM1457 341c-17 7 -39 16 -68 25c-118 10 -149 20 -232 52c-36 14 -60 21 -71 21
c-102 -56 -123 -67 -134 -72c-19 -5 -46 -14 -82 -26c0 -5 -10 -14 -16 -14c-5 0 -6 1 -14 9c-27 -7 -28 -7 -92 -13l-46 -5c-62 10 -63 10 -122 41c-2 1 -4 2 -9 2c-3 6 -8 9 -13 9c-4 0 -5 -1 -10 -4c1 -1 2 -5 4 -14c50 -52 51 -53 182 -64c54 7 55 7 70 14
c19 3 49 9 91 17c74 30 95 37 126 42c13 2 19 7 69 60c22 0 34 -3 37 -10c-19 -24 -52 -51 -90 -74c-11 -1 -26 -4 -46 -8c-90 -42 -219 -71 -245 -71c-138 0 -139 0 -235 95c-5 1 -10 3 -16 5c-33 28 -55 42 -64 42c-12 -2 -18 -3 -20 -3s-5 3 -21 15l-336 -119
c94 -59 343 -172 353 -172l6 3c32 -15 100 -43 179 -43c18 -4 27 -5 30 -5c60 0 61 0 88 12c12 -3 32 -6 33 -6c25 0 105 9 176 19c15 3 56 15 123 35c-12 4 -18 13 -18 26c0 25 11 38 34 38c18 0 33 -27 33 -45c83 27 165 62 245 107c-21 11 -31 20 -31 27
c0 26 27 53 53 53c13 0 23 -14 30 -42c17 9 40 23 69 41zM601 470l-31 -17c-7 -7 -17 -17 -31 -30v-10c11 -5 14 -6 17 -6c44 55 45 57 45 63zM578 477l-4 11c-24 -15 -43 -31 -71 -60c2 -1 4 -2 7 -4c11 1 12 2 68 53zM1239 250c0 -15 -26 -38 -44 -38c-2 0 -6 1 -20 7v35
c31 19 32 19 33 19c21 0 31 -8 31 -23zM869 567c-7 -2 -19 -3 -35 -3c-15 0 -29 13 -29 27c1 2 5 6 11 12l24 -24c11 6 15 7 18 9c2 0 5 -4 11 -10v-11zM823 544l-7 -8c-26 15 -28 17 -50 54c-12 21 -18 36 -18 45c0 2 2 5 7 10c3 0 7 -2 10 -6c17 -50 25 -59 58 -95z
M836 508c-5 -9 -11 -14 -16 -14c-7 -1 -17 9 -17 17v16h11c5 -5 12 -12 22 -19zM793 534c0 -3 -2 -4 -7 -4c-2 0 -2 0 -44 40l-14 -6c-6 0 -14 6 -23 19c0 5 1 8 4 11c9 -5 17 -9 18 -9c2 1 2 2 2 7c-6 6 -9 13 -9 20c0 12 4 14 15 14c1 -5 4 -12 7 -21
c12 -15 29 -39 51 -71zM902 127c0 -8 -23 -27 -35 -27c-8 0 -15 3 -22 10c2 44 5 54 16 54c9 0 20 -4 31 -11c0 -2 0 -2 10 -26zM702 127c0 -20 -23 -42 -44 -42c-8 0 -15 3 -22 10v22c3 5 7 13 10 23c9 8 17 12 23 12c11 0 33 -11 33 -25zM511 168c0 -25 -20 -56 -39 -56
c-20 0 -30 12 -30 35c0 29 12 38 48 38c14 0 21 -6 21 -17zM333 232c0 -13 -24 -38 -37 -38c-8 0 -27 21 -27 29c0 13 5 35 23 35c12 0 41 -11 41 -26zM202 289c-14 -23 -27 -34 -38 -34c-17 0 -25 11 -25 34c0 17 14 32 30 32c10 -2 17 -3 21 -3c0 -8 1 -12 12 -29z
M878 122c0 2 -3 8 -8 17l-4 -17h12zM493 143v17c-11 4 -12 4 -13 4c-9 0 -16 -5 -20 -14c5 -11 11 -17 17 -17c4 0 9 3 16 10zM311 226c-4 9 -9 13 -14 13v-26h11zM178 293c-2 0 -7 2 -14 7v-24h10z" />
</svg>