<?xml version="1.0" encoding="iso-8859-1"?>
<!DOCTYPE svg PUBLIC "-//W3C//DTD SVG 1.1//EN" "http://www.w3.org/Graphics/SVG/1.1/DTD/svg11.dtd">
<svg width="100.0" height="100.0" version="1.1" xmlns="http://www.w3.org/2000/svg" xmlns:xlink="http://www.w3.org/1999/xlink">
<path fill="#00f0ff" transform="scale(.1,-.1) translate (0, -800)" glyph-name="I" unicode="I" horiz-adv-x="1341" 
d="M352 28l-4 14c-9 5 -15 8 -17 8c-7 0 -25 -20 -25 -27c0 -6 12 -17 19 -17c12 0 27 12 27 22zM1321 374c-31 -16 -35 -18 -38 -19c0 -1 1 -2 3 -2c-2 -6 -16 -12 -41 -18c-13 -3 -24 -13 -32 -28c-1 -1 -3 -3 -6 -5c-18 -53 -59 -82 -93 -82c-1 1 -11 3 -29 5
c-7 -21 -12 -31 -17 -31l-6 2c-18 0 -49 -6 -93 -17l-1 -2c0 -20 51 -72 80 -82c16 -10 42 -23 76 -41c-1 -3 -2 -6 -4 -11c-5 -5 -12 -12 -20 -21c-4 -15 -6 -16 -58 -25c-3 -20 -9 -30 -18 -30l-6 1h2c0 -2 -119 -22 -131 -22l-156 -16c-29 -2 -216 -9 -224 -9
c-11 2 -18 3 -21 3c-4 0 -10 -1 -18 -3l-164 12c-19 6 -32 10 -159 34c-4 3 -17 7 -39 14c-3 27 -4 30 -42 36c-36 39 -39 46 -39 56c0 5 4 8 12 10c14 2 15 2 107 48c17 8 35 27 56 57l11 5c3 6 10 11 65 54c23 20 47 25 83 25c3 2 4 3 5 3c2 -1 4 -2 7 -5h4c1 1 2 3 2 6
c0 5 -2 10 -6 15v11l3 4c-1 1 -2 4 -3 7c24 70 64 116 95 116c11 0 18 -6 19 -17c5 -1 10 -6 14 -13c21 -64 25 -70 30 -70l28 7c-6 14 -9 41 29 87c2 1 5 3 9 6l2 31c-13 16 -18 30 -18 59c0 11 4 18 12 28c0 22 18 32 91 53v29l5 45c-10 16 -10 17 -10 24c0 21 7 32 20 32
c12 0 18 -4 18 -12c0 -1 -4 -7 -11 -18c2 -1 3 -3 3 -6c-16 -34 -16 -35 -16 -94c62 -12 82 -39 82 -108c0 -39 -13 -64 -41 -64c0 -1 -1 -4 -2 -5c21 -8 31 -26 31 -53l-1 -18c14 16 34 80 42 140c0 7 4 10 12 10c1 -1 5 -2 10 -4h21c3 -5 4 -9 4 -12c0 -1 -1 -10 -13 -79
l-4 -4c0 -15 -2 -24 -6 -27c63 0 104 11 197 44c5 0 12 -10 23 -29c6 27 9 29 41 44c19 9 31 14 37 14c9 0 54 -13 59 -17c21 -17 21 -17 48 -32c23 -26 36 -33 55 -33l29 14c3 -3 4 -5 4 -7zM1277 358c-3 1 -8 2 -15 5l-2 -9c3 -2 5 -3 7 -3c4 0 7 2 10 7zM1249 345v3h-5
v-3h5zM1232 342l-2 1l-4 -5l2 -1zM1250 360c-10 5 -20 12 -31 23c1 1 3 4 6 9c-8 5 -15 7 -21 7c3 -3 6 -6 9 -11l-2 -3c-27 13 -45 20 -55 20c-15 0 -36 -14 -62 -42v-25c-7 4 -11 10 -11 18c0 19 54 58 72 58c2 0 18 -4 47 -13c-12 24 -42 39 -79 39
c-29 0 -69 -35 -69 -64c0 -13 4 -26 28 -89c3 0 4 0 21 -6c23 0 34 6 43 23c15 29 27 43 34 43c2 0 4 -1 6 -3c-10 -5 -20 -17 -31 -36c-19 -32 -27 -36 -60 -36c-2 1 -4 2 -6 2s-4 -1 -6 -2v-21c0 -15 9 -20 39 -20s57 24 65 59c-20 -27 -41 -40 -62 -40c-7 0 -12 2 -15 6
c2 5 6 7 11 7c1 0 1 0 7 -2c9 0 16 4 21 12l-9 -1c1 2 1 2 2 6c6 6 28 27 40 36c4 0 4 -1 4 -6c1 2 21 42 21 53c-18 0 -28 -7 -97 -61c-1 0 -1 0 -5 2v3c16 13 35 31 57 53c-4 0 -8 1 -15 3c-16 0 -20 -6 -60 -70c-1 0 -3 1 -4 3v4c12 14 14 17 32 51c9 13 18 20 28 20
c13 -3 34 -6 35 -6l32 6c7 0 11 -2 14 -7c-5 -4 -10 -10 -14 -17c9 3 23 8 40 15zM1165 286l-5 -2l1 -2zM705 716l-10 1c-1 -2 -2 -6 -3 -13c7 5 11 9 13 12zM995 359h-2l-2 -13h3zM994 343h-3l-1 -18h2zM965 351v10h-3v-10h3zM1013 339c0 6 0 7 -7 17v8l-20 -121
c2 0 4 -1 5 -2c3 6 22 71 22 98zM1043 307l-2 6c-1 -5 -3 -11 -6 -20l-3 -24c-3 -21 -7 -36 -14 -43v-7h7c12 65 14 75 18 88zM929 357v10h-3v-10h3zM1029 309c-3 -3 -6 -5 -8 -5c-3 1 -4 3 -4 6l-15 -62c0 -3 1 -6 4 -11c6 2 11 2 12 2v7c5 11 9 32 11 63zM1047 276
l-12 -43v-16c12 17 12 19 12 59zM984 361h-9c-2 -53 -6 -93 -13 -121h7l13 78zM932 308v14l-4 -14h4zM878 361c0 3 -1 5 -2 6c-1 0 -2 -1 -4 -2c2 0 3 -2 6 -4zM954 337c0 13 0 14 -7 23h-5v-49c0 -18 -7 -44 -20 -78c0 -5 2 -8 7 -11c14 23 25 74 25 115zM966 316l-2 6
c-16 -83 -17 -85 -22 -92c2 -1 4 -2 7 -5c8 14 17 81 17 91zM919 333c-1 0 -3 6 -7 18c-7 -62 -10 -78 -22 -97c4 -3 10 -7 17 -11zM932 300c-5 -2 -8 -3 -9 -4c-2 -11 -4 -27 -6 -50c9 19 14 37 15 54zM899 349c-8 -5 -20 -46 -20 -69c-3 -3 -7 -8 -13 -12c5 -3 9 -5 12 -5
s7 3 12 9c0 29 9 64 11 64zM685 461c-12 14 -14 19 -18 69c-10 40 -10 40 -8 50l-16 -5v-13c3 -1 21 -84 21 -85c0 -2 -3 -7 -9 -16h30zM862 329c-6 -3 -13 -14 -20 -31l12 -2c4 11 6 14 8 33zM635 466c-7 10 -13 43 -17 97c-3 -3 -4 -9 -4 -18l8 -65c0 -4 -2 -8 -5 -11
c7 -3 11 -5 12 -5c3 0 5 1 6 2zM840 312c-1 0 -3 1 -6 2c0 -6 0 -7 -5 -11c0 -4 -2 -9 -5 -16c4 5 9 13 16 25zM1098 51c-9 4 -22 10 -39 19c1 -1 2 -12 3 -33c9 3 21 7 36 14zM860 270v8c-5 -3 -8 -5 -9 -6zM726 430v13l-115 10c1 -4 2 -10 2 -18c15 -8 32 -12 51 -12
c45 0 46 0 62 7zM902 204l-2 5c-3 -2 -4 -4 -4 -6l2 -8c0 -3 -2 -5 -5 -8c6 1 9 6 9 17zM864 250l-7 -26v-11l7 1v36zM790 281c-4 0 -8 -2 -13 -4c0 -3 2 -4 6 -4c3 0 6 1 7 4v4zM861 189v7c-4 -1 -8 -4 -12 -7h12zM820 256c-7 -13 -10 -26 -10 -41c0 -3 2 -6 5 -9zM822 192
l-9 10c0 -3 -1 -6 -3 -10h12zM978 37c0 5 -3 11 -8 16h-7c-4 -8 -4 -12 -5 -14c0 -7 4 -10 11 -10c6 0 9 3 9 8zM758 346c-1 -1 -2 -2 -3 -2c-2 0 -5 4 -5 6c2 8 2 10 2 13c0 48 -12 54 -92 48c-7 0 -12 1 -37 5c-35 0 -50 -23 -50 -77c4 -2 8 -2 9 -2c5 0 12 1 24 3
c13 42 33 65 84 65c9 0 15 -11 27 -54l-3 -43c-2 -2 -4 -4 -6 -7c0 -8 -1 -10 -18 -32h8c2 0 3 1 3 3v5c13 3 30 24 57 69zM773 259c-6 2 -8 2 -9 2c-9 0 -13 -14 -13 -42l6 -9c-2 -4 -5 -10 -9 -17h19l-7 13c13 48 13 49 13 53zM855 98c0 6 -9 58 -12 61l-74 2
c-4 0 -10 -1 -17 -3v-10c4 -3 4 -4 6 -33c0 20 5 26 18 26l2 -1v-7c-5 -5 -8 -8 -8 -11c0 -1 1 -5 4 -10c0 12 2 16 7 16c1 -1 6 -2 7 -2l2 12c5 0 5 0 13 5c2 -4 6 -10 12 -17c13 9 14 9 22 9c5 -9 8 -14 8 -16c0 -11 -5 -17 -15 -17c-5 0 -8 2 -8 6c0 3 3 5 9 7l-8 5
c-1 0 -3 -1 -6 -4c1 -3 2 -5 2 -6c0 -3 -2 -4 -5 -4c-1 0 -1 0 -13 6c-1 -7 -4 -10 -9 -10l-6 4c-1 0 -1 0 -11 -4c-8 0 -13 3 -18 12c2 -9 3 -16 3 -29c20 3 50 5 89 8c1 1 3 3 6 5zM705 237c0 3 -1 9 -3 18h-12l-1 -6c9 0 9 -1 9 -6l-9 -29c1 0 1 -5 1 -16
c-3 -1 -7 -2 -10 -2v-7h22c0 16 1 28 3 48zM896 22c0 10 -4 13 -22 13l-2 -15c5 -8 9 -12 11 -12c9 0 13 5 13 14zM611 275l-7 5c-2 -1 -3 -2 -3 -5h10zM649 259h-20c5 -1 8 -3 8 -7c-11 -48 -11 -50 -11 -64l14 2c-1 5 -2 9 -2 13c6 15 11 43 11 56zM481 351
c0 8 -5 12 -15 12c-9 0 -14 -4 -14 -11c0 -9 4 -14 11 -14c12 0 18 4 18 13zM614 187c-1 3 -4 4 -6 4v-4h6zM578 262c-1 1 -3 2 -6 2l-9 -27c-1 -4 -2 -10 -2 -18c0 -4 1 -8 4 -11h-2l-5 -10v-8h10c2 6 5 30 10 72zM456 329c-1 1 -9 7 -13 23c-1 6 -4 10 -9 11
c-3 -1 -4 -7 -4 -16c0 -5 -6 -9 -19 -12c0 -6 1 -13 25 -31c20 18 20 19 20 25zM440 323c-1 4 -2 9 -4 14c-3 -3 -8 -5 -13 -8c2 -3 5 -6 8 -9c5 3 6 3 9 3zM520 265l-16 2l-4 -2c-2 -3 -2 -6 -2 -7h15v-10c-7 -14 -7 -16 -7 -45c-3 -4 -6 -6 -8 -7v-6h11l8 5
c-1 0 -1 3 -2 9c5 14 8 27 8 40c0 7 -1 14 -3 21zM461 265c-1 0 -2 1 -4 2c-3 -1 -3 -1 -9 -2c-3 -11 -5 -16 -17 -81c5 0 11 1 18 2l-4 17c2 11 11 48 16 62zM409 267h-5c-1 0 -2 -2 -2 -7c2 1 4 4 7 7zM666 10c0 5 -4 8 -12 8s-12 -5 -12 -14c0 -7 3 -11 8 -11
c11 0 16 6 16 17zM1053 53c0 4 -2 8 -5 11l-6 5c4 4 7 6 10 6c-8 4 -18 12 -33 22c-5 9 -25 28 -44 46c-17 32 -18 32 -90 32c-4 0 -11 -2 -21 -6l-5 5l-73 8l-59 -1c-4 -6 -10 -9 -17 -9c0 1 -2 2 -5 4l-40 -1l-162 4c-56 -7 -62 -7 -90 -7c-109 14 -110 14 -149 8h-16
c-16 -3 -30 -6 -43 -10c-38 -43 -39 -44 -135 -90l-6 -6c5 -5 19 -12 42 -21c-3 17 -4 27 -4 28c2 11 9 16 21 16s18 -9 18 -28c0 -9 -3 -17 -9 -23c18 -3 40 -9 65 -17c0 27 1 35 16 35c4 0 12 -4 25 -12l-6 -2l6 -15c0 -2 -3 -8 -9 -19c53 -18 54 -18 146 -26h-3l12 4
c34 -8 35 -9 45 -10c-9 7 -13 15 -13 25c0 20 0 21 25 32l9 -13c9 -4 13 -11 13 -20c0 -11 -5 -18 -14 -21l60 -7l32 2c-6 7 -9 11 -9 13c0 21 7 32 22 32c10 0 30 -12 30 -19c0 -11 -9 -19 -27 -24l88 -1c-9 3 -14 9 -14 19c0 19 6 29 18 29c17 0 26 -6 26 -19
c0 -5 -6 -15 -18 -30l83 5c2 1 9 2 23 4c-5 13 -5 17 -6 21c0 13 6 20 18 20l12 2c11 0 17 -6 17 -19c0 -3 -2 -10 -5 -19h13c3 1 8 3 11 3c18 0 23 1 41 11l-2 23c0 9 4 14 13 14h13c17 -14 19 -17 19 -23c0 -4 -2 -10 -6 -17l67 11c-13 4 -20 10 -20 18s2 16 6 24
c1 1 4 2 8 4l4 -3c3 2 5 3 6 3c10 0 15 -8 15 -24c0 -1 -3 -8 -10 -21c1 0 1 0 53 13c-6 18 -6 20 -6 23c0 7 3 10 10 10c2 0 5 -1 8 -2l-6 -15c0 -4 2 -8 6 -13h6c3 6 5 12 5 18zM1025 -8l-87 -10h2c-2 0 -4 0 -8 2l-37 -9c0 1 -1 1 -2 1h2c0 -1 -7 -3 -19 -6
c-24 -1 -25 -2 -81 -18l-50 -2c-67 0 -68 0 -85 3c-20 0 -35 -2 -86 -12l-66 -5l-155 20c-34 -4 -34 -4 -34 -10l120 -10l99 -3c26 0 32 1 106 8l118 2l200 22c27 0 58 12 63 27zM400 258c-3 -7 -6 -16 -9 -29c0 -25 -1 -27 -10 -40c4 -1 7 -2 19 -2v71zM353 259h-13l6 -12
c0 -1 -1 -12 -4 -31l2 -10l-4 -11l7 -2c4 29 6 51 6 66zM572 4v6c-9 3 -15 5 -16 5c-9 0 -13 -5 -13 -16c0 -4 3 -6 8 -6c7 0 14 4 21 11zM358 191v2h-4v-2h4zM323 255h-7c-3 -32 -4 -41 -8 -59h15c-6 5 -6 9 -6 17c1 1 3 3 4 6zM285 235c-4 -1 -7 -6 -8 -17
c-1 -13 -4 -20 -9 -23l15 1c0 1 -1 2 -2 4c3 11 4 22 4 35zM343 24c0 7 -5 11 -15 14c-5 -5 -8 -10 -8 -13c0 -5 3 -8 8 -8c10 2 15 4 15 7zM227 31c-1 -3 -4 -5 -8 -5c-9 0 -13 5 -13 15c0 5 1 8 4 11c9 -3 14 -10 17 -21zM135 67c0 6 -10 18 -16 18c-5 0 -8 -3 -8 -10
c3 -13 8 -20 15 -20c6 0 9 4 9 12zM306 -51c-184 33 -186 36 -194 57c146 -42 190 -55 194 -57zM1106 408c-19 -29 -29 -46 -29 -53c0 -5 1 -9 4 -13c-1 -3 -3 -5 -6 -5c-6 0 -10 13 -10 19c0 12 29 49 41 52zM881 338c-1 -9 -9 -37 -12 -48c-3 0 -5 1 -6 2c0 3 3 16 9 38
c3 2 6 5 9 8zM866 81h-58l-53 -10c-8 0 -10 2 -10 13c1 0 2 2 4 5c-1 9 -2 22 -2 38c0 21 0 23 5 31c-2 0 -3 2 -6 4c0 3 2 6 5 9h76c4 0 11 1 16 3c5 0 11 -2 18 -6c1 -2 2 -5 2 -9c0 -1 -1 -9 -3 -26l6 -30v-22zM562 278c-7 4 -11 10 -12 18c2 -4 5 -6 8 -6l4 1v-13z
M540 279l-131 1h-21c0 62 11 86 49 112c15 11 24 16 29 16c4 0 13 -9 28 -26c0 -18 22 -68 44 -96c1 -3 2 -6 2 -7zM695 377c0 9 -6 13 -18 13c-10 0 -16 -2 -19 -7c3 -3 4 -5 5 -8c3 0 6 -1 9 -4c-17 -50 -19 -56 -19 -71c-13 -12 -21 -18 -26 -18l-3 2c0 -1 -3 -4 -10 -10
c11 -1 21 -2 30 -2c6 0 6 0 23 4c5 -4 8 -5 12 -5c-3 1 -3 6 -3 20l-12 -10c-2 0 -4 1 -7 4c8 20 10 29 10 36c-2 0 -3 2 -4 3c5 23 8 31 13 31c3 0 5 -1 7 -4c8 15 12 23 12 26zM795 12c0 7 -5 11 -15 11c-5 0 -8 -2 -11 -6c0 -14 3 -21 10 -21c8 0 12 2 12 7v4
c3 1 4 3 4 5zM455 6c0 7 -11 18 -21 18c-4 0 -11 -11 -11 -15c0 -10 6 -15 18 -15c9 0 14 4 14 12z" />
</svg>