<?xml version="1.0" encoding="iso-8859-1"?>
<!DOCTYPE svg PUBLIC "-//W3C//DTD SVG 1.1//EN" "http://www.w3.org/Graphics/SVG/1.1/DTD/svg11.dtd">
<svg width="100.0" height="100.0" version="1.1" xmlns="http://www.w3.org/2000/svg" xmlns:xlink="http://www.w3.org/1999/xlink">
<path fill="#00f0ff" transform="scale(.1,-.1) translate (0, -800)" glyph-name="L" unicode="L" horiz-adv-x="1468" 
d="M1456 439c0 -45 -33 -105 -103 -105c-39 0 -76 29 -87 67c-4 5 -8 8 -13 8c-6 0 -13 -1 -21 -4c5 -13 7 -27 7 -41c0 -43 -12 -55 -53 -55c-1 0 -7 2 -13 5c-10 -2 -16 -3 -19 -3l-4 -4c0 -13 14 -60 47 -117c0 -11 5 -27 28 -87c9 -48 10 -56 10 -65
c0 -25 -11 -44 -33 -56c-6 -9 -13 -13 -36 -13h-21c-9 0 -25 9 -49 28c-73 137 -96 188 -104 230c-3 5 -5 7 -6 7c-6 -2 -11 -3 -14 -3c-36 0 -68 11 -95 34c0 2 0 2 -7 30c0 33 -7 33 -111 33l-46 -1c-44 0 -46 0 -82 26c-12 19 -42 47 -48 47l-7 -7c-13 13 -63 19 -149 19
c-41 -4 -54 -5 -63 -5l-131 16c-19 -4 -22 -5 -47 -9h-23c-1 3 -2 5 -2 11h-13c-23 -19 -37 -29 -42 -29c-25 0 -41 20 -54 46c0 -1 0 -1 -1 -2c-10 47 11 87 64 90c18 0 32 -3 42 -10s19 -10 26 -10c15 0 57 4 58 4c3 0 8 -1 41 -9l4 5c6 -3 11 -5 16 -5c2 0 11 2 29 7
c54 -9 55 -9 87 -9c11 -5 16 -7 19 -7l140 2l14 -4c38 27 42 30 69 47c36 7 75 10 117 10l90 -6c166 3 194 4 194 17c0 2 -1 5 -4 8v45c0 15 -3 30 -8 44c-19 19 -24 30 -24 50c0 50 19 75 57 75c31 0 58 -17 62 -40c6 -3 9 -8 9 -13c0 -34 -6 -39 -37 -63
c3 -15 5 -42 5 -82l6 -11c-1 -3 -7 -14 -9 -18c7 -3 19 -4 38 -4c2 1 2 1 7 5c3 0 6 -2 11 -6c1 -4 3 -10 6 -18c6 -7 13 -18 22 -33c14 -2 24 -3 30 -3c25 0 30 5 45 58c24 24 42 31 79 31c52 0 100 -71 100 -148zM1378 517c-4 8 -6 12 -7 12c-1 -3 -3 -6 -4 -12h11z
M1403 460v12c0 7 -1 13 -10 26c-2 -6 -3 -10 -3 -12c0 -5 4 -14 13 -26zM1360 536l-15 8h-12c6 -10 7 -11 7 -12c0 -2 -1 -4 -2 -6h-18c-4 1 -6 6 -6 13c-1 0 -3 -1 -6 -2v-10c1 -3 3 -9 7 -19v-23c12 3 21 5 27 7c-4 2 -7 6 -11 10c10 18 17 30 29 34zM1369 495
c-1 2 -2 5 -5 8c-1 -2 -4 -4 -8 -5c1 -1 2 -5 3 -16c0 -10 -1 -11 -28 -12c0 -5 -2 -16 -5 -31c2 0 5 -1 9 -3c-2 3 -3 7 -3 10c0 7 4 11 11 11c3 0 6 -1 7 -2c19 34 19 35 19 40zM1134 712c0 31 -24 56 -52 56c-22 0 -39 -20 -39 -45c0 -7 2 -16 5 -28c7 0 9 -1 34 -14
c22 0 52 16 52 31zM1385 438c-2 2 -3 5 -3 8l-14 -7l-12 9c2 0 9 -18 9 -23c5 3 12 7 20 13zM1175 509c-7 5 -7 6 -7 12c-7 -7 -11 -14 -11 -21c0 -4 1 -6 3 -6zM1087 579v6h-4v-6h4zM1152 524v8c-15 0 -16 0 -26 -28l12 -8c1 7 5 17 14 28zM1118 522v10h-10
c-6 -7 -11 -17 -15 -29c2 3 10 9 25 19zM1215 373v9h-4v-9h4zM1086 522v13c-15 0 -33 -24 -33 -39c1 1 3 2 6 2c3 -2 10 -6 11 -6zM1198 341l-18 65h-23c0 -4 9 -39 24 -57c4 -2 10 -5 17 -8zM1049 528c-7 -7 -15 -18 -24 -34c5 3 10 7 17 12c1 5 3 13 7 22zM1142 396v8h-4
v-8h4zM1144 382v11h-4v-11h4zM1027 525c-11 -8 -21 -18 -30 -31h11c5 7 12 17 19 31zM1159 345h-1l1 4c0 9 -10 28 -15 33v-11c3 -5 9 -13 15 -26zM1143 337c-5 15 -13 38 -24 67c-5 3 -9 5 -11 5c-1 0 -3 0 -8 -2c0 -12 1 -20 35 -70h8zM1006 527c-4 2 -9 3 -14 3
c-10 0 -23 -12 -40 -35l5 -6h24c9 16 18 29 25 38zM1111 341c-23 57 -29 65 -35 65c-2 0 -3 -1 -3 -3c18 -52 19 -53 38 -62zM956 525h-8c-22 -16 -26 -21 -28 -33h15c6 7 13 18 21 33zM1084 340c-9 22 -18 45 -28 65h-20c0 -20 0 -21 19 -61c8 -4 9 -4 29 -4zM923 523
l-21 3c-9 -9 -16 -18 -21 -29c13 -4 18 -5 19 -5c7 0 12 8 16 23zM1041 341c-9 17 -17 38 -26 63h-18l33 -63h11zM879 526c-17 -12 -26 -20 -26 -25c5 1 12 4 21 7c2 3 3 10 5 18zM1013 341c-16 33 -29 54 -40 64c0 -34 12 -50 40 -64zM905 454l-4 2l-5 -8l3 -3zM1039 309
l-9 3v-3l7 -3zM849 528c-18 0 -23 -3 -39 -33c5 -2 10 -3 14 -3c8 0 23 23 25 36zM981 341v8c-7 5 -13 18 -30 58c-7 -3 -9 -3 -11 -3c9 -17 22 -38 41 -63zM1110 220v9h-4v-9h4zM1093 232v12c-3 3 -6 7 -10 12l-3 -20c6 -3 10 -4 13 -4zM1068 245v25c-1 0 -1 0 -11 2
l-3 -19c5 -5 10 -8 14 -8zM817 527c-1 0 -3 1 -6 3c-11 -9 -22 -20 -33 -33c9 -2 15 -3 18 -3c3 8 10 19 21 33zM1043 281c-9 2 -12 2 -13 2v-15l10 -7zM958 339c-7 15 -20 37 -39 66h-8c0 -28 19 -54 47 -66zM1143 149v18c-1 2 -3 5 -8 10c-2 -5 -3 -10 -3 -13
c0 -4 4 -9 11 -15zM1121 180c0 2 -5 9 -16 22c-2 -12 -3 -18 -3 -20c0 -6 5 -12 16 -17c0 3 1 6 3 15zM1093 213c-1 0 -10 2 -13 4l-3 -21c7 -7 11 -10 14 -10zM792 530h-18c-8 -8 -16 -20 -23 -36l10 -2c7 9 17 21 31 38zM1068 219c0 7 -3 10 -9 10c-4 -15 -5 -19 -5 -20
c3 -3 7 -5 11 -5c0 2 2 12 3 15zM915 352c0 14 -1 18 -29 53c-2 -2 -3 -4 -3 -6c3 -4 14 -20 32 -47zM1164 102v12c0 2 -3 8 -8 19c-4 -11 -6 -20 -6 -25c0 -3 3 -7 8 -11c3 3 5 5 6 5zM929 335c-3 5 -7 10 -13 17c0 -5 -2 -9 -5 -11h-6c-9 16 -25 36 -47 59
c4 -6 10 -19 19 -38c7 -1 11 -6 11 -15v-5c5 -7 11 -10 16 -10c4 0 13 1 25 3zM1139 133c-2 0 -5 2 -8 5c-3 -5 -4 -9 -4 -13c0 -3 3 -7 9 -12zM809 463l-3 2l-15 -22l3 -2zM1219 38c0 43 -25 114 -64 193c0 13 -26 76 -44 76c-4 0 -7 -1 -9 -3c0 -31 25 -83 66 -143
c5 -16 13 -41 24 -75c5 -15 8 -26 8 -35c0 -37 -14 -50 -58 -50c-28 0 -74 81 -99 179c-4 15 -8 24 -13 28c0 11 -5 26 -14 46l-21 48c0 3 2 5 6 5l-8 2l-5 -6l23 -55c-7 -13 -9 -17 -9 -18c0 -3 5 -14 20 -44c8 -48 84 -175 96 -185c9 -8 26 -12 49 -12c21 0 23 2 35 18
c10 6 17 22 17 31zM1100 156v-18c4 -3 9 -6 16 -9c0 19 0 19 -16 27zM758 532c-22 0 -25 0 -41 -38h22c5 9 11 21 19 38zM986 253c-5 11 -11 24 -19 38c-10 -17 -19 -29 -27 -36c11 -4 21 -6 30 -6c6 0 11 1 16 4zM1091 157c-1 0 -3 4 -7 13c-9 -4 -15 -5 -16 -5
c3 -11 7 -20 13 -25zM1181 47v6h-4v-6h4zM1164 56v12c0 5 -4 10 -13 15c-2 -7 -3 -11 -3 -13c0 -7 5 -11 16 -14zM871 341c0 10 -30 62 -36 62l-9 -3c12 -42 25 -60 43 -60zM1139 94c-7 3 -11 5 -14 5c0 -13 0 -14 11 -30zM718 526c-13 -11 -24 -22 -31 -32h15
c9 13 14 24 16 32zM751 455l-1 3l-6 -3v-3zM1111 88v22c-3 -4 -9 -8 -16 -14c3 -3 5 -6 5 -8h11zM933 294l-2 19h-48c18 -41 20 -43 27 -45c1 5 8 13 23 26zM1166 27c-1 10 -6 15 -15 15c-1 -4 -4 -9 -8 -13c6 -3 11 -5 15 -5c3 0 6 1 8 3zM833 349c-6 14 -21 44 -23 44
c-3 -1 -3 -2 -7 -2c-1 0 -2 1 -2 2c8 -14 19 -29 32 -44zM691 521h-12c-10 -9 -17 -18 -22 -27h13c6 7 13 16 21 27zM812 347c-23 33 -34 53 -34 60c-12 2 -14 2 -15 2l-3 -6c0 -5 33 -48 52 -56zM655 512c-11 -6 -20 -12 -25 -18h8c4 5 10 11 17 18zM787 349
c-7 7 -17 17 -31 30c2 -7 6 -17 11 -30h20zM751 350c0 21 -17 46 -39 57c0 -19 18 -48 24 -48l5 2c5 -7 9 -11 10 -11zM721 346c0 19 -30 57 -36 59l-5 -1c5 -8 11 -20 19 -35c3 -2 7 -5 12 -10l2 -13h8zM691 351c-6 17 -8 21 -33 53c-6 2 -11 2 -12 2c24 -37 39 -55 45 -55
zM655 364c-5 10 -12 25 -21 44h-22c16 -22 17 -23 43 -44zM392 427v4h-20v-4h20zM359 429c-1 0 -2 2 -2 5l-5 -5h7zM148 489c0 3 -2 11 -5 22h-24c-32 0 -48 -22 -48 -67c4 -11 21 -28 32 -28c7 0 16 6 26 18c3 1 6 2 9 4z" />
</svg>