<?xml version="1.0" encoding="iso-8859-1"?>
<!DOCTYPE svg PUBLIC "-//W3C//DTD SVG 1.1//EN" "http://www.w3.org/Graphics/SVG/1.1/DTD/svg11.dtd">
<svg width="100.0" height="100.0" version="1.1" xmlns="http://www.w3.org/2000/svg" xmlns:xlink="http://www.w3.org/1999/xlink">
<path fill="#00f0ff" transform="scale(.1,-.1) translate (0, -800)" glyph-name="M" unicode="M" horiz-adv-x="462" 
d="M436 459c0 -30 -7 -41 -46 -70l-25 -6c-1 -67 -1 -69 -6 -74c-6 -2 -13 -7 -22 -13l-3 -12c-7 -13 -14 -20 -20 -20l-8 5c-2 -1 -5 -4 -8 -7c19 0 24 -3 24 -22l-10 -70c-1 -4 -7 -10 -20 -18c-40 -25 -41 -28 -41 -80v2c1 0 3 -14 6 -41l17 -2c0 32 6 41 21 41
c14 0 21 -8 21 -23c0 -6 -1 -11 -3 -16c4 -1 9 -5 17 -12v-52c44 0 45 -1 47 -37c-1 0 -1 0 -1 1c25 4 41 -3 41 -25c0 -13 -11 -27 -21 -27l-19 4v-9c5 -24 5 -24 5 -25c0 -7 -3 -10 -9 -10c-22 5 -24 5 -27 5s-8 -1 -14 -3c-5 0 -9 6 -10 17l6 40c0 33 -5 34 -117 36
l-62 6c-11 0 -26 -3 -45 -8c-6 -7 -9 -18 -9 -32c3 -42 3 -53 3 -63c0 -7 -1 -10 -2 -11h-8c0 1 -10 5 -11 5l-8 -1c-5 0 -8 1 -10 3l-4 39c-2 -3 -6 -5 -12 -5c-3 0 -6 2 -8 5c-9 0 -19 13 -19 27c0 15 8 22 24 22c5 0 11 -2 18 -6c1 0 2 1 3 2c1 11 2 28 3 51
c9 9 30 12 61 12l-1 29c0 5 3 7 12 7l3 1c-7 4 -10 9 -10 15c0 18 9 27 28 27c21 0 23 -6 23 -36c2 -1 5 -2 8 -2c2 0 4 1 10 3c1 0 1 0 9 -4c4 33 6 58 6 75c0 19 -1 23 -6 37v8c-25 0 -39 9 -58 35c-1 9 -3 20 -8 33v44c0 2 1 5 9 11c-10 1 -16 13 -18 38
c-3 4 -9 8 -16 14v33l8 35c-57 -7 -108 42 -108 90c0 41 57 88 108 88c2 0 4 2 5 5c0 27 14 46 29 52l27 3c2 2 5 4 9 7c0 8 9 17 27 28c-1 13 -2 31 -5 54c-2 3 -3 4 -3 5c0 3 3 9 8 19l6 2l7 -3c5 -15 8 -27 14 -62h14c0 64 7 82 17 82c9 3 17 -16 17 -37
c0 -2 0 -6 -3 -39c0 -7 4 -11 16 -14c3 2 4 4 4 6s-1 4 -3 7c2 1 3 3 3 4c-2 1 -3 5 -5 9c4 8 4 8 5 25c0 6 0 9 -3 23h17l12 -14c1 -2 2 -6 2 -12l-6 -50c0 -32 7 -48 21 -48c1 0 2 0 2 1c6 0 6 0 27 -15l-1 -47c36 -8 46 -27 52 -95zM305 -138c0 -13 -15 -40 -34 -40
c-12 0 -28 17 -28 31c0 25 6 35 39 35c15 0 23 -9 23 -26zM177 -141c0 -17 -19 -35 -36 -35c-16 0 -24 12 -24 37c0 18 9 27 28 27c21 0 32 -10 32 -29zM395 480c0 37 -24 40 -49 36c-3 -5 -8 -8 -14 -9c-7 -6 -10 -16 -10 -30c0 -27 11 -41 33 -41c4 0 16 6 36 17
c3 9 4 18 4 27zM354 552c0 18 -11 28 -37 32l-30 4c-7 -2 -10 -3 -11 -3c-3 0 -4 0 -18 5c-87 0 -87 0 -98 -31c4 -3 15 -18 34 -43c0 -4 1 -9 2 -16c2 -1 4 -3 6 -6c1 -6 3 -10 8 -13c0 36 4 50 20 50c14 0 56 -6 56 -24v7c-1 0 -8 -89 -9 -118l4 -9
c-9 -34 -11 -36 -39 -36c-22 0 -43 17 -43 39c0 3 4 16 11 42v44c-3 -3 -6 -13 -8 -29c-3 -1 -6 -6 -8 -13c-21 -23 -36 -36 -45 -39l-4 -11c1 -3 2 -9 5 -23c1 -1 3 -3 4 -5c2 -16 44 -32 76 -32c96 0 97 0 103 61c-33 12 -42 26 -46 84c0 58 39 83 67 83zM163 474
c0 23 -23 49 -42 49c-40 -9 -48 -12 -50 -36c0 -9 1 -15 4 -17c0 -23 11 -38 30 -38c23 0 32 2 49 13c6 14 9 24 9 29zM287 265v-1l-42 1c5 0 25 -3 32 -5c4 0 7 2 10 5zM238 264l-1 8h-15c-1 -1 -1 -2 -5 -3c-6 0 -19 1 -50 5c-3 0 -6 -2 -7 -6c29 -3 55 -4 78 -4zM286 221
c-3 8 -11 12 -22 12l-10 -3c-8 0 -8 0 -38 6c-3 -1 -16 -5 -20 -6c-3 0 -8 2 -11 3c-2 -6 -3 -11 -3 -16c5 -2 8 -3 10 -3c4 0 13 1 25 3l44 -2c3 -1 8 -3 11 -3c6 0 11 3 14 9zM242 61v4h-3v-4h3zM384 473c0 -13 -15 -29 -27 -29c-8 0 -21 17 -21 24c0 14 13 30 24 30
c8 0 24 -17 24 -25zM145 478c0 -14 -13 -31 -24 -31c-5 0 -14 3 -27 10c-3 7 -4 13 -4 19c0 10 12 24 21 24c23 0 34 -7 34 -22z" />
</svg>