<?xml version="1.0" encoding="iso-8859-1"?>
<!DOCTYPE svg PUBLIC "-//W3C//DTD SVG 1.1//EN" "http://www.w3.org/Graphics/SVG/1.1/DTD/svg11.dtd">
<svg width="100.0" height="100.0" version="1.1" xmlns="http://www.w3.org/2000/svg" xmlns:xlink="http://www.w3.org/1999/xlink">
<path fill="#00f0ff" transform="scale(.1,-.1) translate (0, -800)" glyph-name="O" unicode="O" horiz-adv-x="1361" 
d="M1348 92c0 -13 -4 -20 -12 -20c-3 0 -7 2 -15 8h-11c-7 0 -11 -4 -11 -12c0 -4 5 -11 14 -20c14 0 26 -23 26 -39c0 -23 -23 -47 -39 -47c-3 0 -8 6 -14 19c-5 13 -10 20 -13 21c-15 -10 -16 -11 -17 -22c0 -6 0 -7 6 -36c0 -15 -42 -32 -57 -32c-9 0 -15 11 -16 34v17
c-1 7 -3 14 -8 20c-14 -19 -32 -28 -55 -28h-27c-3 3 -4 6 -4 7c0 6 5 22 14 47c22 54 22 55 24 99l-12 72c0 44 0 59 -8 88c2 7 3 9 3 11c-17 49 -17 50 -35 129c-4 4 -8 14 -11 29c-2 0 -4 1 -5 3c-1 5 -3 13 -6 23c-5 -2 -5 -4 -9 -26c-9 -12 -17 -29 -69 -141
c-32 -115 -45 -136 -83 -136c-12 -4 -12 -4 -13 -4s-6 2 -14 6c-7 -5 -12 -12 -17 -21c-34 -68 -48 -76 -153 -114c0 -24 -26 -46 -38 -48c-17 0 -21 7 -40 51c-87 12 -134 36 -151 88l-16 16c-4 6 -10 15 -17 28c-9 -13 -29 -19 -62 -19c-24 0 -34 20 -39 59
c-3 2 -7 5 -12 10c0 27 0 36 -27 66c-4 6 -5 11 -5 15v3c-5 10 -12 24 -22 41l-35 38c-6 0 -11 -1 -13 -75c-3 -3 -5 -10 -9 -36v-220c0 -4 3 -10 8 -19l-2 -2c0 -1 1 -2 3 -2c-1 -1 -2 -6 -5 -16c1 -1 2 -2 5 -4c1 -5 3 -10 6 -14c46 -8 73 -24 73 -55
c0 -14 -19 -44 -31 -44c-11 6 -16 9 -17 9c-11 0 -17 -3 -17 -10l8 -50c0 -15 -4 -18 -53 -33c-3 3 -5 4 -6 4c0 54 -1 56 -28 70c-5 -4 -7 -10 -7 -19c-1 -27 -3 -29 -10 -29c-2 0 -3 1 -14 8l-32 -6c-3 0 -8 1 -14 4v22c11 35 15 53 15 64c-2 0 -5 -1 -39 -17
c-9 0 -17 11 -24 32c-9 6 -13 10 -13 13c0 4 3 8 8 13c90 26 95 28 101 50c19 16 20 17 46 140l2 23v65c0 6 1 15 3 27c-2 21 -4 52 -4 53v55l-5 7l-8 38c0 2 2 7 7 16l-1 25c1 1 4 4 7 8c0 15 12 23 29 23c18 0 46 -11 46 -32c2 -37 92 -165 138 -201h31c5 11 8 24 8 38
c7 14 19 34 36 61c7 5 18 14 31 25c5 1 11 5 19 10c1 32 2 41 17 61c13 3 20 9 20 19v16c-2 5 -4 6 -17 6c-7 0 -15 10 -15 18c0 5 1 15 3 22c0 5 -2 9 -6 13l2 12c-3 0 -3 0 -3 4c0 14 0 14 10 32c-10 18 -10 18 -10 19c0 8 5 16 15 23l2 4c-5 10 -7 13 -7 15
c0 39 -3 49 -13 59c-2 1 -3 5 -3 11c0 12 6 18 18 18c13 0 19 -6 19 -18c-12 -36 -12 -36 -12 -37c0 -16 12 -53 17 -53c0 -3 -2 -5 -21 -17v-5c2 -2 4 -3 5 -3c18 12 18 12 19 12c6 0 16 -10 16 -17c0 -5 -2 -7 -36 -19v-7l3 -3c8 3 14 4 19 4c7 0 10 -4 10 -11
c0 -13 -5 -20 -14 -20l-17 6c-2 -2 -3 -4 -3 -6c0 -7 5 -11 16 -11c17 4 18 4 19 4c6 0 9 -4 9 -12c-2 0 -8 -9 -13 -41v-20c20 0 20 0 35 -21c11 4 26 12 48 23c0 23 20 44 36 44l15 -3c2 -2 6 -14 11 -37c12 -2 29 -7 53 -13c15 18 16 19 36 29c0 20 0 25 -3 32
c-12 7 -18 15 -18 24l9 45c-2 13 -3 24 -3 29c6 4 9 7 9 10c0 1 0 2 -1 3l22 48v-2c-3 44 -3 45 -11 60c0 4 2 11 6 20c9 4 15 6 18 6c13 0 20 -5 20 -16c0 -10 -4 -17 -11 -21c-8 -5 -8 -5 -8 -58c24 -9 24 -10 24 -16c0 -7 -4 -12 -11 -15c7 -4 11 -10 11 -17
c0 -4 -6 -10 -17 -18c2 -2 5 -4 9 -6c2 -1 3 -3 3 -6c0 -10 -8 -15 -25 -15c-5 0 -11 1 -18 4c-1 0 -3 -1 -5 -3v-8c33 -6 41 -9 42 -29c-1 -1 -8 -5 -21 -12c-4 -10 -6 -21 -6 -33c0 -6 3 -12 8 -19c11 -12 15 -52 15 -66c13 -11 36 -46 39 -71l15 -45c0 -17 2 -20 8 -27
c15 21 52 78 57 89c-1 4 -2 8 -2 10c0 1 1 3 16 21c0 7 6 17 18 30v13c18 42 23 63 23 88l-5 17c0 13 35 31 47 31c6 0 33 -11 34 -19c1 -3 3 -10 5 -19c5 -3 8 -4 11 -4c3 -31 11 -73 26 -125c58 -242 66 -250 95 -264c13 -10 16 -12 19 -12c51 22 55 22 97 22
c6 -6 7 -7 9 -58zM1078 527c0 12 -12 25 -24 25c-6 0 -16 -3 -29 -10c5 -24 18 -36 40 -36c4 0 13 14 13 21zM1202 128c-7 8 -15 20 -25 35c0 5 -1 11 -3 19c-29 79 -42 130 -46 178c-16 59 -22 75 -32 82c-5 -3 -7 -7 -7 -13c2 -4 9 -24 14 -59c2 -3 4 -6 7 -11
c2 -14 7 -34 14 -60c11 -5 42 -137 42 -179c27 0 27 0 36 8zM817 614c-1 0 -6 1 -14 5c-1 0 -3 -3 -5 -9c5 1 12 2 19 4zM823 594l-8 3v-3l7 -2zM821 552c-3 2 -6 5 -9 8l-5 -5c3 -3 3 -3 14 -3zM1335 93v30c-3 11 -7 16 -13 16c-18 0 -55 -15 -69 -27c2 -5 4 -9 4 -11
c0 -18 -30 -52 -56 -52c-29 0 -48 2 -58 6c-9 -11 -14 -23 -14 -37c-2 0 -4 -1 -5 -3c-12 -33 -12 -33 -12 -43c6 -3 11 -4 14 -4c12 0 23 4 32 11v12c7 6 15 9 22 9c9 0 19 -23 28 -70c21 7 33 13 37 19l-5 48c17 15 28 22 31 22c5 0 6 -1 34 -34c3 0 22 21 22 25
c0 2 -3 8 -8 19c-37 23 -41 27 -41 39c0 15 17 29 35 29c8 0 15 -1 22 -4zM944 238v9c-5 1 -9 4 -13 10c-4 8 -7 9 -11 9c10 -13 18 -23 24 -28zM754 447l-47 12c-43 0 -76 -7 -100 -20c3 -3 5 -5 5 -7h17l36 12c16 0 66 -6 85 -12c1 4 2 9 4 15zM897 218v12l-12 -40
c8 9 12 18 12 28zM891 178c-3 1 -6 5 -9 10l-2 -10h11zM548 515c-1 1 -1 2 -2 5h-9l-2 -8zM798 248c0 21 -26 47 -47 47c-5 0 -8 -4 -8 -11c28 0 47 -12 47 -30c0 -33 -13 -50 -40 -50c-24 0 -36 15 -36 45c0 11 11 36 13 36c-21 0 -28 -3 -28 -38c0 -31 20 -55 46 -55
c10 -4 10 -4 11 -4c28 0 42 20 42 60zM843 210v18c-6 -25 -39 -51 -93 -59v-7c6 -3 9 -6 9 -9l-5 -25c3 0 3 0 23 -8c16 0 33 20 50 59c1 3 3 4 4 5c2 13 6 21 12 26zM849 292c-35 69 -71 98 -125 98c-19 -3 -21 -3 -44 -3c-133 0 -188 -40 -203 -129
c-7 -19 -10 -30 -10 -31c0 -55 40 -115 80 -115c1 0 2 0 18 13c1 7 2 16 3 28c10 7 18 11 24 12h87c8 0 28 2 52 10c-31 17 -51 45 -51 71c0 6 3 17 10 34c0 19 4 25 39 51c14 2 18 3 36 12c2 -1 4 -2 7 -4c29 0 44 -9 70 -43c-1 -1 -2 -3 -3 -6c6 -17 7 -24 7 -33zM718 95
c0 5 -2 16 -5 34c-1 -1 -1 -4 -4 -48l3 -3c4 7 6 13 6 17zM700 74v36c-11 18 -12 19 -16 19c-1 -1 -1 -4 -2 -8v-47h18zM670 76v34l-6 17h-7c-3 -8 -4 -14 -4 -19c0 -14 3 -34 10 -34c1 0 1 0 7 2zM642 125h-9v-32c1 0 4 -5 9 -17v49zM621 91c0 33 -4 36 -11 36
c-1 -9 -3 -21 -3 -27c0 -9 2 -17 7 -24c5 4 7 9 7 15zM240 451c0 11 -20 27 -34 27c-13 0 -23 -15 -23 -31c0 -8 7 -17 22 -26c29 15 35 20 35 30zM423 245h-8c0 -4 1 -10 3 -18c1 4 2 10 5 18zM348 236c-1 1 -3 2 -7 4v-9l5 -3c2 2 2 3 2 8zM205 365l-14 -4v-88
c0 -3 1 -10 7 -32c-7 -16 -7 -18 -7 -38c0 -67 -11 -137 -35 -185c22 -16 23 -16 36 -16c0 7 -4 46 -5 54c0 2 2 3 3 4c8 42 9 65 17 223c0 19 4 54 6 54zM286 -71c0 17 -31 40 -51 40c-8 -27 -25 -40 -51 -40c-2 0 -5 1 -8 4c-15 1 -34 15 -57 44c-19 0 -41 -6 -77 -23
c0 -19 15 -32 24 -32c6 0 11 2 16 6l20 21c7 0 10 -4 10 -12c0 -12 -12 -67 -16 -83c0 1 0 2 1 2v-8c18 3 33 4 45 4c5 44 5 46 9 49h10c1 -5 6 -9 14 -12c20 -10 23 -16 23 -45c0 -13 4 -19 11 -19c15 0 23 8 23 25c-5 31 -7 43 -7 48c0 15 30 18 37 18l12 -6
c8 0 12 6 12 19zM657 264c0 -31 -16 -79 -85 -79c-40 0 -88 33 -88 83c0 1 6 18 14 38c4 0 8 3 11 9c13 27 36 37 81 37c30 0 67 -53 67 -88zM638 266c0 6 -13 29 -18 32s-13 4 -22 4c17 -1 30 -22 30 -46c0 -29 -12 -43 -41 -43c-5 0 -11 1 -18 4l-17 28c0 2 2 4 5 7
c0 21 3 24 39 50c-41 0 -65 -9 -65 -54c0 -20 29 -46 49 -46c39 0 58 20 58 64z" />
</svg>