<?xml version="1.0" encoding="iso-8859-1"?>
<!DOCTYPE svg PUBLIC "-//W3C//DTD SVG 1.1//EN" "http://www.w3.org/Graphics/SVG/1.1/DTD/svg11.dtd">
<svg width="100.0" height="100.0" version="1.1" xmlns="http://www.w3.org/2000/svg" xmlns:xlink="http://www.w3.org/1999/xlink">
<path fill="#00f0ff" transform="scale(.1,-.1) translate (0, -800)" glyph-name="R" unicode="R" horiz-adv-x="1017" 
d="M840 559c0 -7 -8 -19 -25 -36c-12 -5 -14 -6 -23 -20c0 -5 0 -7 10 -24c0 -7 -5 -14 -15 -21c0 -11 0 -16 5 -30c-2 -9 -6 -13 -11 -13c-4 0 -26 6 -29 7h-11c-5 -2 -7 -5 -7 -8c0 -2 0 -3 8 -20c0 -11 -5 -16 -16 -16c-8 0 -12 1 -36 4c-30 -7 -46 -18 -48 -32h-22
c-6 0 -10 5 -11 14c22 15 38 34 49 57c3 5 8 8 16 8c7 0 13 -2 18 -5c3 1 5 2 6 3c-2 1 -4 2 -5 2c8 49 9 55 16 55l25 -13c0 38 16 80 28 80c1 -1 18 -7 21 -7c1 0 2 0 48 25c6 0 9 -3 9 -10zM1002 269c0 -2 -2 -6 -5 -13h-12c-18 23 -53 53 -60 53c-5 0 -13 -12 -29 -47
c-7 -13 -16 -22 -26 -29c-41 33 -62 49 -64 49c-3 0 -10 -8 -21 -25c-18 -28 -19 -28 -29 -28c-5 26 -18 37 -46 60c-17 -9 -42 -23 -75 -42h-8c-3 3 -5 7 -5 10c0 7 0 8 75 67c3 10 14 20 22 20c9 0 19 -10 35 -33c37 37 42 42 54 42c50 -38 52 -39 53 -39h4
c13 19 41 37 53 37c6 0 84 -70 84 -82zM642 550c-27 -23 -39 -34 -55 -56c0 -3 -1 -7 -3 -13c9 -2 21 -9 36 -20c-44 -54 -48 -60 -50 -65c-27 -25 -43 -38 -48 -38c-7 0 -12 9 -13 26c0 4 4 11 31 51c0 3 -2 4 -44 19v12c13 14 34 35 62 62c0 5 -7 10 -22 13
c-14 3 -21 8 -21 15c0 6 0 7 14 13c14 14 21 23 43 70c13 11 14 14 22 56c3 3 6 5 11 5c9 0 13 -3 13 -8c-23 -85 -27 -99 -31 -118c2 -5 18 -9 47 -11c1 -3 4 -4 8 -4v-9zM678 -51c0 -10 -9 -18 -28 -23c-3 -9 -8 -15 -19 -15l-9 5c0 -2 -33 -40 -43 -40
c-29 12 -32 13 -36 13c-32 -7 -50 -9 -79 -9c-45 0 -57 4 -57 42c2 8 7 67 8 86c-9 12 -15 21 -15 23c0 -2 0 -2 1 -2c2 2 5 6 24 41c9 7 26 26 51 57c5 7 11 11 16 11c3 0 6 -2 11 -5l7 5c1 0 1 10 1 30l2 2c-1 3 -5 16 -12 41c-29 18 -43 34 -43 63c0 2 0 2 20 44
c0 4 -2 6 -7 6c-1 0 -1 0 -7 -2c-3 0 -7 8 -14 24c-6 17 -12 25 -17 25c-26 -16 -27 -16 -32 -16c-3 0 -7 3 -11 8v40c0 1 -2 1 -6 1c-16 -8 -21 -11 -24 -11l-11 5c1 0 2 6 3 19c0 8 0 36 -5 51v67c5 5 10 7 15 7c6 0 10 -3 13 -8c0 -26 6 -41 20 -63c11 6 17 9 19 9
c11 0 11 0 17 -60c1 -1 3 -2 6 -2l22 11c3 0 8 -4 16 -12v-10c-5 -2 -8 -8 -8 -17c0 -2 6 -24 17 -66c3 3 10 8 19 13c13 0 34 10 34 12c3 0 45 -14 48 -21c13 -15 19 -30 19 -47c0 -9 -14 -50 -19 -54c-25 -10 -29 -16 -29 -65v-38c63 0 103 3 103 7c5 0 10 -8 12 -18
c0 -3 -3 -11 -6 -23c0 -9 8 -83 9 -91c-2 -7 -3 -13 -3 -40c6 -6 7 -7 7 -10zM440 241c0 -2 -3 -5 -8 -11l1 -16c-3 -2 -3 -2 -9 -3c-13 0 -28 13 -45 36c-10 -7 -19 -16 -26 -26l-21 -30c-4 -5 -8 -7 -13 -7c-7 0 -12 3 -16 10c-27 41 -44 61 -52 61c-7 0 -17 -10 -32 -30
s-25 -30 -31 -30h2c0 1 -5 2 -16 3c-4 21 -5 24 -31 60c-15 -15 -49 -34 -59 -34c-1 0 -5 2 -11 7v11c2 1 6 4 13 9c9 20 10 21 65 68c11 14 19 21 22 21s21 -25 28 -47c1 -6 4 -9 8 -9c6 0 32 21 50 49c1 5 5 7 11 7h9c2 -4 5 -9 10 -16c0 -15 28 -60 39 -60c4 0 5 0 35 25
c15 33 17 35 27 35c28 -45 50 -81 50 -83zM582 261c0 37 -15 63 -38 63c-55 0 -64 -32 -64 -51c0 -26 29 -49 57 -49c21 0 45 20 45 37zM536 126h-3l-3 -7l3 -1zM595 2h-15v-8c2 1 7 3 15 8zM595 -29h-12l-3 -11c5 2 10 6 15 11zM560 -84v88c-13 3 -24 5 -32 5
c0 4 -31 8 -71 9c-3 3 -6 4 -7 4h-7v-101c0 -15 5 -17 54 -17h-2c0 4 27 10 65 12z" />
</svg>