<?xml version="1.0" encoding="iso-8859-1"?>
<!DOCTYPE svg PUBLIC "-//W3C//DTD SVG 1.1//EN" "http://www.w3.org/Graphics/SVG/1.1/DTD/svg11.dtd">
<svg width="100.0" height="100.0" version="1.1" xmlns="http://www.w3.org/2000/svg" xmlns:xlink="http://www.w3.org/1999/xlink">
<path fill="#00f0ff" transform="scale(.1,-.1) translate (0, -800)" glyph-name="S" unicode="S" 
d="M990 140c0 -11 -7 -16 -19 -20c-119 -156 -211 -271 -224 -271c-50 13 -152 28 -179 28c-3 0 -9 -2 -12 -3c-73 21 -105 26 -145 26h7c-81 -3 -94 -3 -100 -5c-9 -3 -140 -23 -176 -23c-5 0 -16 10 -16 16c0 1 5 19 10 37c0 168 -7 291 -36 498c0 6 0 7 20 22v16
c7 6 42 37 104 94c11 7 27 18 48 32c3 6 9 13 16 22c17 10 31 23 43 38c7 9 16 14 27 14l364 -2c20 5 24 6 25 6h33l106 12c9 0 28 -6 57 -19v-75c2 -8 5 -18 7 -33l10 -116c5 -48 11 -88 18 -121c6 -21 6 -89 6 -161zM866 569c-143 -122 -143 -122 -143 -131
c0 -1 4 -18 9 -37c1 -19 3 -42 7 -70c7 3 14 9 21 16c4 10 5 11 70 104l-35 -33c-17 -15 -28 -23 -35 -23c-10 0 -11 8 -11 21c19 19 19 19 38 59c15 15 36 36 63 64c3 7 8 17 16 30zM730 479l-20 -3c5 -5 9 -7 12 -7c5 5 8 9 8 10zM695 449l-10 3v-4l8 -3zM925 251
c-28 -21 -118 -87 -139 -100c-9 0 -14 5 -14 14c44 41 45 42 78 93c0 2 1 5 2 9c17 14 52 61 63 75v9c-8 0 -14 -5 -60 -53c-32 -31 -53 -47 -62 -47c-11 0 -16 4 -16 12c0 10 2 12 45 55c4 10 10 22 19 36c6 5 28 29 66 72v12c-10 -4 -23 -10 -38 -19
c-110 -110 -112 -112 -127 -115c-5 -10 -6 -12 -6 -13l11 -218l-4 -149c3 -11 6 -25 9 -44c21 14 36 31 45 52c-3 2 -7 4 -10 8v20c11 9 23 26 35 53c-25 -26 -42 -39 -49 -39c-8 0 -12 5 -12 16c0 9 8 17 25 24c13 21 35 52 65 91c-12 -7 -29 -19 -51 -35
c-16 -18 -18 -19 -27 -19c-8 0 -12 5 -12 16c0 5 3 10 10 17c19 6 31 24 39 52c49 43 81 71 96 85c4 8 10 18 19 30zM625 470l-299 12c-31 0 -128 -19 -136 -27c32 2 61 3 87 3c15 0 16 0 72 -4c6 0 15 1 45 5h158c14 0 38 4 73 11zM722 180c-10 9 -11 12 -13 68
c-16 38 -16 41 -17 95c-4 35 -25 60 -51 62l-176 6l-149 -1c-10 -3 -18 -5 -24 -5c-1 0 -1 0 -33 8c-31 0 -54 -12 -86 -42c-1 -2 -2 -9 -12 -103c0 -131 9 -192 37 -306c31 -24 54 -34 89 -34c10 2 17 3 21 3c37 0 168 -9 293 -28c46 4 57 5 69 5c4 0 9 -4 16 -13
c24 28 24 29 30 242c5 8 6 9 6 43zM721 167h-4v7h4v-7zM677 -61c-5 -2 -10 -3 -16 -3c-9 0 -17 2 -60 14c-9 3 -27 4 -52 4c-9 0 -16 -2 -44 -13c-1 0 -87 7 -99 8c-5 0 -23 -5 -48 -11c-10 0 -15 10 -16 30l2 33l-6 136v115l-5 5v73c11 24 13 26 23 26
c90 -9 130 -13 137 -13l62 16h71c1 0 9 2 20 5c15 0 23 -4 23 -22c0 -1 -1 -4 -4 -8c0 -36 0 -36 3 -118l-3 -99v2c5 -107 5 -108 12 -141v-39zM277 331c0 -39 -12 -59 -35 -59s-50 21 -50 39c0 32 24 53 43 53c5 0 15 -3 30 -9zM287 160c0 -26 -20 -50 -47 -50
c-22 0 -40 20 -40 40c0 17 28 50 44 50c22 0 43 -13 43 -40zM300 14c0 -34 -39 -58 -55 -58s-32 17 -32 36c0 5 5 19 16 40c15 9 27 14 34 14c19 0 37 -14 37 -32zM623 67v157c-6 15 -7 16 -13 83h-58c-13 -12 -14 -12 -16 -12l-15 7h-118v-42c9 -28 10 -29 14 -154
c0 -7 1 -23 5 -61c0 -2 0 -3 -4 -16c27 -9 45 -14 54 -14c34 0 81 6 143 19c0 21 3 32 8 33zM658 -33v12c-27 0 -27 0 -149 6c-52 0 -59 -2 -91 -12l75 -9c31 7 56 13 59 13c19 0 50 -4 89 -13c5 2 12 3 17 3zM387 -29c-3 0 -6 3 -10 8c0 50 -2 129 -7 156l-5 115
c-1 25 -6 42 -13 52c0 -116 0 -154 10 -324c1 -7 6 -11 15 -11c4 0 7 1 10 4zM399 -32v5h-6v-5h6z" />
</svg>