<?xml version="1.0" encoding="iso-8859-1"?>
<!DOCTYPE svg PUBLIC "-//W3C//DTD SVG 1.1//EN" "http://www.w3.org/Graphics/SVG/1.1/DTD/svg11.dtd">
<svg width="100.0" height="100.0" version="1.1" xmlns="http://www.w3.org/2000/svg" xmlns:xlink="http://www.w3.org/1999/xlink">
<path fill="#00f0ff" transform="scale(.1,-.1) translate (0, -800)" glyph-name="U" unicode="U" horiz-adv-x="419" 
d="M411 414c-25 -15 -26 -15 -34 -25v-5c-5 -3 -10 -7 -14 -11c-18 0 -26 -15 -26 -43c7 -7 11 -14 11 -21c0 -12 0 -12 -37 -24l-28 -28c0 -37 0 -38 -11 -68c0 -1 0 -1 14 -31v2c-1 0 -3 -12 -6 -35c-7 -4 -10 -8 -10 -13c0 -4 4 -22 13 -55c1 -4 7 -7 17 -10
c4 -5 6 -9 6 -14c0 -10 0 -10 -23 -26c-15 -41 -22 -64 -22 -67c0 -7 4 -10 11 -10c15 0 24 -1 29 -4c-26 -8 -31 -14 -31 -28c0 -5 3 -17 9 -35c-3 -5 -4 -6 -4 -7c-1 0 -5 5 -11 16c-1 -7 -4 -12 -9 -16c-2 0 -5 2 -8 6h-5c0 -4 -1 -7 -3 -11h-9v15c4 5 6 13 6 25v31
c20 24 23 36 34 89c-2 1 -4 4 -7 9l-2 37c-1 19 -6 33 -14 42c-7 -4 -12 -6 -55 -10c-4 -5 -6 -10 -7 -13c-2 -59 -7 -73 -20 -98l6 -52c13 -7 13 -9 13 -33c0 -21 0 -22 4 -27v-17h-8c0 11 -1 14 -11 20v-25l-9 -2c-1 5 -3 12 -7 21c-9 -11 -16 -20 -22 -29l-4 5
c9 14 10 15 13 36c1 0 1 1 2 2c-2 8 -2 14 -2 16c5 4 18 35 18 46c0 23 -6 43 -18 58v22c10 4 19 8 19 61c0 2 -10 36 -20 69c0 3 4 10 11 20c-17 18 -18 28 -22 64c-15 7 -24 11 -27 11c-1 0 -1 0 -15 -4c-10 0 -26 14 -26 22c11 18 16 37 16 71c0 10 -26 40 -36 45v9
c3 2 4 2 6 2l13 -11h5c5 33 7 38 8 40c1 -8 4 -18 9 -31c1 1 3 6 6 15h4c3 0 6 -1 9 -3l-5 -11v-3c10 5 11 5 19 5v-3c-9 -9 -10 -11 -15 -27c-9 -5 -16 -36 -16 -77l8 -2c0 1 1 1 2 1c21 -15 22 -15 45 -20c3 6 10 15 20 28c24 7 36 46 36 66c0 7 -3 11 -9 11v6
c-42 21 -62 73 -62 161c22 60 31 79 88 92c2 44 2 53 3 56c0 18 -1 19 -18 45c9 16 9 18 9 19c10 7 18 10 24 10c3 -1 8 -3 17 -8c1 -7 2 -12 2 -14c0 -13 -4 -18 -21 -28c0 -1 -3 -37 -4 -43c0 -21 3 -29 10 -37c19 0 30 -10 30 -11l9 2c28 0 49 -39 49 -89
c0 -56 -49 -139 -79 -151c-5 -3 -9 -9 -12 -17c0 -13 0 -15 14 -43l-1 -10c5 -5 13 -13 24 -22c2 3 5 7 9 12c11 7 25 18 44 33c5 20 5 21 17 42c0 11 -6 22 -18 34l2 6h6c2 -1 6 -2 14 -7c0 10 1 19 8 36c1 -1 3 -2 6 -2l3 -21c6 6 16 13 29 20c1 -1 2 -2 4 -3
c-13 -12 -19 -19 -20 -21c0 -5 2 -7 6 -7c2 0 8 2 34 14v-7zM139 -93c-1 -3 -5 -10 -13 -20l-10 2c3 5 10 11 23 18zM308 526c0 45 -20 75 -37 75l-6 -2l-12 8c-9 5 -17 8 -24 8c-67 -17 -86 -22 -90 -99v-52c1 -1 1 -2 3 -2c0 -40 34 -81 68 -81c43 0 98 78 98 145z
M268 230c0 21 -4 28 -16 39v7c-7 5 -13 8 -16 8c-26 -15 -27 -15 -28 -15c-3 0 -8 1 -30 11c-16 0 -33 -37 -33 -61c0 -25 14 -44 32 -44h19c19 0 24 2 52 13v13c13 2 20 14 20 29zM270 142c0 20 -4 27 -12 37c-24 -18 -24 -18 -98 -21l1 -27c0 -7 19 -25 26 -25
c39 0 74 12 76 28zM279 545c0 -10 -11 -24 -21 -24c-3 0 -7 1 -11 4l-10 19c0 8 19 19 26 19c11 0 16 -6 16 -18zM192 553c0 -12 -17 -27 -26 -27c-6 0 -17 15 -17 23c0 14 10 21 29 21c9 0 14 -6 14 -17zM261 452c0 -13 -24 -29 -45 -29c-20 0 -49 10 -49 19
c0 8 4 12 12 12c28 -15 28 -15 38 -15l32 18h10c1 -1 2 -3 2 -5z" />
</svg>