<?xml version="1.0" encoding="iso-8859-1"?>
<!DOCTYPE svg PUBLIC "-//W3C//DTD SVG 1.1//EN" "http://www.w3.org/Graphics/SVG/1.1/DTD/svg11.dtd">
<svg width="100.0" height="100.0" version="1.1" xmlns="http://www.w3.org/2000/svg" xmlns:xlink="http://www.w3.org/1999/xlink">
<path fill="#00f0ff" transform="scale(.1,-.1) translate (0, -800)" glyph-name="X" unicode="X" horiz-adv-x="724" 
d="M243 539c-5 -36 -6 -47 -45 -47c-1 0 -7 1 -7 2c-1 0 -3 -1 -5 -2c-1 0 -3 1 -5 3c-1 7 -3 18 -8 35v20c4 7 13 15 30 23c27 0 40 -11 40 -34zM706 162v2c-7 0 -25 -163 -25 -211c0 -3 -11 -18 -69 -56c-4 -7 -40 -57 -52 -73c-314 198 -347 219 -387 238
c-45 31 -46 31 -101 79c4 0 7 -1 68 -48c67 -35 68 -35 236 -144l180 -108c4 0 44 51 44 59c-23 -13 -35 -26 -38 -39c-1 -3 -3 -4 -6 -4c-4 0 -7 1 -10 4c-103 83 -132 102 -375 255c-13 3 -33 13 -60 28c5 9 8 13 11 13l3 -2c22 0 96 52 160 114c12 8 44 34 56 44
c2 1 3 2 7 10l6 3c12 23 20 29 23 29c1 0 2 0 2 -1c7 0 16 8 28 27c10 3 19 11 32 26c3 0 6 1 8 3c-3 7 -9 19 -17 34c-161 -149 -360 -298 -366 -298l-10 8v34l-2 176c0 3 -1 9 -3 18c8 5 27 20 56 45c0 -13 0 -14 -24 -33c-5 -4 -8 -8 -10 -12c-7 -4 -9 -6 -13 -57
c0 -111 1 -129 7 -163l2 -1c58 39 246 175 350 291c2 6 2 12 2 13c-4 13 -4 19 -7 89h-3v40c3 4 3 6 3 17v18c5 24 13 79 13 117h-1c-73 -76 -104 -107 -121 -119c8 -9 20 -22 37 -39c0 -40 9 -110 14 -110c0 -10 -3 -16 -9 -19c-23 -10 -46 -31 -68 -62h-3
c-4 -12 -76 -76 -82 -76c-2 0 -4 2 -7 5c0 5 0 6 -119 157c9 -3 9 -3 130 -147c5 3 17 13 36 30h-5l-11 -3c-3 4 -15 18 -36 43c37 34 50 47 61 69c29 38 30 39 35 39h5c3 -17 4 -18 5 -19c2 -9 6 -15 11 -20l8 -8c-1 -3 -1 -3 -2 -8c-5 -3 -11 -7 -19 -14l-47 -75
c9 7 25 24 47 51c19 23 35 38 50 45c3 1 5 4 5 9l-31 31c-2 7 -5 13 -60 68c-17 31 -42 55 -47 55c-9 0 -20 -10 -33 -30c-16 -26 -28 -39 -104 -113h-6c-2 2 -3 4 -3 5c3 0 10 32 17 82c1 1 2 2 4 3c-1 2 -2 4 -4 7c87 87 115 122 123 145c7 3 7 3 10 5c3 0 5 -1 8 -3
c0 -2 1 -5 2 -8c4 -3 10 -7 17 -13c0 -6 3 -10 66 -78c28 30 29 30 92 86c0 2 1 4 2 7c11 11 23 27 34 46h7c144 -317 234 -516 240 -541c16 -37 17 -39 33 -61v-6zM166 467c0 -12 -15 -30 -21 -32l-9 1h-4c-16 0 -27 15 -27 35c0 6 1 8 15 32l6 2l29 -14
c6 -5 11 -17 11 -24zM449 589h-2l-2 -5l2 -1zM439 735c0 3 -2 6 -5 9c-2 -27 -13 -146 -15 -146v2v-34l7 -102v2c1 -3 4 -6 11 -7v172c0 11 -1 20 -3 27c0 43 4 73 5 77zM477 652c0 3 -6 15 -17 35l6 -221c0 -54 0 -54 -9 -54c3 -6 6 -13 11 -22l3 30v36c0 11 3 24 6 24v172
zM540 514c0 7 -8 23 -24 50c0 -22 0 -35 -3 -53c-5 -12 -5 -13 -6 -60c0 -25 0 -28 4 -60c0 -38 -4 -61 -11 -68l11 -25c1 -3 3 -4 5 -4c0 46 14 181 24 220zM598 383l-32 72c-3 -19 -6 -52 -9 -99c-7 -15 -8 -28 -8 -124c-3 -4 -5 -6 -5 -7c5 -7 12 -18 19 -31
c18 118 18 121 35 189zM255 666l-16 16l-1 -45c-2 -12 -3 -19 -3 -24c0 -3 3 -8 10 -15c0 54 0 55 10 68zM219 703c0 6 -3 9 -9 9l-10 -60c0 -3 1 -7 4 -12c0 8 1 17 3 29c7 11 12 30 12 34zM298 616c0 3 -5 8 -14 15v-51c-1 -10 -3 -16 -7 -20c5 -6 9 -11 14 -15zM342 490
c0 25 -3 51 -13 97c-3 -3 -4 -7 -4 -13c0 -62 6 -81 17 -84zM640 287c-6 15 -13 31 -21 48c-14 -15 -31 -175 -31 -190c0 -5 5 -14 15 -28zM686 180c-2 5 -10 23 -24 52c-3 -7 -4 -12 -5 -15c0 -20 -6 -53 -11 -66c-7 -39 -10 -71 -10 -96l10 -39c0 -1 2 -1 5 -1l22 103v17
c6 7 12 36 13 45zM204 716c-5 -3 -83 -90 -124 -139v-7h2c-7 -11 -11 -32 -14 -66c62 54 87 87 105 115c18 18 18 19 31 97zM280 459c0 1 -4 6 -20 26c-1 0 -1 -1 -1 -2c0 -9 6 -20 17 -31c3 3 4 5 4 7zM268 442c0 9 -14 32 -18 32c-3 -4 -3 -5 -3 -6c0 -4 16 -24 21 -26z
M554 143l-1 6l-2 -1l1 -5h2zM433 268l-2 1l-2 -4l2 -1zM562 131l-7 12l-2 -1l7 -11h2zM259 431v5c-5 7 -11 14 -19 22l-5 -6c3 -3 10 -11 21 -24c0 2 1 3 3 3zM250 418c0 9 -14 23 -22 23c-1 0 -2 -1 -2 -2c7 -15 14 -23 19 -23c2 0 4 1 5 2zM238 403c-6 11 -13 19 -20 26
c-2 -2 -3 -4 -3 -5l19 -23c1 0 3 1 4 2zM228 391c-3 5 -4 6 -24 25l-1 -4c0 -3 17 -23 23 -27zM206 388v6c-2 3 -6 6 -11 11c2 -5 6 -10 11 -17zM667 -42c-15 -2 -35 -19 -37 -32c36 16 37 17 37 32zM329 226l-2 1l-2 -4zM628 -75h-5c0 -3 -2 -5 -5 -5c-18 0 -28 18 -28 38
c0 3 9 8 27 17c2 1 3 3 3 5c-4 7 -18 31 -39 73c-2 0 -66 130 -98 198c-2 1 -4 2 -6 4c-2 12 -7 18 -14 18c-3 0 -22 -14 -58 -42c2 -3 3 -9 5 -16c10 -9 133 -186 135 -189c24 -26 33 -41 33 -58l-22 -17c-36 45 -45 56 -79 95c-105 139 -106 139 -123 150
c-44 -38 -44 -39 -63 -71c-3 -4 -10 -8 -17 -13v-6c13 -9 36 -25 68 -49c5 2 7 2 8 2c3 0 4 -1 5 -3c1 -8 3 -13 30 -23c8 -10 159 -118 167 -118c11 0 13 8 15 20c1 2 3 3 6 3c1 -1 1 -1 4 -2c4 -7 8 -13 12 -18c9 -7 10 -10 13 -18c7 11 8 11 26 25zM465 -40l-3 4l-2 -2
l3 -3zM270 117v2l-5 -1v-2z" />
</svg>