<?xml version="1.0" encoding="iso-8859-1"?>
<!DOCTYPE svg PUBLIC "-//W3C//DTD SVG 1.1//EN" "http://www.w3.org/Graphics/SVG/1.1/DTD/svg11.dtd">
<svg width="100.0" height="100.0" version="1.1" xmlns="http://www.w3.org/2000/svg" xmlns:xlink="http://www.w3.org/1999/xlink">
<path fill="#00f0ff" transform="scale(.1,-.1) translate (0, -800)" glyph-name="Y" unicode="Y" horiz-adv-x="828" 
d="M810 442l-3 -5c-8 -3 -19 -12 -33 -26c-14 -21 -18 -26 -27 -27c-11 -46 -17 -87 -33 -216c-1 0 -2 -1 -2 -2v-29h-4c0 -47 -3 -54 -21 -56c-6 0 -12 7 -18 22h-2v20c-6 2 -6 2 -18 26c-29 47 -29 47 -44 47l-10 -4c-8 0 -13 3 -16 9c-4 9 -10 16 -18 21l-26 21l-2 -2
c-1 -3 -5 -63 -6 -84c-3 -3 -7 -6 -11 -12c0 -2 -1 -5 -2 -8c0 -51 0 -52 13 -188c3 -3 4 -6 4 -10c0 -22 -46 -36 -172 -53c-14 0 -69 14 -98 25h-3c-1 2 -2 3 -2 6c-3 2 -6 5 -10 9c0 19 0 20 -2 29c0 1 0 7 2 15c0 2 0 4 -2 4l-1 51l4 35c0 3 -3 29 -9 78v13l-21 14
c-4 26 -10 55 -11 57c-12 -24 -33 -41 -46 -41c-3 1 -14 4 -24 8c-56 -63 -62 -71 -62 -79c0 -6 10 -59 11 -60c8 -34 10 -36 46 -87c0 -26 19 -39 54 -39c0 -32 12 -71 18 -71l-1 -4h-11c0 10 -25 47 -43 47h-3c-3 0 -5 5 -8 14c0 -21 0 -23 2 -23c1 0 3 0 9 2
c2 0 5 -2 8 -6c1 -6 19 -36 30 -48v-7c-1 -2 -3 -3 -4 -3c-22 17 -28 21 -76 34v8l11 29c2 6 3 12 3 17c0 6 -4 16 -9 21v6c-2 0 -3 2 -5 4c-11 24 -18 35 -52 72v3c0 4 -1 7 -21 24c-11 10 -17 18 -17 23c1 1 2 2 12 35c7 9 17 23 29 44c0 4 6 17 28 70c3 2 5 6 5 13
l-10 10c-7 7 -10 13 -10 18c7 13 12 25 41 90c3 4 8 10 14 19v6l16 34c9 14 27 22 50 24l7 9c28 0 31 0 73 6c3 3 7 6 10 11v-19c13 -26 26 -38 52 -45c12 -8 17 -11 20 -11c33 8 65 28 65 39l-2 10c9 2 10 3 12 11c0 4 -3 10 -6 20c-23 -23 -53 -43 -65 -43
c-15 0 -31 8 -60 31s-30 27 -34 67c0 22 0 24 5 40l-1 18c-2 -4 -10 -9 -15 -9s-8 3 -9 9c0 1 3 9 11 24c0 3 -1 5 -4 5l-4 14c5 26 9 28 18 28c3 -2 12 -8 14 -9c2 15 4 16 10 21c27 104 47 134 89 134c36 -12 44 -21 67 -171c3 -3 6 -4 9 -4c13 13 13 13 16 13
c4 0 13 -13 13 -18c0 -1 -4 -7 -13 -18c5 -5 8 -11 8 -17c0 -11 -8 -27 -15 -27l-13 7c-5 -55 -5 -56 -22 -86c0 -6 2 -10 7 -12l10 -9c1 0 3 1 9 3c3 -2 5 -3 6 -3c11 0 21 3 23 8c6 -2 6 -2 7 -2c19 4 20 4 21 4c13 0 21 -3 25 -9c4 -1 6 -2 8 -2c1 1 4 2 5 2
c12 0 45 -39 66 -78c22 -25 27 -32 27 -40l12 -49c0 -1 -3 -16 -6 -31c0 -7 8 -31 20 -64c3 -1 6 -4 9 -8c0 -6 4 -18 13 -35h2l17 134c13 13 23 56 23 98c1 1 2 2 4 3c0 27 -12 55 -29 72v7c10 3 12 6 81 110h7l1 -4l-23 -46l-31 -48c0 -7 12 -40 21 -40c15 0 26 47 26 111
c2 2 4 3 5 3c2 0 2 0 5 -1l1 -51c3 -6 11 -37 11 -50zM778 541c-46 -64 -46 -64 -46 -69c11 7 27 30 46 69zM793 505l-2 -42c0 -1 1 -2 2 -2c-9 -11 -15 -18 -36 -52v-5h4c9 9 22 21 38 39c0 13 0 14 -6 62zM749 425c0 11 -4 22 -21 43c-7 -7 -10 -12 -10 -15
c0 -6 13 -31 20 -32c2 2 6 3 11 4zM751 412l-7 2c1 -2 1 -3 2 -4c1 0 3 1 5 2zM473 608c0 6 -2 10 -7 11c-5 -1 -8 -6 -8 -15c0 -3 2 -7 5 -10c7 8 10 13 10 14zM439 607c0 4 -2 20 -5 43c-3 3 -4 5 -4 7v3c-14 91 -30 121 -60 121c-8 0 -16 -4 -24 -13l-23 -25
c-16 -35 -28 -91 -29 -98c-1 -2 -4 -3 -7 -4c-2 -7 -3 -12 -3 -14c0 -4 5 -10 15 -17c7 11 16 16 25 16l14 2c11 -4 17 -13 19 -31h27l25 10c9 0 13 -4 17 -15c9 6 13 11 13 15zM471 573c0 3 -1 6 -4 9l-17 8c0 -23 0 -29 6 -29l7 -4c5 7 8 12 8 16zM722 280l-2 -14
c1 3 2 7 2 14zM533 423c0 4 -1 7 -2 10c-1 -1 -2 -2 -2 -3c0 -2 2 -4 4 -7zM571 382h-2l-1 -5h2zM544 404v5c-4 -3 -6 -4 -7 -4l1 -10c0 2 2 5 6 9zM722 259v-1l-3 1c-1 -5 -3 -7 -5 -7c-1 0 -1 0 -4 1l-10 -96c0 -6 1 -11 4 -15zM444 583c-2 0 -4 2 -6 4v5
c-2 -4 -5 -6 -9 -10c0 -11 -14 -28 -23 -28s-17 2 -23 7c-2 5 -3 10 -3 13c0 2 1 4 3 5c-1 2 -2 4 -2 8c-6 3 -10 4 -13 4c-2 0 -5 -1 -10 -3c0 -29 -11 -46 -32 -46c-13 0 -23 6 -29 17l-6 18l-4 8c2 0 4 1 5 3c0 19 0 19 -9 28l-14 -92c0 -60 54 -97 87 -97
c16 0 47 15 77 68c5 17 8 46 11 88zM277 620c-10 10 -15 15 -16 15c-5 0 -8 -10 -8 -21c5 -3 7 -7 7 -10l-7 -28c1 0 1 0 1 -3c5 3 9 5 14 6c6 21 9 34 9 41zM683 142c0 2 -2 8 -7 18c-1 0 -3 1 -5 2l-31 80h-2c-7 -10 -10 -17 -10 -20c0 -6 2 -11 6 -15v-7
c5 -5 7 -12 7 -21c3 -7 7 -12 11 -16c-1 -1 -3 -2 -5 -2c3 -5 6 -12 12 -19c8 -2 8 -6 8 -16c11 5 16 11 16 16zM703 126c-3 3 -6 4 -8 4c-5 0 -7 -2 -7 -7v-28c1 -2 1 -2 3 -5c7 9 11 21 12 36zM684 117l-1 11c-7 -2 -11 -7 -11 -16s3 -15 9 -20c0 7 1 15 3 25zM542 353
l-4 24c-1 -15 -2 -43 -7 -67l-8 -39c1 -4 2 -8 2 -16c-11 -32 -11 -37 -11 -68c-4 -10 -8 -26 -10 -34c-3 0 -5 -1 -7 -3c20 5 25 9 25 17l-1 8l5 72c15 69 16 80 16 106zM358 350v4c-2 1 -8 2 -17 4c8 -7 13 -10 14 -10c2 0 3 1 3 2zM341 359h-3l2 -2zM333 361l2 -1z
M386 180v7c-2 -1 -3 -3 -3 -7h3zM503 60v8h-2v-8h2zM513 443c0 2 2 3 5 4c3 -4 7 -8 12 -13c0 12 -6 18 -19 18c-5 0 -10 -1 -15 -4c3 -2 7 -6 12 -11c0 -1 1 -3 2 -5c-1 -1 -3 -3 -6 -5c-52 0 -53 0 -94 -57c-11 0 -29 -9 -29 -25c12 -72 12 -72 12 -82c5 -2 12 -5 22 -10
c-12 -28 -15 -34 -18 -37c0 -4 0 -5 -8 -15v2c3 0 7 -10 13 -50l-5 -25c4 -14 8 -34 8 -35c0 -6 -2 -11 -5 -14v-13c-9 -11 -9 -14 -9 -32c1 -1 1 -2 1 -3s-1 -6 -5 -6c-3 0 -3 0 -17 26l6 23v25c-5 5 -16 98 -16 122c1 2 2 6 2 7l-5 -1c-2 0 -5 3 -10 7c-5 0 -8 2 -8 5
l22 42v45c0 17 -53 41 -82 44c-2 0 -4 1 -5 2c-6 35 -7 38 -65 38c-4 0 -24 -8 -30 -12c-1 -4 -2 -9 -2 -14c0 -6 0 -8 13 -53c5 -5 9 -14 10 -28v-31c5 -11 9 -25 17 -52l3 -3c2 -13 11 -36 19 -42c35 -5 38 -13 46 -76c8 -90 19 -124 35 -124l6 3c8 -8 8 -8 11 -8h57
c63 0 84 31 84 129c0 16 2 29 9 47c-2 6 -2 6 -2 7c12 4 23 18 23 34c0 2 0 4 -2 12c0 5 3 18 12 50c-4 4 -5 6 -5 8c3 5 3 5 7 35c4 4 8 41 10 84c3 31 0 39 -17 67zM389 174l-1 3l-2 -1zM505 57l-3 -2l2 -1zM267 155c-6 9 -12 12 -24 12c0 -1 -1 -1 -2 -1
c-8 0 -16 9 -23 26c5 -30 15 -33 45 -37h4zM243 145v5l-4 -1c0 -2 1 -3 4 -4zM387 -38l-8 1v-4c3 1 6 1 8 3zM366 -41v3h-2v-3h2zM126 190c-8 0 -11 3 -11 10l-19 19l-41 -92c2 -5 6 -8 12 -10c8 12 19 27 59 73zM66 106l-5 3c-3 -4 -23 -43 -23 -50c0 -2 1 -3 2 -3
c12 5 13 6 26 50zM54 114c-1 1 -2 2 -5 2c-3 -5 -9 -11 -17 -20l-8 -32c0 -2 2 -5 5 -8c2 9 3 9 8 13c10 30 16 44 17 45zM134 -64c0 11 -26 55 -41 65c-2 6 -23 85 -24 90l-10 -26c-2 -7 -8 -12 -18 -17c-1 0 -1 -1 -2 -2c7 -6 15 -15 26 -26v-4c56 -79 58 -81 64 -85
c3 3 4 5 5 5zM182 -106c0 5 -2 12 -7 20l-30 9l1 -13c10 0 16 -4 24 -11l11 -15zM169 -156c-16 29 -21 35 -32 35c-1 0 -6 -1 -7 -2c-5 0 -7 2 -7 6c3 0 6 15 8 35c-1 1 -2 2 -4 3c-3 -13 -7 -30 -11 -54c8 -2 16 -5 53 -23zM389 522c0 -6 -6 -9 -17 -9c-1 0 -3 1 -5 3v5
c3 3 4 3 8 3v24h10c-2 -6 -2 -8 -2 -16c4 -4 6 -7 6 -10zM363 519c-2 -4 -5 -6 -8 -6c-8 0 -12 3 -12 8v-2c11 22 12 24 14 26l-2 -20c2 -1 5 -3 8 -6zM402 497c-2 -8 -5 -12 -10 -12l-66 -1c-2 0 -9 19 -9 25h3c10 -17 11 -17 46 -17l27 6c1 2 4 6 8 12z" />
</svg>