<?xml version="1.0" encoding="iso-8859-1"?>
<!DOCTYPE svg PUBLIC "-//W3C//DTD SVG 1.1//EN" "http://www.w3.org/Graphics/SVG/1.1/DTD/svg11.dtd">
<svg width="100.0" height="100.0" version="1.1" xmlns="http://www.w3.org/2000/svg" xmlns:xlink="http://www.w3.org/1999/xlink">
<path fill="#00f0ff" transform="scale(.1,-.1) translate (0, -800)" glyph-name="Z" unicode="Z" horiz-adv-x="1376" 
d="M1152 349c-4 0 -47 -47 -69 -80c-9 -24 -15 -35 -22 -41v-6c-17 -16 -18 -22 -18 -44c-4 1 -9 2 -14 2c-2 16 -3 24 -4 25c-3 13 -7 22 -12 28c-5 -13 -11 -30 -18 -50c-3 -48 -4 -53 -15 -53c-39 30 -45 34 -50 37c0 -53 -2 -66 -4 -66l4 -17c0 -7 -4 -8 -12 -8
c-14 23 -23 33 -30 34v-47h-9c-7 13 -17 22 -26 26l-13 -3c-5 0 -11 3 -16 8c-1 5 -8 14 -28 35c1 2 6 8 15 17c13 -7 23 -13 31 -19v81l8 1c5 0 8 -1 10 -4c25 -33 25 -33 28 -33c3 28 4 31 18 71c0 5 2 10 4 19h9c3 -2 4 -5 4 -10l33 -36c8 42 27 82 61 108
c13 24 13 24 16 24c10 0 15 -3 15 -9c-9 -18 -9 -22 -9 -50c25 31 91 71 103 71c4 0 7 -4 10 -11zM1357 75c0 -2 -1 -3 -4 -8c0 -22 -6 -48 -16 -48l-3 2c-5 0 -10 -10 -35 -75h-7c-6 8 -12 28 -19 61h-2c-8 -21 -44 -59 -57 -59c-1 0 -5 2 -10 5c-1 11 -6 22 -13 32
c-7 -3 -13 -18 -20 -45h-9c-2 0 -3 2 -5 4c0 19 0 25 -20 83c-25 -28 -44 -67 -55 -116c0 -2 -3 -4 -6 -7c-6 0 -6 0 -21 44c-6 14 -13 26 -21 37c-2 -1 -3 -2 -32 -62h-7c-1 1 -2 2 -3 4c0 42 -4 59 -20 93c7 3 12 11 13 23c2 13 5 20 9 22c5 -4 7 -11 8 -22
c1 -10 2 -16 5 -17c6 3 10 8 32 43c3 -1 6 -2 11 -5c8 -53 12 -70 21 -82c15 31 16 32 69 118l15 -1c0 -4 3 -19 9 -44l3 -3c1 -9 3 -17 8 -26c6 3 14 13 24 28l7 4c2 0 4 -2 8 -5v-40c1 -1 3 -2 4 -5c5 8 20 34 30 51c0 12 8 24 15 24c5 0 6 -2 34 -51c23 11 37 28 43 51
l8 2c6 0 9 -3 9 -10zM785 268c0 -3 -1 -6 -3 -8c-31 -10 -42 -16 -42 -21c0 -2 5 -8 15 -19c14 -11 15 -12 17 -19c0 -4 -7 -7 -20 -9c-27 -23 -28 -23 -33 -23c-1 0 -2 1 -30 17c-6 -2 -11 -3 -14 -3c-2 0 -5 2 -9 5c9 8 16 12 19 12c4 -2 7 -2 8 -2l8 5l-40 43
c1 4 11 8 28 12c8 2 25 14 25 19c-7 7 -43 48 -47 53c-6 12 -15 26 -26 43v10l12 2c0 -1 6 -5 31 -8c2 1 3 3 3 5s-2 4 -5 7v56c0 8 12 62 17 73c12 0 13 0 17 -123c1 -1 3 -5 6 -10c0 -13 13 -34 16 -34c0 -7 -3 -10 -10 -11l-12 1v-5c11 -12 27 -29 48 -50
c14 -9 21 -15 21 -18zM932 -50c-1 -2 -2 -3 -9 -13c0 -15 -30 -33 -71 -33c-34 -19 -69 -29 -106 -29c-8 3 -9 3 -11 3c-33 -21 -35 -21 -96 -31h2h-21c-4 0 -4 0 -40 20c-3 0 -13 -3 -34 -9c-4 0 -14 5 -30 16c-9 13 -19 18 -21 18l-4 -2c-9 0 -19 3 -28 8
c-4 8 -5 9 -16 18c-7 5 -10 9 -10 14c0 33 18 49 59 63l5 -2v36l3 3c0 19 20 47 36 47l6 -3c5 16 6 18 17 33c7 2 10 3 11 3c0 39 8 59 35 73c9 9 10 9 14 9c7 0 11 -3 11 -8c-7 -11 -8 -12 -9 -23c0 -13 3 -19 9 -19c38 14 38 14 39 14c3 -2 10 -6 11 -6s12 4 33 11
c27 -1 46 -18 46 -49c13 -7 21 -19 25 -35c25 -9 44 -35 56 -78c29 28 31 28 38 28c15 0 40 -13 41 -23c3 -2 6 -5 9 -8v-46zM557 174c-10 -8 -21 -30 -21 -47c-4 -7 -5 -10 -14 -19c0 -7 -42 -56 -50 -56c-7 0 -11 4 -11 11c0 2 1 4 3 6c1 13 3 52 3 54c-1 3 -3 4 -4 4
l-54 -14c-8 0 -12 9 -12 27c0 9 2 21 5 34c13 21 14 23 14 32h-69c-6 0 -9 3 -9 10c0 8 9 27 27 58c-32 0 -36 -1 -52 -5c-6 0 -9 3 -9 8c18 43 18 44 18 49c0 7 -7 20 -22 46c-19 58 -29 79 -40 89c-3 5 -4 6 -4 8c0 5 3 8 9 8c3 0 9 -9 18 -27c13 -28 36 -59 62 -82
c20 -6 33 -12 57 -23v-8c-11 -7 -29 -24 -29 -27c1 -1 10 -3 76 -16c0 -2 2 -3 4 -6c-6 -4 -12 -11 -34 -36c3 -8 41 -18 60 -18c3 0 9 1 18 3c1 -1 2 -2 4 -3v-13c-11 -12 -19 -23 -24 -34c1 -3 4 -4 11 -4l62 3c2 0 4 -1 7 -3v-9zM402 12c-2 -2 -4 -8 -6 -20
c1 -2 3 -14 3 -18c0 -1 -1 -3 -13 -24c-20 -50 -22 -50 -30 -50l-2 1v53c-12 0 -12 0 -32 -20c-23 -31 -36 -47 -39 -47s-6 2 -8 7c0 1 1 3 3 5c-3 14 -5 45 -6 63c-38 -34 -64 -65 -73 -83h-5c-4 1 -6 4 -6 9c8 49 8 50 8 78c-60 -73 -61 -73 -64 -73l-11 7c3 3 5 6 5 9v-2
c-2 0 -4 13 -6 37l-3 2c-37 -32 -56 -40 -82 -40l-2 6c0 1 42 39 49 44c25 13 25 13 75 63h10c0 -5 -1 -14 -5 -37v-9c11 6 26 17 46 31c7 9 18 20 32 33v-64h3c11 0 55 49 59 63h7c3 -3 5 -7 5 -13v-41c2 -2 3 -3 4 -3c12 0 21 5 80 40c3 -2 4 -4 4 -7zM1338 52
c-8 -5 -17 -13 -28 -24c-9 -19 -10 -19 -15 -19c-7 0 -11 8 -12 24c-1 5 -6 14 -14 27h-9c-4 -6 -9 -14 -16 -23c-1 -13 -20 -50 -29 -50c-8 0 -15 6 -15 13c0 2 0 5 3 9v26c-25 -26 -30 -30 -32 -30c-8 0 -8 1 -10 31c-4 10 -10 24 -16 44c-23 -21 -59 -83 -66 -110
c-2 -11 -7 -17 -14 -20c2 -5 5 -13 9 -22c14 33 52 118 61 118c10 0 15 -13 31 -83c2 16 16 39 24 39c2 -2 5 -7 27 -40c28 14 40 29 46 60c1 7 5 10 10 11c2 0 3 -2 5 -4c7 -39 7 -40 19 -59c4 11 10 27 19 48c6 7 13 18 22 34zM1120 334c-43 -13 -74 -40 -74 -64l1 -11
l-9 -8c-3 0 -6 2 -9 6c-3 18 -3 22 -3 60c-43 -34 -55 -69 -55 -123c0 -4 -3 -6 -8 -6c-3 0 -18 18 -46 54c-13 -50 -15 -58 -15 -60c0 -8 2 -27 4 -37c-1 -1 -2 -3 -4 -4c-8 3 -12 7 -42 43h-6v-53c0 -1 0 -1 8 -15c0 -4 -2 -6 -7 -6c-2 2 -16 7 -40 17l24 -24h4
c12 0 20 -3 33 -10v21c-1 5 -3 11 -4 20c3 3 6 5 7 5c7 0 32 -30 35 -36c0 6 1 15 5 46c0 5 0 5 -8 41c0 3 3 5 8 5s10 -4 16 -12c20 -22 30 -30 40 -30c21 65 28 93 28 111c3 2 6 3 9 3c2 0 4 -1 7 -2c9 -34 10 -35 10 -43c2 -3 5 -8 8 -14c1 8 58 94 83 126zM716 359
c-8 22 -8 23 -17 115c-5 -19 -7 -33 -7 -40c0 -44 2 -48 11 -66l-1 -9h14zM1060 -33c0 16 -3 26 -21 84c-9 -10 -17 -24 -25 -41c-3 -5 -6 -8 -10 -8c-1 0 -4 0 -9 2v29c-3 -13 -4 -21 -4 -25c0 -9 3 -30 11 -63c5 5 9 15 13 29c4 13 9 23 14 28h7c10 -17 18 -28 24 -35z
M762 269c-74 74 -74 75 -74 93l-13 4h-10c0 -23 16 -46 58 -81c7 -2 11 -6 11 -12c0 -2 -1 -4 -3 -5c-12 -5 -49 -22 -49 -29c9 -9 22 -21 41 -34v-11c15 4 23 9 23 15c-24 29 -27 34 -27 35c0 7 2 9 24 13c13 4 19 8 19 12zM679 126v14c-5 3 -9 4 -13 4c-1 0 -9 -3 -23 -10
c-2 -3 -2 -6 -2 -7c0 -10 12 -11 31 -11c5 4 7 7 7 10zM721 115c0 11 -13 14 -29 16c1 -2 2 -4 2 -5c0 -6 -14 -19 -23 -24c-37 -1 -60 24 -60 68c-19 -7 -25 -39 -25 -49l10 -26c0 -2 0 -3 -1 -3c-2 0 -6 0 -6 1c38 -42 39 -42 72 -42l21 6v6c-4 0 -7 2 -9 5c8 1 18 3 31 7
c5 27 5 31 17 40zM778 59c0 19 -6 31 -17 38c-14 -31 -79 -59 -120 -59c-17 0 -34 12 -58 40c1 -3 2 -7 2 -13c3 0 5 -1 7 -3v-13c8 0 9 -1 9 -17c2 2 4 3 6 3c5 0 11 -3 19 -9v-11c7 3 10 4 11 4c38 -11 41 -12 67 -14c36 0 74 27 74 54zM303 398l-2 7h-3l2 -7h3zM541 170
v-1c-1 2 -2 3 -4 5h-27c-39 -6 -39 -7 -46 -10c-5 0 -10 3 -13 10c23 21 34 38 34 49c-33 0 -88 18 -88 26c28 22 29 23 38 38c-14 5 -22 8 -25 8l-10 -2c-3 0 -10 2 -21 6c-21 0 -27 2 -29 9c9 6 20 17 36 31c-2 3 -3 3 -42 18l-41 41c5 -25 23 -60 40 -64l-3 -13
c-6 -3 -12 -10 -18 -19v-18c7 0 26 2 56 5c5 0 8 -2 8 -6c-21 -29 -24 -36 -34 -60c4 -4 11 -5 20 -5l47 2h4c6 0 9 -3 9 -9c-21 -48 -21 -52 -21 -84c1 -1 6 -2 7 -2c17 0 41 11 52 22c8 -5 12 -9 12 -12c-6 -17 -7 -42 -7 -49c0 -9 1 -11 4 -14c16 11 35 32 36 43
c0 3 0 7 -2 12c20 18 28 30 28 43zM790 25c0 3 -1 7 -4 12c-27 -35 -47 -44 -105 -44c-93 12 -120 19 -135 70c-19 0 -35 -26 -35 -55c0 -61 45 -88 80 -88l58 4c58 0 66 0 92 30c1 8 2 9 41 35zM919 -41c-2 45 -3 51 -26 55c-16 0 -21 -2 -31 -14c-3 -8 -9 -14 -19 -17
c0 -36 -80 -68 -182 -68c-45 -5 -50 -5 -80 -5c9 -3 13 -6 13 -10c0 -1 -1 -2 -3 -4c-11 1 -30 7 -58 18c-17 9 -29 14 -36 14c-1 -1 -12 -3 -34 -7v-5c13 -10 24 -15 32 -15c4 2 7 2 8 2c6 0 7 0 20 -22l25 -13c35 10 36 10 37 10c8 0 14 -5 18 -14c10 -4 18 -6 25 -6
c49 0 55 2 97 31c54 0 78 4 99 16c15 8 26 12 35 12h5c33 0 55 17 55 42zM581 -90v3h-6v-3h6zM389 -6v8c-14 -5 -21 -9 -49 -26c-12 -2 -16 -4 -28 -16c-5 0 -9 2 -11 6c5 11 8 28 8 53l-3 2c-45 -41 -59 -55 -77 -79l-5 -2c-5 0 -8 2 -8 6c0 -3 0 -4 1 -4c4 0 20 40 20 49
c-4 19 -4 24 -4 25c-51 -41 -79 -62 -82 -62c-4 0 -6 2 -6 6c0 3 4 16 11 42c-3 -1 -17 -13 -41 -35c-34 -20 -34 -20 -56 -45c22 0 47 27 58 41c5 0 8 -1 10 -4c0 -9 2 -25 7 -47c5 1 9 5 48 53c10 13 17 19 20 19c4 0 6 -2 6 -7c0 -9 -2 -30 -5 -38v-38c21 29 68 79 73 79
c2 0 4 -1 5 -2v-40c2 0 2 -1 3 -2l3 -30c30 40 54 67 69 67c4 0 6 -6 6 -17v-20c1 -2 3 -5 6 -10c8 17 13 31 15 40v15c0 1 1 3 6 13z" />
</svg>