<?xml version="1.0" encoding="iso-8859-1"?>
<!DOCTYPE svg PUBLIC "-//W3C//DTD SVG 1.1//EN" "http://www.w3.org/Graphics/SVG/1.1/DTD/svg11.dtd">
<svg width="100.0" height="100.0" version="1.1" xmlns="http://www.w3.org/2000/svg" xmlns:xlink="http://www.w3.org/1999/xlink">
<path fill="#00f0ff" transform="scale(.1,-.1) translate (0, -800)" glyph-name="c" unicode="c" horiz-adv-x="672" 
d="M656 311c-2 -14 -7 -32 -15 -55c-14 0 -18 1 -38 9c-32 -7 -67 -57 -71 -93l-10 -3c5 -13 8 -27 8 -44c0 -7 -4 -20 -12 -37c-8 -20 -9 -24 -9 -38l-21 -21l1 -70h-5l-4 5c3 5 4 12 4 20c0 11 -2 23 -6 38c-18 -9 -21 -11 -38 -11c-5 -19 -13 -28 -24 -28l-10 3
c-3 6 -8 14 -15 25l-26 6l-6 -8v-36l4 -6c0 -5 -3 -8 -9 -8l-3 8c0 10 0 10 2 19c0 25 -10 43 -31 55l-35 -7c-25 0 -43 4 -54 13l-1 3c-7 3 -16 18 -25 45l-17 12c-52 -6 -86 27 -100 98c3 3 4 19 4 48l-7 13c-1 2 -3 3 -5 3s-5 -1 -13 -5c-22 0 -45 25 -51 57l47 97l-6 11
c-9 1 -20 32 -20 48l3 29c26 22 85 86 87 97l17 7l18 -3l22 -27c-14 -13 -22 -24 -23 -33l-14 -1l-17 -13c-22 -3 -43 -24 -43 -43c0 -14 2 -19 33 -74c-46 -56 -47 -58 -47 -97c11 -14 22 -22 33 -25c15 -3 25 -7 31 -12l9 -81c7 -25 29 -38 65 -38l19 -4l14 -16l1 -35
l31 -21h24v40c0 10 12 47 19 56v4l-13 17l3 14l-58 43c-7 -6 -16 -14 -28 -23h-22c-1 9 -8 19 -23 32c5 9 10 23 15 42l9 3l10 -11l10 13l17 4l8 -5c2 -26 2 -27 9 -47c43 -26 60 -39 62 -47c9 -3 15 -7 17 -14c17 16 35 24 55 25c-2 5 -3 10 -3 15c0 7 3 14 8 20l-8 21h-19
l-29 9l2 15l-2 50c-1 2 -2 3 -3 3s-3 -1 -4 -2l-28 24c-2 13 -6 26 -13 39c-13 -12 -24 -18 -33 -18c-35 0 -56 21 -56 56c0 33 33 62 64 63l25 -13c21 49 58 75 113 78v16l-15 14v25v-2c1 0 3 15 6 44l-6 14c0 7 5 16 14 25l1 11c0 18 -3 23 -10 28c0 12 0 14 -4 20l17 12
l12 -12l-8 -31l3 -32l19 -13l-10 -11l11 -12l-20 -14l-8 4l-2 -2l25 -10v-8l-13 -7l-10 5l-6 -5l1 -6c18 -2 27 -8 27 -17c0 -5 -3 -14 -9 -28l5 -9c71 -12 111 -35 119 -68c9 1 23 4 41 9c30 -16 45 -39 45 -68s-21 -50 -49 -50c-14 0 -28 4 -41 11c-9 -15 -25 -37 -48 -67
c3 -4 4 -11 4 -22v-24c1 -4 2 -7 3 -10l-13 -13l-40 3c-8 -16 -12 -27 -12 -33c4 -13 4 -17 4 -18v-4c22 -10 44 -24 66 -43l19 12l7 -1l28 38c13 18 20 31 20 39c-1 0 -2 2 -4 5l6 26c0 5 -1 10 -2 15l10 7l22 -3l16 8l21 -11c0 -10 -1 -11 -6 -15zM523 -118
c0 -7 -5 -11 -15 -11l-10 2c-4 0 -6 -3 -6 -9c0 -3 -2 -4 -7 -4c-1 0 -1 0 -13 6c-1 0 -5 0 -9 -2c-2 0 -5 2 -10 6v5c-6 5 -18 16 -18 17c23 30 24 33 25 41c12 0 12 -1 12 -6c-14 -19 -21 -29 -22 -33c2 -1 5 -3 8 -6c1 -3 2 -7 5 -12c3 3 6 4 9 4c1 -1 5 -4 13 -9
c2 2 3 3 3 4c-2 5 -3 6 -3 8c0 3 1 5 4 8l19 -11c4 0 6 2 6 5c0 5 -2 8 -5 11c-11 9 -12 10 -16 25l-18 9v19c7 5 10 6 12 7c10 0 10 -2 10 -29c17 -22 26 -37 26 -45zM393 -121c-3 -1 -6 -2 -11 -5c0 -4 -1 -10 -2 -18c-3 -1 -17 -8 -19 -10c-5 2 -8 2 -9 2
c-6 -2 -6 -2 -7 -2c-15 8 -24 11 -25 11l-3 -2c-5 0 -8 5 -8 14c0 11 4 23 13 36c2 0 4 1 5 3h5v-7c-9 -8 -14 -17 -14 -26c0 -8 7 -13 22 -15c3 3 3 4 3 18c1 1 4 3 7 4c1 -7 5 -16 12 -27c3 4 6 7 9 8v15c-3 1 -6 3 -7 6c2 4 4 5 7 5h5c1 1 2 1 2 3c-2 4 -9 14 -21 30
c-2 -2 -4 -3 -7 -3c-8 0 -12 5 -12 14s5 14 15 14c7 0 7 -1 7 -16c11 -6 33 -40 33 -52zM615 471l-2 15c-15 21 -29 31 -40 31l-24 -14l-2 -59h5l7 -5c5 -4 10 -6 16 -6c21 0 40 18 40 38zM642 302h-6c-5 -4 -8 -6 -11 -6c-4 0 -6 2 -6 7c13 15 14 16 14 17c0 3 -4 6 -11 9
c-10 -15 -14 -18 -20 -18c-2 1 -4 5 -7 11c-1 -1 -4 -1 -8 -2c0 -33 7 -42 40 -49c1 5 3 8 8 10c2 5 4 12 7 21zM539 483c0 66 -29 81 -135 101c-95 -30 -102 -44 -102 -138c0 -11 3 -22 9 -31l-2 -9c11 -25 50 -42 93 -42l40 -6c53 11 97 38 97 125zM172 580
c0 8 -13 20 -22 20c-2 0 -5 -1 -9 -4c19 -7 26 -14 27 -25c3 5 4 8 4 9zM292 500c-5 3 -13 8 -24 13v-4c0 -5 -3 -7 -9 -7c-2 0 -4 1 -10 3c-11 0 -16 -13 -16 -40c0 -23 12 -35 37 -35l21 14l-2 32c0 10 1 18 3 24zM487 306c0 13 -10 17 -49 17c-83 0 -83 0 -83 -19
c8 -3 14 -5 17 -5h34c5 0 8 1 27 5l44 -1c3 0 6 1 10 3zM158 566c0 7 -4 12 -12 16c1 -2 3 -11 5 -26c1 1 2 2 5 2zM527 187l-2 1l-2 -4l2 -1zM143 561c0 9 -4 14 -11 14c-3 0 -6 -2 -9 -7c7 -3 13 -9 16 -17c3 4 4 7 4 10zM431 289h-29c5 -24 5 -24 9 -31
c0 -5 -3 -8 -10 -10l-1 -3c5 -4 9 -6 11 -6c5 0 10 2 15 5c0 24 0 24 5 39v6zM221 441c-3 13 -4 22 -4 29l-2 -12c2 -2 4 -8 6 -17zM129 544v8c-7 5 -12 7 -15 7c-4 0 -7 -3 -10 -9c4 -5 7 -10 9 -15c4 4 9 7 16 9zM433 223l-1 -2l8 -5zM513 108v16h-3v-16h3zM104 533
c0 5 -5 8 -14 8c-8 0 -15 -5 -22 -14c5 2 9 3 14 3s11 -2 16 -6c4 5 6 8 6 9zM463 145v12h-2v-12h2zM440 144c-2 3 -4 14 -4 33v-35c1 1 2 1 4 2zM503 113c0 10 -3 15 -9 16v-62c1 3 2 5 2 11c5 5 5 5 7 35zM448 131v5h-3v-5h3zM486 85c0 2 -2 4 -5 5l-2 34c0 1 0 1 6 15
l-9 22l-4 -5c1 0 2 -4 4 -33v-52l-7 -31c1 1 2 3 5 4c8 15 12 29 12 41zM87 512c0 6 -2 9 -7 9l-20 -5c-3 0 -9 -8 -9 -13v-11h25c1 0 2 -1 4 -2c5 12 7 19 7 22zM385 179l-2 1l-1 -4l2 -1zM416 170c-1 -2 -2 -5 -3 -10l7 -47l1 30c0 6 -2 15 -5 27zM468 104l-5 38v-18l-6 1
v-19c0 -12 -1 -16 -6 -40c0 -3 1 -8 3 -15h5c7 7 9 20 9 53zM493 67h-2l-1 -5h2zM384 166v8h-2v-8h2zM84 473c0 3 -1 6 -3 10c-7 -3 -8 -3 -10 -3c-1 0 -9 4 -12 4c-6 0 -9 -3 -9 -8c0 -3 2 -9 6 -17c3 4 7 8 13 12c4 0 9 1 15 2zM371 155v24c-5 -2 -7 -7 -7 -15
c0 -5 2 -8 7 -9zM95 452c-2 9 -4 14 -7 14c-8 -4 -10 -4 -13 -4h-3c-7 0 -10 -3 -10 -9c0 -1 0 -5 2 -10c20 7 27 9 31 9zM445 71v-1c-2 0 -8 32 -9 42v-2l3 19c1 0 1 0 1 -1c-1 1 -3 3 -5 4c-3 -8 -3 -9 -6 -60c0 -8 0 -9 8 -24c5 13 8 20 8 23zM109 422v6c-2 2 -3 6 -4 9
c-2 -2 -5 -3 -8 -3c0 2 -2 3 -4 6l-8 3c0 -1 -4 -2 -14 -5v-5l11 -3h4c7 0 14 -3 23 -8zM417 68c-1 23 -3 42 -6 57l-2 -39c0 -7 3 -13 8 -18zM398 112v58c-4 -9 -7 -13 -9 -13c-6 2 -6 2 -7 2c-3 -9 -4 -19 -4 -28c0 -20 0 -20 14 -60l4 4l-3 46c-3 10 -5 18 -5 24
c0 4 2 6 6 7c0 -10 2 -23 4 -40zM112 413l-2 6c0 -1 -3 -5 -8 -10l-9 9l-17 1c0 -3 -1 -8 -4 -15c10 -2 19 -5 26 -9c4 0 14 13 14 18zM242 290c0 12 -3 15 -9 15v-17c-5 -2 -8 -3 -9 -3s-7 2 -16 7l-4 -2c0 -16 0 -16 -6 -18v-7c13 0 14 0 17 -15l21 9v13c-1 1 -2 2 -2 3
c5 7 8 12 8 15zM375 70l-4 17v59c-5 0 -10 1 -15 4l-4 -29c0 -17 4 -34 13 -49l5 1c2 0 4 -1 5 -3zM87 389c-6 3 -12 4 -25 4c-5 0 -20 -23 -20 -26c0 -2 0 -3 1 -3c9 3 12 4 14 4l15 -6c5 10 10 19 15 27zM349 80c-4 10 -5 12 -7 43c-1 -1 -2 -2 -3 -2c-1 1 -4 2 -9 4
l3 -13c-1 -1 -3 -3 -8 -6c1 -13 5 -22 11 -26c1 -4 2 -9 4 -14c1 3 1 4 9 14zM329 55c-6 6 -15 42 -15 58c0 6 1 19 3 36c-5 -9 -8 -24 -8 -44c0 -27 7 -44 20 -50zM65 349c-3 5 -7 8 -11 8c-1 0 -1 0 -15 -6l-4 1c0 -1 0 -2 -4 -21v-13h2c9 17 18 22 32 31zM351 34l-2 2
l-2 -2l2 -2zM128 267v9c-20 9 -34 14 -43 14c-3 0 -6 -3 -9 -8c11 -3 14 -4 19 -4h9v-11c3 0 8 1 17 3c3 0 6 -1 7 -3zM68 320c0 4 -2 9 -6 16c-11 -3 -22 -13 -22 -22c0 -3 1 -6 3 -10h5c7 7 13 12 20 16zM313 54c-1 3 -4 9 -9 20v-8c0 -5 2 -10 5 -14zM78 298
c-2 0 -5 4 -11 10c-5 -3 -12 -8 -21 -15v-5c8 -3 13 -5 14 -5c2 0 8 5 18 15zM133 251c-10 10 -10 10 -15 10s-9 -2 -12 -5c-4 -18 -5 -26 -5 -29c0 -1 0 -5 2 -10c8 11 18 22 30 34zM235 139c0 2 -1 5 -3 7c-6 5 -11 7 -16 7l-4 -2v-4c-8 -22 -8 -23 -8 -28
c4 -2 7 -3 10 -3c4 18 9 23 19 23h2zM293 63v10l-11 1c-3 0 -4 0 -4 -5c0 -6 2 -9 5 -9c2 0 3 0 10 3zM299 48c0 4 -1 8 -3 12c-10 -9 -11 -9 -14 -9c-2 0 -5 2 -10 7l-5 -10l8 -2c2 1 10 1 24 2zM271 78c-1 1 -3 1 -6 2c-2 -2 -3 -7 -5 -12l2 -10c2 0 4 2 7 4zM238 100
c-4 8 -5 10 -5 13s2 17 3 21c-19 -19 -19 -25 -19 -33l9 -24c2 4 4 6 6 6c0 1 0 1 6 17zM205 151h-8c-13 -16 -21 -24 -21 -26c0 -5 2 -7 5 -7c5 0 10 2 16 7c1 6 3 15 8 26zM133 203l-2 30c-13 -5 -20 -12 -20 -22c0 -2 1 -3 4 -10c0 -1 -1 -3 -2 -4l-9 2l6 -21
c3 8 12 23 23 25zM258 83c-6 3 -9 5 -10 5c-9 0 -13 -7 -13 -20c0 -3 2 -5 14 -14c0 7 3 17 9 29zM163 162c-16 23 -22 30 -24 30c-13 0 -20 -6 -20 -19c0 -4 2 -7 6 -9c8 7 14 11 19 11c3 0 5 -1 6 -4c-4 -4 -10 -8 -17 -11c0 -9 1 -13 5 -18c5 6 13 13 25 20zM181 151
c-6 2 -10 4 -13 6c-13 -14 -18 -20 -18 -22c0 -7 2 -11 7 -11c2 0 4 1 10 3c3 5 8 13 14 24zM493 454c0 -17 -29 -61 -49 -63l-35 -8c-32 0 -70 34 -70 76c0 64 33 89 56 89c48 -7 79 -12 79 -13c8 -9 9 -12 19 -36v-45zM481 488c-2 7 -5 16 -6 29v-2c-19 13 -39 20 -75 20
c-20 0 -29 -12 -33 -28c-11 -17 -17 -32 -17 -46c0 -17 2 -27 6 -31c24 -22 38 -32 49 -32l2 -3c45 0 74 35 74 93zM468 471c0 -46 -25 -67 -75 -62h1c-5 10 -5 10 -22 24l-1 4c-5 3 -8 9 -8 17c0 46 24 72 64 72c27 0 41 -18 41 -55zM426 511v3h-5v-3h5z" />
</svg>