<?xml version="1.0" standalone="no"?>
<!DOCTYPE svg PUBLIC "-//W3C//DTD SVG 20010904//EN"
 "http://www.w3.org/TR/2001/REC-SVG-20010904/DTD/svg10.dtd">
<svg version="1.0" xmlns="http://www.w3.org/2000/svg"
 width="720.000000pt" height="720.000000pt" viewBox="0 0 720.000000 720.000000"
 preserveAspectRatio="xMidYMid meet">
<metadata>
Created by potrace 1.11, written by Peter Selinger 2001-2013
</metadata>
<g transform="translate(0.000000,720.000000) scale(0.100000,-0.100000)"
fill="#000000" stroke="none">
<path d="M52 5978 c-16 -16 -15 -24 2 -40 35 -33 1023 -1014 1598 -1586 375
-374 642 -632 651 -630 8 1 304 290 658 641 l643 638 640 -640 c353 -353 647
-641 655 -641 8 0 285 269 615 598 331 329 834 830 1119 1112 389 387 517 519
515 535 l-3 20 -3540 3 c-2746 1 -3544 -1 -3553 -10z m1876 -45 l571 -6 31
-44 31 -43 -1093 0 -1093 0 -110 45 c-60 25 -111 48 -114 50 -7 7 1123 6 1777
-2z m5121 2 c-3 -2 -54 -25 -114 -50 l-110 -45 -1068 0 -1067 0 31 43 30 42
377 5 c515 7 1926 11 1921 5z"/>
<path d="M1827 2994 c-1148 -1140 -1767 -1762 -1765 -1773 3 -15 274 -16 3539
-19 3024 -2 3538 0 3548 12 10 11 -318 342 -1759 1773 -974 967 -1776 1759
-1783 1761 -6 1 -808 -788 -1780 -1754z m3564 -632 l725 -722 -1180 0 -1181 1
40 21 c128 67 263 210 390 413 91 145 136 236 171 342 15 49 33 91 38 95 16
10 15 500 0 519 -7 8 -17 38 -23 67 -31 148 -130 320 -233 404 -148 121 -326
175 -539 165 -240 -11 -436 -115 -555 -294 -49 -74 -110 -231 -140 -364 -23
-99 -27 -138 -28 -294 -1 -171 0 -184 26 -258 42 -123 173 -356 276 -492 119
-156 214 -246 317 -299 l50 -25 -1225 -1 -1226 0 721 717 c396 395 961 958
1255 1250 l535 533 530 -528 c291 -290 857 -852 1256 -1250z m-1568 1240 c91
-22 218 -82 274 -131 l33 -27 -33 -32 -32 -31 -50 33 c-69 45 -142 74 -243 96
-106 24 -146 24 -239 5 -97 -20 -166 -47 -244 -94 l-64 -39 -27 32 -28 31 38
33 c53 48 185 109 270 126 41 8 77 18 80 21 12 12 176 -2 265 -23z m-863 -802
c11 -6 17 -17 14 -25 -4 -8 -2 -15 2 -16 5 0 27 -2 49 -4 65 -6 216 -54 281
-90 94 -53 179 -120 229 -183 24 -31 45 -60 45 -63 0 -3 -42 36 -93 86 -75 74
-109 100 -182 137 -50 24 -133 55 -184 68 l-94 23 -19 -23 c-24 -29 -23 -40 5
-40 44 0 213 -51 287 -87 82 -41 87 -45 166 -120 31 -29 59 -53 65 -53 5 0 9
-5 9 -10 0 -6 9 -20 20 -32 10 -11 27 -41 37 -64 10 -24 24 -44 30 -44 16 0
12 30 -8 61 -31 47 -40 69 -29 69 6 0 16 -11 22 -25 6 -14 14 -25 18 -25 4 0
17 23 31 52 89 191 273 318 518 357 67 11 159 -1 173 -23 24 -36 -12 -249 -61
-356 -11 -25 -40 -67 -65 -93 -26 -26 -46 -51 -46 -55 0 -4 -9 -13 -20 -20
-11 -7 -20 -17 -20 -22 0 -6 9 -10 20 -10 11 0 20 -6 20 -14 0 -18 -79 -136
-90 -136 -18 0 -32 40 -20 55 7 8 10 19 8 25 -2 6 -30 -10 -62 -34 -82 -65
-222 -103 -331 -92 -33 3 -77 1 -98 -5 -28 -7 -60 -6 -128 6 -107 18 -119 24
-224 104 -83 64 -90 67 -100 50 -13 -19 -111 143 -161 266 -53 130 -77 287
-58 384 7 33 14 37 44 21z m-791 -1213 c8 -1 19 -21 26 -45 l13 -42 -598 2
c-329 2 -601 6 -605 10 -7 7 22 69 37 79 7 5 1090 1 1127 -4z m3997 5 c17 -11
47 -73 39 -80 -4 -4 -272 -8 -597 -10 -560 -2 -589 -2 -584 15 3 10 8 30 12
45 l6 28 457 3 c251 1 501 3 556 4 55 2 105 -1 111 -5z"/>
<path d="M4103 2710 c-46 -11 -106 -31 -135 -45 -71 -35 -172 -109 -197 -142
-11 -16 -24 -32 -29 -38 -36 -46 -96 -165 -83 -165 4 0 13 11 19 24 12 26 33
55 70 93 12 13 22 27 22 31 0 9 66 62 78 62 6 0 12 7 16 15 3 8 12 15 21 15 8
0 15 4 15 9 0 5 11 12 25 15 14 4 25 11 25 16 0 6 7 10 15 10 9 0 42 9 74 20
78 26 123 34 209 38 35 2 42 20 16 46 -20 20 -58 19 -161 -4z"/>
<path d="M2990 2597 c0 -56 68 -247 70 -194 0 22 14 22 84 -3 140 -48 250
-129 318 -235 35 -53 44 -61 79 -66 45 -6 46 -5 23 72 -62 211 -225 368 -444
428 -101 28 -130 28 -130 -2z"/>
<path d="M4122 2604 c-218 -47 -380 -230 -419 -471 -5 -28 -3 -33 15 -33 37 0
51 11 74 58 53 107 196 221 313 250 91 23 95 23 95 7 0 -24 15 -17 27 13 6 15
25 60 42 100 17 41 28 78 25 83 -8 13 -98 9 -172 -7z"/>
<path d="M3125 2150 c-3 -6 1 -7 9 -4 18 7 21 14 7 14 -6 0 -13 -4 -16 -10z"/>
</g>
</svg>
