<?xml version="1.0" standalone="no"?>
<!DOCTYPE svg PUBLIC "-//W3C//DTD SVG 20010904//EN"
 "http://www.w3.org/TR/2001/REC-SVG-20010904/DTD/svg10.dtd">
<svg version="1.0" xmlns="http://www.w3.org/2000/svg"
 width="720.000000pt" height="720.000000pt" viewBox="0 0 720.000000 720.000000"
 preserveAspectRatio="xMidYMid meet">
<metadata>
Created by potrace 1.14, written by Peter Selinger 2001-2017
</metadata>
<g transform="translate(0.000000,720.000000) scale(0.100000,-0.100000)"
fill="#000000" stroke="none">
<path d="M53 5979 c-11 -11 -7 -39 8 -49 7 -5 932 -921 1963 -1945 l278 -277
442 441 c501 499 859 852 862 848 2 -1 291 -289 642 -639 352 -351 645 -638
651 -638 7 0 283 269 614 599 331 329 838 833 1127 1120 496 493 524 522 506
536 -17 13 -453 15 -3551 15 -2596 0 -3534 -3 -3542 -11z"/>
<path d="M3251 4406 c-190 -189 -656 -651 -1036 -1028 -2054 -2039 -2165
-2151 -2154 -2165 17 -19 7071 -20 7087 0 12 14 -135 164 -1068 1088 -366 362
-1098 1089 -2141 2125 -179 178 -329 324 -334 324 -5 0 -164 -155 -354 -344z
m1224 -1131 c473 -470 1037 -1029 1252 -1244 l393 -391 -1183 0 -1182 1 48 25
c26 14 60 35 75 47 53 42 211 207 217 227 3 11 11 20 16 20 6 0 8 -4 4 -9 -3
-5 -1 -12 3 -15 5 -3 9 5 8 18 -1 23 62 125 78 126 5 0 3 -7 -4 -15 -8 -9 -8
-15 -2 -15 16 0 21 23 10 44 -7 12 -7 16 0 12 6 -3 13 -2 17 4 4 7 13 7 28 -1
21 -10 21 -9 3 5 -10 9 -23 13 -27 10 -5 -3 -9 -1 -9 4 0 6 7 12 15 16 8 3 15
14 15 24 0 11 9 31 20 45 11 14 20 30 20 37 0 6 4 8 10 5 6 -3 7 1 4 9 -3 9
-1 16 6 16 6 0 8 5 5 10 -4 6 -2 17 5 24 6 8 13 22 15 32 2 11 13 42 23 69 21
53 22 56 22 81 0 8 5 12 10 9 6 -4 7 -11 4 -17 -4 -6 -3 -8 3 -5 6 4 8 25 6
48 -2 22 -1 39 4 36 4 -3 5 98 2 225 -4 142 -10 232 -16 236 -6 4 -13 26 -17
50 -3 23 -10 51 -16 61 -5 11 -10 27 -10 36 0 28 -78 178 -115 220 -65 76
-134 140 -172 160 -21 11 -41 23 -44 27 -11 16 -175 67 -249 79 -124 19 -268
7 -380 -31 -93 -32 -184 -82 -227 -124 -11 -11 -27 -26 -35 -32 -30 -25 -128
-161 -128 -178 0 -4 -11 -31 -24 -60 -30 -65 -61 -166 -70 -226 -4 -25 -12
-60 -18 -78 -11 -37 -15 -69 -17 -159 0 -37 -5 -63 -12 -63 -5 0 -7 5 -4 10 3
6 2 10 -4 10 -19 0 -21 -19 -3 -24 14 -5 18 -17 19 -62 0 -35 -3 -51 -8 -43
-7 11 -9 10 -9 -3 0 -10 5 -18 11 -18 6 0 8 -7 5 -16 -3 -8 -2 -12 4 -9 6 3
10 1 10 -4 0 -6 -6 -11 -12 -11 -9 0 -8 -4 2 -10 8 -5 11 -10 5 -10 -6 0 -5
-3 1 -8 15 -9 30 -57 16 -48 -6 3 -14 1 -18 -5 -4 -7 -3 -9 2 -6 6 3 15 3 20
-1 15 -10 35 -72 27 -85 -4 -6 -1 -7 7 -2 9 6 10 2 5 -15 -5 -15 -4 -20 4 -16
6 4 11 0 11 -8 0 -9 5 -16 11 -16 6 0 9 -6 6 -12 -2 -7 5 -25 15 -40 11 -16
16 -28 12 -28 -4 0 1 -7 12 -16 10 -8 13 -12 5 -8 -9 4 -12 3 -7 -4 3 -6 2
-13 -4 -17 -9 -6 -14 10 -13 42 1 7 -4 10 -10 6 -6 -4 -7 -1 -2 7 5 8 4 11 -2
7 -5 -3 -10 0 -11 8 -1 8 -3 22 -4 30 -1 8 -5 12 -10 9 -4 -3 -4 -13 2 -23 9
-18 4 -31 -11 -31 -5 0 -5 8 -2 18 6 16 6 16 -10 0 -23 -22 -22 -25 10 -24 14
0 28 -4 30 -11 3 -7 -5 -10 -20 -9 -19 2 -23 -1 -19 -16 6 -24 19 -31 28 -17
5 8 3 9 -6 4 -8 -5 -11 -3 -8 5 2 7 12 14 22 16 11 2 16 -2 12 -11 -3 -8 3
-17 15 -20 23 -8 25 -21 4 -29 -9 -3 -15 0 -15 9 0 18 -16 20 -26 3 -4 -6 -3
-8 3 -5 6 4 13 0 17 -8 4 -12 10 -13 31 -3 17 8 22 15 15 22 -13 13 -13 26 0
26 6 0 10 -7 10 -15 0 -7 8 -18 18 -24 9 -5 16 -12 15 -15 -2 -3 12 -27 30
-53 164 -236 281 -356 417 -425 34 -17 -12 -17 -1192 -18 l-1227 0 662 659
c1377 1370 1852 1839 1857 1834 3 -3 392 -389 865 -858z"/>
<path d="M2825 2780 c-3 -6 1 -7 9 -4 18 7 21 14 7 14 -6 0 -13 -4 -16 -10z"/>
<path d="M2840 2760 c-13 -8 -12 -10 3 -10 9 0 17 5 17 10 0 12 -1 12 -20 0z"/>
<path d="M2726 2738 c3 -5 10 -6 15 -3 13 9 11 12 -6 12 -8 0 -12 -4 -9 -9z"/>
<path d="M2812 2694 c2 -12 -2 -18 -10 -16 -8 1 -11 -2 -7 -7 8 -14 35 -2 35
14 0 8 -5 17 -11 20 -6 4 -9 0 -7 -11z"/>
<path d="M2749 2683 c-13 -16 -12 -17 4 -4 16 13 21 21 13 21 -2 0 -10 -8 -17
-17z"/>
<path d="M2840 2677 c0 -9 -8 -20 -17 -26 -10 -5 -14 -13 -9 -18 5 -4 11 -2
13 5 3 6 9 9 15 6 5 -4 3 -13 -7 -24 -12 -14 -13 -20 -4 -26 7 -4 10 -3 6 3
-4 6 0 16 7 22 9 7 13 23 10 39 -6 31 -14 42 -14 19z"/>
<path d="M2787 2626 c-4 -10 -3 -15 3 -11 6 3 10 1 10 -6 0 -7 3 -10 6 -6 3 3
2 13 -4 22 -8 16 -9 16 -15 1z"/>
<path d="M2780 2586 c0 -2 8 -10 18 -17 15 -13 16 -12 3 4 -13 16 -21 21 -21
13z"/>
<path d="M2816 2577 c3 -10 9 -15 12 -12 3 3 0 11 -7 18 -10 9 -11 8 -5 -6z"/>
<path d="M2773 2545 c0 -8 4 -12 9 -9 5 3 6 10 3 15 -9 13 -12 11 -12 -6z"/>
<path d="M2831 2527 c-8 -10 -7 -14 2 -14 8 0 14 6 14 14 0 7 -1 13 -2 13 -2
0 -8 -6 -14 -13z"/>
<path d="M2796 2393 c-6 -14 -5 -15 5 -6 7 7 10 15 7 18 -3 3 -9 -2 -12 -12z"/>
<path d="M2890 2360 c0 -5 5 -10 10 -10 6 0 10 5 10 10 0 6 -4 10 -10 10 -5 0
-10 -4 -10 -10z"/>
<path d="M4350 2359 c0 -5 5 -7 10 -4 6 3 10 8 10 11 0 2 -4 4 -10 4 -5 0 -10
-5 -10 -11z"/>
<path d="M2907 2327 c-9 -23 8 -41 28 -30 12 7 14 13 6 17 -6 4 -11 2 -11 -4
0 -6 -4 -9 -10 -5 -5 3 -7 12 -3 20 3 8 3 15 0 15 -3 0 -7 -6 -10 -13z"/>
<path d="M2867 2319 c7 -7 15 -10 18 -7 3 3 -2 9 -12 12 -14 6 -15 5 -6 -5z"/>
<path d="M2833 2305 c0 -8 4 -12 9 -9 5 3 6 10 3 15 -9 13 -12 11 -12 -6z"/>
<path d="M2882 2281 c-11 -6 -10 -10 0 -19 11 -8 14 -7 14 9 0 10 0 19 -1 19
0 0 -6 -4 -13 -9z"/>
<path d="M2886 2222 c-3 -5 1 -9 9 -9 8 0 12 4 9 9 -3 4 -7 8 -9 8 -2 0 -6 -4
-9 -8z"/>
<path d="M2867 2199 c7 -7 15 -10 18 -7 3 3 -2 9 -12 12 -14 6 -15 5 -6 -5z"/>
<path d="M2906 2158 c3 -5 10 -6 15 -3 13 9 11 12 -6 12 -8 0 -12 -4 -9 -9z"/>
<path d="M3005 2125 c-16 -8 -23 -14 -14 -15 8 0 24 7 35 15 23 18 18 18 -21
0z"/>
<path d="M3026 2107 c-17 -12 -17 -14 1 -28 17 -13 17 -13 3 5 -14 18 -13 19
3 13 12 -5 16 -3 11 5 -5 8 -2 9 10 5 10 -4 15 -3 11 3 -8 13 -18 13 -39 -3z"/>
<path d="M4234 2085 c3 -9 -4 -25 -15 -36 -17 -17 -23 -19 -30 -8 -6 9 -9 10
-9 2 0 -6 -8 -20 -17 -29 -16 -15 -16 -17 -2 -12 9 4 22 2 28 -3 8 -6 8 -5 1
3 -5 7 -10 16 -10 21 0 14 21 -4 30 -27 7 -16 9 -17 9 -4 1 9 -4 20 -9 23 -6
4 -2 13 10 23 22 19 35 62 18 62 -5 0 -8 -7 -4 -15z"/>
<path d="M3056 2082 c-3 -5 1 -9 9 -9 8 0 12 4 9 9 -3 4 -7 8 -9 8 -2 0 -6 -4
-9 -8z"/>
<path d="M2945 2060 c-3 -6 1 -7 9 -4 18 7 21 14 7 14 -6 0 -13 -4 -16 -10z"/>
<path d="M4255 2059 c-4 -6 -5 -12 -2 -15 2 -3 7 2 10 11 7 17 1 20 -8 4z"/>
<path d="M3050 2056 c0 -2 8 -10 18 -17 15 -13 16 -12 3 4 -13 16 -21 21 -21
13z"/>
<path d="M4230 2020 c0 -5 5 -10 10 -10 6 0 10 5 10 10 0 6 -4 10 -10 10 -5 0
-10 -4 -10 -10z"/>
<path d="M4286 1998 c3 -5 10 -6 15 -3 13 9 11 12 -6 12 -8 0 -12 -4 -9 -9z"/>
<path d="M4174 1982 c3 -5 0 -13 -6 -15 -9 -4 -10 -6 -1 -6 17 -1 25 16 12 25
-7 4 -9 3 -5 -4z"/>
<path d="M4230 1981 c0 -6 4 -13 10 -16 6 -3 7 1 4 9 -7 18 -14 21 -14 7z"/>
<path d="M4197 1963 c-10 -9 -9 -23 1 -23 5 0 9 7 9 15 0 17 -1 18 -10 8z"/>
<path d="M4150 1942 c0 -5 7 -9 15 -9 8 0 12 4 9 9 -3 4 -9 8 -15 8 -5 0 -9
-4 -9 -8z"/>
<path d="M4175 1900 c-3 -5 -1 -10 4 -10 6 0 11 5 11 10 0 6 -2 10 -4 10 -3 0
-8 -4 -11 -10z"/>
</g>
</svg>
