<?xml version="1.0" encoding="iso-8859-1"?>
<!DOCTYPE svg PUBLIC "-//W3C//DTD SVG 1.1//EN" "http://www.w3.org/Graphics/SVG/1.1/DTD/svg11.dtd">
<svg width="50.0" height="100.0" version="1.1" xmlns="http://www.w3.org/2000/svg" xmlns:xlink="http://www.w3.org/1999/xlink">
<path fill="#00f0ff" transform="scale(.1,-.1) translate (0, -800)" glyph-name="one" unicode="1" horiz-adv-x="322" 
d="M76 614c1 1 3 4 6 13c32 21 66 36 102 46c18 -3 19 -4 28 -394c3 -127 7 -199 12 -215c13 -8 25 -12 37 -12l52 4c8 0 8 -11 8 -32c-18 -23 -227 -67 -289 -69l-6 3l-1 24l11 2v15c65 20 74 24 87 37c7 29 11 208 11 536l-7 13c-17 -3 -31 -4 -55 -4l-5 4l-2 13
c1 1 3 6 6 13zM297 25c4 2 8 3 9 5l1 11l-46 -4c-15 0 -32 5 -49 16c-10 21 -13 89 -21 473c-2 75 -5 124 -9 131c-3 -2 -8 -3 -13 -4c9 -9 11 -54 18 -385c3 -135 8 -208 14 -221c15 -9 29 -14 43 -14c9 1 50 4 51 4c2 -2 2 -5 2 -12z" />
</svg>