<?xml version="1.0" encoding="iso-8859-1"?>
<!DOCTYPE svg PUBLIC "-//W3C//DTD SVG 1.1//EN" "http://www.w3.org/Graphics/SVG/1.1/DTD/svg11.dtd">
<svg width="50.0" height="100.0" version="1.1" xmlns="http://www.w3.org/2000/svg" xmlns:xlink="http://www.w3.org/1999/xlink">
<path fill="#00f0ff" transform="scale(.1,-.1) translate (0, -800)" glyph-name="four" unicode="4" horiz-adv-x="429" 
d="M276 -67c-1 3 -2 6 -2 12h-7l-5 3l-8 196c-56 -15 -103 -21 -216 -21l-10 9v9h-7l-6 4c0 72 1 74 129 317c75 141 116 213 124 217l7 -3c1 -2 2 -4 3 -7c5 6 6 7 10 8l13 -5c11 -23 19 -101 24 -235c4 -103 9 -169 14 -196l45 1l1 -3h23c12 -15 12 -28 12 -67l-8 -8
c-28 -7 -46 -8 -69 -8c-1 -1 -2 -4 -2 -8c9 -161 9 -169 9 -202c-9 -11 -31 -17 -65 -19zM43 140l1 -2c94 0 140 4 207 21c-1 3 -2 5 -3 6c-62 -17 -126 -25 -205 -25zM325 239c-7 31 -12 97 -15 198c-3 125 -10 199 -20 224c-2 -2 -4 -6 -7 -11c6 -38 11 -106 15 -203
c5 -131 10 -201 17 -210zM289 -58c24 2 39 6 46 11c0 25 -1 38 -9 195c0 10 4 18 12 23c23 0 41 1 66 7l1 1c0 33 -1 38 -5 45h-8v-39l-4 -4c-25 -6 -32 -7 -68 -7c-4 -3 -6 -9 -6 -16c9 -145 10 -180 8 -199c-5 -5 -16 -9 -33 -12v-5zM243 487c-17 -30 -131 -225 -152 -260
c33 7 66 10 97 10c20 0 39 -1 58 -4c4 3 6 8 6 15zM75 224c0 4 3 10 167 289c-1 10 -1 16 -2 17l-6 -1l-172 -293c0 -7 2 -11 6 -14z" />
</svg>