<?xml version="1.0" encoding="iso-8859-1"?>
<!DOCTYPE svg PUBLIC "-//W3C//DTD SVG 1.1//EN" "http://www.w3.org/Graphics/SVG/1.1/DTD/svg11.dtd">
<svg width="100.0" height="100.0" version="1.1" xmlns="http://www.w3.org/2000/svg" xmlns:xlink="http://www.w3.org/1999/xlink">
<path fill="#00f0ff" transform="scale(.1,-.1) translate (0, -800)" glyph-name="e" unicode="e" horiz-adv-x="971" 
d="M957 258c0 -12 -7 -18 -20 -18c-22 15 -23 15 -79 19c-3 -5 -5 -11 -8 -19c1 -3 2 -5 2 -7c0 -31 -83 -89 -128 -89c-1 0 -4 0 -12 3h4c0 -4 -35 -4 -68 -4v-17l6 -90c0 -10 -37 -36 -40 -36c-8 -1 -20 -3 -35 -6c0 -4 -1 -6 -23 -39c0 -1 1 -6 5 -17c0 -9 0 -10 -14 -25
c0 -15 3 -25 15 -56l-2 -10l-8 -6c-15 0 -22 11 -22 20c0 7 5 13 15 18l-5 27c-6 7 -13 17 -21 30c0 14 -27 53 -39 67c-31 5 -34 5 -67 21c0 1 -1 3 -2 4c-14 3 -15 3 -16 51l1 66h-22c-4 0 -7 1 -10 5c-18 2 -45 5 -80 11c-3 3 -9 5 -16 8c-21 3 -22 3 -49 22
c-16 4 -19 8 -41 38c1 2 2 4 2 8c-5 3 -23 42 -23 50v-1c1 0 3 4 6 13l-73 10c-2 -1 -5 -4 -10 -9c-19 0 -24 9 -24 25c8 6 13 9 16 9c8 0 13 -3 15 -9c0 -8 11 -11 58 -17c1 1 8 2 20 4c2 11 11 30 28 57c2 2 40 17 43 17c6 -1 12 -2 13 -2c3 0 26 5 68 15c0 10 0 10 3 13
c17 3 33 4 46 4c7 -2 10 -3 13 -3h16c0 66 -6 98 -20 125c0 10 15 18 44 24l44 11h-2c12 -2 18 -3 20 -3c7 0 15 10 22 31l-2 11c0 9 2 16 5 21c10 5 13 8 13 47c-1 1 -1 3 -2 8c-2 1 -6 3 -9 7c0 24 0 25 13 25c9 0 14 -6 14 -18c0 -2 0 -2 -12 -20c0 -44 30 -111 50 -111
h5c43 0 50 -2 69 -22l-4 -12c1 -2 3 -3 4 -3l-4 -11c1 -11 3 -29 7 -51c-2 -1 -5 -2 -8 -4c-1 -12 -1 -17 -2 -20v5c3 -44 3 -44 9 -44c4 0 14 1 27 3c177 -30 177 -30 184 -137c5 -8 22 -12 51 -12c5 2 22 9 30 13c11 0 16 -6 16 -18zM835 348v6l-5 6h-12
c-11 -15 -17 -25 -18 -30c10 9 22 15 35 18zM818 367v5l-8 -2c-3 0 -6 1 -9 3c-9 0 -27 -17 -27 -33c7 -3 11 -5 12 -6c15 22 26 33 32 33zM844 327c0 2 -2 3 -4 6c-2 1 -2 1 -9 5c-7 0 -17 -6 -29 -18v-7c20 11 22 12 42 14zM790 378c-1 0 -3 1 -4 2c-1 -1 -2 -2 -3 -4h-4
c-2 4 -5 6 -8 6c-8 0 -15 -9 -20 -26c4 -1 8 -4 12 -9c13 18 22 28 27 31zM852 287v16c-2 1 -3 3 -3 6h-10v7c-7 0 -8 0 -36 -15v-7c11 5 19 7 22 7c17 0 26 -5 27 -14zM547 573c-2 11 -7 21 -16 31v-14c0 -11 10 -19 12 -19s3 1 4 2zM839 284c-3 5 -5 7 -7 7h-6v-2
c2 -2 7 -3 13 -5zM756 385c-25 0 -25 0 -25 -12v-14c4 0 7 -1 10 -2c4 10 9 19 15 28zM824 288l-4 1zM520 584c0 4 -1 8 -8 15c-1 -2 -2 -4 -4 -5c-2 -7 -3 -13 -3 -22h14zM729 389l-5 -1c-2 1 -4 2 -5 3c-8 0 -12 -9 -12 -27c7 -2 11 -3 14 -3c1 11 4 20 8 28zM836 265
c0 10 -3 10 -18 10c0 -2 5 -7 14 -16c3 2 4 4 4 6zM706 393c-1 1 -4 3 -9 5c-7 -3 -10 -12 -10 -25c0 -6 2 -9 7 -9l5 1c3 8 7 25 7 28zM755 318l6 -6zM499 570v8c-2 -2 -3 -4 -3 -6c1 -1 1 -2 3 -2zM830 239c-10 21 -13 22 -25 24c-7 2 -10 5 -10 8l9 15h-3
c-7 -8 -15 -16 -26 -25c9 -8 22 -19 38 -36c0 1 1 2 2 3c-2 7 -12 17 -29 29v5c2 1 4 2 6 2c11 0 22 -14 33 -33zM684 395c0 2 -1 4 -3 6c-15 -7 -22 -15 -22 -23l7 -6c0 -3 -1 -5 -2 -6h12zM661 399c-5 0 -10 -1 -14 -3c0 -3 -1 -5 -4 -6v-25l7 -1c2 14 6 26 11 35z
M800 224c-3 3 -14 14 -34 31l-3 -1c14 -17 21 -29 21 -37h7c4 0 9 4 9 7zM663 341v3l-10 1v-2zM756 281c0 19 -43 42 -60 42c-18 0 -20 -1 -32 -6c-3 0 -6 2 -10 7c0 2 -1 4 -2 6h-5c1 -19 3 -45 6 -80c4 -3 9 -5 15 -5l87 19c1 0 1 5 1 17zM452 522l-3 2l-1 -2l3 -2z
M775 214c0 5 0 6 -18 38c-23 -5 -55 -12 -100 -20c6 0 6 0 6 -18c0 -19 0 -19 4 -32l10 2v13c-4 16 -5 23 -5 26s2 5 5 8h5l5 -46l9 3l-2 41c1 4 3 5 8 5l4 -48c2 1 5 2 9 2l-6 43c0 3 2 5 6 7h2c1 -11 3 -25 8 -43h8c0 7 0 7 -9 34c0 3 2 6 6 7c1 -2 6 -15 13 -39
c4 2 10 5 17 10c-3 10 -7 17 -11 21c-3 0 -6 1 -10 3v6c2 3 4 4 7 4c8 0 22 -21 22 -30c3 0 5 1 7 3zM657 182c-3 19 -5 36 -5 52h-36c0 -18 0 -25 3 -50h5c-2 30 -2 37 -2 40s2 5 6 5c1 0 1 0 5 -2l6 4c3 0 5 -2 7 -7v-27c-1 -1 -2 -2 -2 -3s0 -2 5 -12h8zM642 262
c-3 28 -4 35 -4 58c-7 24 -7 26 -7 27c2 6 3 14 3 17c0 6 -1 12 -4 18c-2 -5 -13 -10 -34 -13c-5 3 -5 5 -5 10v16l-4 14c0 5 2 7 5 7l3 -2l17 9c6 0 9 -2 9 -7c0 -1 -1 -4 -4 -12c1 -5 5 -11 12 -18l4 39l-10 62c0 4 2 8 7 12h3v26c-7 -2 -13 -8 -21 -18l-8 2
c-2 0 -3 0 -12 -4l-38 -5l-7 3c-2 -1 -6 -1 -15 -2h2l-64 6c-7 -2 -10 -3 -11 -3c-11 0 -36 7 -47 15l-16 -3c6 -36 7 -85 7 -152c3 0 4 -1 5 -2v-10h-3c-3 -14 -4 -26 -4 -35c0 -7 1 -23 4 -47c2 -1 3 -4 3 -7c0 -5 -3 -8 -8 -8c-2 0 -4 3 -8 7c2 5 2 10 2 11l-4 31v19
l-31 -3c-21 0 -83 -25 -83 -40c0 -3 1 -7 3 -10c59 -7 66 -8 141 -26c-3 26 -1 30 9 30l8 -2l10 4c4 0 7 -4 8 -11l4 -20c16 2 28 3 35 3c-5 5 -7 11 -7 18s4 10 13 10c20 0 23 -3 27 -27l9 -1c3 0 7 1 10 3c-1 3 -2 5 -2 8c0 11 6 16 18 16c2 0 4 -1 6 -2
c3 -7 7 -15 13 -26h13l-4 14c0 6 9 14 21 14c4 -5 9 -12 15 -21v-10c12 0 16 4 16 18zM637 185c-1 10 -2 21 -4 35c-3 -7 -4 -11 -4 -12c1 -1 2 -9 5 -23h3zM396 382c-1 8 -2 13 -2 16c-29 7 -30 7 -46 5c6 -7 13 -21 22 -39h13l-18 30l5 7c0 -1 4 -6 13 -15c0 3 1 5 4 8
c2 0 4 -1 5 -2c0 -5 1 -8 4 -10zM608 185h1l-1 49c-11 2 -20 3 -26 3c-8 -2 -13 -3 -15 -3l-50 6c-3 -1 -21 -3 -54 -5c2 -5 2 -10 3 -51l16 1v45h7c2 -3 3 -4 3 -5c0 -2 -1 -3 -2 -4v-36c3 0 4 0 9 2v21c1 11 3 17 8 17h4v-13c-3 -2 -3 -7 -3 -24h17c-2 9 -3 18 -3 20
c0 6 2 11 6 15h2c0 -16 1 -27 4 -37l13 2v33h3c1 -8 3 -19 6 -34h17c0 44 0 46 3 46h4c0 -32 3 -48 8 -48v46c1 2 3 3 4 3l4 -4v-45h12zM360 364c0 11 -10 27 -17 27c-8 -2 -13 -3 -15 -3c4 -8 8 -14 12 -17c1 -5 1 -8 2 -8zM526 175l-11 1c1 -1 4 -3 8 -5c0 3 1 4 3 4z
M334 361c-7 17 -13 26 -19 26c-4 0 -7 -2 -9 -6c5 -5 11 -14 18 -25h6c3 3 4 4 4 5zM314 353v5c-8 14 -20 24 -27 24c-2 -1 -2 -1 -7 -2c0 -3 18 -30 26 -30c1 0 4 1 8 3zM457 182v53c-7 0 -10 0 -19 -5v-48h19zM292 349c-12 19 -21 28 -27 28l-7 -1c7 -6 15 -17 26 -30
c3 1 6 1 8 3zM430 234c-8 1 -21 3 -40 7v-56h14v29c-2 8 -2 9 -2 10c0 6 1 8 7 10c0 -1 0 -1 3 -2v-48h20l-2 2v48zM274 345c-3 14 -23 28 -39 28c-5 0 -9 -1 -12 -2c26 -17 40 -26 43 -29c2 0 5 1 8 3zM643 55c-7 87 -7 87 -12 87h-21c2 -2 4 -4 4 -7v-4l-8 -6h-14
c-7 0 -11 4 -11 12c-10 0 -24 -1 -40 -3l1 -7c-1 -4 -4 -6 -7 -6l-20 -4c-9 0 -24 13 -24 20l-29 3c1 -3 2 -6 2 -8c0 -4 -2 -6 -7 -6c-12 3 -12 4 -17 4h-5c-9 0 -13 2 -13 7c0 2 0 5 1 7h-17v-78c0 -4 1 -9 3 -13l3 -3c2 -23 35 -34 142 -49l16 4l8 -2c54 15 65 21 65 52z
M251 334v8c-19 15 -34 23 -43 23c-3 0 -7 -3 -11 -9c5 1 9 2 13 2c10 0 19 -5 41 -24zM383 242c-28 8 -48 12 -61 12v-26c0 -35 2 -39 19 -39l-4 38c0 20 1 23 6 24l3 -3l-1 -46l5 -15h5v52c2 2 4 3 5 3c2 0 2 0 4 -1c0 -5 -1 -22 -2 -30v-20c3 -4 8 -6 13 -6l8 2v55z
M242 328c-6 14 -17 21 -32 21c-1 0 -4 -1 -13 -4c-1 0 -3 2 -5 7c-6 -6 -9 -10 -9 -13s1 -4 2 -4h20c9 -1 16 -3 22 -7l8 -6c3 0 5 2 7 6zM319 254c-1 1 -2 1 -16 2c3 -5 5 -10 5 -15c0 -2 -2 -9 -5 -18h3l-3 -2c3 -19 6 -26 12 -26l-1 55zM295 199v58l-7 2
c-1 -5 -2 -11 -4 -19v-33c0 -2 4 -5 11 -8zM557 -12l-3 3l-4 -3c-28 6 -28 6 -37 6c14 -29 20 -34 29 -34zM225 315c0 9 -7 13 -22 13c-5 0 -13 -1 -24 -4c-3 -6 -4 -12 -5 -17c22 6 35 9 40 9s8 -1 9 -2c0 -1 -1 -4 -2 -5c-31 0 -46 -6 -46 -18l4 -10h5l30 26
c2 -2 2 -2 3 -2c5 0 8 3 8 10zM277 257v-1l-20 1v-4c-9 -25 -9 -25 -10 -30c2 -6 5 -9 9 -9c2 0 3 0 3 1c0 22 0 36 10 36h4v-5c-6 -13 -7 -16 -7 -24c1 -1 3 -6 6 -16h5v51zM220 278c-2 3 -4 9 -6 16c-1 -3 -2 -7 -5 -12c-6 -1 -13 -5 -21 -12c5 -1 9 -4 12 -7
c5 3 11 8 20 15zM250 260h-5c-13 -9 -16 -17 -16 -33c3 0 6 -2 11 -5c0 18 1 23 10 38zM229 260c-5 0 -17 -10 -17 -14c0 -6 3 -9 8 -9c2 0 3 3 9 23zM213 263c-3 -2 -6 -4 -9 -7v-5zM603 455c0 -15 0 -15 -26 -19c-6 0 -12 19 -12 41c2 2 4 3 7 3h3c1 0 3 0 17 7
c4 -1 4 -2 6 -2c3 -21 4 -32 5 -32v2zM553 445c-4 -3 -16 -5 -35 -6c0 11 -1 18 -7 33c0 3 1 6 4 9l18 6c0 -1 4 -2 11 -4c4 -5 4 -9 6 -28c0 -4 1 -7 3 -10zM502 438c-10 2 -11 2 -25 -5c-9 0 -10 3 -10 45c2 0 3 2 6 4c4 0 11 1 16 3c5 0 5 -2 8 -30c3 -3 5 -6 5 -8v-9z
M567 370c-2 -3 -4 -5 -7 -5s-6 1 -13 3l-16 -8l-4 1c-2 10 -3 27 -5 48c8 6 9 6 19 7c10 0 16 -5 17 -15c2 -15 5 -26 9 -31zM631 296c-3 -2 -14 -3 -31 -3c-8 0 -8 1 -8 14c0 5 0 6 -8 27c0 3 2 5 6 6c14 1 23 4 26 9c8 -5 9 -8 10 -36zM450 437c-22 0 -23 0 -32 6
c3 41 5 46 17 46c3 0 6 -1 9 -3c3 -26 4 -27 6 -34v-15zM517 374c-5 -4 -7 -5 -8 -5s-5 1 -10 4c-1 -1 -3 -2 -4 -5l-6 3c0 -1 -3 -2 -8 -4c-2 0 -3 1 -4 3v20l-7 19c1 1 4 3 7 5c1 0 1 0 21 4c3 0 6 -1 8 -4c0 -8 4 -22 11 -40zM572 302c0 -7 -3 -11 -10 -11
c-12 2 -13 2 -21 -4c-2 0 -4 1 -5 4v9c0 3 -3 13 -6 20v14l26 9h6c0 -6 0 -8 10 -41zM463 372c0 -7 -3 -10 -8 -10l-33 10c0 13 0 19 -4 35c19 13 20 13 21 13c18 0 24 -13 24 -48zM517 319l-2 -2c0 -25 0 -28 -6 -28l-11 1c-21 13 -22 14 -24 16c1 2 2 9 3 22l22 22
c6 0 17 -10 17 -15c-2 -6 -2 -8 -2 -9c0 -3 1 -5 3 -7zM462 290c-24 0 -28 0 -36 7c0 21 0 22 -7 33c0 5 2 8 7 8l20 4c2 0 6 -1 12 -3l4 -27v-22zM635 83c0 -23 -6 -25 -24 -25c-2 10 -3 10 -8 18v11c-3 3 -4 5 -4 8s2 5 6 5l7 -1l8 12c9 0 13 -5 15 -28zM587 60
c-5 -3 -9 -5 -13 -5h-12c-2 0 -4 1 -7 4c-1 6 -4 16 -8 29c3 8 16 13 31 16c3 -1 5 -6 5 -14v-17c3 -8 4 -11 4 -13zM531 74c0 -16 -4 -24 -12 -24c-1 0 -9 2 -13 4h-3c-10 0 -12 3 -12 24c-3 6 -4 10 -4 11c2 1 6 2 13 3c2 5 7 8 16 8c7 0 12 -6 15 -18c-1 -1 -2 -3 -2 -7z
M463 81v-15h-19c-6 0 -8 1 -17 7v35c2 1 7 3 16 5c20 -14 20 -16 20 -32z" />
</svg>