<?xml version="1.0" encoding="iso-8859-1"?>
<!DOCTYPE svg PUBLIC "-//W3C//DTD SVG 1.1//EN" "http://www.w3.org/Graphics/SVG/1.1/DTD/svg11.dtd">
<svg width="100.0" height="100.0" version="1.1" xmlns="http://www.w3.org/2000/svg" xmlns:xlink="http://www.w3.org/1999/xlink">
<path fill="#00f0ff" transform="scale(.1,-.1) translate (0, -800)" glyph-name="f" unicode="f" 
d="M697 -22c0 -13 -4 -19 -13 -19c-13 0 -37 20 -37 30c3 4 14 19 16 33c0 6 -22 82 -37 111c-22 -23 -27 -43 -40 -122c-3 -3 -5 -11 -5 -22c0 -10 2 -17 5 -20l8 -28c0 -13 -12 -25 -25 -25c-11 0 -26 11 -26 20c0 6 1 8 24 30l3 7c0 38 6 59 17 62v43c-20 0 -23 0 -35 12
c-49 -13 -60 -15 -69 -15l-134 11c-13 0 -13 0 -32 -19c3 -31 11 -78 24 -139c5 -7 12 -16 19 -28v-19c-3 -7 -8 -12 -13 -16h-9c-2 -3 -6 -5 -11 -9c-8 5 -12 13 -12 24c-3 5 -5 8 -5 9c0 22 9 27 22 34c-3 62 -12 109 -27 140h-5c-7 -7 -17 -55 -36 -146
c13 -6 19 -17 19 -32s-7 -22 -20 -22c-21 0 -33 12 -33 33c0 13 8 20 24 22c5 10 10 24 15 43c0 31 15 80 19 95v-2c-4 0 -9 29 -10 53c-18 14 -23 19 -23 58c0 22 4 29 15 52c0 -2 0 -4 -1 -4c-2 0 -9 27 -9 45c0 10 -2 17 -5 21c-43 50 -83 92 -122 127
c-29 0 -41 6 -45 30c-2 3 -3 5 -3 6s1 3 3 6c0 18 5 24 18 24c21 0 38 -24 38 -55c26 -34 108 -119 134 -140c5 -1 13 -2 26 -3l11 -12c0 -2 1 -4 2 -6c33 15 60 23 79 23c61 0 90 2 117 6c7 0 19 -2 38 -5v24c0 7 -4 17 -11 30h-6c-8 -6 -13 -9 -15 -9c-5 0 -10 5 -13 16
s-6 17 -11 17c-9 -2 -38 -10 -63 -18c-5 0 -10 1 -17 4c-1 12 -5 28 -10 49c-3 2 -6 6 -10 13c-2 13 -12 33 -30 62c-3 -13 -27 -29 -32 -29c-1 0 -5 2 -10 5c-5 24 -9 30 -49 76v15l16 2c35 -17 42 -20 43 -20c5 0 7 4 8 12v11c5 5 12 11 19 20l19 34
c-17 51 -34 88 -48 106c23 -32 47 -63 72 -93l-44 121c2 -3 14 -24 64 -111c2 0 5 2 8 5l-11 39c0 3 0 3 -31 85c2 0 11 -13 68 -102c0 10 0 10 -2 12l-40 110c25 -45 38 -66 53 -92v-11l6 -1c-4 5 -33 93 -33 98c0 3 1 5 2 5c4 0 39 -68 39 -71l16 -2c30 -35 76 -59 93 -59
s35 54 36 61c7 4 11 6 12 6c3 0 6 -2 11 -6c5 -18 7 -36 7 -53v-28c0 -17 6 -39 8 -39c0 -4 -21 -15 -28 -15c-2 0 -3 -1 -3 -4c28 -42 45 -68 52 -124c-37 -11 -38 -11 -63 -24c11 -15 11 -15 16 -95c-5 -27 -7 -41 -7 -45c16 -34 20 -43 20 -68c0 -20 0 -21 -20 -54v2
c2 0 6 -12 14 -36c25 -78 28 -83 46 -113c3 -5 5 -12 5 -20zM645 631c0 13 -3 27 -8 40c-21 -31 -32 -49 -32 -53l18 -44h11c6 9 7 10 11 59v-2zM668 450l-10 25c0 13 -18 48 -72 137c-53 -17 -90 -38 -149 -73c-17 -5 -41 -14 -73 -26c0 -9 6 -24 24 -60
c13 -17 14 -17 38 -82c3 -7 6 -11 11 -11h-1c0 1 73 26 97 27c-4 8 -6 15 -6 20c0 13 8 20 23 20c10 0 13 -4 23 -26h6c20 13 35 21 45 25c29 12 44 20 44 24zM623 354c-4 4 -6 6 -7 6c-3 -8 -4 -13 -4 -16c5 0 8 3 11 10zM405 547c-1 0 -3 1 -4 3c-1 0 -2 -2 -2 -5z
M627 311v18l-8 2c-35 -15 -36 -15 -52 -15v-7l43 -5c3 0 9 2 17 7zM621 286v7c-43 -1 -43 -2 -47 -7c12 -4 19 -6 20 -6s7 2 19 9zM362 470c0 9 -2 14 -6 23c-1 0 -6 2 -43 17c-5 0 -7 -2 -7 -6c13 -26 24 -39 31 -39s15 2 25 5zM645 481c0 -27 -26 -54 -52 -54
c-11 0 -49 22 -50 29c0 7 -1 11 -7 24l5 8c0 28 21 53 44 53c33 0 60 -31 60 -60zM531 436c0 -13 -9 -23 -26 -30c-4 -7 -4 -8 -6 -8h-8c-2 3 -4 5 -6 5c-6 -1 -15 -2 -18 -2c-27 0 -49 26 -49 48c0 41 24 57 65 57c21 0 48 -31 48 -70zM527 126c-1 0 -7 -1 -17 -3l-15 30
c-30 0 -31 0 -31 -6v-26c-3 -3 -5 -4 -7 -4c-12 0 -20 15 -20 24c4 9 4 9 9 41c0 10 -2 21 -4 31c0 8 3 13 9 16c0 9 3 13 10 13c5 0 8 -3 11 -8s8 -8 13 -9c0 -8 0 -8 42 -85v-14zM630 479c0 18 -19 46 -31 46l-6 -2c0 -11 8 -30 24 -57l6 -3c5 8 7 13 7 16zM596 443
c-15 28 -25 50 -29 65c-9 -3 -13 -12 -13 -27c0 -22 14 -35 42 -38zM513 448c0 7 -5 17 -14 29c-9 1 -16 6 -21 15h-7c2 -15 10 -33 25 -54c0 -3 1 -9 3 -17c3 1 6 3 9 6c3 9 5 16 5 21zM473 418c-15 38 -23 51 -32 54l-6 -15c0 -19 13 -41 31 -41c3 0 5 1 7 2zM480 183
c-2 7 -6 16 -12 25v-27c7 0 11 1 12 2zM636 199c0 21 -5 38 -15 52c-8 7 -12 12 -12 16v2c-21 0 -36 1 -45 4l-18 -7c-58 7 -175 -1 -195 -14c6 -3 11 -19 14 -49l24 26v9l15 9l14 -14l-16 -38c9 -6 20 -43 20 -62c0 -14 -7 -16 -18 -16l-7 7c-1 13 -9 29 -26 47v-39
c9 -2 13 -5 13 -10s-32 -14 -37 -14c-8 0 -12 3 -12 10c0 5 2 19 7 46c0 15 -5 40 -14 76h-9c-33 -21 -49 -47 -49 -78c0 -16 5 -30 15 -41l13 3c18 0 32 -8 42 -23l149 -11c11 0 20 3 58 16v10c-2 0 -3 1 -3 3c0 3 3 8 8 15c3 21 -2 49 -11 66c-22 0 -40 15 -40 30l1 3
c4 3 10 5 18 6h39c4 1 17 7 18 8c8 0 11 -4 11 -15l6 -9c-3 -2 -8 -4 -14 -5c0 -6 -3 -10 -13 -16c1 -17 5 -34 10 -51l5 2c13 -5 22 -9 28 -12c17 25 26 45 26 58z" />
</svg>