<?xml version="1.0" encoding="iso-8859-1"?>
<!DOCTYPE svg PUBLIC "-//W3C//DTD SVG 1.1//EN" "http://www.w3.org/Graphics/SVG/1.1/DTD/svg11.dtd">
<svg width="100.0" height="100.0" version="1.1" xmlns="http://www.w3.org/2000/svg" xmlns:xlink="http://www.w3.org/1999/xlink">
<path fill="#00f0ff" transform="scale(.1,-.1) translate (0, -800)" glyph-name="g" unicode="g" horiz-adv-x="712" 
d="M692 20l-15 -12l-30 10c-2 -1 -4 -2 -5 -4c27 -35 40 -57 40 -65c0 -5 -4 -12 -12 -19l-16 13c0 -2 2 -8 5 -19l-15 -26c-13 2 -14 6 -25 55l-2 -2c0 -32 -4 -44 -18 -44l-18 15c-2 5 -3 12 -3 20c0 10 1 21 4 34l-9 -6l-23 16c0 13 6 39 13 61l-5 8c0 15 2 29 7 40
l-12 14c-2 23 -11 69 -27 137h-3c-3 -57 -16 -107 -38 -151c0 -13 3 -32 9 -57c-1 0 -2 -25 -3 -39c-9 -5 -15 -6 -46 -6l3 -18c0 -14 -3 -24 -8 -29l-35 -16c-29 10 -34 15 -34 43l-3 2c-30 -10 -36 -12 -37 -12l-17 4l-4 25l-7 5v12c-3 9 -6 24 -7 47
c-67 83 -84 113 -108 155l-8 -3c13 -15 20 -42 23 -81l6 -88l-10 -13c12 -7 16 -15 16 -30c2 -2 18 -22 47 -60l-12 -21c-2 1 -5 2 -9 2l-2 -3l15 -37l-5 -18h-7l-17 14l-1 20l-8 12l-3 -2l5 -51l-14 -25h-5l-7 5c-1 15 -3 37 -7 64c-9 -72 -10 -77 -26 -77
c-3 23 -12 94 -15 112l-3 3c-23 -8 -34 -11 -45 -11l-7 8c0 5 50 50 57 51v24l8 10l5 -2l3 2l-17 13c-6 19 -14 32 -23 39c-12 62 -24 99 -36 111c0 29 -2 47 -6 54c1 11 3 26 6 47l3 2c3 36 37 65 76 65l10 8l13 -4l16 15l-2 1l-1 31l11 17l12 4l8 12c-9 43 -14 86 -14 131
c0 48 24 94 73 137c-3 37 -4 38 -17 38c-7 7 -10 14 -10 19c0 15 9 23 31 23l13 -24c-2 -6 -6 -10 -12 -11l-2 -16l10 -28l9 2c1 0 31 -6 49 -10c42 -47 46 -62 85 -232l2 -2c12 -2 19 -8 20 -18v2v-26c3 -7 4 -8 4 -10l10 -9l20 7c19 0 21 0 41 4c49 -23 74 -57 74 -104
c0 -13 -2 -27 -7 -41c14 -23 21 -50 21 -81c0 -21 -9 -64 -16 -72c14 -12 19 -22 19 -40c9 -7 28 -23 57 -50zM378 657v3h-2v-3h2zM381 652v4h-2v-4h2zM440 459c0 23 -12 86 -32 139c-3 3 -6 5 -7 7c28 -100 29 -116 29 -138c2 -1 3 -2 3 -5c0 -1 -1 -2 -3 -3h10zM608 301
c0 25 -6 43 -15 52c6 -43 9 -68 9 -77c4 6 6 14 6 25zM588 362c-10 16 -20 24 -30 25l10 -34v-26c0 -4 1 -8 5 -25c0 -8 -2 -12 -6 -12l-12 -2c-5 0 -8 3 -8 10l1 12l-12 67c-2 3 -5 6 -9 9c0 3 -1 6 -2 9l-5 -2c0 -9 0 -10 16 -54c1 -13 4 -31 9 -54c19 -8 29 -11 30 -11
c0 1 0 2 4 17l-1 25l4 19c-4 11 -5 14 -5 17c0 8 3 12 9 12c1 0 1 -1 2 -2zM462 432c0 10 -5 15 -16 15c-1 0 -2 0 -2 -1c1 -2 3 -10 8 -24c7 3 10 7 10 10zM509 386c-3 3 -6 5 -9 5c-1 -1 -4 -3 -10 -6c1 -1 2 -2 3 -4c7 1 13 3 16 5zM421 476c0 10 -12 66 -20 75v4
c0 32 -24 86 -50 115c-14 5 -35 11 -43 12c-10 0 -47 -24 -53 -34l-2 1c-14 -25 -21 -66 -21 -121c0 -19 4 -45 13 -78l3 -2c4 -9 5 -15 5 -16h18c-13 8 -19 24 -19 47c-1 5 -8 40 -8 41v23l3 1c5 -59 15 -95 29 -102l-3 -10h8c9 0 10 3 10 7c-9 63 -14 106 -14 128
c0 31 21 69 41 69c36 0 55 -19 56 -58l2 -2c8 -77 14 -119 17 -126c6 1 15 2 26 5l-2 3zM379 476c0 9 -2 22 -5 39c1 1 2 4 2 7c-7 25 -8 30 -8 31c-2 49 -19 73 -51 73c-19 0 -34 -30 -34 -67c0 -4 4 -38 12 -101c11 -3 22 -7 31 -13c2 0 6 2 11 5c3 -1 6 -2 9 -5l26 15z
M521 353v6c-1 2 -3 3 -5 3c-3 -2 -7 -4 -12 -6c0 -4 1 -7 3 -10c5 3 9 6 14 7zM442 431c0 5 -9 17 -13 17c-1 0 -4 0 -10 -2c4 -17 8 -26 13 -26c8 1 9 2 10 11zM420 419c0 7 0 7 -15 24c-3 -1 -6 -2 -11 -4c4 -13 8 -20 11 -20h15zM528 312v6c-1 1 -2 3 -4 4l-8 -1v-13
c4 3 8 4 12 4zM393 418c-1 4 -3 11 -5 20c-4 0 -7 -1 -11 -3c0 -6 3 -16 5 -17h11zM523 288h-3v-5c2 1 3 3 3 5zM373 417v5c-1 0 -3 4 -6 12l-10 -4c0 -4 2 -8 6 -13h10zM524 260v11h-2v-11h2zM353 413v6c-5 6 -9 9 -12 9l-8 -1v-14h20zM623 179c0 61 -14 75 -52 75
c-19 0 -20 0 -34 -30v2c0 -5 10 -28 31 -71c0 -3 -3 -5 -8 -8c5 -42 7 -46 21 -46c16 0 25 9 28 27c8 4 14 19 14 51zM324 412c-2 7 -4 11 -5 11v-2l1 6h-12l-2 -6c1 -3 2 -6 4 -10l8 -1c2 0 4 1 6 2zM301 408c-4 11 -8 16 -11 16l-7 -1v-10c0 -5 3 -8 10 -8c2 0 5 1 8 3z
M480 207h-2l-1 -6h2zM279 404c-4 12 -7 18 -9 18c-3 0 -6 -1 -10 -3c4 -11 8 -17 12 -17c2 1 6 2 7 2zM256 402c0 4 -2 9 -5 17c-9 -3 -14 -7 -14 -11c0 -6 3 -9 9 -9c3 0 7 1 10 3zM231 395v18c-13 -5 -19 -11 -19 -17v-5h8c2 0 6 1 11 4zM676 21c-9 10 -23 22 -44 37
c-10 -15 -22 -22 -35 -22c-6 0 -13 2 -22 6c-9 -21 -13 -36 -13 -45c0 -5 3 -9 9 -12c5 8 8 12 10 12c9 0 13 -8 13 -24c0 -1 -1 -5 -8 -29c0 -17 4 -25 12 -25c6 0 9 12 9 37c0 9 2 14 7 14c6 0 12 -7 17 -20c5 -27 9 -40 12 -40c2 1 5 2 8 5c0 4 0 4 -14 50c0 3 2 5 5 5
s3 0 26 -27c5 0 7 2 7 7c0 7 -7 18 -22 33c-14 15 -21 26 -21 34c0 3 5 9 16 18c10 -10 18 -14 24 -14h4zM464 141h-2l-2 -5h2zM514 251c0 11 -2 19 -5 26c0 53 -24 115 -41 115s-212 -23 -217 -29c-3 0 -16 -2 -38 -7l-3 -8c-14 -1 -27 -40 -27 -66v-7
c14 -58 36 -104 67 -139l-2 11c1 0 3 12 8 36l10 6c3 -2 5 -10 5 -23c0 -3 8 -17 24 -40c12 -1 20 -5 25 -12c0 8 0 8 -2 10l1 16l6 3l8 -10c0 -14 14 -29 26 -29c6 0 9 10 9 31l3 7h5c5 -7 10 -19 17 -34h5l10 11l-2 6l4 16c-2 14 -2 14 -9 23c0 5 2 7 7 7
c7 0 17 -10 30 -30h5c14 15 14 17 24 77l11 10c9 -5 9 -9 9 -26c-1 -7 -2 -12 -2 -16c5 -2 11 -5 20 -8c2 8 5 20 9 37v36zM186 337c0 3 -2 4 -7 4c-8 0 -9 -4 -9 -10c3 -1 6 -2 11 -5c3 5 5 9 5 11zM157 336h-9l2 -8l-1 -12l8 14v6zM477 73c-1 1 -2 4 -4 9
c-17 -10 -18 -11 -118 -23c-1 -3 -2 -4 -5 -4l-5 3c-21 0 -33 -5 -34 -16c4 -1 7 -2 13 -2l94 13c39 5 59 12 59 20zM176 294l-2 2h-21c1 -5 2 -10 2 -16c4 3 10 5 19 8c1 1 1 3 2 6zM148 316c-7 -4 -9 -13 -9 -35c0 -3 2 -12 7 -27c0 5 0 7 -3 23c3 20 5 35 5 39zM176 253
c-4 2 -7 3 -8 3s-1 0 -11 -2l3 -8c6 1 11 4 16 7zM482 10c0 3 -1 8 -2 15l-86 -16c-47 -9 -71 -15 -74 -19v-11l15 -5c0 3 41 15 147 36zM103 293l-2 1l-2 -3l2 -1zM163 205c0 2 -1 5 -2 9c-3 -4 -6 -6 -9 -6c-7 0 -14 4 -19 13v12c-9 23 -9 24 -10 72c-3 -12 -8 -32 -8 -33
c0 -18 8 -52 20 -58v-9l-4 -4c-3 0 -3 0 -27 -12c-3 0 -3 0 -12 21v-10c0 -7 8 -20 12 -20zM198 46c0 40 -2 76 -5 109c-1 1 -1 3 -2 8l-6 4c-1 10 -6 15 -16 15c-23 0 -48 -15 -48 -34c0 -2 -1 -4 -2 -5v-39c8 -28 28 -79 55 -79c9 0 24 8 24 21zM245 -128l-8 21h-3
c2 -16 2 -17 8 -21h3zM250 -67l-38 48c-12 -13 -21 -20 -26 -20c-9 0 -21 6 -37 18c-8 -9 -20 -23 -37 -41c7 0 7 0 20 7c9 5 15 7 20 7c4 -5 5 -6 5 -67c0 -27 3 -44 8 -49c4 6 5 16 9 79c3 3 7 4 10 4c12 -12 14 -21 18 -73l4 -3c2 6 3 10 3 12c-3 6 -3 7 -7 54
c0 7 3 10 9 10c5 0 13 -5 17 -9c-5 11 -6 15 -7 18c0 7 3 10 9 10c3 0 9 -2 15 -5h5zM328 657c-10 -1 -18 -4 -25 -11h-5c-2 2 -3 4 -3 5c0 3 10 8 29 13c3 -3 4 -5 4 -7zM360 557c0 -9 -4 -14 -13 -14s-14 5 -14 16c0 2 2 5 6 10c6 1 9 2 9 3h-2c9 0 14 -5 14 -15zM323 554
c0 -11 -6 -16 -17 -16c-4 0 -12 8 -12 13c0 13 5 19 14 19c10 0 15 -5 15 -16zM268 629c-10 -7 -13 -19 -13 -42v-5c0 -3 -1 -6 -3 -7c-4 1 -7 4 -8 8c3 3 6 12 8 27c1 13 6 22 14 25zM365 477c-28 -8 -44 -11 -45 -11s-1 0 -7 2v6l46 14c2 0 4 -1 6 -3v-8zM481 277
c0 -7 -2 -10 -6 -10c-3 0 -8 7 -23 27l-8 -39l-14 -1l-17 26l2 11c-3 0 -17 25 -17 40l2 13c4 5 12 7 25 7c15 15 17 17 25 17c15 0 29 -42 29 -84c0 -1 1 -6 2 -7zM373 270l-4 -9l-18 -6c-3 -3 -5 -9 -5 -20c2 -5 16 -46 16 -47c0 -14 -9 -36 -16 -36c-4 0 -7 3 -8 9l7 13
c-11 16 -19 24 -24 24c-3 -1 -6 -1 -8 -3c0 -13 2 -22 7 -29c0 -6 -2 -9 -7 -9c-13 0 -33 32 -33 69l-11 -6c-3 3 -5 5 -8 5c-9 -6 -16 -14 -20 -25h-6c-7 7 -13 12 -18 15c-5 7 -11 24 -18 50l8 18l-2 3c-11 2 -17 6 -17 12c0 8 19 33 29 38v12l10 6l40 -20
c7 7 12 10 15 10c1 0 2 0 15 -2c11 13 12 14 16 14l19 -12c0 10 3 15 8 15c2 0 5 -2 8 -5c0 -3 3 -14 7 -31l-5 -23l1 -5c9 -6 16 -14 22 -25zM472 301c-2 0 -3 1 -3 4c0 15 -6 32 -18 49c-1 0 -3 1 -5 2c-16 -11 -23 -34 -23 -77l12 -1c1 3 2 8 5 14c-1 1 -2 1 -2 2
c3 22 4 22 11 22c3 -2 10 -9 22 -22zM357 276l-4 -3l2 -1zM309 268c0 3 -2 14 -7 35c-2 -3 -3 -6 -3 -10c0 -18 1 -21 8 -32c1 2 2 6 2 7zM324 321c-1 5 -3 8 -8 10c-2 -3 -16 -5 -41 -5l-8 -4c-2 0 -4 1 -7 3c-2 -3 -16 -8 -42 -13l1 -14c0 6 4 10 13 12c37 3 60 8 82 16z
M336 265c-4 6 -4 7 -5 33c-1 1 -4 3 -8 5c4 -26 5 -31 9 -38l-11 -14l-34 -6c0 -2 1 -4 4 -6c1 0 3 1 6 3c3 0 6 -2 9 -5c1 5 8 10 21 15c6 2 9 6 9 13zM295 265c0 5 -2 19 -7 42c-3 -3 -5 -7 -5 -12c0 -25 3 -33 10 -38zM281 267c0 17 -3 29 -10 37c-2 -8 -3 -13 -3 -15
c0 -9 1 -17 4 -23c1 -1 3 -2 5 -5v-8c3 2 4 7 4 14zM265 252c0 9 -3 25 -9 46c-2 -7 -3 -10 -3 -11c0 -9 2 -17 7 -30v-5h5zM249 261v14h-2l-5 25h-4c1 -9 4 -22 11 -39zM233 279v6h-2v-6h2zM281 241h-10h2c-2 -1 -9 -1 -23 -2c5 -1 12 -2 21 -5c3 3 7 6 10 7zM238 251v11
v-2c-1 0 -2 6 -5 17c0 -16 1 -22 5 -26zM221 278v3h-2v-3h2z" />
</svg>