<?xml version="1.0" encoding="iso-8859-1"?>
<!DOCTYPE svg PUBLIC "-//W3C//DTD SVG 1.1//EN" "http://www.w3.org/Graphics/SVG/1.1/DTD/svg11.dtd">
<svg width="100.0" height="100.0" version="1.1" xmlns="http://www.w3.org/2000/svg" xmlns:xlink="http://www.w3.org/1999/xlink">
<path fill="#00f0ff" transform="scale(.1,-.1) translate (0, -800)" glyph-name="j" unicode="j" horiz-adv-x="1065" 
d="M1056 36c0 -12 -11 -18 -33 -18c2 -9 3 -16 3 -19c0 -23 -9 -34 -28 -34c-17 0 -31 21 -31 32c0 4 3 8 9 12c-1 3 -3 4 -6 4c-1 0 -7 -1 -13 -2c-3 1 -10 3 -22 8c0 6 -3 9 -16 9l-2 -17c0 -2 -1 -4 -3 -5c1 -3 2 -7 2 -15c-1 -3 -2 -5 -3 -7c5 -7 7 -12 7 -13
c0 -2 0 -2 -10 -12c0 -22 0 -23 -48 -36c10 -10 12 -14 15 -36c0 -20 -21 -36 -37 -36c-31 14 -38 21 -38 44c0 13 3 23 9 28c-5 2 -16 4 -32 6h-21c-13 1 -19 4 -19 9c0 1 1 2 5 9v15c1 7 5 12 11 15c-2 3 -5 4 -9 4c-6 5 -9 12 -10 21c-8 4 -15 18 -15 40c0 2 1 7 3 15v27
c2 3 3 7 3 13c0 1 0 5 -3 18c0 9 2 14 7 14l6 -1c-2 -39 -2 -40 -4 -51v-42c1 0 2 -4 5 -12c5 5 8 10 8 16c-4 31 -5 44 -5 50l4 55c0 1 0 1 -2 1c-14 -14 -14 -14 -21 -14c-9 0 -14 1 -16 4c-3 7 -9 15 -19 22l-14 -1c3 -1 11 -2 24 -3c1 -2 2 -4 2 -5c0 -2 -1 -4 -2 -6
l-75 3c-9 0 -51 -7 -69 -14v-21c0 -13 -2 -20 -36 -20c-1 0 -6 1 -7 2l-18 -4c-1 0 -2 1 -15 13c0 9 -1 10 -5 10c-1 0 -5 -1 -7 -2c-14 0 -21 5 -21 14c0 2 1 4 5 12c-5 8 -5 9 -7 31c-1 1 -2 2 -2 3c0 5 9 13 18 13c3 0 6 -1 9 -2c1 1 1 2 3 2c0 1 0 6 -2 11
c-6 3 -12 5 -17 5l-10 -2c-7 0 -14 13 -18 41c-1 1 -2 2 -3 4c-29 0 -60 -8 -60 -9l-20 3c-14 -5 -21 -7 -22 -7c-6 0 -9 2 -9 7c1 6 2 12 2 13c0 6 0 6 -30 6c-20 0 -34 -2 -40 -6l-17 -17c-6 -7 -11 -11 -16 -11c-25 8 -26 8 -29 8h-3c-1 1 -6 5 -16 11
c-10 -15 -16 -24 -30 -24c-19 0 -29 2 -31 6c0 6 0 7 -18 26l5 9h-12c-7 -6 -14 -9 -21 -9c-17 0 -26 8 -26 24c0 20 9 30 26 30c5 0 11 -2 17 -7c0 -1 5 -3 15 -5c8 27 10 34 35 34c26 -4 27 -5 44 -30c7 26 23 41 42 41c3 0 7 -2 11 -6c9 0 17 -6 22 -17
c0 -19 18 -31 49 -31h-2c0 1 6 4 16 7c0 5 2 13 7 24c22 9 25 10 28 11h23c0 8 0 8 -3 27c0 17 14 26 42 26l92 -1l2 2l-5 12l6 16c5 8 28 20 38 20c9 0 18 -5 26 -14c0 -1 1 -7 3 -13c0 -8 -5 -17 -14 -28c2 -3 6 -4 11 -5c8 -7 12 -14 12 -22c0 -2 -3 -6 -8 -12v-13
c69 0 94 -13 94 -46c0 -35 -47 -44 -81 -46c-30 -13 -30 -13 -30 -27l2 -27c8 -2 55 -5 60 -5c2 0 3 0 20 2c7 -4 9 -5 11 -5c4 0 15 2 34 5l39 -2c14 7 14 7 17 17c-4 17 -7 28 -7 30v78c0 1 2 5 7 12c-5 9 -7 12 -7 13c0 7 4 14 13 21c0 7 0 10 3 22l-2 13v6
c0 82 37 201 72 219c7 1 18 5 31 10c15 83 17 93 17 104c0 3 -2 5 -6 6l-2 9c5 11 9 16 11 16s7 -2 14 -6c0 -15 -1 -18 -6 -22c-10 0 -24 -102 -24 -108c63 -13 87 -51 79 -127c-4 -59 -5 -83 -11 -114v-15c-2 -3 -3 -5 -3 -7c0 -1 0 -3 2 -5v-18l7 -18c7 5 11 7 13 7
c4 0 8 -2 13 -7c2 5 6 12 12 21c0 5 4 16 12 34c13 0 13 0 31 -24v-6c54 -108 54 -109 54 -172c-2 -41 -1 -58 5 -119zM806 582l-1 2l-3 -3zM789 562l-2 1l-1 -3l2 -1zM914 500c0 48 -24 90 -56 90c-30 0 -45 -7 -65 -37v-8c-15 -29 -20 -44 -24 -80c0 -2 -2 -3 -3 -4
c0 -21 0 -25 -8 -121h63c30 6 30 6 33 6c6 15 7 19 13 63l-1 7l1 33c3 13 4 20 4 21c0 13 -1 26 -4 38c-6 2 -11 3 -14 3c-21 0 -47 -42 -47 -81c7 5 13 7 16 7s7 -3 12 -8v-7c0 -10 -4 -15 -13 -15c-11 0 -16 4 -17 11c-7 -23 -11 -35 -11 -39l1 -6h7l7 7c6 5 11 7 16 7
c3 0 5 -2 5 -5s-12 -11 -37 -24c-1 -3 -3 -6 -6 -11c-1 0 -2 1 -4 2c0 26 19 110 33 146c16 18 29 27 38 27c19 0 28 -11 28 -33l-13 -131c0 -5 1 -8 3 -11c10 -2 18 -3 25 -3v2c12 41 13 66 13 105zM769 509c-5 -9 -9 -22 -12 -41c9 32 10 34 12 34v7zM757 460l-3 1
c0 -5 -5 -30 -7 -38l5 1c2 7 3 20 5 36zM1045 53h-1l-4 59v62c0 19 -2 35 -5 49c-50 107 -51 110 -61 120c-10 -15 -19 -38 -20 -51c-1 -2 -3 -4 -6 -6c2 -6 2 -11 2 -14c0 -1 -3 -41 -6 -80v-50l-3 -82c4 -6 5 -7 7 -32c12 -3 16 -4 19 -4c63 -3 78 3 78 29zM863 301
c-3 -6 -5 -9 -5 -10l5 -30v40zM867 235v9c-2 0 -5 1 -12 9h-5c-5 -7 -8 -12 -8 -15c0 -7 4 -10 11 -10c3 0 7 2 14 7zM752 340v4c-3 -1 -3 -1 -9 -2zM851 204c-4 -8 -6 -13 -6 -15s1 -4 3 -5c1 1 2 8 3 20zM913 267c0 10 -2 21 -7 34h-35l-3 -36c3 -9 7 -25 7 -26
c0 -6 -3 -11 -8 -15v-5c-9 -10 -14 -52 -14 -66c1 -3 2 -6 2 -9c-7 -13 -55 -89 -66 -103c3 -1 6 -10 10 -29l8 2v35c2 3 4 4 7 4c0 5 2 8 6 9c4 -5 5 -9 12 -47l5 1c0 8 0 16 -3 55c-5 7 -7 11 -7 13s1 4 3 6h6c0 14 0 14 5 16c7 -38 10 -60 10 -65s-1 -8 -2 -9
c-2 16 -6 33 -10 52l4 -69c8 4 12 4 32 4l-2 61l1 72c0 8 -1 20 -4 37c-3 3 -4 12 -4 27c1 1 4 2 9 3c0 -2 1 -4 3 -5v-37c0 -129 3 -141 6 -157h10v187l-10 69h6l3 -3c3 -47 5 -78 5 -93l-2 -125c0 -11 2 -23 7 -36c3 1 6 4 9 8c-6 24 -6 29 -6 61l4 155c0 -1 -1 -3 -4 -4
l-13 48c0 3 2 6 6 8c0 -2 1 -4 3 -5l6 -45c2 5 3 6 3 20zM849 167l-5 3c-2 0 -5 -1 -7 -4v-11h6c2 2 4 6 6 12zM851 302c-1 0 -2 1 -3 3h2c-38 0 -39 -1 -51 -2l-21 -3h-7l-6 -118c5 -36 6 -53 6 -99c0 -7 0 -7 2 -17c0 -3 -1 -5 -2 -6h-4c-1 1 -2 2 -3 4v52
c-8 47 -9 55 -9 61v44c1 0 3 12 6 29c0 9 -1 21 -4 35l-4 5c1 0 3 4 6 11c-22 0 -26 -3 -26 -55c3 -5 4 -8 4 -9v-37c0 -7 1 -12 5 -37l4 -1l-5 89c0 1 0 4 2 9l-1 22c1 4 3 6 6 7l2 -22l-1 -49l4 -87c0 -1 1 -5 3 -8c-5 -24 -7 -35 -7 -39c0 -9 2 -22 5 -41c3 1 8 2 12 5
c3 9 25 42 42 63c5 13 12 25 21 38l-3 12c0 -3 -1 -5 -3 -8c-2 1 -3 3 -4 6l-7 75c-6 24 -9 37 -9 40s1 5 4 5c1 -1 2 -2 4 -5l12 -106l3 -1c10 17 19 39 19 50l-19 27v16h-4l-3 26c0 5 2 8 5 11h5l3 4l2 -2v-24c-1 -1 -2 -1 -2 -3v-28c5 7 9 12 15 15v38c1 1 3 2 4 5z
M841 145h-6c-39 -66 -50 -84 -51 -87c0 -2 1 -3 2 -3c19 22 53 75 55 90zM617 265c-3 3 -6 6 -10 11l-8 17h-5c0 -9 1 -11 5 -12v-4c9 -12 11 -12 18 -12zM733 147v8c-2 0 -4 1 -5 2c-3 -2 -7 -5 -12 -8l1 -6l5 -2zM607 253c-11 13 -20 24 -27 35v-15c13 -20 14 -20 27 -20z
M821 30c-1 5 -3 11 -6 19c-1 -2 -2 -5 -3 -8c0 -10 1 -18 3 -26h5zM574 264c0 2 -2 5 -5 10v-10h5zM905 -7v6c-11 8 -14 9 -17 9c-40 0 -40 0 -49 -6l-4 4l-15 -3c0 -4 0 -5 -3 -6c-7 4 -10 6 -11 6s-3 -1 -6 -2c-1 -7 -5 -17 -12 -30l11 4c-2 3 -3 6 -3 8c0 8 70 10 73 10
c7 0 16 -1 29 -3c2 1 2 1 7 3zM668 155v2h-9v-2h9zM548 323c-11 9 -12 9 -86 16l-55 -4c-1 0 -1 0 -15 4c-9 0 -16 -3 -20 -10c2 -1 3 -3 3 -5c59 -2 60 -2 90 -5c14 4 14 4 15 4c30 0 47 -2 62 -9c2 1 4 4 6 9zM901 -51c0 4 -2 6 -6 6c-7 0 -27 -3 -61 -9h-31
c-43 0 -45 0 -45 -5l37 -4c50 -6 106 1 106 12zM838 -86v2h-3v-2h3zM865 -124l-2 1l-3 -4l2 -2zM607 156h-59c0 -2 1 -5 2 -10h15c6 1 36 8 42 10zM497 194l-4 29c-3 -7 -4 -12 -4 -16c0 -7 1 -14 4 -23c3 3 4 7 4 10zM526 257l-45 -1l-15 4c-3 -2 -5 -3 -6 -3
c-5 0 -15 1 -27 3l-48 -10c-1 0 -6 1 -7 2l-20 -4c5 -3 10 -4 14 -4c39 6 40 6 67 8l51 -2c23 0 31 2 36 7zM469 217v6c0 1 -1 2 -3 4c0 7 1 11 2 14h-29l-2 -8c0 -12 6 -18 19 -18c6 1 12 2 13 2zM505 102c-3 42 -5 61 -11 79v-51c1 -7 3 -16 6 -28h5zM470 161v9l-9 1
c-2 0 -5 -2 -8 -5l12 -7c1 1 1 1 5 2zM472 141v6h-13l-3 -3c2 -2 5 -5 7 -5s5 1 9 2zM346 252v49c-5 2 -9 3 -11 3c-1 0 -3 0 -15 -2v-10c9 0 18 -8 18 -18c0 -6 -6 -13 -18 -22c1 -2 2 -5 2 -9c11 1 18 3 19 4zM476 130c-6 -1 -12 -4 -19 -10l3 -1c0 1 6 4 16 8v3zM329 269
c0 7 -4 11 -13 11c-21 -7 -22 -7 -42 -5h-25c0 -4 -1 -7 -3 -9c2 -1 3 -2 3 -4h42c2 0 8 2 18 5c5 -4 7 -5 9 -5c3 0 6 2 11 7zM204 296v-1l-9 1l2 -4c2 2 4 3 7 4zM236 271c0 12 -12 43 -21 43c-2 0 -5 -1 -8 -4c4 -2 8 -7 14 -14v-9c2 -9 4 -15 4 -18s-3 -7 -9 -14
c-12 -6 -18 -12 -18 -17c3 -3 5 -5 8 -5c10 0 28 25 30 38zM210 277c-4 3 -5 4 -45 4v-7c2 -3 5 -5 8 -5h12c16 0 24 3 25 8zM155 266c0 37 -22 44 -33 44c-3 0 -7 -1 -10 -4c29 -5 29 -14 29 -48c-1 -8 -4 -14 -9 -17c-1 0 -7 -2 -19 -6c7 -5 13 -7 16 -7c12 0 16 7 26 38z
M129 270c0 1 -1 3 -2 6l-34 4c-6 0 -11 -1 -15 -4v-6h51zM68 273c0 6 -13 16 -20 16c-8 0 -12 -4 -12 -13c0 -13 6 -19 17 -19c9 0 15 6 15 16zM903 506c-1 -3 -2 -13 -4 -28l-3 2l-2 43c-3 17 -11 28 -24 32c2 5 4 7 7 7c10 0 20 -20 26 -56zM856 565c0 -4 -6 -9 -23 -19
c-6 -6 -16 -22 -30 -48h-5c4 30 20 53 58 67zM1005 87c0 -5 -5 -11 -15 -20h-7l-11 138c0 8 11 21 18 21c1 0 4 -1 7 -3c0 -7 1 -24 4 -51v-42c0 -1 3 -37 4 -43zM798 194h1l-7 -50c3 55 -5 132 -9 138v-33c-3 -39 4 -137 8 -148l-3 -3c-2 1 -4 2 -5 3v18c-4 26 -6 56 -7 89
c2 26 2 40 2 43c0 13 0 14 -5 40c1 2 2 4 4 6c3 0 5 -2 7 -6l4 4c5 -10 8 -35 10 -101zM809 162v-34l-5 7c1 1 2 10 5 27zM867 32h-5c-1 1 -2 4 -2 6c0 1 0 5 2 14v45c-2 9 -4 18 -8 30c0 3 2 6 6 9c1 -5 3 -10 7 -17v-87z" />
</svg>