<?xml version="1.0" encoding="iso-8859-1"?>
<!DOCTYPE svg PUBLIC "-//W3C//DTD SVG 1.1//EN" "http://www.w3.org/Graphics/SVG/1.1/DTD/svg11.dtd">
<svg width="100.0" height="100.0" version="1.1" xmlns="http://www.w3.org/2000/svg" xmlns:xlink="http://www.w3.org/1999/xlink">
<path fill="#00f0ff" transform="scale(.1,-.1) translate (0, -800)" glyph-name="l" unicode="l" horiz-adv-x="574" 
d="M557 481c0 -6 0 -7 -14 -27c-5 -1 -11 -5 -20 -11c-2 -5 -7 -11 -14 -18c-10 -3 -24 -7 -43 -14c0 -1 0 -2 2 -19c0 -65 -16 -82 -107 -122c-3 -8 -4 -30 -5 -67c0 -1 0 -2 -6 -19c0 -5 2 -11 6 -16l18 -26c2 -2 4 -8 6 -17c21 0 35 4 39 8c-2 19 -4 34 -7 43
c-4 2 -8 7 -13 12c-1 7 -4 16 -9 25v20h15c2 1 6 6 12 14c7 -5 8 -6 10 -6l11 2l3 -7c-5 0 -6 -18 -7 -48l-9 -10c0 -25 7 -42 22 -49c-3 -3 -6 -7 -8 -11c-26 0 -52 -7 -55 -14c-11 -23 -17 -38 -17 -45c0 -1 1 -5 14 -39c-18 -68 -22 -83 -22 -85c2 -1 9 -4 20 -8
c0 -18 4 -23 23 -46c-1 -3 -6 -5 -13 -8v-16h-5c-3 0 -7 1 -12 3c-1 -2 -4 -4 -8 -8h-13c0 39 0 40 -12 48v13c19 80 24 104 24 107c0 10 -10 29 -17 29c-1 0 -1 0 -15 -8c-2 1 -11 4 -12 4c-15 0 -16 0 -28 -82c0 -23 8 -47 22 -68c0 -14 -4 -24 -12 -29l5 -7
c-1 -3 -2 -5 -2 -7c0 -5 2 -9 7 -14c-3 -3 -3 -3 -5 -7c-10 5 -16 8 -17 8c-5 -3 -10 -6 -11 -6c-8 4 -8 4 -9 4s-1 0 -11 -6c-7 0 -11 4 -11 11c11 18 19 41 19 56c1 4 8 12 21 25c-6 11 -14 29 -25 54c12 4 20 18 24 41c-3 36 -2 37 7 45c0 3 -2 5 -6 6c0 4 -3 13 -7 28
c-21 9 -35 14 -44 14c-1 0 -1 0 -15 -4c-10 0 -15 5 -15 14l5 8c11 5 24 26 24 37c0 5 -3 9 -8 12c0 14 -1 20 -10 37v9c1 2 4 3 8 3c5 0 8 -2 9 -6c4 3 7 10 10 20h9v-21l4 -4l10 11l13 -3c-7 -15 -7 -23 -7 -37l-2 -6c-21 -13 -36 -41 -36 -54c20 -4 33 -7 37 -7
c11 0 15 6 15 26c16 0 35 45 35 83l-13 28c0 3 1 6 2 10c-71 13 -122 59 -122 123c0 4 -1 8 -3 13l-6 3c-4 -2 -4 -2 -5 -2c-29 0 -53 18 -77 54c-24 19 -28 24 -28 51c5 4 10 6 16 6c12 0 18 -6 26 -17c0 -55 14 -72 70 -76c0 3 1 4 6 13c0 2 -2 4 -5 5c2 1 2 2 13 56
c23 21 24 22 27 40c0 15 -1 17 -21 24c-21 10 -27 16 -27 28c0 16 8 24 23 24c21 0 30 -22 39 -76c33 16 50 38 50 67c3 1 4 2 4 4s-1 3 -4 4c0 59 0 62 -51 79c-15 5 -22 12 -22 20c0 16 12 28 30 28c10 0 19 -8 20 -20c0 -5 -2 -10 -4 -14c0 -2 1 -4 3 -5
c28 -11 42 -37 42 -76c0 -11 -3 -30 -8 -55c17 -1 30 -2 75 -7c2 2 2 4 2 8c0 3 0 6 -5 27c0 2 3 36 21 99c7 4 14 13 23 26c3 25 16 38 35 38c15 0 22 -6 22 -18c0 -11 -13 -31 -23 -35c-41 -4 -55 -23 -60 -89c-3 -3 -4 -6 -4 -8c0 -15 2 -28 5 -41l9 -9c4 -4 5 -8 5 -12
v-3l17 -13c3 21 8 54 16 95h18l11 -11c7 -7 10 -12 10 -15c-6 -9 -26 -29 -33 -33c-3 -9 -4 -17 -4 -24c0 -11 3 -21 10 -26c0 -3 -2 -6 -6 -11c11 -27 12 -28 17 -71c7 -3 12 -4 17 -4c32 1 32 9 32 36c0 19 13 32 31 32c13 0 19 -6 19 -18zM450 381c-1 3 -2 16 -4 39
c-2 2 -4 5 -5 8c-4 46 -6 50 -16 62c0 22 -37 54 -62 54v-18c-1 -6 -5 -9 -13 -9c-5 0 -10 4 -17 13c-6 9 -14 14 -25 14c-39 0 -83 -28 -101 -64c-5 -9 -7 -29 -7 -58c0 -53 11 -87 32 -100c12 -18 61 -40 89 -40c10 0 13 1 28 9c2 -1 9 -2 10 -2c30 0 71 28 84 58
c2 2 5 4 7 8v26zM408 452c0 -15 -12 -29 -26 -29s-34 18 -34 32c0 9 17 29 24 29c24 0 36 -11 36 -32zM338 402c0 -11 -5 -17 -16 -17c-10 0 -15 5 -15 16c0 5 3 11 9 19c3 0 7 1 13 3c6 -7 9 -14 9 -21zM295 463c0 -25 -12 -38 -35 -38c-18 0 -27 9 -27 26
c0 22 14 38 31 38c12 0 31 -16 31 -26zM418 338c0 -17 0 -17 -43 -17h1c-18 -4 -18 -4 -76 -4c-12 -4 -21 -6 -27 -6c-4 0 -10 3 -19 9c0 5 1 13 3 29c0 9 -1 16 -3 20h11c13 -9 20 -10 62 -14c33 0 72 8 72 12c13 0 19 -10 19 -29z" />
</svg>