<?xml version="1.0" encoding="iso-8859-1"?>
<!DOCTYPE svg PUBLIC "-//W3C//DTD SVG 1.1//EN" "http://www.w3.org/Graphics/SVG/1.1/DTD/svg11.dtd">
<svg width="100.0" height="100.0" version="1.1" xmlns="http://www.w3.org/2000/svg" xmlns:xlink="http://www.w3.org/1999/xlink">
<path fill="#00f0ff" transform="scale(.1,-.1) translate (0, -800)" glyph-name="n" unicode="n" horiz-adv-x="628" 
d="M616 -6c-3 -7 -8 -17 -16 -32c-38 -6 -51 -15 -150 -83c-2 -1 -5 -2 -8 -3c-2 -5 -5 -13 -10 -23l-225 -7l-28 6c-5 -1 -26 -1 -63 -1c-6 2 -11 3 -14 3s-9 0 -16 -2h-33c-5 25 -7 39 -7 41l12 180l-1 22c-5 19 -6 23 -6 38c53 56 59 62 67 69c3 0 12 8 27 23
c15 16 24 24 27 24s5 -1 8 -4c3 3 5 7 7 12l-56 6c-3 5 -4 6 -4 9c7 19 8 32 15 117c-3 6 -4 12 -4 16c4 12 13 48 13 90c-2 9 -3 15 -3 18c-3 3 -6 5 -9 5v16l12 -2c6 4 6 4 7 4c23 0 50 15 83 45l12 -4h45c6 0 11 2 15 5c3 20 5 39 5 56c0 28 -5 40 -16 64
c0 15 24 37 47 37c10 0 15 -5 15 -15c0 -9 -5 -20 -16 -32c-20 -22 -20 -26 -20 -110c2 0 4 -1 5 -3l59 -2c17 3 46 6 47 6c25 0 37 -7 37 -21c0 -3 -1 -6 -3 -9l10 -95l-6 -78c1 -14 2 -35 3 -62c-1 -1 -2 -3 -4 -4c-7 -1 -27 -12 -61 -35c-1 -1 -2 -4 -3 -9
c13 -7 30 -11 51 -11c3 0 32 4 88 12c12 -17 13 -18 15 -33c7 -5 11 -9 11 -12l-8 -21zM463 533l-3 13h-9c-8 -6 -20 -14 -34 -26v-8c11 5 27 11 46 21zM461 496v22c-21 -12 -32 -18 -34 -18c-5 0 -9 1 -10 2v-20c21 11 33 16 38 16c3 0 5 0 6 -2zM466 454l-2 12
c-16 -2 -28 -20 -28 -22c1 0 23 7 30 10zM465 437c-5 0 -8 -1 -39 -17c-3 0 -6 1 -7 2c-1 -3 -2 -6 -2 -9s1 -5 2 -7c3 2 33 19 46 26v5zM462 406v9c-34 -21 -35 -22 -45 -22v-17h7c10 7 23 17 38 30zM464 341c-21 -17 -33 -26 -37 -26c-6 0 -9 2 -9 7v6c15 7 30 16 43 26
c-1 1 -3 2 -6 3c-9 -9 -17 -14 -23 -14c-3 0 -4 0 -4 1c22 27 22 28 26 39c-7 -6 -17 -14 -30 -24c-5 5 -8 8 -9 8c0 -11 -2 -28 -4 -53c0 -4 1 -8 4 -13h5c16 10 20 13 35 28l7 -2c2 3 2 4 2 14zM402 433v76c-1 3 -2 7 -4 11h-41c-10 -15 -12 -16 -19 -16
c-24 14 -27 15 -74 23h-64c-3 0 -9 1 -18 3c-5 0 -11 -3 -16 -8c-7 -43 -11 -89 -11 -136v-52c-1 -4 -5 -31 -6 -40v-17c6 -3 10 -4 11 -4l228 12c10 8 14 34 14 148zM539 219c0 4 -1 7 -3 9c-44 -37 -97 -90 -97 -97c0 -1 0 -4 2 -9c28 29 54 53 77 72c14 11 21 20 21 25z
M541 191c-18 -7 -45 -31 -81 -72v-5c27 25 69 65 81 77zM374 266h-22c0 -7 -2 -13 -6 -17c14 0 21 6 28 17zM541 162c-4 -4 -7 -6 -9 -6l-6 4c-7 0 -10 -4 -85 -84v-4c13 9 100 82 100 90zM398 241c0 3 -1 6 -2 8c-2 0 -4 -1 -7 -4c-6 0 -17 -8 -36 -24
c-13 -3 -13 -3 -13 -4v-10c58 23 58 24 58 34zM547 131c0 5 -1 9 -3 13l-103 -91v-23c11 4 92 68 100 79c4 5 6 13 6 22zM384 208h-7c-14 -9 -22 -14 -23 -14h-14v-12c8 3 23 11 44 26zM456 114c-1 -1 -6 -4 -15 -9v-9c7 5 12 11 15 18zM549 65c0 4 -1 7 -3 9
c-39 -27 -48 -33 -80 -70c27 12 83 49 83 61zM559 -26c-1 1 -3 2 -5 3c-3 -3 -7 -8 -13 -12h8c3 3 6 6 10 9zM322 166c4 41 4 47 4 52c0 11 -2 20 -5 28h-10c-2 0 -4 -2 -9 -5h-12c-8 -9 -18 -13 -29 -13c-2 1 -36 9 -44 11c-4 -2 -6 -3 -14 -5v-68c17 -2 36 -3 56 -3
s41 1 63 3zM551 -13v20l-9 2c-50 -43 -78 -64 -84 -64c-1 0 -3 1 -5 3v5l96 71v17h-7c-52 -42 -82 -64 -91 -64h-5v10h-5v-86c6 3 15 7 26 13l-10 -1c-2 0 -3 2 -6 5c6 9 8 10 41 28c20 14 40 28 59 41zM459 18l-2 2l-17 -17l2 -2zM487 -73l-2 3l-12 -9l2 -3zM473 -83l-1 2
l-5 -2v-3zM426 70c0 7 -1 19 -4 34c-3 -1 -10 -2 -19 -2l-204 21h-120l-7 -146c68 8 69 8 119 8c46 0 154 7 154 9c29 0 33 1 76 14zM145 140l-5 3l-1 -3l5 -3zM424 -61c0 6 -2 20 -7 43c-3 2 -6 3 -9 3c-1 0 -9 -1 -40 -6l-233 -13c7 -8 11 -17 11 -28c0 -6 -1 -12 -3 -19
c4 -5 10 -10 17 -16c0 8 7 12 22 12c13 0 19 -2 19 -5c-7 -7 -12 -8 -34 -14l-1 -7c-1 -5 -4 -7 -8 -7c-2 0 -5 3 -20 21h-9c-1 -4 -5 -10 -13 -17c-6 7 -8 11 -8 14s0 5 3 8v27c6 6 12 17 18 32c-15 -3 -35 -5 -58 -8v-82c13 -7 22 -7 63 -3h-2l64 2c26 -6 42 -8 43 -8
s22 3 33 6c16 -2 40 -4 41 -4h-4c2 1 10 2 57 3c2 5 3 6 3 32l-3 31h-26v9c31 11 49 16 52 16c5 0 9 -4 12 -11c-4 -5 -8 -7 -11 -7c-4 2 -4 2 -5 2c-3 0 -5 -14 -6 -41l-2 -22c0 -3 2 -7 5 -10c10 3 19 3 33 3c0 16 0 18 6 64zM133 -66h-3l-2 -6l3 -1zM376 448
c0 -17 -22 -40 -40 -40c-12 0 -30 23 -30 38c0 10 18 34 30 34c11 0 40 -20 40 -32zM239 457c0 -15 -15 -27 -33 -27c-17 0 -31 14 -31 30c0 20 18 38 37 38c12 0 27 -18 27 -41zM366 328c0 -25 -2 -27 -127 -47h-47c-11 0 -16 11 -16 32v30l39 -4c4 0 15 3 22 4
c30 -4 38 -4 39 -4c4 1 70 10 71 10c9 0 19 -11 19 -21zM398 36c0 -17 -13 -25 -38 -25c-2 1 -7 3 -14 7c1 7 5 11 12 11l8 -2c5 0 13 6 14 10c0 2 -5 4 -15 7c-3 4 -5 10 -5 18h-14c4 9 23 22 32 22c6 -2 10 -3 12 -3l-6 -20c0 -1 1 -3 14 -25zM334 48c-3 -3 -8 -5 -14 -5
c-5 0 -11 2 -16 7c2 6 2 8 2 9c21 0 24 -1 28 -4v-7zM296 49c0 -15 -8 -22 -23 -22c-5 0 -10 2 -16 6c-6 -11 -14 -16 -25 -16c-6 0 -11 4 -14 13c-5 -5 -5 -5 -8 -5l-16 10l-12 -8c-10 6 -10 6 -11 6s-3 0 -33 -8c-9 0 -13 10 -13 39c-6 -3 -9 -13 -9 -30
c0 -8 -2 -14 -6 -17h-9l-19 47c0 5 3 8 9 8c7 0 12 -3 15 -10c3 20 7 30 14 30c8 0 22 -3 43 -9l-20 -13v-5l3 -4c5 3 9 4 14 5l2 5l31 17c11 0 16 -5 16 -15c0 -5 -1 -11 -4 -16c2 -3 6 -6 13 -10c0 1 1 3 3 5c-4 3 -6 6 -6 11c1 3 7 13 17 29h6c0 -1 3 -3 11 -7
c0 -6 -2 -11 -6 -14c6 -4 12 -7 17 -9c8 8 15 12 21 12s15 -16 15 -25zM334 -68c0 -24 -15 -45 -31 -45c-11 0 -11 0 -16 12c-19 -17 -33 -25 -40 -25c-2 1 -3 2 -17 13l-5 39c22 39 23 39 36 39c5 0 6 -2 9 -31c4 -3 11 -7 19 -15l1 8c13 13 23 20 30 20c5 0 9 -1 12 -3
v-10zM320 -79c0 2 -2 5 -5 8c-7 -3 -11 -10 -13 -23l4 -2c9 0 14 6 14 17zM169 55l-7 6c0 -3 -2 -7 -5 -13h10c1 2 2 6 2 7zM254 -58h-3l-2 -9h3zM272 -90c0 3 -3 6 -10 9c-3 -3 -5 -5 -6 -5c3 -1 7 -4 12 -8l-11 -11c10 5 15 10 15 15zM244 -88v-9c2 0 8 5 8 7z" />
</svg>