<?xml version="1.0" encoding="iso-8859-1"?>
<!DOCTYPE svg PUBLIC "-//W3C//DTD SVG 1.1//EN" "http://www.w3.org/Graphics/SVG/1.1/DTD/svg11.dtd">
<svg width="100.0" height="100.0" version="1.1" xmlns="http://www.w3.org/2000/svg" xmlns:xlink="http://www.w3.org/1999/xlink">
<path fill="#00f0ff" transform="scale(.1,-.1) translate (0, -800)" glyph-name="s" unicode="s" horiz-adv-x="670" 
d="M647 236c0 -11 -9 -23 -26 -34c-11 -97 -12 -98 -19 -105c5 -5 9 -9 11 -13c-3 -5 -9 -5 -36 -5c-22 0 -23 0 -104 -13c-36 5 -38 5 -39 -9v-20l-8 -41v-43c8 -2 13 -9 18 -20c-5 -20 -5 -22 -5 -23c0 -15 17 -39 28 -39c0 -4 -1 -8 -2 -11c-10 0 -10 0 -27 17
c-1 -5 -3 -14 -7 -23c-5 1 -9 4 -10 9c2 4 3 8 3 13c0 6 -2 13 -5 22c-17 -17 -18 -22 -18 -30c-2 -4 -5 -6 -10 -6s-9 3 -12 8c5 7 12 16 22 29v24c5 11 5 12 14 83l5 32v21c-1 7 -7 11 -16 12c-58 0 -59 0 -101 9h-18c0 -16 2 -129 13 -158c0 -8 -1 -13 -2 -14h-5
c-1 -1 -2 -3 -2 -8c0 -10 6 -25 17 -45c-2 -1 -4 -2 -7 -2c-6 0 -6 0 -17 22l-1 -28h-12l-4 4c1 5 2 14 3 25c0 2 -1 4 -3 5c-9 -28 -10 -30 -16 -30c-9 0 -10 3 -11 9c0 -2 0 -3 1 -3c2 0 12 34 13 43c6 3 9 7 9 12c0 1 0 1 -4 21c0 7 6 10 19 11c0 29 -1 110 -4 134
c-40 11 -79 17 -116 17c-12 0 -26 -4 -56 -12h-13c-3 3 -4 6 -4 11c8 20 15 78 15 115c-20 7 -20 7 -25 49c0 5 3 11 9 18c13 14 18 48 14 82l6 29c39 -3 61 -5 65 -5c8 0 23 2 34 3l78 -3l7 -2l3 2c-11 9 -30 39 -31 47v15c-4 8 -4 8 -4 10l5 7c0 42 23 76 64 94
c-5 24 -7 26 -20 39c-3 3 -5 7 -5 11c0 5 12 22 18 22c15 0 22 -10 22 -30c-6 -10 -8 -14 -8 -15c0 -5 4 -11 11 -18c3 3 9 5 17 5h18c2 36 5 73 12 126c-7 3 -17 16 -17 23c0 15 12 29 24 29c9 0 21 -14 21 -25c0 -7 -2 -14 -6 -21c-9 -5 -9 -5 -14 -35c-1 -2 -3 -5 -4 -9
v-68c6 -3 9 -8 10 -17c5 -5 16 -8 32 -10c1 0 2 0 2 12c0 34 7 51 22 51c9 0 13 -6 13 -17c0 -7 -2 -10 -25 -44c8 -11 35 -44 40 -46v-7c13 -12 19 -24 19 -36v-48c0 -15 -13 -34 -40 -56c151 -2 152 -3 161 -13v-90c14 -4 21 -15 21 -32zM486 447c0 53 -7 63 -53 97
c-29 8 -46 12 -51 12c-34 0 -69 -17 -98 -59v-9c-7 -12 -10 -23 -10 -33c0 -2 8 -36 10 -43c9 -7 44 -34 59 -34c2 1 9 2 10 2c4 -1 76 -12 77 -12c56 38 56 39 56 79zM615 342c-6 4 -16 9 -30 15h-127c-3 -7 -6 -11 -9 -11c-86 16 -93 17 -143 19l-199 7c1 -4 2 -22 3 -55
c-2 -12 -3 -21 -3 -25c0 -2 1 -5 4 -8c7 3 17 7 30 11l5 -12c-2 -3 -6 -5 -12 -6c-11 -1 -16 -5 -16 -11c8 0 17 1 33 3c4 0 8 -1 12 -3v-9c-2 -2 -4 -3 -6 -3c-1 0 -1 0 -7 2c-17 0 -26 -4 -26 -13c15 -7 22 -14 22 -21c0 -1 -1 -3 -3 -6h-5c-6 7 -12 10 -17 10
c-3 0 -4 -1 -5 -2c0 -10 4 -18 15 -26v-7c-2 -2 -4 -3 -6 -3c-1 1 -5 3 -14 8c-3 -11 -4 -19 -4 -22c1 -5 3 -23 3 -26l-7 -46l56 6l212 -27h79c66 5 68 6 84 10h48l13 6c-2 4 -3 11 -5 19c4 7 6 14 16 74l-17 -9c-2 0 -5 1 -9 3v8c2 2 8 6 18 12l-18 11c-1 0 -5 0 -9 -2
c-3 0 -6 2 -12 5v5c5 2 12 6 21 11c-22 12 -23 13 -23 17c0 5 2 9 7 10l20 -11c5 0 9 2 11 7c-13 17 -19 25 -19 26c0 6 4 9 11 9c5 0 10 -8 16 -23l8 2c0 15 1 39 4 71zM454 488c0 -15 -6 -22 -19 -22c-17 0 -22 13 -22 23c0 4 16 22 19 22c12 0 22 -13 22 -23zM356 497
c0 -17 -6 -22 -26 -22c-9 0 -13 7 -13 22c0 14 7 21 20 21c12 -5 14 -6 15 -6c3 -4 4 -9 4 -15zM430 397c-20 7 -20 7 -66 8l-46 1c-14 0 -15 2 -22 51c0 3 0 4 2 4c35 -23 63 -34 83 -34c7 0 7 0 76 34v-4c0 -27 -15 -60 -27 -60z" />
</svg>