<?xml version="1.0" encoding="iso-8859-1"?>
<!DOCTYPE svg PUBLIC "-//W3C//DTD SVG 1.1//EN" "http://www.w3.org/Graphics/SVG/1.1/DTD/svg11.dtd">
<svg width="100.0" height="100.0" version="1.1" xmlns="http://www.w3.org/2000/svg" xmlns:xlink="http://www.w3.org/1999/xlink">
<path fill="#00f0ff" transform="scale(.1,-.1) translate (0, -800)" glyph-name="v" unicode="v" horiz-adv-x="726" 
d="M711 77c-10 -23 -24 -59 -43 -106c-2 -3 -5 -4 -9 -4c-1 0 -10 2 -13 4v6c12 25 15 32 15 63c-3 1 -8 4 -14 7c-12 12 -26 20 -32 20c-21 0 -23 -2 -34 -44c0 -5 4 -41 52 -57c-1 -3 -3 -8 -6 -15c-8 0 -72 14 -72 16h2l-16 -4c-10 0 -15 4 -15 11c19 38 21 44 21 103
c-3 10 -4 14 -4 17s0 4 11 21c-14 0 -35 44 -53 94c-18 -18 -65 -96 -73 -124c-2 -3 -5 -6 -8 -7c8 -33 8 -34 8 -47c0 -35 -7 -48 -41 -75c4 -16 6 -25 6 -27c0 -9 -5 -18 -15 -26c7 -7 11 -15 11 -24s-6 -14 -18 -14c-18 0 -18 4 -18 35c-13 9 -20 20 -20 35
c0 7 1 13 4 19c-42 25 -54 40 -61 71v38c-3 1 -6 2 -11 4c-4 11 -16 29 -35 54c-31 78 -40 82 -48 86c-6 0 -23 -70 -28 -93c3 -13 4 -25 4 -27c0 -5 -1 -10 -3 -14c16 -12 26 -27 29 -46c7 -7 24 -25 29 -31c0 -7 -9 -18 -22 -29c-12 -30 -39 -67 -53 -67l-5 9
c1 3 2 8 5 22c3 3 16 35 16 40c0 15 -8 36 -31 70c-13 -6 -29 -25 -29 -37c0 -26 14 -80 28 -101c0 -3 -3 -7 -8 -12c-5 1 -16 16 -50 70c-1 3 -12 12 -33 29c59 68 64 79 79 116c12 8 22 43 28 93l14 29c0 -27 -5 -48 -15 -61c-5 -27 -7 -41 -7 -45l7 -9c8 0 30 76 30 90
c0 8 -2 12 -11 37c0 23 9 34 27 34c9 0 28 -12 29 -19c5 -34 5 -35 78 -161c26 16 28 17 29 17l8 -2c2 0 4 1 5 3v20l-3 6l3 8c-2 115 -2 119 -10 137c1 2 1 2 3 4h-4v13c-56 11 -81 31 -101 91c-9 25 -13 46 -13 63c0 36 14 65 43 86c-20 30 -43 86 -52 129
c-32 15 -38 20 -39 34v19c6 6 21 13 33 13c10 0 26 -18 26 -30c-10 -22 -11 -27 -11 -28c0 -31 18 -69 57 -131c26 11 26 11 87 15l24 -8c0 1 1 1 3 1l21 -15c6 3 11 13 16 32l64 94c-3 0 -5 11 -8 30v21c3 1 7 2 12 2c10 0 37 -4 37 -25c0 -23 -7 -32 -17 -32
c-25 0 -80 -91 -88 -141c5 -3 12 -12 19 -28c10 -8 16 -14 16 -72c0 -61 -22 -96 -80 -117c-3 -1 -3 -2 -4 -89c-2 -8 -3 -11 -3 -14l6 -69c3 -5 15 -13 34 -24c3 3 7 11 11 22c0 9 0 9 54 107c7 41 9 47 31 47c2 0 22 -10 22 -13c5 -37 54 -136 69 -143v-5
c15 -12 36 -21 61 -27c29 -7 49 -13 60 -18zM435 414c0 27 -1 45 -4 52c-20 53 -51 80 -94 80c-1 0 -23 -3 -64 -10c-3 -7 -6 -10 -11 -10c-4 1 -4 1 -6 2c-15 0 -34 -34 -34 -77c0 -74 49 -136 112 -136l17 2c3 5 6 8 9 9l11 -6c15 0 47 28 57 47c5 9 7 24 7 47zM570 123v8
c0 -5 -1 -7 -2 -7c-4 0 -10 12 -50 102c-3 -3 -5 -6 -5 -8c0 -7 6 -24 19 -49c9 -10 22 -35 22 -52c4 1 9 3 16 6zM687 68c-9 10 -27 15 -56 15c-1 0 -1 0 -7 -2c7 -5 17 -12 30 -19c7 0 15 -2 26 -7c-3 -9 -5 -23 -8 -40c14 22 15 30 15 53zM472 190v14
c-11 -9 -65 -97 -65 -102c0 -3 0 -3 3 -6c7 5 16 20 29 45c21 33 32 49 33 49zM583 -22c-12 8 -18 21 -18 38c0 3 4 18 11 43c-9 0 -11 0 -15 2c-7 -16 -7 -16 -11 -74c6 -4 17 -7 33 -9zM356 137c-2 6 -8 48 -8 49s3 30 5 43c-3 6 -3 24 -3 66c0 1 0 3 -2 5h-7l10 -178
c3 5 5 10 5 15zM413 32c0 26 -15 59 -28 67c-3 1 -14 3 -31 6c-23 -29 -34 -47 -34 -53c0 -5 1 -8 4 -9c3 10 12 27 27 51c2 -1 5 -3 10 -6c-2 -3 -3 -5 -3 -6c0 -2 2 -2 14 -2v-7c-1 -1 -4 -6 -7 -13l8 1c5 0 7 -1 8 -4c-4 -9 -8 -16 -12 -19v-14c4 13 15 28 21 28
c1 0 2 -1 4 -3v-7c-1 -4 -3 -11 -7 -18c5 3 14 5 26 8zM322 94h-3l3 -9v9zM349 61h-3l-2 -6l2 -1zM360 50c-7 -12 -9 -21 -9 -33l3 2c2 8 4 18 6 31zM372 12v10c-1 0 -3 1 -5 2c0 -3 -1 -7 -4 -12h9zM209 213h-7l-2 -5c3 -5 13 -26 30 -61c29 -40 40 -56 49 -82
c0 26 0 28 -70 148zM189 -7c0 7 -32 61 -40 70c-2 -4 -6 -9 -12 -16c25 -45 29 -52 41 -56c-15 -34 -22 -52 -22 -54c16 16 17 17 26 45c0 2 6 10 7 11zM107 53c-2 0 -3 2 -6 4c-30 -37 -46 -58 -47 -61c0 -5 11 -18 34 -40l-19 44c0 4 7 12 21 23c3 8 9 18 17 30zM361 481
c0 -18 -11 -27 -34 -27c-14 0 -29 18 -29 34c0 19 14 36 29 36c23 0 34 -25 34 -43zM402 407v3c-2 -3 -2 -8 -3 -43c-4 -4 -5 -7 -5 -8l-33 6c-3 -1 -12 -2 -14 -2c-45 3 -47 3 -83 -6c-4 0 -8 3 -13 8v23c4 12 7 18 11 19c50 7 92 10 127 10c9 0 13 -3 13 -10z" />
</svg>