<?xml version="1.0" encoding="iso-8859-1"?>
<!DOCTYPE svg PUBLIC "-//W3C//DTD SVG 1.1//EN" "http://www.w3.org/Graphics/SVG/1.1/DTD/svg11.dtd">
<svg width="100.0" height="100.0" version="1.1" xmlns="http://www.w3.org/2000/svg" xmlns:xlink="http://www.w3.org/1999/xlink">
<path fill="#00f0ff" transform="scale(.1,-.1) translate (0, -800)" glyph-name="w" unicode="w" horiz-adv-x="758" 
d="M752 367l-25 -47c0 -18 -20 -35 -37 -35c-4 0 -15 4 -32 13c-3 2 -3 4 -3 18c-13 13 -19 21 -19 25c5 11 7 18 7 20l-9 24c0 9 5 19 16 30v5c-14 0 -15 -1 -19 -4c0 -6 -14 -15 -23 -15c-3 0 -7 2 -10 6c-11 -11 -16 -26 -16 -46c0 -7 7 -16 20 -28c1 -1 2 -5 2 -11
c0 -14 -2 -20 -19 -54c3 -4 7 -9 12 -16c0 -26 6 -42 26 -74c0 -5 1 -12 3 -17v2c-7 -29 -8 -31 -11 -36h-5c0 2 -2 4 -5 7c-2 -1 -4 -4 -7 -8c2 -1 3 -2 12 -24c4 -3 8 -9 13 -16c0 -17 2 -42 7 -42v2c-1 0 -2 -7 -4 -21c-7 -8 -10 -13 -10 -15c1 -3 4 -9 10 -20v-9
c-7 -7 -11 -12 -12 -14c0 -3 2 -6 5 -9c0 -19 0 -25 -18 -43c0 -30 -10 -39 -49 -39l-23 8c-1 3 -3 7 -7 11c-24 15 -25 16 -26 27c0 4 1 5 24 37v25c4 3 10 8 18 15c-2 4 -4 4 -10 4c0 4 -1 6 -4 7l-6 -2c-2 1 -2 1 -5 2c-2 3 -4 12 -4 13c4 10 4 11 4 45c3 11 15 28 23 28
h2c-2 -9 -3 -13 -3 -15c2 -1 5 -3 7 -6v-5h6c2 -1 3 -5 6 -10v-9c10 -2 14 -7 21 -32l7 -7c0 -4 -2 -7 -6 -9c-3 3 -7 6 -11 12c-1 -1 -2 -2 -5 -2c-5 -7 -6 -8 -15 -9c0 -1 0 -3 2 -15c0 -5 -1 -6 -13 -13c0 -22 0 -25 -14 -37c-8 -8 -11 -13 -11 -20c4 -2 10 -5 17 -9
c2 -4 6 -9 12 -14v25c7 5 10 7 11 7c4 0 7 -2 9 -5c2 1 4 2 5 2c2 0 4 -1 6 -2c3 14 4 14 7 14c1 0 3 -1 5 -3c6 6 11 9 14 9c1 0 2 -1 4 -2c4 6 6 10 6 13c0 4 -2 7 -7 9v5c0 2 5 7 16 15c0 9 -4 14 -15 17c1 4 2 9 3 14c7 4 17 21 17 29c-10 18 -10 19 -10 20
c1 3 3 14 3 17h-6c-2 8 -7 15 -14 19s-10 9 -10 16c0 6 9 22 18 35c0 5 -5 9 -15 12v3c0 5 -5 9 -11 9v15c-8 0 -9 0 -20 10c0 4 1 7 3 9c-2 4 -5 6 -8 6c-3 -2 -5 -3 -6 -3c-3 0 -4 0 -11 11c-4 0 -4 -2 -4 -23c-5 -34 -12 -39 -33 -51c0 -13 3 -20 8 -20c2 2 2 2 3 2
c12 0 12 -1 12 -31h-5c-1 1 -3 7 -5 16c-17 0 -17 1 -26 32c-16 3 -27 5 -32 5l-30 -6c0 1 -7 4 -22 9v-11c-9 -50 -9 -51 -9 -61c6 -8 7 -14 11 -46c0 -4 -1 -10 -3 -16c9 -4 14 -17 14 -40c0 -5 -2 -7 -21 -23c15 -15 24 -46 24 -63c0 -13 -23 -44 -35 -44
c-19 0 -20 3 -26 25c-6 8 -11 14 -16 19c-14 2 -30 9 -47 20c-1 6 -2 12 -2 17c0 29 9 42 33 56c-16 0 -20 2 -31 13c-1 6 -5 13 -11 21v11c8 1 11 4 11 17c-16 13 -18 15 -18 18c10 21 17 34 17 41c0 4 -1 7 -2 10c1 3 4 6 9 7c-7 7 -11 15 -11 25c0 4 0 6 5 33
c-1 1 -4 3 -11 8c0 7 4 19 11 37c3 1 7 4 12 7c-3 2 -7 5 -12 9v20c-23 2 -25 6 -45 63h-3c-36 12 -42 14 -49 14c-1 0 -1 -1 -2 -2c1 -4 2 -8 2 -10l-18 -40c1 0 2 -8 4 -23l-24 -24c-17 -27 -21 -29 -37 -31c-20 0 -56 17 -56 26c0 4 1 9 4 15c-3 16 -3 20 6 47
c9 9 20 23 33 40v15c1 1 3 4 5 7c0 39 13 64 42 64c1 0 1 0 1 -1c26 0 27 2 39 24c18 11 33 17 46 17c5 0 18 -4 41 -12c14 0 34 20 34 34c0 9 -31 39 -45 43c-26 8 -34 16 -34 46c0 14 3 18 27 46c-4 6 -4 6 -6 25c0 14 21 32 43 36c18 7 22 15 30 49c12 26 28 34 77 34
c3 -6 7 -13 13 -21c37 -17 48 -29 51 -48c0 -3 -4 -22 -13 -58c-13 -9 -23 -17 -29 -23c1 -5 5 -8 10 -11l9 -4v-22c4 -2 9 -6 15 -11c3 -18 3 -19 39 -36c0 -25 0 -27 7 -27c15 8 27 11 40 11h-1c0 -3 0 -3 47 -3c22 -6 33 -9 36 -9c9 4 10 4 12 4c11 -5 21 -9 22 -9
c3 0 6 1 13 3c7 0 12 -4 17 -11c30 -5 46 -16 46 -32c-2 -7 -3 -11 -3 -15c2 -8 8 -31 9 -31c0 -28 0 -30 7 -47zM450 714c-3 1 -5 3 -8 6v-11c4 2 7 4 8 5zM739 369c-8 19 -8 20 -8 30l2 18c-8 8 -9 13 -12 30c2 2 2 3 4 12c0 9 -3 11 -30 21l-9 9c-1 1 -4 2 -8 2
c-9 -2 -14 -3 -17 -3s-10 3 -20 7c-1 0 -1 0 -15 -4c-3 0 -6 2 -9 6c-11 3 -17 5 -19 5c-22 -2 -33 -3 -41 -3c-3 2 -7 3 -14 6c-3 0 -9 -3 -19 -8c5 -9 10 -12 62 -36c0 -4 1 -8 3 -13c4 4 10 9 17 14c2 -2 3 -6 4 -11c7 -4 12 -9 17 -14c1 7 4 10 8 10c17 -6 18 -6 20 -6
c5 -4 10 -15 10 -22c0 -4 -2 -7 -7 -9c-7 -9 -10 -16 -10 -19s1 -6 4 -8c1 4 4 6 7 6c2 0 3 -1 4 -2l1 -6c6 -1 10 -5 12 -10c22 -25 27 -30 31 -30c1 0 4 2 8 5l9 -4c1 1 1 1 5 2c7 12 10 20 10 25zM592 318c0 4 -3 10 -24 34l3 29c9 13 14 22 14 28c0 1 -2 12 -9 42
c-36 16 -43 21 -70 42c-3 0 -8 1 -13 2c-3 3 -7 7 -13 12c-3 -5 -7 -8 -10 -8c-1 0 -4 2 -7 4c-5 0 -9 -3 -14 -8h-4c-2 3 -3 6 -3 7c-3 -3 -6 -4 -10 -4c-3 0 -5 2 -5 7l11 12c10 10 13 20 13 44c-7 3 -13 6 -16 9c0 14 0 14 -3 23c-13 9 -20 17 -20 23c0 3 5 9 16 18
c18 15 23 19 23 43c0 7 -1 12 -3 16l-7 -1c-1 0 -6 6 -16 17c-2 -1 -2 -1 -6 -2c-1 0 -4 1 -8 3l-7 -7h-3c-2 3 -3 6 -3 7c-3 -3 -7 -5 -10 -5l-3 4c0 3 2 6 5 9l-31 -12h-2c-3 -8 -3 -8 -18 -12c-2 0 -3 1 -12 4c-2 -8 -7 -15 -16 -21c-31 -6 -45 -24 -45 -36l6 -14l-6 -16
c2 -3 2 -5 2 -14c2 0 3 -2 5 -4c-2 -4 -2 -5 -2 -10c1 2 3 3 5 3s3 -2 5 -4c-1 -2 -2 -3 -2 -5h4c4 0 4 -2 4 -10c6 0 8 -2 9 -7l-2 -12c2 -1 4 -4 7 -7c-3 -2 -5 -3 -7 -3c-3 0 -6 2 -11 7c-1 -1 -3 -2 -4 -2c51 -49 63 -58 82 -58c3 0 13 3 30 7c4 0 7 -2 8 -7l-44 -15h-4
c-5 0 -12 -3 -20 -8l-13 -8l-5 2c-8 0 -27 -21 -27 -31c3 -16 3 -19 3 -20c0 -5 -3 -10 -14 -21c-7 -8 -11 -14 -11 -18l-3 -3c-2 -13 -3 -24 -3 -32c0 -21 21 -58 26 -58c1 0 3 0 11 3c3 0 5 -3 5 -10v-11c8 -5 20 -14 35 -29c5 -22 14 -36 25 -36l3 2c11 0 19 -7 19 -15
c17 -14 18 -14 81 -17c42 -2 45 -2 52 61c0 9 16 26 24 26c4 -1 4 -2 6 -2c9 0 16 6 18 16l-2 8c5 4 7 4 12 4c2 2 8 16 18 43h-2zM256 553v7c-2 -2 -4 -3 -6 -3c2 -2 4 -3 6 -4zM580 219h-2l-2 -5h2zM245 340l-1 2l-2 -1l1 -2zM284 443h-12c-17 8 -27 12 -31 12
c-22 0 -31 -5 -54 -34c-23 -1 -55 -7 -63 -24c-4 -29 -6 -44 -7 -45c-3 -17 -10 -30 -20 -39l9 1c3 0 4 -1 4 -2c-1 -1 -4 -22 -5 -43c3 -1 7 -4 12 -7v2c-1 0 -1 -4 -1 -13c6 0 8 0 16 -4c0 -7 1 -9 4 -13c3 5 4 9 5 13c17 13 25 22 25 27c-1 5 -2 11 -2 19c0 1 6 13 18 36
c-6 10 -7 12 -7 13c0 7 6 11 19 11h20l-7 15c0 4 2 6 6 6c3 0 6 -2 8 -5c3 4 9 8 20 13c1 0 4 7 4 10c2 0 6 2 16 6l6 -5c7 5 10 12 10 19c-3 5 -7 11 -7 12c0 3 8 16 14 19zM296 211c0 1 -1 3 -3 4l-1 -9zM400 -10c0 5 -9 21 -12 21l-5 -2c-2 3 -2 6 -2 7c0 3 2 7 7 13v-1
c-1 0 -1 4 -1 14l2 2c0 28 -5 30 -24 35v6c3 1 6 2 10 5v5c-6 3 -9 4 -10 4c-12 -4 -12 -4 -13 -4c-4 0 -6 2 -6 6c0 7 2 7 33 7c0 1 2 7 9 28c0 5 -1 10 -2 15c0 3 1 5 4 7c-5 0 -10 6 -23 20h-8l6 -11c0 -5 -1 -7 -4 -7c-3 1 -3 1 -8 3c-3 -5 -8 -7 -14 -7l-21 20
c-2 -2 -4 -3 -6 -3c0 -36 0 -37 -3 -42l12 1c2 0 4 -2 7 -5c-2 -5 -4 -7 -24 -18h10l-2 -19v-26c3 -2 7 -5 12 -8v-8c10 -6 17 -20 25 -47c-3 -4 -4 -5 -11 -5l-7 -8l4 -6c-25 -8 -34 -24 -34 -47c0 -11 3 -17 8 -18v14c9 7 14 10 15 10c3 -2 6 -4 7 -4c2 1 5 3 10 8
c7 -7 7 -7 8 -7c19 4 20 4 21 4c5 0 6 -2 7 -7l-2 -9c1 -1 4 -4 8 -10c4 0 6 -3 6 -8c4 0 6 0 11 -5c-3 4 -5 11 -6 21c0 9 -2 16 -6 19c-9 7 -13 13 -13 18c23 21 25 23 25 29zM124 224v5c-4 0 -8 -1 -12 -3l4 -4c3 1 5 2 8 2zM403 643c0 -9 -13 -23 -22 -23
c-7 0 -20 10 -20 16c0 8 7 23 26 23c11 0 16 -5 16 -16zM356 613c0 -7 -3 -13 -8 -19c0 -8 -10 -11 -36 -16l-22 18c0 29 9 40 33 40c15 0 33 -13 33 -23zM407 582c0 -17 -19 -41 -41 -47c-20 0 -25 1 -39 11c0 4 0 6 5 6c15 -4 23 -7 27 -7c17 0 33 18 34 39l10 3zM430 226
c0 -8 -8 -12 -23 -12c-10 0 -16 2 -19 7c-1 11 -3 15 -6 15v12c7 3 10 4 12 4c5 0 7 -3 7 -8c0 -4 -2 -9 -5 -14c3 -5 7 -8 11 -8c3 0 6 1 10 2v10c0 4 2 6 6 7h4c2 -6 3 -11 3 -15zM394 640c0 7 -3 9 -11 9c-6 -4 -10 -8 -11 -11c3 -5 6 -8 10 -8c8 0 12 3 12 10zM346 607
c0 7 -13 19 -21 19c-7 -4 -9 -5 -11 -6h-2c-5 0 -13 -8 -13 -12c0 -10 10 -21 19 -21c19 0 28 7 28 20z" />
</svg>