<?xml version="1.0" encoding="iso-8859-1"?>
<!DOCTYPE svg PUBLIC "-//W3C//DTD SVG 1.1//EN" "http://www.w3.org/Graphics/SVG/1.1/DTD/svg11.dtd">
<svg width="100.0" height="100.0" version="1.1" xmlns="http://www.w3.org/2000/svg" xmlns:xlink="http://www.w3.org/1999/xlink">
<path fill="#00f0ff" transform="scale(.1,-.1) translate (0, -800)" glyph-name="z" unicode="z" horiz-adv-x="488" 
d="M474 25c-8 -3 -14 -5 -18 -5c-1 0 -7 1 -13 2c-3 0 -5 -2 -8 -5c3 -5 7 -7 14 -7c11 2 14 2 15 2c3 0 6 -4 7 -11c-6 -3 -12 -13 -18 -32c-1 -2 -3 -2 -6 -2c-15 7 -19 8 -22 9c-3 0 -4 -1 -4 -4s5 -9 14 -19v-9c-8 -3 -19 -7 -32 -11c-7 5 -11 16 -13 32
c-1 1 -5 7 -11 17v5l3 3c7 -3 8 -5 25 -45c5 0 10 2 15 5c-12 19 -13 21 -13 22c0 13 4 20 11 20c22 -14 22 -14 23 -14c4 0 11 15 13 20c-7 2 -18 5 -32 8c0 11 1 16 6 26l21 -2c9 0 12 0 12 15c0 3 -1 4 -4 4c-1 0 -3 -1 -29 -10c-7 0 -10 5 -10 16c0 1 9 11 14 17
c0 6 -5 19 -9 19c-9 -9 -36 -38 -36 -43c6 -15 6 -16 6 -18l-6 -24c-1 -3 -4 -7 -9 -12c-3 -1 -8 -3 -14 -6v-24c-1 -7 -4 -13 -11 -19c0 -2 2 -4 6 -7c0 -11 15 -43 29 -66c0 -18 0 -19 -26 -26c-1 2 -3 5 -6 9c0 8 -2 10 -11 11c0 -27 -1 -27 -6 -27l-26 -3
c-5 0 -7 2 -7 6c0 2 2 7 5 15c0 1 -1 2 -3 4c-5 0 -8 -7 -8 -20l-33 -5l-3 9c2 2 3 5 7 13c9 35 17 56 19 56l-7 17v8l-29 3c-3 0 -5 -1 -7 -3c0 -16 -3 -26 -13 -34c1 -1 2 -3 4 -4c0 -13 18 -68 20 -68c0 -5 -2 -7 -8 -7l-12 -3c-6 -3 -9 -4 -10 -4c-4 0 -5 2 -5 15
c0 1 -1 5 -3 11h-4l-5 -5c0 -19 0 -25 -25 -25c-3 0 -7 2 -11 5c6 12 6 17 8 20c-1 2 -2 4 -4 6l-21 -18c-1 0 -3 1 -5 4c-4 0 -11 4 -22 13l1 5c8 7 14 13 17 18c33 27 39 35 39 43l-5 18v12c-7 1 -16 6 -26 13c0 -1 0 -1 1 -2v30l-6 -3c0 1 -4 2 -10 4l4 -34l-48 -46
c-6 0 -29 17 -29 22v4c13 10 19 17 19 22c0 3 -3 6 -9 7c-5 -5 -37 -20 -52 -20c-2 4 -5 15 -8 34c6 1 14 5 23 11l3 12c1 6 5 11 13 16c-21 3 -28 7 -28 19c0 2 0 2 6 10l9 27c6 0 8 0 35 -15c4 0 6 2 6 6c-5 7 -7 11 -7 12l16 25l4 2c2 0 2 0 39 -41c1 0 3 1 6 3l10 -3v11
v-2l2 8c-1 0 -1 6 -1 18c29 2 31 2 39 7c0 5 0 7 2 13l17 7c-1 1 -1 1 -3 5c2 3 2 3 3 10c0 3 0 6 -1 6c2 3 3 5 3 8s-1 7 -3 10v46c-2 1 -4 3 -5 7c-10 0 -21 10 -21 19c0 2 3 9 9 21c3 1 5 2 6 2c2 -1 2 -1 5 -2c1 3 2 8 2 15c0 54 -3 61 -18 72v23c-3 2 -7 3 -12 3
c-1 0 -1 0 -17 -4c-2 0 -6 3 -11 10v4h4v4c0 24 -20 42 -42 49l-1 8c-1 1 -10 14 -26 38l1 9h-8c-8 0 -26 13 -26 24s0 11 11 22v-1c-5 0 -20 68 -28 132l2 3v56c-5 4 -7 9 -7 14c0 9 3 14 10 14c3 0 14 -11 14 -13v-15c-3 0 -7 -1 -11 -4c-3 -7 -5 -17 -5 -30
c0 -56 15 -119 36 -151c3 0 5 3 5 9v32c0 1 1 2 2 4c1 20 4 22 26 35c3 2 5 5 5 9c0 6 -14 18 -26 23v4c3 3 6 5 8 5c24 -13 25 -13 31 -13c-6 20 -6 21 -11 30c0 4 1 6 4 6c2 0 4 -1 6 -3c1 -5 7 -12 16 -19l2 -7c1 1 4 2 11 5c2 4 4 8 5 13v11c2 3 4 4 7 4l7 -24
c3 -1 11 -4 22 -9c4 5 9 14 14 26h4c3 -3 4 -6 4 -9c-2 -12 -3 -19 -3 -24c0 -15 2 -21 8 -21c5 0 20 1 45 3c2 6 2 8 2 9c0 7 -5 14 -14 21l-1 4c0 4 1 6 4 6c1 -2 10 -6 25 -15c6 5 12 8 17 10c1 1 2 4 2 10c0 5 -2 9 -5 12c0 7 2 9 7 9c2 0 5 -2 10 -5c0 -4 2 -11 6 -20
c12 -2 18 -3 20 -3s8 8 17 23h5c1 -2 2 -5 2 -11c3 -1 5 -3 6 -5c-7 -13 -10 -21 -10 -23c7 -5 7 -5 10 -7c28 14 28 14 31 14c2 -1 3 -2 3 -3c0 -5 -5 -11 -15 -18c-13 -10 -17 -16 -17 -24c24 -48 25 -50 25 -59l3 -3c3 1 8 3 13 6c1 3 2 8 2 13c-2 12 -3 22 -3 26
c-5 95 -6 96 -32 149c0 13 3 20 10 20c6 0 9 -6 10 -17v-21c7 -7 14 -65 23 -174c12 -12 12 -12 12 -25s-19 -27 -27 -27l-5 2c-2 -42 -3 -42 -46 -63c0 -5 -1 -9 -2 -11c-16 -6 -20 -12 -30 -33l3 -16c-6 -1 -14 -5 -26 -10v-34c-2 -1 -3 -2 -3 -4c0 -1 1 -3 3 -5
c-4 -2 -6 -27 -6 -59c5 3 9 5 10 5c7 0 11 -6 11 -17c0 -9 -10 -22 -18 -22l-5 1c0 -29 0 -30 4 -50c2 0 2 -1 3 -2c0 -28 6 -46 18 -54l3 -5c2 -5 3 -6 8 -6c0 1 1 1 2 1c9 0 19 -3 28 -10c0 -9 2 -19 4 -34c5 -3 13 -7 20 -13c4 5 16 19 35 44v5l9 3c5 -14 11 -25 20 -34
c0 -7 -1 -9 -16 -17v-4h3c2 0 18 6 28 10c2 -1 2 -1 6 -2c0 -8 2 -19 4 -35zM351 655v5h-2v-5h2zM395 507c-4 30 -5 44 -5 51c-30 54 -31 55 -48 55l-63 2l-93 -7l-49 4c-9 0 -22 -5 -38 -16c-11 -33 -11 -33 -11 -38l7 -30l-5 -7c1 -2 3 -14 5 -36h2c0 -40 9 -47 73 -47
c9 -3 9 -3 19 -3l120 -4c39 0 62 9 81 31zM297 409l-3 14h-117c0 -17 0 -17 44 -20c20 4 24 5 29 5l37 1c3 -2 5 -3 6 -3s2 1 4 3zM294 347v16h-16c0 1 -1 1 -2 1c-2 0 -6 -2 -11 -6c-3 3 -5 5 -5 6l-54 -1c-2 0 -6 -1 -11 -3c1 -3 3 -8 6 -13c35 0 42 -1 56 -4
c17 0 29 3 29 4h8zM273 318v1l-24 -1c-1 0 -2 -1 -4 -3c-3 3 -4 4 -5 4s-4 -1 -9 -4v-3h42v6zM284 293v9h-33c-1 -4 -3 -8 -5 -12c21 0 29 0 38 3zM261 276v5l-22 3c-3 0 -7 -1 -12 -2v-6c1 -1 13 -2 24 -2c5 0 9 1 10 2zM285 258c-1 2 -2 4 -2 6l-13 4
c-16 -2 -26 -3 -31 -3c8 -8 16 -12 24 -12c2 0 6 1 22 5zM284 246h-33c-1 -2 -2 -5 -5 -8h30c5 2 8 4 8 8zM232 266l-5 2l-2 -7c2 1 4 2 7 5zM273 221v9h-31v-5c10 -4 18 -6 22 -6c6 2 8 2 9 2zM226 251l-7 2v-5h5c1 0 2 1 2 3zM289 177l-3 3c-4 -2 -7 -3 -8 -3l6 -3
c1 0 3 1 5 3zM276 201c-2 3 -3 5 -3 7l-35 8c0 -1 -3 -2 -8 -5c13 -8 24 -12 33 -12c3 0 7 1 13 2zM287 193l-27 -2l-18 7h-12c15 -9 27 -13 37 -13c12 0 19 3 20 8zM292 150c-2 0 -2 1 -3 2c0 -2 -2 -3 -3 -4c3 0 5 1 6 2zM273 175c-7 1 -17 3 -29 6c2 -2 4 -6 7 -11
c5 -3 10 -4 15 -4c1 0 4 3 7 9zM244 181v2h-5v-2h5zM285 146c-22 13 -32 19 -42 19l-14 1c1 -8 34 -22 45 -22zM273 135c-7 1 -11 3 -49 20v-3c0 -6 22 -19 31 -19zM343 71c-1 1 -3 2 -30 13l-5 -1c-1 0 -5 1 -8 3h-58c1 0 1 0 2 -1c0 -1 -5 -1 -14 -1l-5 -3
c-1 0 -1 0 -15 4c-3 0 -5 -3 -10 -9c-12 -4 -17 -13 -24 -35v-10c-3 -5 -4 -10 -4 -14c0 -53 10 -59 95 -63c6 0 14 2 24 5c1 3 3 4 5 4c1 0 2 0 2 -1c35 0 38 9 56 77zM380 -133c0 7 -15 31 -26 45v6c-4 4 -13 15 -13 24c-2 -24 -11 -34 -39 -34h-4
c-19 -47 -19 -48 -19 -60l4 -1c6 0 10 2 12 6c0 17 1 20 9 20c1 0 7 0 15 -2c1 -19 2 -21 5 -24l11 4v22l7 4l11 -1h4c3 0 3 0 15 -17c5 0 8 3 8 8zM138 -32l-1 20c-10 8 -21 27 -21 39c0 8 5 16 14 23v4c-6 8 -16 17 -30 27c-4 -6 -6 -9 -6 -10c0 -2 2 -5 9 -15
c0 -4 -7 -18 -20 -20c-8 5 -14 9 -31 16c-5 -3 -7 -10 -7 -19c-1 -2 -2 -4 -2 -5c0 -5 3 -8 9 -8c3 0 8 1 14 3c7 0 11 -1 13 -4c-1 -6 -4 -10 -24 -28c0 -11 -1 -14 -3 -19c-5 -2 -11 -5 -20 -8c0 -5 1 -9 2 -14h11c3 0 10 4 22 11c8 8 13 11 18 11l21 -25l-4 -4
c-12 -6 -18 -12 -18 -17c0 -7 4 -11 13 -11c10 0 41 40 41 53zM246 -162l-6 15c0 1 0 3 1 4l-14 46h-7c-12 0 -12 0 -20 4l-23 -27c-5 -5 -10 -8 -15 -10c-11 -12 -16 -19 -16 -22c0 -2 10 -7 12 -7l6 2c0 4 3 9 8 13h17c2 -24 3 -28 5 -30c5 3 9 7 10 10v14c1 4 7 6 18 6
c5 0 8 -4 9 -12s4 -12 7 -12c5 0 8 2 8 6zM367 537c0 -24 -41 -73 -77 -73c-15 13 -16 15 -17 18c-21 16 -26 25 -29 42l-4 3c0 1 2 6 5 11c0 47 2 47 68 63c32 0 54 -35 54 -64zM219 532c0 -22 -27 -54 -51 -54l-13 7c-40 7 -47 45 -47 63c0 20 25 40 51 40
c20 0 38 -13 55 -38c0 -3 2 -9 5 -18zM337 39c0 -1 -1 -3 -2 -5c0 -49 -30 -71 -95 -67h-24l-30 16v6c-5 5 -7 13 -7 22c0 42 27 58 74 60c10 -4 10 -4 11 -4c2 0 8 1 20 3c25 0 53 -16 53 -31zM357 538c0 12 -18 45 -25 50h-21c-33 2 -58 -16 -58 -40v2c-1 -2 2 -9 3 -24
c-1 -2 -3 -3 -5 -3c6 -17 33 -47 43 -47c15 0 26 6 34 19l-5 2c-8 -3 -16 -5 -17 -5c-28 0 -40 13 -49 47c0 9 5 19 16 28l3 6c16 6 26 9 30 9c7 0 25 -12 34 -24v-26c0 -9 -3 -19 -9 -32c17 15 26 28 26 38zM208 535c0 14 -24 43 -38 43c-18 0 -21 0 -43 -14
c-5 -13 -5 -13 -5 -16v-4l-3 -3c0 -29 16 -44 40 -47l10 -4c0 1 1 1 2 1c18 0 37 26 37 44zM315 18c0 21 -14 32 -25 32c0 -2 -1 -4 -3 -5c-7 4 -17 6 -30 6c-37 0 -56 -10 -56 -31c0 -34 5 -34 26 -36c11 -3 18 -5 19 -5c39 0 69 16 69 39zM196 531c0 -7 -1 -13 -4 -19
l-6 -6c-7 0 -11 0 -11 1h2c-6 -2 -12 -3 -19 -3c-21 0 -31 12 -31 37c0 19 15 31 28 31c19 0 41 -23 41 -41zM305 30c0 -6 -1 -13 -3 -21c-10 -7 -14 -9 -16 -10c-2 2 -2 2 -3 2s-7 -2 -16 -7l-34 1c-1 0 -4 1 -5 2l-6 -1c0 2 -3 4 -7 8c0 3 -1 6 -3 11c7 25 29 28 42 28
c10 0 35 -2 51 -13z" />
</svg>