<?xml version="1.0" encoding="iso-8859-1"?>
<!DOCTYPE svg PUBLIC "-//W3C//DTD SVG 1.1//EN" "http://www.w3.org/Graphics/SVG/1.1/DTD/svg11.dtd">
<svg width="100.0" height="100.0" version="1.1" xmlns="http://www.w3.org/2000/svg" xmlns:xlink="http://www.w3.org/1999/xlink">
<path fill="#00f0ff" transform="scale(.1,-.1) translate (0, -800)" glyph-name="B" unicode="B" horiz-adv-x="1391" 
d="M1377 311l-6 -30c-47 -50 -69 -64 -119 -81c-59 -12 -89 -16 -117 -16c-1 -1 -2 -2 -3 -4c0 -24 -1 -31 -4 -48c-6 -5 -13 -12 -21 -22c-9 -27 -22 -55 -40 -85c-4 -2 -7 -4 -8 -5c-4 -8 -89 -90 -123 -110c-16 -5 -45 -14 -83 -28c-33 -14 -93 -38 -101 -38
c-11 0 -19 2 -24 6l-8 6l-36 -10h-32c-1 0 -19 5 -37 10c-1 0 -4 -1 -17 -5c-3 0 -6 2 -13 9c-61 15 -99 30 -120 51c-5 1 -12 3 -22 7c-2 3 -6 8 -11 14c-6 3 -14 10 -25 19c-5 23 -6 24 -66 93c-1 13 -7 30 -18 50c-11 21 -16 38 -17 52c-13 6 -25 9 -37 9
c-1 0 -3 0 -15 -2l-91 19c-1 0 -1 0 -11 -2c-14 0 -37 13 -93 54c-1 2 -3 7 -4 14c-5 3 -11 8 -20 15c0 4 0 5 -8 23c0 15 18 30 54 45l11 7l6 -3c0 7 84 26 126 26h51c17 95 22 116 81 211c69 89 223 170 336 170c54 -14 56 -14 59 -14c70 -4 74 -5 113 -13l8 2
c8 0 20 -5 37 -14c28 0 115 -51 179 -106c2 -8 7 -18 14 -33c27 -20 51 -92 51 -135c0 -9 -1 -16 -3 -23c103 -4 227 -48 227 -85zM1355 313c-19 12 -33 20 -44 24c11 -11 16 -24 17 -38l-2 -32c13 9 22 24 29 46zM1311 301c0 23 -13 34 -56 47l6 5c0 1 -1 3 -4 6
c-5 1 -13 2 -23 5c24 -25 36 -40 36 -45c0 -60 -17 -63 -190 -96h-130c-3 -1 -22 -4 -57 -8l214 -9c87 0 204 31 204 95zM1107 474c-5 16 -18 68 -18 69c-3 2 -6 4 -11 7c0 -19 -33 -35 -59 -35c-35 0 -48 13 -74 74c-5 7 -60 31 -70 31c-8 0 -11 -1 -42 -12
c-3 0 -8 2 -15 6c0 24 0 37 -20 56c-20 5 -20 6 -20 27c-10 2 -27 5 -50 8c-2 -5 -3 -9 -3 -13c0 -8 1 -13 3 -16c44 -31 44 -32 60 -70v-102c-3 -12 -7 -18 -13 -18c-4 0 -8 2 -11 6c0 109 0 109 -71 109c-54 47 -55 47 -63 104c-30 0 -33 0 -85 -30c3 -3 5 -8 5 -15
c0 -18 1 -32 39 -61c37 -28 59 -42 68 -42l5 2l40 -46c20 -68 20 -69 20 -81l-20 -37c-7 -7 -11 -20 -11 -37c0 -13 1 -21 3 -25c2 -1 5 -2 8 -5c9 -11 31 -24 68 -41c1 1 2 3 3 6c-20 10 -22 11 -27 60l-9 6v58c0 3 1 8 3 16c3 0 7 4 10 13c8 17 14 23 25 23s29 -16 29 -26
v-5c3 -1 7 -3 11 -6c2 -4 5 -8 10 -13c-7 -5 -13 -20 -13 -34c0 -12 19 -73 44 -79c1 4 8 8 19 10c2 4 5 8 9 11c0 24 -1 25 -33 64c0 11 5 17 15 17c5 0 11 -3 17 -10c73 -80 98 -92 124 -92c3 7 8 10 16 10c35 0 45 -5 52 -14l-7 -10h11c3 2 7 4 10 8c0 8 3 26 7 59
c-4 -9 -40 -17 -54 -17c-53 0 -116 43 -155 107c-15 15 -16 16 -27 62c-7 5 -10 7 -11 7c-25 -21 -26 -22 -27 -22c-15 0 -22 10 -22 29c0 29 38 58 77 58c27 0 58 -17 60 -38v-53c0 -30 50 -72 83 -72c18 0 28 2 84 35c0 3 1 9 3 19zM1070 179v4h-19v-4h19zM1041 140
c-12 1 -29 2 -50 5c-1 -8 -5 -12 -12 -12c-2 0 -6 1 -12 3c-6 0 -21 -11 -21 -19c0 -3 3 -7 10 -14c-3 -6 -7 -9 -13 -9c-3 0 -6 1 -8 3v-16l5 -13c52 23 86 47 101 72zM632 447c0 33 -78 105 -114 105c-12 -2 -20 -3 -24 -3c-32 0 -41 9 -48 47c-2 11 -7 16 -15 16
c-9 0 -41 -33 -46 -48c4 3 15 9 32 17c2 0 3 -2 5 -4c12 -62 17 -69 41 -69c4 0 12 1 32 5c23 0 33 -8 86 -68c3 -4 5 -13 5 -28c0 -29 -2 -37 -16 -58c-1 -5 -2 -10 -4 -17c-7 -7 -11 -13 -11 -18c0 -26 1 -27 40 -27h35c-16 23 -24 45 -24 65c0 11 4 25 13 42s13 32 13 43
zM1249 329c-23 28 -37 42 -42 42h-25c8 -1 34 -38 34 -47c0 -6 -16 -31 -28 -44c-1 -1 -50 -13 -77 -20c-5 -3 -9 -5 -10 -5c-4 0 -13 2 -32 7c-13 -4 -17 -5 -20 -5h-60c-6 -3 -12 -5 -15 -5l-122 -1c-10 5 -11 5 -159 9c-43 -10 -44 -10 -93 -12l-50 -3l-245 10
c-54 2 -118 26 -118 47c2 4 12 13 29 30c-79 0 -165 -31 -165 -58c0 -9 13 -24 39 -31c-3 4 -7 9 -12 15c-3 3 -5 8 -5 13c0 17 30 35 65 40c13 5 18 6 21 7c7 0 16 -5 25 -16c0 -11 0 -13 -2 -19c6 -21 15 -34 26 -38c3 7 7 10 12 10c38 -25 61 -34 111 -34h53
c183 14 185 14 233 14c3 0 8 1 14 3c7 -4 12 -5 13 -5h281c7 0 12 1 37 5h78l86 5c1 0 2 0 29 11c76 6 94 24 94 75zM929 193c-32 4 -52 6 -61 6l-107 -10c-10 -3 -20 -5 -23 -5s-6 1 -14 5h-60c-91 -15 -114 -19 -117 -19l-101 5c-3 0 -6 -2 -10 -6v-6c90 -3 185 3 244 16
h141c7 0 43 5 108 14zM787 75v7h-5v-7h5zM924 59c-7 7 -12 11 -13 11l-10 -2c-13 0 -14 4 -17 20c-14 16 -27 43 -29 55c-38 -5 -58 -7 -61 -7c-2 0 -5 1 -16 5c-1 -1 -70 -10 -74 -10h1c0 2 -18 6 -29 6l-7 -2c13 -25 20 -41 20 -49c-7 -6 -12 -9 -16 -9c-2 0 -12 9 -30 27
c0 -4 -4 -9 -15 -17c0 -21 32 -41 58 -41c3 0 10 2 18 5c33 0 58 -18 75 -54c22 8 33 10 45 10v9c-7 1 -14 7 -22 19c-3 5 -11 12 -24 19c-22 4 -29 8 -32 19c-14 5 -21 12 -21 20c1 12 4 18 11 18c58 0 60 -1 88 -19c5 -36 39 -56 65 -56c8 0 20 8 35 23zM888 215
c-54 4 -86 6 -96 6l-270 -3c-34 -5 -49 -7 -54 -7h-68c-8 -3 -14 -5 -16 -5c-1 0 -7 2 -13 5c-6 0 -21 -2 -45 -6c21 -8 32 -13 35 -13c5 0 13 1 39 5c58 -8 61 -8 145 -10c1 0 115 14 140 19c6 -3 12 -5 13 -5l94 5c3 0 7 1 22 5c27 0 52 1 74 4zM501 370
c0 20 -5 26 -35 36c-2 4 -45 27 -54 30h-29c-15 0 -29 26 -39 72l-20 -41c1 0 31 -66 31 -87c-13 -23 -14 -24 -15 -56c-5 -9 -7 -14 -7 -16c0 -10 13 -26 21 -26l12 3c10 16 10 19 10 54l-16 38c0 1 2 9 5 20c14 9 26 14 36 14c11 0 19 -5 24 -16c17 -41 23 -45 58 -45
c12 0 18 7 18 20zM603 6c-24 25 -51 65 -51 82c6 26 6 26 17 42l-64 4c-11 0 -18 -2 -21 -4v-29c0 -20 45 -67 58 -67l5 2c4 0 11 -10 21 -30h35zM450 128l-11 3c-6 -16 -7 -17 -23 -38c0 -6 6 -14 19 -25c0 14 0 22 15 60zM330 184c-9 2 -17 6 -24 11v5c2 1 5 2 8 5
c-37 6 -50 9 -85 20c4 -6 16 -13 36 -21s33 -14 38 -20h27zM265 176c-2 4 -3 9 -3 15c-43 11 -91 59 -105 106c-1 1 -2 1 -5 2c-7 -3 -11 -6 -11 -9c10 -27 43 -73 64 -90c8 -3 18 -9 31 -16c9 -8 17 -12 22 -12c3 0 5 1 7 4zM165 216c-12 17 -28 40 -49 71
c-9 -9 -14 -16 -14 -20c0 -12 38 -40 63 -51zM176 204l-3 7l-4 -1l3 -6h4z" />
</svg>