<?xml version="1.0" encoding="iso-8859-1"?>
<!DOCTYPE svg PUBLIC "-//W3C//DTD SVG 1.1//EN" "http://www.w3.org/Graphics/SVG/1.1/DTD/svg11.dtd">
<svg width="100.0" height="100.0" version="1.1" xmlns="http://www.w3.org/2000/svg" xmlns:xlink="http://www.w3.org/1999/xlink">
<path fill="#00f0ff" transform="scale(.1,-.1) translate (0, -800)" glyph-name="D" unicode="D" horiz-adv-x="800" 
d="M780 30c0 -4 -2 -8 -7 -13c-5 2 -10 7 -13 15c-5 8 -13 15 -23 21c-59 36 -73 50 -184 189l-1 -4c0 -2 2 -4 5 -9c0 -16 1 -18 29 -74c0 -9 5 -24 14 -44c41 -56 42 -60 70 -135l-14 -4c-23 61 -39 92 -46 92c-8 -2 -11 -3 -14 -3c-7 0 -9 0 -40 36c-5 9 -22 23 -49 43
h-3c3 -7 7 -17 10 -32c11 -8 12 -9 81 -116c15 -22 22 -48 22 -79c0 -11 -2 -23 -6 -35h-11c0 73 -7 96 -86 205c-3 17 -21 50 -44 80c-1 3 -2 8 -5 12c-9 7 -20 16 -33 28c-1 -1 -2 -2 -2 -5c0 -10 1 -13 58 -197c17 -54 25 -92 26 -113c6 -6 8 -8 8 -35
c0 -13 -2 -21 -7 -26l-6 4c0 41 -1 53 -13 92l-26 83c-10 32 -16 55 -17 68c-4 7 -8 16 -13 28c-4 26 -15 66 -34 120c-26 17 -42 26 -47 26c-3 0 -61 -34 -140 -99c-11 -22 -61 -67 -72 -67c-2 0 -7 2 -15 6c-3 -4 -7 -10 -14 -18h-14c-6 8 -6 9 -6 12c0 10 16 44 25 55
c27 33 70 130 70 173c0 15 -21 68 -50 85c0 9 -6 18 -60 73v17c21 10 33 15 37 15l101 -6c13 0 26 2 37 5c-8 13 -21 28 -40 47c-9 40 -25 57 -63 71c-31 12 -45 27 -45 54c0 17 8 34 25 50l16 5c21 0 55 -17 61 -31c2 -5 4 -19 5 -44c69 -91 75 -98 102 -115
c10 0 11 0 88 192h20c2 -2 5 -5 8 -9c0 -10 2 -23 5 -39c18 -39 28 -70 29 -92c1 -1 2 -2 4 -3c20 -51 26 -72 26 -83l7 -7c61 -11 100 -16 119 -16c9 1 39 4 54 6c10 0 15 -8 15 -23c0 -11 -2 -19 -7 -26c-5 -2 -13 -6 -23 -11c-9 -20 -13 -25 -116 -122c-5 0 -9 -2 -14 -6
v-9c120 -163 148 -190 230 -234c11 -11 16 -19 16 -24zM187 665c0 8 -24 28 -38 31c-9 -9 -13 -17 -13 -24c0 -17 12 -29 29 -29c8 0 22 14 22 22zM311 517l-93 86c42 -68 49 -80 49 -89s-1 -14 -3 -16h22c9 0 17 6 25 19zM661 458c-112 7 -116 8 -149 4c-15 0 -27 4 -34 11
c0 21 -1 22 -9 32c-8 37 -18 67 -29 89c-2 26 -2 28 -20 81c-4 -3 -18 -31 -41 -84c-3 -7 -8 -12 -13 -16c0 -11 -8 -28 -24 -50c-27 -57 -28 -57 -36 -57c-3 0 -26 2 -34 4c-5 0 -31 -1 -61 -3c5 -5 12 -7 20 -7l18 6c7 -3 21 -23 21 -48c0 -22 -7 -33 -21 -33
c-6 0 -27 2 -37 20c-1 1 -12 5 -32 13c-3 7 -5 12 -5 15c0 4 5 16 15 35c-25 0 -47 1 -65 3v-13c5 -9 11 -19 19 -30c68 -65 69 -66 72 -85c2 -7 6 -13 13 -16c-4 -32 -61 -178 -85 -217c59 39 63 45 73 65c17 15 42 35 76 61c24 9 35 18 46 30c7 7 13 10 18 10
c2 -2 11 -9 12 -9c5 0 11 2 17 5c-4 5 -9 8 -16 8c-22 2 -31 6 -79 72v76c22 35 49 52 81 52c47 0 47 0 96 -46c0 -23 0 -23 14 -51l-4 -40c7 -15 19 -23 34 -23c24 0 34 8 130 104c4 9 11 19 19 32zM542 186c-14 32 -14 33 -19 54c-2 9 -5 15 -9 16c0 23 -23 58 -47 69
c-15 -11 -22 -19 -22 -24c16 -25 68 -102 97 -115zM555 139c-22 21 -36 36 -41 43c-26 36 -88 105 -96 105l-11 -5v-7c3 0 10 2 10 3c6 0 11 -5 15 -14c23 -55 69 -101 123 -125zM605 414c0 -6 -58 -65 -67 -65c-6 0 -10 8 -13 24s-6 25 -11 27v14c33 13 50 20 51 21
c14 -9 15 -9 16 -9c4 0 5 1 14 6c7 -6 10 -12 10 -18zM436 519c0 -11 -4 -17 -13 -17c-4 0 -14 3 -33 9h-28c-2 7 -3 10 -3 13c0 7 4 16 12 26c18 22 20 26 21 44c5 7 10 10 13 10c5 -2 12 -3 16 -3v-22l-3 -18c6 -14 15 -36 18 -42zM309 263c0 -6 -7 -11 -29 -19
c-31 -37 -32 -38 -40 -38c-3 0 -8 2 -17 7c0 13 0 14 16 49c3 37 14 54 40 54c9 0 16 -4 22 -13c0 -11 0 -12 8 -40z" />
</svg>