<?xml version="1.0" encoding="iso-8859-1"?>
<!DOCTYPE svg PUBLIC "-//W3C//DTD SVG 1.1//EN" "http://www.w3.org/Graphics/SVG/1.1/DTD/svg11.dtd">
<svg width="100.0" height="100.0" version="1.1" xmlns="http://www.w3.org/2000/svg" xmlns:xlink="http://www.w3.org/1999/xlink">
<path fill="#00f0ff" transform="scale(.1,-.1) translate (0, -800)" glyph-name="G" unicode="G" horiz-adv-x="1738" 
d="M1721 687c-3 -9 -8 -23 -14 -42c-23 0 -58 -15 -105 -46c-13 -8 -31 -16 -56 -23c-62 -17 -106 -42 -141 -82c-1 -5 -5 -13 -10 -22l-28 -28c-3 -3 -7 -5 -12 -5c-1 0 -6 1 -20 7c-11 -6 -21 -11 -23 -11c-13 0 -33 2 -60 7c-43 9 -43 9 -137 11c-21 0 -26 -5 -70 -47
c-1 -8 -3 -20 -7 -34c-12 -10 -20 -20 -54 -102c-4 -10 -11 -15 -22 -15c-37 0 -77 3 -119 8c-34 17 -53 22 -151 39c-12 -11 -43 -113 -44 -129v-43c-1 -2 -6 -5 -14 -11c-102 -14 -116 -21 -264 -92c-2 0 -2 0 -14 8c-21 0 -128 -70 -215 -144c-7 -20 -16 -30 -27 -30
c-9 0 -20 11 -20 20c13 32 22 111 22 141v101c0 41 -9 116 -18 148v16h13c16 -32 16 -33 20 -102c6 -47 9 -86 9 -118c-1 -7 -4 -140 -4 -141c204 137 204 137 204 148h19c10 -5 13 -7 15 -7c124 51 156 64 190 74c48 0 54 12 65 84c5 14 11 36 19 65c1 11 4 30 10 55
c-21 -11 -31 -27 -75 -114c3 -7 4 -10 4 -11c-2 -2 -7 -14 -14 -36c-11 -30 -17 -33 -102 -50c-13 -10 -20 -13 -147 -57c-23 -12 -65 -32 -126 -61c-5 -8 -7 -16 -7 -24c-14 -4 -14 -4 -16 -4c-9 0 -20 11 -20 20c0 8 5 25 16 51s17 43 17 51c0 14 -4 28 -12 42
c0 34 -3 67 -6 99c21 10 36 15 45 15c13 -2 54 -8 56 -8c78 0 122 7 178 26c15 -4 16 -4 17 -4c10 0 42 24 50 37c7 48 21 86 51 132v25c17 10 27 15 29 15c131 -46 132 -46 253 -65l10 6c-7 16 -18 18 -67 21c-116 32 -120 35 -188 73c-23 13 -41 20 -53 20
c-4 -7 -8 -17 -12 -32c0 -14 0 -15 -37 -112c-12 -74 -12 -76 -19 -87c-71 0 -158 -7 -342 -33c-6 0 -12 3 -18 8v17c3 3 7 6 12 10c47 3 219 18 321 34c11 8 41 96 47 149c1 1 3 2 5 5l11 46c0 8 -2 16 -6 24c10 14 19 21 27 21c187 -101 217 -116 345 -126
c14 19 27 44 39 77l30 80c6 7 14 18 23 33c7 20 15 30 25 30h-2c0 -1 7 -2 21 -5c9 -36 31 -49 129 -77c36 -4 90 -10 161 -19c24 30 27 48 29 82c14 10 25 15 32 15c20 -9 30 -13 34 -13l103 -16c5 0 44 5 92 11c23 -2 39 -3 48 -3c10 0 29 8 56 24h16zM1599 636h-121
c-1 0 -51 5 -81 9c-20 0 -40 -17 -40 -35v-19h10c13 28 14 28 30 28c24 -5 35 -7 41 -7c1 0 1 0 15 7c13 0 20 -7 20 -20c0 -5 -3 -9 -8 -14c3 -2 6 -4 9 -5c97 34 110 39 125 56zM1404 557c-7 0 -13 -1 -20 -5c-21 -39 -46 -59 -77 -59c-1 0 -1 0 -15 4l-14 -8l-24 8
c-32 -14 -33 -15 -67 -15c-55 13 -56 13 -122 13c41 -15 167 -24 200 -24l18 4c44 0 55 -8 55 -14c42 37 43 37 66 96zM1335 558l-20 -2c-5 -8 -12 -12 -21 -12c3 0 5 0 5 1c0 4 -71 31 -81 31l-16 -4c-13 0 -78 16 -149 37c-13 9 -30 20 -52 32c-37 -37 -76 -144 -76 -188
c0 -11 -2 -18 -7 -22c13 17 24 34 33 52c3 16 4 18 43 66c26 44 27 45 40 45c7 0 30 -8 70 -24c40 -15 63 -23 69 -23l7 4c38 -15 68 -22 121 -22c11 0 23 10 34 29zM1053 484v7h-9v-7h9zM884 426v7l-21 4v-7zM1043 461c0 3 -2 7 -5 10c-29 -37 -52 -71 -68 -102
c-3 -5 -8 -9 -16 -12c-4 -37 -46 -44 -66 -44c-26 0 -120 15 -208 46l-23 -5c25 -6 32 -7 38 -7c34 -22 35 -23 71 -25c19 -7 50 -11 91 -14c1 -3 3 -7 7 -12c38 -8 60 -12 65 -12c27 0 42 23 79 113c31 51 35 59 35 64z" />
</svg>