<?xml version="1.0" encoding="iso-8859-1"?>
<!DOCTYPE svg PUBLIC "-//W3C//DTD SVG 1.1//EN" "http://www.w3.org/Graphics/SVG/1.1/DTD/svg11.dtd">
<svg width="100.0" height="100.0" version="1.1" xmlns="http://www.w3.org/2000/svg" xmlns:xlink="http://www.w3.org/1999/xlink">
<path fill="#00f0ff" transform="scale(.1,-.1) translate (0, -800)" glyph-name="J" unicode="J" horiz-adv-x="916" 
d="M899 358c-18 -10 -25 -16 -39 -29l2 -6v-84c-2 -6 -6 -31 -14 -76c29 -11 31 -12 31 -18c0 -8 -1 -10 -24 -33c0 -5 -5 -13 -15 -24c-2 -9 -7 -21 -14 -38c-16 5 -22 7 -24 7c-3 0 -5 -1 -42 -51c-23 -19 -61 -52 -61 -57c0 -1 3 -8 9 -21c0 -10 -2 -11 -31 -17
c-2 0 -6 -5 -44 -39c-2 1 -6 3 -12 8c0 11 -3 17 -11 27c-9 -6 -84 -21 -104 -21h-57c-27 0 -91 17 -113 33c-7 9 -13 14 -16 14c-2 0 -4 -1 -7 -2c1 -9 4 -21 9 -35c17 -13 37 -19 59 -19l19 10h12c-10 -23 -18 -34 -24 -34c-36 12 -55 19 -58 19c-1 0 -2 0 -19 -2
c-7 0 -10 4 -10 12c0 32 0 32 -14 54c0 6 3 10 9 12c-31 13 -90 67 -116 109h-5c-10 -16 -21 -24 -34 -25c-9 39 -10 41 -31 79c0 7 7 14 21 21c9 5 14 11 14 17c-7 23 -9 31 -9 36c0 31 1 53 3 66c-4 7 -5 9 -5 12c0 9 5 13 14 13c8 0 90 -103 112 -138c4 0 9 -1 15 -2
c9 6 15 19 17 40c9 7 18 24 26 51c-12 39 -15 63 -18 102c-20 7 -30 12 -31 13c-10 -4 -14 -5 -15 -5s-7 3 -17 8c5 4 5 5 5 19c-16 7 -23 19 -23 31c0 6 6 12 19 18c11 6 13 2 17 -50c3 -3 19 -8 48 -15l5 23c1 8 5 13 10 14c-4 9 -9 11 -26 17c-21 22 -31 44 -31 66
c0 28 14 46 42 55h35c22 0 26 -8 39 -42c6 -9 9 -16 9 -22c0 -44 -17 -52 -48 -64l-3 -7l12 -14v-18c10 -8 19 -12 24 -12c8 0 17 11 25 32v11c4 9 16 41 17 46c5 2 8 3 9 3c9 0 14 -4 14 -13c0 -16 -3 -20 -21 -28c-14 -40 -14 -41 -14 -58c-1 -9 -5 -13 -12 -13
c-12 4 -12 4 -13 4l-22 -1c0 -6 1 -16 3 -32c-7 -26 -13 -54 -13 -57c0 -46 41 -98 43 -98c13 0 43 16 68 37c1 3 2 7 2 15c6 4 8 4 19 4c19 64 26 86 26 118l-2 1c4 20 2 29 -32 150c-49 75 -95 95 -156 100c-31 0 -65 -14 -101 -41c-1 1 -7 6 -18 13c0 22 0 23 100 108
c62 30 75 36 98 39c15 21 20 28 29 28c22 -6 33 -9 36 -9c7 0 10 1 23 11c12 -3 13 -4 15 -11c17 -7 27 -11 31 -11c6 2 6 2 7 2c30 0 56 -10 120 -39c1 0 12 4 36 13c5 -2 10 -3 13 -3c3 -15 19 -32 49 -52c-11 -22 -11 -23 -11 -24c6 -7 65 -88 80 -113
c4 -13 13 -30 26 -53c12 5 16 5 19 6c7 0 11 -2 12 -7c6 -39 8 -49 23 -64zM703 619c-5 12 -13 20 -23 23c0 -1 -2 -3 -5 -4c9 -4 19 -10 28 -19zM868 357v14c0 1 0 1 -13 36h-9c3 -13 6 -30 9 -52c1 0 5 0 13 2zM517 566v10c-3 2 -9 6 -16 11l-8 -13c0 -7 5 -11 15 -11
c4 0 7 1 9 3zM745 325c-5 4 -13 10 -23 19c0 -5 -3 -7 -8 -8l-14 -3c1 -3 1 -3 2 -8c-9 -14 -9 -15 -9 -19c0 -14 13 -26 27 -26c22 0 22 11 22 24c0 15 0 16 3 21zM493 549c-2 2 -5 3 -8 3c-5 -5 -7 -8 -7 -10c3 -4 7 -9 12 -14zM818 272c-3 37 -5 61 -5 74
c-27 -15 -41 -25 -41 -32c0 -28 26 -87 28 -87v1c0 -6 -2 -9 -7 -9c-3 0 -5 1 -14 10c0 24 -5 34 -14 34c-4 0 -11 -5 -21 -16c0 -52 -1 -54 -20 -84v-23c16 16 37 37 38 37c3 0 5 -2 8 -5c-7 -9 -16 -23 -27 -40l6 -5c9 4 15 6 18 6c11 -4 14 -4 15 -4zM851 134l-3 8
c-1 0 -8 -12 -34 -59v-7c9 8 16 19 20 32c4 6 10 15 17 26zM769 106v9c-13 -2 -23 -4 -29 -6v-24c3 2 4 2 6 2c3 0 7 -2 10 -6zM818 355c-1 7 -3 16 -6 28l-10 10c3 1 7 3 11 6v21l-15 37c0 38 -79 134 -128 159c-1 1 -2 2 -2 5c-49 37 -145 60 -167 60
c-19 -8 -20 -8 -21 -8c-1 4 -8 6 -19 6c-46 0 -57 -6 -65 -19c-4 -6 -8 -9 -12 -9c-6 0 -9 2 -9 6v4c-47 -9 -124 -59 -151 -102h10c37 24 54 32 116 32c33 0 97 -18 107 -37h10c0 2 3 8 9 19c-21 0 -31 4 -31 11c0 10 5 12 31 13c-6 5 -13 11 -20 16v7l14 7
c0 -1 8 -4 23 -9c1 32 2 33 14 39c10 -10 10 -10 10 -16c-6 0 -6 -3 -6 -34h10c9 25 15 37 19 37c8 -1 12 -4 12 -9c0 -3 -1 -7 -2 -11l-10 -10c-2 -8 -7 -17 -12 -29l21 -2l23 8c7 0 11 -2 11 -7c0 -13 -4 -19 -13 -19c-2 0 -4 1 -5 2v7c-31 -10 -32 -11 -32 -21
c0 -12 6 -28 19 -48c0 -4 -3 -7 -9 -10c-7 5 -11 11 -31 48c-4 -13 -6 -22 -6 -26c0 -8 2 -16 5 -23c25 -20 48 -120 48 -176c0 -81 -11 -100 -47 -142c-30 -50 -108 -91 -175 -91c-54 3 -54 3 -54 -31c26 15 42 22 48 22s9 -3 9 -10c0 -2 0 -3 -2 -6c-17 0 -17 0 -46 -20
c34 -5 41 -10 41 -25c0 -4 -3 -8 -9 -11c-5 9 -16 14 -33 17c0 -1 0 -2 -9 -14v-31c49 -21 75 -31 76 -31h60c0 2 1 4 5 11v19c-1 0 -3 1 -5 3c-24 -10 -28 -11 -30 -11c-7 0 -11 3 -11 8c0 6 5 11 15 15c10 3 16 7 18 11c-9 5 -18 17 -29 34c4 4 8 6 13 6c3 0 5 -1 6 -2v17
c1 7 4 11 10 11c5 0 9 -4 10 -13s5 -13 10 -13c10 -1 18 16 18 38c0 2 3 4 7 8h8c1 -3 3 -8 6 -14c-5 -5 -8 -9 -10 -9c-2 -9 -3 -14 -3 -16c0 -4 1 -6 3 -11l44 26c5 0 8 -5 8 -14c0 -4 -1 -7 -2 -8c-2 0 -3 0 -12 2c-5 0 -23 -19 -23 -25v-16c14 3 22 4 24 4
c10 0 16 -4 19 -12c-5 -5 -12 -8 -23 -9l-29 -4c10 -9 15 -18 15 -27c42 0 60 4 81 18c-8 3 -13 7 -15 11c20 23 20 24 20 29c0 7 -4 12 -12 15c-11 5 -18 11 -23 19c3 4 7 6 12 6c11 -4 14 -4 15 -4c2 0 3 0 8 15c3 2 8 5 14 8c3 25 4 27 22 45c3 4 5 8 5 12
c0 1 -1 5 -3 13c-4 2 -6 3 -7 3c-30 -33 -32 -35 -34 -35c-5 0 -8 3 -8 10c0 1 0 1 24 37c-5 12 -7 18 -7 21c-17 0 -26 3 -26 10c0 3 8 8 24 15c-3 3 -5 8 -5 15s4 11 11 11s12 -3 17 -9c5 5 7 7 13 34c4 12 8 18 11 18l8 -2c1 0 6 2 39 18v15c-15 1 -35 8 -61 19v8l10 6
l9 -6l35 -7l9 5c-20 25 -30 40 -30 47c0 11 4 16 12 16c2 0 3 0 6 -2c0 -26 11 -46 27 -46l23 9c-3 5 -4 10 -4 14c7 15 8 20 8 35c0 8 -1 15 -4 32c0 4 4 6 10 6c9 0 12 -3 13 -12l-5 -14c1 -33 2 -34 11 -53c10 14 16 30 17 47c1 5 4 8 11 8c3 0 6 -1 11 -4
c0 -12 -1 -15 -18 -44v-29c2 0 4 -1 6 -2c27 16 40 24 41 24s5 0 17 -4zM728 96v13c-5 4 -10 8 -17 11l-3 -15c4 -2 9 -6 16 -11zM736 80c-6 -3 -15 -4 -28 -4c2 -3 3 -6 3 -9c0 -5 -4 -8 -13 -8c-8 0 -12 4 -12 11c0 4 2 7 13 18l-6 33c14 26 14 26 22 68c4 2 8 15 11 33
c-2 7 -3 17 -3 23h-21c-1 -7 -6 -18 -17 -33h-8l-4 8c1 0 5 10 13 31l-18 18c-9 -1 -21 -6 -36 -14c-2 -3 -6 -7 -11 -11l-3 -14c0 -4 1 -8 3 -15l8 -3c13 17 24 26 34 26c5 0 8 -1 10 -3v-6c-12 -9 -33 -29 -39 -35c0 -7 3 -12 15 -16c11 -4 17 -10 17 -18
c0 -3 -2 -6 -5 -9l-22 9c-7 0 -13 -6 -19 -17c5 -4 5 -8 2 -23v1c0 -9 -4 -17 -13 -24c-5 -5 -8 -9 -8 -13c0 -5 2 -9 5 -12l17 19c5 6 11 9 18 9c5 0 9 -2 12 -5c0 -13 -3 -15 -21 -15c-3 -9 -7 -18 -14 -27c3 -3 6 -4 11 -4c3 0 10 1 28 5c10 0 18 -3 18 -7
c-1 -1 -2 -3 -3 -6c-11 0 -28 -6 -51 -19c-3 -10 -5 -18 -5 -25l3 -10c46 5 67 17 115 69c-1 3 -3 8 -4 14c4 2 6 5 6 10zM373 453c0 34 -18 55 -49 55c-38 0 -50 -9 -50 -39c0 -7 2 -17 3 -25c18 -23 33 -35 44 -35c29 0 45 13 48 38zM618 174c0 3 -3 9 -9 18
c-13 -5 -19 -11 -19 -16c0 -9 5 -14 16 -14c8 0 12 4 12 12zM612 29c0 7 -10 21 -15 21c-1 -1 -8 -3 -20 -7c0 -21 4 -26 15 -26c13 0 20 4 20 12zM681 -60c-19 -11 -39 -20 -60 -27c5 -9 9 -14 14 -14c4 0 45 36 46 41zM600 -2l-2 3h-16c-5 -6 -11 -15 -18 -28h13
c8 0 23 4 23 25zM368 137c-12 31 -14 36 -21 38c-2 6 -12 21 -14 21c-1 0 -4 0 -8 -2c-18 -35 -27 -56 -27 -64h26c6 0 19 3 44 7zM456 2c-2 10 -2 16 -2 17c-1 0 -7 0 -17 2c-9 0 -14 -5 -14 -14c0 -10 11 -26 19 -27c9 7 14 14 14 22zM406 31v8h-3v-8h3zM463 -50
c-3 3 -6 7 -10 14c-5 0 -9 -2 -14 -7v-10c8 2 16 3 24 3zM283 100l-8 -2c-5 0 -10 5 -15 15c0 -1 -3 -12 -6 -23c0 -6 2 -12 5 -18h10c2 7 7 16 14 28zM250 58c0 5 -4 21 -13 47c3 3 7 7 13 12c-1 0 -6 8 -14 25c-6 5 -13 14 -80 96c-3 -13 -5 -22 -5 -26
c0 -62 47 -182 72 -182l21 9c4 8 6 14 6 19zM267 48h-8v-8c2 -2 3 -3 7 -20h10l1 3c0 15 -1 19 -10 25zM267 -5c0 3 -2 5 -23 26c0 -1 -2 -2 -7 -2v-10c6 -5 14 -12 27 -20c2 2 3 4 3 6zM173 68c-4 6 -10 15 -17 27c-1 6 -4 14 -8 23c-3 0 -8 -1 -14 -3
c11 -37 16 -45 23 -54c5 5 10 7 16 7zM721 483c-4 -8 -12 -10 -53 -16l6 -26c2 -11 5 -38 5 -42l-7 -7c-5 1 -8 8 -9 19c-2 15 -5 24 -9 29c-9 -2 -13 -8 -30 -37h-10c-3 3 -5 6 -5 8l16 22v8l-8 1c-27 -14 -28 -15 -31 -15c-1 0 -4 2 -9 7c0 8 0 8 30 23c-3 5 -4 11 -5 17
c-17 3 -21 9 -25 24l2 10h12l2 -7c5 -5 9 -8 13 -8c11 0 17 5 17 14c0 1 -1 6 -3 15l-6 7l7 21h17c1 -29 2 -33 8 -40c4 8 11 20 21 37h8c0 -1 2 -4 7 -9c-3 -6 -7 -10 -13 -12c-1 -7 -4 -19 -9 -36l6 -6l38 7c2 0 8 -3 17 -8zM362 461c0 -7 -15 -21 -22 -21
c-9 0 -13 7 -13 22c0 2 2 6 5 13h13c6 0 17 -9 17 -14zM318 460c-7 -6 -12 -9 -17 -9c-9 0 -14 9 -14 15c0 11 6 16 17 16c3 0 7 -3 14 -9v-13zM658 466c0 6 -12 18 -18 18c-9 -4 -16 -9 -19 -15c7 -4 16 -9 29 -16z" />
</svg>