<?xml version="1.0" encoding="iso-8859-1"?>
<!DOCTYPE svg PUBLIC "-//W3C//DTD SVG 1.1//EN" "http://www.w3.org/Graphics/SVG/1.1/DTD/svg11.dtd">
<svg width="100.0" height="100.0" version="1.1" xmlns="http://www.w3.org/2000/svg" xmlns:xlink="http://www.w3.org/1999/xlink">
<path fill="#00f0ff" transform="scale(.1,-.1) translate (0, -800)" glyph-name="K" unicode="K" 
d="M851 444c0 -8 0 -8 -36 -32c-32 0 -111 -48 -179 -108c0 -32 0 -33 36 -137l6 -60c0 -4 5 -17 13 -38c0 -8 -13 -19 -23 -19c-1 0 -41 35 -50 43c-72 102 -132 169 -161 169c-7 0 -48 -33 -124 -98c-36 -57 -117 -131 -140 -131c-1 0 -2 0 -19 4v19c14 18 21 33 70 138
c9 11 20 28 33 53c1 9 5 23 12 40c15 15 27 38 27 51c0 12 -40 43 -142 112c-9 11 -23 23 -41 38l-5 15c0 11 20 23 35 23c54 -5 76 -7 87 -7c120 0 123 1 126 29c13 5 42 93 42 108c11 3 14 12 14 30c0 12 3 19 10 20h15c34 -56 46 -89 87 -198c102 11 126 14 185 14
c17 0 51 -17 103 -51c13 0 19 -2 19 -6v-21zM795 459c-76 29 -77 30 -128 32c-85 0 -105 -8 -134 -24c-7 0 -14 4 -22 12c-1 41 -5 50 -21 73c-6 45 -7 46 -37 95c-15 -22 -55 -109 -56 -116c0 -3 1 -9 4 -17c-8 -16 -16 -24 -24 -24h3c0 2 -15 4 -48 6h-33
c27 -19 55 -29 83 -29c11 0 21 4 30 11c15 62 15 63 15 84c1 10 7 15 17 16c5 0 11 -2 17 -6l2 -38c8 -8 16 -30 24 -67c29 -12 46 -18 53 -18c33 0 53 3 87 14c2 0 5 -2 9 -6c37 -2 55 -10 55 -27c0 -12 -93 -72 -125 -83c15 -20 15 -22 15 -36l12 12c6 1 14 3 24 6
c6 7 14 16 24 25l138 82c5 4 11 12 16 23zM649 113c0 42 -30 124 -51 142c-4 -19 -11 -28 -20 -28l-29 14v-12c0 -7 5 -11 16 -11c12 -31 53 -82 84 -105zM548 241v12c-44 46 -45 47 -46 49c-14 5 -33 13 -56 26c-33 -38 -56 -66 -69 -83c15 3 29 15 42 35
c13 18 23 27 32 27c15 0 47 -22 97 -66zM350 372c-19 19 -46 46 -83 82c-6 3 -14 8 -24 15c0 4 1 13 3 25h-46c-6 0 -12 -6 -12 -13c19 -12 45 -28 77 -50c51 -43 68 -56 85 -59zM376 239l-5 3l-15 -19l5 -4zM367 348c-36 -31 -43 -40 -55 -73c-7 -20 -14 -33 -23 -40
c-5 -17 -24 -64 -57 -140c16 13 49 49 98 106c-8 3 -24 28 -24 36c0 10 10 27 31 50c23 26 30 43 30 61z" />
</svg>