<?xml version="1.0" encoding="iso-8859-1"?>
<!DOCTYPE svg PUBLIC "-//W3C//DTD SVG 1.1//EN" "http://www.w3.org/Graphics/SVG/1.1/DTD/svg11.dtd">
<svg width="100.0" height="100.0" version="1.1" xmlns="http://www.w3.org/2000/svg" xmlns:xlink="http://www.w3.org/1999/xlink">
<path fill="#00f0ff" transform="scale(.1,-.1) translate (0, -800)" glyph-name="N" unicode="N" horiz-adv-x="1251" 
d="M1256 288c0 -8 -2 -10 -23 -41v-18c-18 -17 -21 -24 -21 -31c-130 -197 -176 -241 -322 -299c-1 -3 -4 -7 -9 -13h-7l-7 7c-1 0 -6 -2 -83 -32l-145 -9c-13 0 -27 2 -83 14l-10 -5c-15 0 -47 8 -96 23c-2 4 -7 8 -12 13c-46 12 -47 13 -109 47c-3 1 -8 3 -16 4
c-20 13 -50 33 -88 61c-52 61 -103 105 -116 107c-22 46 -34 62 -70 106c0 10 -2 15 -16 39c0 12 15 29 25 29l8 -3c48 46 86 70 151 94c66 39 99 50 238 60c1 13 3 18 25 75c2 0 3 2 5 4c0 30 22 67 97 142c9 12 93 40 103 40c30 -9 45 -13 49 -13c6 2 6 2 7 2
c24 0 69 -40 150 -124c7 -11 15 -28 22 -51c16 -56 16 -57 64 -73c73 -31 77 -32 168 -64c121 -77 121 -77 121 -91zM1199 313c-7 6 -15 14 -27 22v-36h8c8 7 14 12 19 14zM1142 184l-2 8c-7 -3 -11 -7 -11 -11c2 -1 5 -2 8 -2zM1163 340c-9 10 -93 44 -120 54h-18
c1 -9 4 -19 7 -31c8 -10 9 -11 17 -53v1c0 -10 -3 -15 -9 -15c-5 0 -10 3 -15 9c-1 26 -1 27 -40 70c-7 4 -18 10 -33 19v-8c25 -42 34 -64 34 -96c0 -9 -4 -14 -12 -14c-11 0 -12 3 -16 38c-13 35 -31 44 -60 48c-9 1 -14 5 -17 11c-2 -1 -5 -2 -8 -2c0 -7 -1 -12 -5 -20
c0 -3 0 -3 5 -8v-48l6 -18c0 -12 -11 -13 -22 -13c7 -10 7 -14 9 -16c0 -3 -2 -10 -7 -21c13 1 31 4 54 7c-6 15 -9 24 -9 27c0 15 8 22 23 22s23 -8 23 -23c0 -5 -2 -13 -7 -22c7 0 24 2 50 6c-6 12 -7 16 -7 33c14 14 19 17 27 17c14 0 20 -11 26 -41c9 2 24 6 44 13
c-10 7 -15 15 -15 26c0 14 12 29 23 29c6 0 26 -20 26 -26c0 -1 -3 -8 -9 -19h9c10 7 18 11 23 12l-16 34c5 15 10 22 16 22c8 0 16 -1 23 -4zM1019 269c-3 -1 -7 -2 -12 -2c0 -2 1 -4 2 -7c10 3 10 4 10 9zM789 629c-38 30 -59 41 -119 50c-57 0 -85 -19 -157 -104
c-7 -15 -12 -27 -14 -38c43 67 104 118 155 118c14 -4 17 -5 21 -5l17 5c0 -1 32 -9 97 -26zM866 390c-3 3 -3 5 -3 29c-19 -10 -33 -18 -40 -24c8 -11 9 -15 9 -19c9 3 20 8 34 14zM868 506c-5 3 -8 8 -10 16c-38 33 -39 36 -43 47c-33 33 -40 40 -54 44
c-45 14 -78 21 -97 21c-52 0 -76 -14 -132 -84c-30 -32 -37 -55 -42 -81c55 28 59 33 75 85c8 20 16 30 24 30c7 0 12 -7 17 -22l6 -28c22 0 25 3 31 39c1 -1 2 -3 2 -5c5 29 17 43 38 43c23 0 23 -11 23 -65c27 2 27 3 29 14c14 24 16 29 27 29c14 0 16 -4 23 -47
c5 -1 12 -2 20 -4c15 -9 36 -20 63 -32zM934 258v-1l-11 1c1 0 4 -2 8 -7c0 2 1 4 3 7zM777 343c-3 2 -4 6 -4 11c0 1 0 6 2 19c-17 -3 -27 -4 -29 -4l-4 -5c-1 1 -6 2 -13 2v-40h7c0 1 11 4 34 10zM842 240c2 1 3 3 3 5s-1 4 -3 6c-3 -3 -5 -6 -5 -9c1 0 3 -1 5 -2z
M852 270c-1 6 -2 15 -5 27c-20 18 -21 18 -30 18c-8 -3 -9 -3 -11 -3c-3 3 -13 10 -14 10s-3 0 -5 -1c7 -11 11 -19 11 -22c0 -1 -7 -31 -12 -53c-3 -1 -6 -2 -10 -5c0 -2 -2 -9 -7 -21c18 0 38 1 58 3c-6 14 -9 23 -9 27c0 16 8 24 25 24c1 0 5 -2 9 -4zM499 536l-3 1
l-3 -6l3 -1zM671 364c-9 2 -19 4 -49 7c-1 -1 -5 -5 -5 -7l2 -31c3 0 16 -2 40 -5c0 14 1 19 12 36zM759 239c-3 3 -7 5 -11 5c-4 -3 -5 -4 -5 -5c0 -3 0 -4 3 -8c4 0 8 3 13 8zM571 384c-1 1 -2 3 -3 5c-7 1 -19 4 -35 9c-4 -6 -7 -13 -9 -22c13 -9 24 -16 35 -21
c3 14 7 24 12 29zM780 153l-11 3c-3 -3 -5 -6 -5 -9l10 -2c4 3 6 6 6 8zM485 427c-5 5 -10 8 -15 8c-7 0 -16 -4 -26 -11l22 -14h9c3 4 6 10 10 17zM458 393l-3 4l-2 -3l3 -3zM678 146c-7 3 -11 5 -14 5v-11l8 -2c4 3 6 6 6 8zM1203 251c-13 0 -44 -19 -48 -22
c-22 -9 -27 -10 -98 -14l-172 -32c-39 0 -74 -1 -103 -3c9 -11 14 -20 14 -25c0 -17 -9 -26 -26 -26c-16 0 -24 6 -24 19c0 7 5 18 18 31l-7 4c-6 -1 -31 -3 -75 -7v-13c8 -7 12 -15 12 -22c0 -13 -8 -19 -24 -19c-19 0 -24 6 -25 20c0 11 4 21 12 29l-37 3
c-3 -2 -6 -3 -9 -3c-41 9 -41 9 -126 10c-23 -4 -33 -5 -37 -5c-17 0 -30 1 -39 3c-19 7 -21 8 -68 10c-6 0 -16 2 -26 5c-3 -1 -18 -3 -43 -7l14 -30c0 -13 -8 -19 -24 -19c-10 0 -22 9 -22 17c0 33 8 35 32 35c-12 7 -37 14 -76 20c-42 7 -71 14 -86 21h-20l-20 -2
c10 -28 105 -110 136 -134c0 5 1 15 3 31c-3 8 -5 14 -5 19c0 9 10 13 17 10c8 -1 12 -8 13 -19c2 0 3 -2 6 -5c16 -34 30 -53 50 -66v13l-16 36c0 12 13 31 24 33c5 0 9 -1 10 -4c9 -40 69 -115 95 -121v8c-12 23 -18 79 -18 84c0 8 8 24 16 24c3 0 9 -4 18 -13
c6 -34 16 -62 56 -82c3 -15 9 -23 18 -23h14l-15 54c0 58 5 73 24 73c4 0 6 -3 16 -18c0 -23 14 -44 66 -95c0 7 6 50 10 66c-1 3 -2 7 -2 11c0 14 4 20 14 20c2 0 7 -4 16 -13c3 -17 44 -98 66 -98c5 0 8 1 10 3c-6 15 -9 32 -10 52c-7 6 -11 12 -11 19c0 5 1 15 3 31
l18 10c8 0 13 -3 15 -10c5 -29 15 -47 49 -80c6 3 10 4 12 4l16 -6c-2 40 -2 54 -2 56c0 14 3 21 9 21c5 0 9 -4 13 -11c8 -32 46 -78 67 -78c5 0 10 2 16 5c0 10 -1 12 -18 67c0 8 3 12 10 12c2 0 4 -1 7 -4c8 -11 23 -18 60 -28c17 -10 25 -15 25 -16c7 0 12 4 15 11
c-15 23 -22 36 -22 40c0 7 2 11 7 13l32 -8c7 -3 11 -3 29 -3c-3 2 -5 6 -5 11c0 7 3 11 9 11c28 -6 42 -9 47 -9c7 0 17 9 28 27c-13 3 -20 14 -20 32c0 15 9 23 27 23c10 0 21 -16 21 -36c15 15 43 67 44 72zM792 -36v6h-4v-6h4zM768 263c-1 14 -1 14 -32 40h-22
c0 -1 -4 -31 -13 -48c-15 0 -35 33 -35 52c-4 0 -7 1 -21 5h-24c-2 -7 -4 -16 -8 -26c-1 -22 -4 -26 -16 -26c-5 0 -5 0 -12 15c3 3 4 5 4 7c-3 2 -4 3 -19 44c-12 -9 -21 -26 -28 -51c21 4 34 -3 34 -18c0 -12 -14 -26 -26 -26s-18 10 -18 30c-12 5 -14 7 -14 94
c-5 4 -12 8 -23 12c-5 -13 -11 -23 -18 -30c-1 -3 -2 -5 -2 -10c-1 -1 -3 -3 -5 -6c-2 -24 -4 -32 -11 -38h-11c-11 32 -11 35 -12 90l-4 3c-8 -18 -21 -44 -39 -77c-3 1 -7 3 -12 6c0 33 -2 58 -5 75h-11c-8 -14 -21 -27 -40 -39c-19 -30 -22 -33 -27 -33
c-14 0 -18 25 -18 70c-11 -6 -21 -12 -28 -19c-1 -3 -2 -7 -5 -12l-23 -10c-11 0 -11 1 -11 27h-8c-3 -2 -8 -5 -14 -8c-13 -2 -53 -25 -118 -68c105 -34 112 -34 269 -49c-6 4 -9 10 -9 19c0 11 16 29 26 29c6 0 20 -16 20 -23c0 -16 -11 -26 -30 -26c27 -8 44 -9 93 -9
c-9 12 -14 22 -14 30c0 11 9 17 26 17c1 0 8 -7 21 -20l1 -11c0 -7 -2 -13 -7 -18c37 -3 37 -3 92 -3c21 -3 37 -4 41 -4c22 0 65 1 128 4c-3 9 -5 16 -5 23c0 13 6 20 17 20c15 -4 16 -4 26 -4zM462 246c0 1 -1 3 -3 5l-8 -8h4c3 0 5 1 7 3zM362 256v6h-8v-6h8zM268 154h-1
l1 4c0 3 -1 5 -3 7h-9c0 -7 4 -11 12 -11zM525 -110v4h-8v-4h8zM1074 188c0 -13 -15 -23 -31 -23c-15 0 -23 5 -23 15c0 13 8 22 23 26c1 1 2 3 2 4c19 -7 29 -14 29 -22zM988 162c0 -18 -8 -27 -24 -27c-15 0 -23 10 -23 31c0 11 18 26 29 26c9 0 18 -15 18 -30zM898 151
c0 -14 -14 -29 -29 -29c-9 0 -14 9 -14 28c0 17 7 26 21 26c7 0 22 -17 22 -25zM678 244c0 -12 -6 -18 -18 -18c-16 0 -30 10 -30 23c0 15 6 16 27 20c14 0 21 -8 21 -25zM601 148c0 -9 -13 -22 -26 -22c-17 0 -26 8 -26 25c0 9 7 25 19 25c6 0 33 -21 33 -28zM487 150
c0 -16 -16 -33 -33 -33c-13 0 -19 7 -19 20c0 15 14 32 26 32c7 0 26 -14 26 -19zM281 286c0 -14 -15 -26 -32 -26c-15 0 -22 7 -22 21c0 18 12 27 37 27c11 0 17 -7 17 -22zM381 156c0 -12 -12 -25 -25 -25c-12 0 -18 8 -18 23s4 22 13 22c20 0 30 -7 30 -20zM179 299
c0 -15 -8 -23 -24 -23c-13 0 -19 5 -19 14l10 26c8 5 13 8 14 8c9 0 19 -14 19 -25zM193 167c0 -11 -7 -16 -20 -16c-14 0 -28 10 -28 22c0 2 2 8 5 19c7 0 11 -1 12 -2c4 5 7 7 9 7c5 0 20 -18 22 -30zM974 159v10c-1 0 -3 1 -5 3c-3 -3 -8 -6 -15 -10c4 -7 8 -11 13 -11z
M881 151h-8v-11c5 2 8 6 8 11zM580 146c-3 3 -8 5 -15 5c0 -4 3 -8 10 -11c3 3 5 5 5 6zM469 136l-3 11c-6 -3 -11 -5 -15 -5c0 -3 2 -6 5 -9c3 0 6 1 13 3zM260 279c0 4 -1 6 -3 6c-1 0 -4 -2 -8 -6h11zM365 150c-2 4 -5 6 -8 6l-6 -6h14zM165 301c-1 0 -7 1 -13 2l-2 -11
l8 -2c5 4 7 8 7 11zM177 168c-3 5 -9 11 -18 20v-16c5 -5 8 -7 11 -7s5 1 7 3z" />
</svg>