<?xml version="1.0" encoding="iso-8859-1"?>
<!DOCTYPE svg PUBLIC "-//W3C//DTD SVG 1.1//EN" "http://www.w3.org/Graphics/SVG/1.1/DTD/svg11.dtd">
<svg width="100.0" height="100.0" version="1.1" xmlns="http://www.w3.org/2000/svg" xmlns:xlink="http://www.w3.org/1999/xlink">
<path fill="#00f0ff" transform="scale(.1,-.1) translate (0, -800)" glyph-name="P" unicode="P" horiz-adv-x="1059" 
d="M747 -79l-24 -3v5l24 3v-5zM1050 242c-56 -82 -68 -100 -107 -174c-46 -86 -111 -182 -126 -182c-17 7 -17 7 -63 11c-14 0 -33 -2 -57 -5l-154 33l-94 -8c0 4 -60 10 -100 11c-5 0 -20 -3 -49 -9c-18 8 -20 9 -25 9c-30 0 -71 -3 -85 -7c-13 -4 -14 -4 -62 -6l-42 -1
c-7 0 -26 3 -55 9c-1 3 -3 7 -6 12c1 2 7 5 17 9c0 4 -2 6 -5 6c0 -1 -5 -3 -14 -8c0 9 4 22 11 37c2 0 4 1 7 3c1 9 1 9 44 81c8 18 16 37 25 56c4 28 5 29 70 141c1 7 3 18 7 30c6 4 9 11 30 73c15 7 69 112 101 192c2 8 5 20 8 35c32 59 33 67 36 103c5 7 9 10 14 10
c3 0 6 -2 11 -5c5 -27 9 -29 70 -63c5 -7 9 -10 70 -48c31 -25 34 -26 53 -33c31 -25 41 -31 180 -116c8 -9 21 -20 39 -35c17 -9 42 -22 74 -40c87 -68 110 -79 170 -99c5 -7 7 -15 7 -22zM458 575v38c-12 6 -23 11 -33 14c21 -47 23 -50 33 -52zM515 544l-9 6
c-7 -1 -23 -17 -23 -24c0 -5 7 -15 21 -29c5 7 8 23 11 47zM563 508c-9 -5 -41 -43 -41 -53c0 -4 11 -24 32 -61c8 62 9 87 9 114zM376 550c-5 0 -10 -3 -15 -8h10c4 4 7 6 7 7s-1 1 -2 1zM689 35c-6 12 -21 53 -24 60c-13 19 -30 48 -51 87c-3 19 -6 25 -26 58
c-3 16 -10 27 -21 34c0 18 -45 97 -72 131c-3 17 -5 23 -25 44c0 17 0 18 -13 44l-20 15c-3 -2 -6 -3 -8 -3c-1 0 -10 6 -26 17c-50 0 -64 -8 -85 -62c-7 -5 -8 -5 -69 -114c-12 -20 -33 -57 -65 -108c-4 -22 -9 -36 -74 -206c-19 -33 -29 -54 -29 -63c0 -7 6 -11 18 -11
c7 6 11 9 13 9c28 -8 31 -8 95 -10c21 -7 41 -10 92 -10l84 3c11 -1 62 -5 78 -6c70 12 70 12 71 12l30 -6c63 6 68 6 103 18c5 6 10 15 17 27v17c7 22 7 22 7 23zM261 62c0 2 -2 7 -7 14c-24 9 -39 13 -44 13c-11 0 -14 -2 -49 -25c0 -42 23 -70 43 -70c17 0 17 0 43 37
c9 13 14 23 14 31zM967 241c-46 -43 -97 -116 -137 -197c-11 -7 -17 -10 -19 -11c-9 0 -36 7 -36 18c9 10 21 22 36 36c-1 1 -2 4 -4 9c22 31 42 69 60 116c3 3 5 5 7 6c13 46 14 50 14 60c-22 -27 -53 -68 -93 -123c-15 -25 -27 -38 -35 -38c-7 0 -10 3 -10 9l94 215
c-2 5 -3 7 -3 9c-23 -15 -38 -29 -46 -42c-63 -107 -82 -133 -99 -133c-3 0 -6 1 -7 2c0 51 22 118 46 138c3 13 6 31 10 54c-24 -22 -25 -23 -52 -78c-11 -23 -22 -37 -33 -44c-11 5 -16 10 -16 15c21 35 42 116 42 134l-5 21c-21 -18 -23 -24 -40 -69
c-7 -19 -13 -29 -19 -29c-9 0 -14 5 -14 14c19 53 22 67 22 113c0 9 -1 18 -3 26c-49 -81 -50 -82 -69 -84c36 -71 59 -113 177 -323c44 -94 52 -105 80 -121c11 12 18 23 18 28v4c9 15 19 38 31 69c3 2 6 5 10 9c17 46 32 81 69 133c3 5 11 23 24 54zM422 386
c0 -27 -20 -56 -40 -56c-21 0 -35 20 -35 45c0 22 25 47 47 47c19 0 28 -12 28 -36zM603 65c0 -31 -13 -46 -38 -46c-19 0 -35 18 -35 38c0 22 18 43 37 43c23 0 36 -13 36 -35zM364 205l-8 -3v4l7 3zM442 168c0 30 -37 68 -66 68c-18 0 -45 -14 -53 -28
c-1 -5 -2 -10 -4 -17c-7 -13 -11 -22 -11 -29c0 -12 13 -41 23 -47c14 -8 35 -12 62 -12c21 0 49 37 49 65z" />
</svg>