<?xml version="1.0" encoding="iso-8859-1"?>
<!DOCTYPE svg PUBLIC "-//W3C//DTD SVG 1.1//EN" "http://www.w3.org/Graphics/SVG/1.1/DTD/svg11.dtd">
<svg width="100.0" height="100.0" version="1.1" xmlns="http://www.w3.org/2000/svg" xmlns:xlink="http://www.w3.org/1999/xlink">
<path fill="#00f0ff" transform="scale(.1,-.1) translate (0, -800)" glyph-name="Q" unicode="Q" 
d="M888 380c0 -51 -10 -140 -30 -266c-16 -99 -135 -208 -267 -247c-59 -17 -90 -26 -93 -26c-14 4 -21 5 -24 5c-45 3 -212 35 -242 50c-3 5 -8 11 -14 19c-124 99 -136 134 -146 186c0 7 1 14 4 20l-15 79v94c0 30 28 126 45 155c7 6 16 16 29 30c37 69 148 152 240 177
c97 27 116 32 140 32c102 0 106 -2 199 -52l16 3c2 -19 13 -31 80 -83c68 -62 78 -139 78 -176zM670 553c-13 0 -19 -1 -43 -11c-48 -12 -81 -18 -98 -18c-55 0 -94 32 -94 61c12 47 14 51 33 51c13 0 19 -10 19 -30c9 -1 19 -6 31 -14c10 -7 19 -10 28 -10
c21 0 91 37 93 60l-8 8c-7 0 -19 1 -35 3c-4 -21 -33 -40 -62 -40c-18 0 -27 10 -27 30c0 5 1 9 3 17h-42c-11 0 -97 -31 -108 -39c5 -5 7 -9 7 -13c-23 -10 -37 -18 -40 -28c35 -24 67 -48 89 -65c34 -14 38 -15 40 -15l6 4c34 -20 37 -21 51 -21c47 0 69 13 157 70z
M793 510c-56 -59 -115 -91 -181 -91c-47 0 -61 3 -164 31c-3 7 -6 16 -11 25c-63 26 -86 41 -131 90c0 3 -3 6 -9 10c-13 -10 -29 -22 -49 -35c8 -24 20 -45 36 -62c9 -1 16 -3 19 -6c64 -55 65 -55 96 -58c48 -18 48 -18 102 -20c15 -15 37 -23 67 -23c29 0 53 7 87 19
c33 2 57 11 74 27l21 20c7 16 8 17 30 37c3 9 7 22 13 36zM857 387c-2 1 -5 2 -8 2c-2 0 -5 -1 -8 -2c-17 -32 -123 -70 -181 -70c-19 0 -130 19 -178 31c-15 18 -25 21 -119 44c-17 15 -43 36 -78 63c-28 12 -37 18 -42 54c-9 5 -14 8 -15 8c-8 0 -34 -18 -34 -25
c0 -15 29 -61 69 -99c23 -16 57 -38 102 -65c181 -55 181 -55 206 -55c9 4 14 4 60 4c101 0 187 38 226 110zM841 201c-51 -19 -54 -20 -95 -20c-98 0 -233 25 -322 75c-5 7 -10 14 -17 22c-145 85 -175 102 -224 195h-12c-23 -46 -35 -73 -35 -80c0 -34 11 -42 89 -70
c5 -5 12 -12 21 -19c19 -7 44 -19 74 -36c58 -55 105 -83 154 -88l24 -9c1 0 4 1 9 3c33 -10 53 -17 57 -17c3 0 8 1 17 3c11 -4 50 -14 64 -17h91c56 0 100 24 105 58zM768 9v6l-23 4v-6zM734 16c-47 7 -111 38 -192 93l-7 -6c-43 0 -58 5 -99 46c0 5 -1 11 -3 18
c-58 23 -65 28 -117 73c-34 14 -37 15 -96 62c-76 36 -84 40 -84 62h-13c-5 -25 -7 -57 -7 -98c0 -55 5 -92 14 -109c2 0 5 -1 8 -3l6 6c6 -11 15 -27 27 -46c138 -106 175 -124 248 -128l86 -30c10 4 11 4 12 4c5 0 9 -4 14 -11c18 -24 67 -40 83 -40c6 0 20 6 42 19
c-39 18 -94 38 -165 61c-31 13 -36 17 -137 96c-3 8 -9 18 -18 30c-55 25 -115 62 -200 143c0 4 1 8 3 15h8c105 -95 154 -121 262 -154c31 -21 47 -26 153 -52c2 -3 5 -6 10 -11c17 -5 41 -12 72 -22c33 -15 59 -23 80 -23c3 0 7 2 10 5zM527 -121c-36 6 -45 8 -154 64
c-44 30 -110 75 -197 136c-7 9 -16 19 -29 30c9 -26 24 -56 73 -135c22 -49 155 -103 249 -103c17 0 37 3 58 8z" />
</svg>