<?xml version="1.0" encoding="iso-8859-1"?>
<!DOCTYPE svg PUBLIC "-//W3C//DTD SVG 1.1//EN" "http://www.w3.org/Graphics/SVG/1.1/DTD/svg11.dtd">
<svg width="100.0" height="100.0" version="1.1" xmlns="http://www.w3.org/2000/svg" xmlns:xlink="http://www.w3.org/1999/xlink">
<path fill="#00f0ff" transform="scale(.1,-.1) translate (0, -800)" glyph-name="T" unicode="T" horiz-adv-x="818" 
d="M805 -9c-4 -8 -23 -36 -32 -47h-6c-2 -5 -8 -7 -17 -7h2c-74 -6 -76 -6 -142 -16l-53 4l-243 -22c-5 0 -6 -1 -16 -11c0 1 -3 3 -10 6l-9 -9c-7 4 -10 4 -12 5l-77 -6h3c-59 4 -59 5 -59 19l1 15c-3 41 -4 48 -8 58v79c-4 117 -4 118 -7 138v96c11 7 43 31 46 35
c1 3 3 7 6 12l16 1h-2c33 3 43 5 68 11l19 3l1 59c-1 2 -2 3 -3 11c0 2 1 4 3 6c-4 2 -4 3 -4 20c11 5 19 13 24 24c2 1 5 2 8 4v6c12 6 12 6 14 6l20 5c8 -3 14 -5 16 -5c5 0 9 2 13 5c1 23 8 54 11 62c-3 5 -3 6 -3 8c1 3 2 5 2 7s0 4 -2 7c2 2 3 5 3 10c0 6 -2 10 -5 11
c1 0 4 4 7 17c23 15 23 20 23 28c3 3 11 4 22 5c36 1 36 2 36 13c0 13 -3 23 -9 30c-14 7 -19 18 -19 40c0 17 9 47 54 47c25 0 53 -22 53 -39c0 -12 -2 -23 -7 -33c-22 -19 -23 -21 -23 -47v-2c58 3 79 -1 79 -15c-2 -1 -5 -4 -10 -8h8c5 -93 7 -102 15 -128l-1 -9
c2 -2 4 -3 7 -3c5 0 15 1 22 3l68 -3c2 1 6 2 16 3c2 -2 3 -5 3 -10c0 -4 -1 -9 -2 -14c1 -3 2 -8 3 -14c-3 -5 -4 -10 -4 -13c0 -5 1 -8 3 -10v-21l6 -6l-6 -10c0 -5 1 -16 4 -32v-17c3 -4 8 -6 13 -6c2 0 36 6 56 10c3 -3 4 -4 5 -11c0 -4 -1 -10 -3 -24
c0 -24 3 -101 9 -135c-4 0 -6 -6 -8 -26l5 -72v-54c0 -4 3 -16 9 -44zM512 726v5c-26 -19 -27 -19 -28 -19c-4 0 -6 1 -6 4c0 5 4 9 13 13l4 9v10c-15 -9 -24 -14 -28 -14c-1 0 -2 1 -4 3v5c9 9 14 16 14 21l-2 4c-17 0 -32 -18 -32 -30c0 -13 11 -31 21 -37c31 0 32 1 46 6
c-4 1 -7 2 -8 5zM578 626c0 2 -1 5 -3 10c-7 -5 -13 -11 -17 -17v-10c13 8 20 14 20 17zM580 604c0 3 -1 6 -2 7c-14 -5 -21 -13 -21 -23c0 -1 1 -3 4 -6c13 10 19 17 19 22zM697 459v7c-5 -2 -11 -6 -19 -11v-10zM581 582c-3 -3 -8 -8 -14 -13c-3 0 -6 -1 -11 -2
c0 -2 1 -5 2 -10c20 7 23 15 23 25zM584 547c0 4 -1 8 -3 13l-19 -17v-11c4 2 11 7 22 15zM702 435c-1 6 -2 12 -2 13c-4 -1 -8 -5 -12 -12c-5 -9 -9 -10 -14 -10v-12c3 2 13 9 28 21zM586 528c0 2 -1 3 -2 4c-3 -1 -11 -8 -22 -19c1 -1 1 -2 2 -4c15 9 22 15 22 19z
M705 410c-2 10 -2 10 -2 11c-24 -22 -26 -24 -34 -24l2 -8c4 1 15 8 34 21zM778 326c0 1 -1 3 -2 5c-4 -5 -10 -9 -17 -14v-9h5zM589 509c0 1 0 1 -2 5c-10 -8 -17 -16 -22 -24h5c13 8 19 14 19 19zM706 382c-1 7 -2 11 -2 14c-5 -5 -13 -12 -24 -22c-1 1 -3 2 -6 2l1 -10
c10 3 12 3 31 16zM781 302c0 3 -1 6 -2 8c-19 -19 -19 -19 -19 -36c10 3 21 18 21 28zM708 361l-2 10c-26 -21 -27 -21 -31 -21v-6c1 0 3 -1 4 -2c7 5 16 11 29 19zM584 485l-13 -8c-1 0 -4 0 -9 2c1 -3 2 -8 5 -14c9 6 15 13 17 20zM705 344l-1 2l-3 -4zM779 272
c-4 -4 -7 -8 -8 -11c-3 -1 -6 -2 -11 -4v-17c19 19 19 19 19 32zM785 230v12h-5c-11 -17 -12 -17 -18 -17l1 -14c5 5 12 12 22 19zM785 195v19c-6 -4 -14 -11 -23 -21v-16c22 18 22 18 23 18zM785 161v16h-5c-7 -8 -13 -15 -20 -21v-15c4 6 13 13 25 20zM785 130v11
c-1 1 -3 2 -5 2c-11 -11 -17 -18 -17 -20c0 -1 0 -1 2 -7c1 0 8 4 20 14zM785 104v10h-5l-15 -15v-11c18 16 18 16 20 16zM787 80l-2 6l-20 -15v-10h6c11 10 16 16 16 19zM693 -52l-5 52l1 48c-3 2 -5 4 -5 6v-2l-1 99l-10 95c-3 1 -4 3 -4 4c0 2 2 8 5 16c-1 2 -3 16 -6 42
c-5 4 -8 10 -8 17l-2 59l-2 20c0 13 2 28 7 45c-5 5 -11 8 -18 8l-50 -13l-2 -12c1 -5 5 -32 6 -40l3 -107c2 -1 4 -3 6 -6l-6 -102c3 -40 8 -123 9 -162c7 -4 9 -55 9 -64s-4 -14 -19 -16l27 -2c62 13 63 14 65 15zM786 61c-5 -8 -12 -14 -23 -18c2 -6 2 -11 2 -12
c21 12 21 15 21 30zM788 26c0 1 0 1 -2 5c-12 -9 -17 -14 -17 -15c-2 0 -3 1 -5 3v-18c16 14 24 22 24 25zM793 7l-4 3c-10 -16 -16 -21 -22 -21v-8c4 2 10 4 18 7c3 4 5 11 8 19zM578 -54c-1 3 -5 43 -7 74v37c-1 8 -6 56 -6 57l-3 211c-4 7 -4 8 -7 121c-2 3 -4 6 -6 11
c1 7 2 17 3 31c-3 5 -5 8 -5 11c0 4 3 15 4 15c-5 27 -5 36 -9 98l-151 -9c-4 -3 -6 -7 -6 -11v-30l-8 -63l15 -97c0 -45 9 -136 16 -160v-51l5 -22v-81l16 -163l58 5v39c-8 7 -12 13 -12 20c0 8 14 12 41 12c3 0 6 -1 8 -2c0 -13 2 -31 5 -54c0 -1 -1 -4 -4 -9l-6 -1l50 -1
c6 0 9 4 9 12zM384 -79v74l-8 120v34c0 2 -2 5 -5 8c-4 93 -10 168 -20 285h-59c-7 0 -10 -2 -10 -6c0 -3 1 -9 3 -18l-1 -38v2v-33c0 -15 1 -23 3 -25c0 -3 1 -5 8 -23c-2 0 -5 -7 -6 -17l11 -135v-113l4 -87v-26c0 -2 1 -6 3 -11zM417 -74c-3 4 -6 7 -11 8l-2 -10z
M272 -94h-1l-6 115v29l-2 112c-2 1 -3 2 -3 3l2 2c0 48 -5 112 -12 120c-23 0 -35 0 -37 1c1 1 1 1 2 1h-36l-45 -5l-4 -67l6 -71l1 -155c1 -1 2 -4 4 -10c0 -32 1 -41 6 -75c7 -4 24 -6 49 -6c22 0 47 2 76 6zM292 -83c-1 0 -3 0 -9 2l4 -12zM533 535c0 -3 -13 -17 -16 -17
c-5 0 -10 2 -15 7l6 15c-4 27 -5 27 -7 27c-7 0 -11 -6 -11 -17l6 -16c0 -6 -12 -13 -18 -13h-17c-1 1 -2 2 -3 4c3 6 4 12 4 17c0 9 -3 19 -9 28c3 2 8 7 15 16c5 2 13 4 23 7c1 -1 2 -2 3 -4l-2 -13h4c9 4 11 4 27 6h10v-47zM644 371c-4 -3 -8 -4 -11 -5
c-17 0 -25 5 -25 15c0 32 4 36 21 45c7 0 15 -10 15 -17v-38zM541 462c0 -12 -10 -18 -31 -18c-5 0 -8 3 -8 8c2 5 3 9 3 12l-4 6l2 3c0 5 0 9 -2 15c1 1 1 2 2 4c14 11 24 16 30 16c5 0 8 -3 8 -8c-4 -7 -4 -8 -6 -23c0 -1 0 -1 6 -15zM438 533c-5 -5 -6 -6 -29 -9
c-2 2 -3 4 -3 5l2 15c-2 2 -3 7 -4 26c14 8 22 12 23 12c3 0 6 -1 8 -3c0 -8 0 -12 3 -46zM650 297c0 -7 -7 -11 -20 -11l-10 3c3 20 1 32 -5 47c0 8 4 12 13 12c3 0 7 -1 13 -3c5 -7 5 -8 6 -42c2 -2 3 -4 3 -6zM495 455c0 -7 -4 -10 -11 -10h-3c-4 0 -4 -1 -18 -6l-7 7
c1 0 3 6 6 18l-7 22c0 14 18 23 28 23l9 -1c-4 -16 -5 -24 -5 -26c0 -1 1 -4 8 -27zM548 370c0 -7 -16 -16 -31 -16c-2 12 -3 18 -7 47c0 1 13 17 26 17h5v-17zM450 452c0 -12 -12 -16 -34 -16l-2 2c2 10 2 17 2 18c0 5 -1 14 -4 28h-4v7l8 5l4 -2c1 0 5 3 12 9
c5 0 8 -2 11 -6v-15c0 -7 3 -15 7 -30zM662 215c-3 -5 -19 -10 -26 -10c-9 0 -10 9 -14 52c20 3 30 5 30 6h-2c2 -1 6 -4 12 -10v-38zM510 362c0 -6 -5 -12 -14 -18l-23 3c-2 40 -2 40 -7 59c3 4 8 6 15 6c10 0 16 -2 19 -7c3 -33 3 -34 10 -43zM548 294
c0 -15 -7 -23 -20 -25c-1 3 -4 6 -8 11v24c-2 6 -3 12 -3 16c6 4 12 6 17 6c9 0 12 -6 14 -32zM671 141c-12 -8 -22 -12 -29 -12c-1 0 -3 1 -5 2c0 8 -1 18 -3 30c0 1 1 4 2 8l-4 6v12l22 6c5 0 9 -2 10 -6c0 -21 3 -46 7 -46zM455 352c0 -6 -6 -9 -19 -9h-20c3 5 4 9 4 45
c-2 3 -3 4 -4 4c5 12 12 16 18 16c7 0 13 -1 16 -2c0 -18 0 -21 5 -54zM516 276c0 -9 -21 -17 -34 -17c-1 12 -4 30 -8 53c4 5 8 7 12 7l3 4c0 2 5 4 17 6c1 -2 2 -5 4 -8l-2 -6zM673 58l-30 -8c-1 0 -5 2 -12 5v39c0 6 2 9 7 9l3 -2c10 9 11 9 15 9c8 0 13 -10 17 -33v-19z
M554 195c-4 -4 -4 -4 -29 -4c0 3 -1 4 -4 4c0 -12 -16 -18 -28 -18l-5 2c-5 19 -7 33 -7 43c0 7 21 22 28 22l9 -5v-41c1 0 2 0 3 -2c5 5 6 12 6 37c0 5 0 6 15 16c5 0 7 -2 7 -9zM466 272c-1 -1 -3 -5 -6 -12l-30 -16l-6 1c4 32 1 49 -7 64c1 4 24 14 29 14c4 0 8 -2 13 -6
c-1 -3 -2 -7 -2 -10c0 -8 4 -19 9 -35zM353 369c0 -1 -1 -4 -2 -7c-5 -1 -11 -7 -19 -16h-5c0 4 -2 7 -5 9c-3 0 -7 2 -12 6v35l-2 2c0 10 10 18 31 23c4 -12 14 -50 14 -52zM556 153v-44c-7 -9 -11 -14 -13 -15c-5 0 -11 2 -18 7c2 10 3 22 3 47c9 7 16 11 19 11
c4 0 7 -2 9 -6zM674 -16c-13 -7 -22 -10 -27 -10l-9 4c1 0 1 4 2 11c-1 1 -4 11 -8 31l26 14c2 0 7 -4 16 -12v-38zM469 179c-2 -5 -11 -8 -27 -10l-11 -4c-3 0 -4 1 -5 9c0 5 1 10 3 16c0 7 0 9 -7 26c5 8 17 16 36 25c3 -2 4 -3 5 -3c0 -1 0 -6 -2 -11c1 -1 3 -4 5 -7
l-4 -19c0 -5 2 -8 7 -9v-13zM353 282c0 -2 -2 -5 -5 -8l-30 -6c2 12 2 14 -2 18c0 9 -1 21 -3 38c13 7 20 11 22 11c2 -1 5 -2 10 -5c1 -32 2 -36 8 -48zM522 105c-11 -12 -11 -12 -37 -12l3 4c0 17 -2 38 -4 41c4 5 12 10 25 17c7 0 8 0 8 -22c0 -12 1 -22 5 -28zM562 33
c0 -6 -7 -9 -22 -9l-6 2c-1 2 -3 5 -5 8v21c-2 0 -3 1 -3 4c0 8 9 15 16 15c5 0 12 -4 20 -12v-29zM472 100c0 -7 0 -8 -38 -15l-3 3v50c6 2 23 9 28 11c4 0 7 -2 8 -7c-2 -5 -2 -9 -2 -10zM524 30c-25 -10 -29 -11 -36 -11v36c-4 1 -6 4 -6 7c0 1 1 3 2 5l27 12
c6 0 7 -1 7 -16c0 -13 2 -22 6 -27v-6zM358 187c0 -6 -3 -7 -12 -7h-3c1 0 1 0 2 -1c0 -1 -5 -2 -14 -5c-1 1 -6 4 -16 9v20c-4 17 -4 18 -4 19c0 12 8 18 24 18c1 0 5 0 10 -2l3 -6l-1 -25c0 -1 1 -3 11 -20zM475 24c-4 -7 -12 -11 -23 -11s-17 4 -17 11c0 27 2 28 23 43h7
c2 -16 4 -21 9 -21c0 -3 -1 -5 -3 -8zM247 215v-6c-12 0 -13 0 -25 -5c-3 0 -6 1 -9 3v40c-1 1 -2 1 -3 4c0 8 2 9 17 12c6 0 11 -1 15 -3c1 -31 1 -32 5 -45zM359 106l-2 -8c-8 -6 -17 -9 -29 -9c-1 0 -4 1 -8 3v25c-4 19 -6 28 -7 28v-1c0 12 12 18 35 18l3 -3
c0 -27 0 -29 8 -53zM197 226c-1 -3 -3 -9 -6 -19l-28 -12l-8 2v56l23 10c2 -1 6 -3 11 -6c0 -7 0 -7 -2 -9c2 -3 3 -9 3 -18c2 0 4 -2 7 -4zM247 128c-6 -5 -14 -8 -24 -8l-10 5v47c19 17 23 18 26 18s6 -2 8 -6v-56zM366 7c-6 0 -16 1 -23 3l-18 -1l-1 7c3 4 4 9 4 15
l-9 25c1 2 2 6 2 7c15 7 24 11 28 11c9 0 15 -9 17 -28v-39zM206 122v1c0 -2 0 -4 -2 -9h-43c0 10 0 15 3 28c-8 24 -8 24 -8 25c0 6 32 20 35 20c2 0 5 -1 9 -3c-2 -12 -3 -18 -3 -25c0 -6 2 -11 6 -14c-3 -7 -3 -9 -3 -11c0 -1 3 -7 6 -12zM364 -47c0 -13 -3 -19 -9 -19
c-11 0 -19 3 -26 8v42c0 8 13 13 24 13c8 0 11 -10 11 -44zM253 33c-1 -3 -4 -5 -7 -5h-19c-8 0 -12 2 -12 7c0 13 3 52 5 55c3 0 7 1 20 5c4 0 8 -2 13 -5v-57zM209 54c-1 0 -3 -5 -5 -14v-11c-2 -3 -26 -16 -30 -16c-8 0 -9 3 -9 37c-1 13 -2 22 -3 28c13 9 22 14 25 14
c5 0 10 -2 14 -5l2 -24c1 -1 3 -2 6 -2v-7zM255 -49c-15 -5 -24 -8 -27 -8c-2 1 -2 1 -5 2c-5 17 -8 30 -8 37c0 6 10 17 30 33c5 0 6 0 10 -64zM213 -52c-1 -3 -4 -5 -8 -9h-28c-6 0 -10 11 -11 33c-4 10 -5 14 -5 15c0 8 22 22 33 22c8 0 13 -11 16 -34l5 -8l-2 -14v-5z
M497 192v7h-3v-7h3zM180 30c-2 3 -4 4 -7 4c0 -2 1 -4 2 -7c3 2 4 3 5 3zM185 -24v13h-2v-13h2z" />
</svg>