<?xml version="1.0" encoding="iso-8859-1"?>
<!DOCTYPE svg PUBLIC "-//W3C//DTD SVG 1.1//EN" "http://www.w3.org/Graphics/SVG/1.1/DTD/svg11.dtd">
<svg width="100.0" height="100.0" version="1.1" xmlns="http://www.w3.org/2000/svg" xmlns:xlink="http://www.w3.org/1999/xlink">
<path fill="#00f0ff" transform="scale(.1,-.1) translate (0, -800)" glyph-name="V" unicode="V" horiz-adv-x="528" 
d="M520 350c-3 -2 -8 -5 -14 -10c-10 -13 -20 -20 -29 -23l-8 -12c-1 0 -3 1 -6 2c-10 -7 -13 -12 -19 -54c-1 -1 -4 -2 -7 -2c0 -4 0 -6 3 -15c0 -8 -13 -26 -24 -26l-8 4c-2 0 -21 -15 -57 -44c0 -2 0 -2 8 -18c0 -9 -3 -17 -8 -22c-12 -6 -19 -12 -21 -17
c-21 -63 -32 -99 -32 -110c0 -9 6 -16 19 -21c12 -20 12 -21 17 -52c0 -14 -2 -24 -5 -30c-6 -4 -13 -12 -20 -25c-22 -17 -40 -25 -51 -25c-17 0 -22 2 -56 14c-1 1 -3 6 -6 14l-17 25c-2 13 -1 29 11 67c15 11 16 12 29 17c0 7 -2 21 -8 56c-3 3 -4 6 -11 35l3 3
c5 -3 18 -41 30 -87c6 0 14 1 24 3c3 7 21 72 23 81c-2 2 -3 3 -21 4h-29c-6 0 -16 1 -23 3c-10 -2 -16 -3 -19 -3h2c-31 3 -32 3 -44 8l7 36c-1 -1 -3 -2 -6 -2c-5 0 -9 3 -13 8c0 15 0 15 -34 69c-1 -1 -2 -2 -3 -2c-8 0 -12 8 -12 24l3 5c0 1 -1 3 -3 5c4 12 4 30 4 52
c-7 4 -12 12 -12 17c0 2 1 4 2 6c-22 48 -26 56 -37 60v6c0 3 2 5 7 8c13 8 19 16 19 23c0 2 0 4 -1 6c4 2 7 3 9 3c5 0 7 -2 7 -6c0 -3 -2 -6 -6 -9l-5 -25c1 -1 2 -6 5 -17c1 0 17 -27 18 -31c2 0 10 16 10 25c0 16 -15 51 -18 51c0 5 2 7 6 7c2 0 6 -5 12 -14
c10 -20 21 -36 32 -47c-28 -31 -28 -32 -28 -35c0 -2 1 -4 2 -6c-1 -1 -3 -3 -6 -4v-70c2 -4 6 -10 12 -18c19 -54 20 -54 39 -54c1 3 2 7 2 11l6 2l4 -7c3 1 7 3 15 4c0 2 -2 4 -5 4h-2c-6 0 -8 0 -14 6v5c8 2 14 9 18 21c8 5 33 28 36 34h23l3 24v92c-1 8 -3 12 -4 12
c-28 -3 -45 -4 -53 -4c-44 1 -45 1 -62 8c6 31 14 183 14 185c-3 5 -4 6 -4 8c0 7 9 13 12 13h3c12 0 57 21 86 42v23c-6 3 -9 6 -9 11c0 13 7 23 17 23c8 0 12 -5 12 -14c-9 -22 -14 -36 -14 -40c0 -5 0 -6 39 -8l4 85c-6 9 -9 15 -9 18c0 13 9 27 18 27c11 0 12 -2 15 -17
l-2 -3c0 -9 -3 -13 -15 -25l-2 -85c3 0 9 1 18 3h21c0 25 0 26 -7 32c-3 3 -4 8 -4 15c0 12 4 18 12 18c10 0 15 -6 15 -18c0 -5 -1 -9 -4 -13c-5 -2 -7 -4 -7 -6v-27h96c4 -7 6 -15 6 -25l-6 -73l2 -53c0 -2 0 -2 4 -22c0 -5 0 -5 -32 -27c-33 -33 -38 -36 -54 -39
c-2 -3 -4 -5 -6 -5c-8 2 -10 2 -11 2l-28 -5c-5 -9 -5 -9 -5 -33l-4 -74c0 -10 0 -10 5 -25c7 -1 12 -2 16 -2l22 4l9 -3c0 -3 0 -3 7 -10v-29l2 -1c41 24 55 35 65 50c14 0 20 34 20 69l4 10c0 7 -3 18 -8 35c-2 1 -4 2 -6 5v7c19 3 38 26 53 49c3 1 5 2 7 2c3 0 5 -1 7 -4
c-18 -29 -28 -51 -28 -60c-2 -3 -3 -9 -4 -17l1 -8c20 7 30 37 30 67c1 5 5 7 10 7s6 -4 8 -39c2 -5 4 -13 6 -23zM415 597c-9 0 -48 -23 -53 -26v-5c31 13 34 14 53 31zM411 581h-4l-45 -23v-4c4 0 7 1 49 27zM403 568h-4c-11 -7 -24 -15 -37 -25c6 1 14 5 23 11zM406 553
c-2 2 -3 4 -3 6c-2 0 -12 -8 -31 -22c7 0 8 0 34 16zM401 542c-16 -5 -21 -9 -34 -20c10 0 10 0 34 20zM397 530c-8 -5 -20 -12 -35 -20v-6h4c31 20 31 20 31 26zM410 515v8c-6 -2 -47 -29 -47 -31c0 -1 0 -1 1 -2c11 7 26 16 46 25zM410 510c-7 -2 -49 -25 -49 -36
c39 23 42 25 49 36zM400 475h-4c-7 -4 -14 -10 -22 -18c9 5 17 11 26 18zM399 484v6c-33 -20 -36 -22 -38 -22c0 -3 -1 -10 -2 -19c6 3 10 6 13 8c-3 0 -5 1 -6 4c2 2 13 10 33 23zM505 393c-3 -5 -3 -6 -3 -37c-1 -2 -1 -3 -2 -4c-13 -3 -15 -4 -31 -27v-4
c29 5 36 21 36 72zM481 407h-4c-33 -36 -34 -38 -34 -43c0 -6 2 -13 5 -21c2 -1 4 -3 6 -6l4 13c0 1 0 2 -4 15c0 4 2 7 7 10c8 4 8 5 20 32zM402 463v4c-11 -6 -26 -15 -44 -28c0 -3 1 -5 2 -8c27 20 41 31 42 32zM400 446c-1 1 -1 2 -2 4c-29 -17 -43 -28 -43 -35
c0 -3 3 -6 9 -9c4 4 8 7 10 11l-13 -2c0 2 0 2 1 5c6 3 19 12 38 26zM446 297c-4 -9 -6 -14 -6 -17c0 -1 1 -2 2 -2c0 4 2 10 4 19zM441 274l-3 -4h2zM353 554v1c-1 2 -2 4 -4 6h-29c-3 -4 -6 -5 -8 -5l-3 2l-36 4h-26c-2 -2 -4 -2 -5 -2l-2 2h-98l2 -34l-10 -101v-50
c24 -5 28 -5 41 -5c4 0 71 4 94 4l75 12c-1 3 -2 4 -2 6c8 25 11 60 11 122v38zM287 361l-1 2l-7 -5l1 -2zM288 344v7c-2 -1 -4 -2 -5 -3v-4h5zM288 337c-3 -1 -7 -3 -11 -6v-8h6c3 3 5 8 5 14zM280 314h-4v-6zM395 212c-2 2 -4 3 -5 3c-6 0 -28 -17 -36 -30h4
c23 14 26 16 37 27zM283 280c-2 -2 -4 -3 -6 -4v-7c5 3 6 5 6 11zM272 224c0 5 -2 11 -7 16v78c1 1 6 31 6 32c0 7 -1 13 -4 19h-19v-22h2c-2 -3 -3 -11 -3 -26c6 -19 6 -20 6 -21c-3 -8 -3 -11 -3 -29l-2 -1v-35c-2 -10 -3 -16 -3 -19c0 -1 1 -2 2 -4h14c4 0 11 8 11 12z
M277 257c0 -2 1 -3 2 -3c1 3 1 3 2 4zM343 210c-3 -2 -6 -3 -9 -3s-4 1 -4 2c12 4 13 5 13 11c0 3 -1 5 -2 7c-7 -8 -18 -21 -32 -38c0 -1 -1 -3 -2 -6c8 1 10 2 36 27zM283 237v6c-1 -1 -2 -4 -2 -7c0 1 1 1 2 1zM314 175l-2 -3zM324 161l-9 6c-8 0 -12 -5 -12 -14
c1 -1 1 -1 2 -4c10 5 16 9 19 12zM348 145l-1 7c-9 -1 -20 -11 -33 -28c9 4 20 11 34 21zM334 156h-5c-24 -18 -26 -21 -26 -31zM122 340v8h-3c-7 -3 -14 -13 -15 -27c4 4 10 10 18 19zM295 145v8h-2v-8h2zM282 166l-8 2l-1 -8c3 0 6 -1 7 -2c0 4 1 7 2 8zM67 386
c-8 -5 -12 -10 -12 -16l4 -7c2 2 3 7 8 23zM333 130c-29 -25 -29 -26 -29 -31c25 22 27 24 29 31zM266 167c-1 1 -2 2 -4 2l1 -8c0 3 1 5 3 6zM279 145v7c-1 1 -3 1 -6 2l-1 -6c3 -2 6 -3 7 -3zM86 320c0 6 -2 10 -26 44c14 -36 19 -43 26 -44zM265 154l-5 1
c0 -3 -1 -5 -2 -7c1 -1 3 -1 6 -2zM286 113h1l-2 25v-26zM255 168h-21v-10l11 3h8zM251 145v10c-3 0 -6 -1 -8 -3v-7h8zM273 112v22c-2 -6 -3 -10 -3 -11zM264 121v19h-6v-20zM294 98c-3 3 -5 4 -6 4s-5 -1 -7 -2l-1 -5c4 0 9 1 14 3zM226 164h-6l-2 -7h8v7zM213 174
c-1 0 -3 1 -6 2c-2 -1 -3 -3 -4 -6l6 -1c1 3 3 5 4 5zM251 121v18h-8v-18h8zM274 104v-1l-4 1v-5c1 1 2 2 4 5zM261 112v2h-4v-2h4zM305 77l-1 2h-16c0 -3 -1 -7 -2 -11h4c4 0 9 3 15 9zM225 152c-5 -1 -8 -5 -10 -12h8c1 3 2 7 2 12zM195 169c0 3 -1 5 -4 6v-6h4zM211 154
l-1 9c-2 0 -5 -1 -8 -2v-7h9zM238 137v-1l-8 1v-15h5c0 7 1 12 3 15zM101 286l-5 1c-1 0 -3 -36 -3 -37c0 -4 1 -8 4 -12h4v48zM262 101l-3 3c-2 -2 -3 -3 -3 -4zM248 111v4h-7v-4h7zM303 58v6c-3 -1 -6 -3 -9 -6h-5c-2 3 -3 6 -3 7c-1 -2 -2 -5 -5 -10l4 -2c4 1 10 2 18 5z
M211 148v-1l-4 1c-4 -3 -6 -5 -6 -9l7 -1c0 1 1 4 3 10zM195 161l-5 1l-1 -11h5zM224 124v9l-7 2c0 -1 -1 -1 -3 -2v-12c4 0 7 1 10 3zM235 110v6h-6v-6h6zM248 98v3h-8v-3h8zM296 46h-3v-2zM183 158c-1 1 -3 3 -6 5l-1 -10c1 -1 3 -2 4 -2c2 3 3 5 3 7zM195 141v4
c-3 -1 -5 -2 -8 -4h8zM209 125v7h-8v-12h5c2 1 3 3 3 5zM224 112c0 1 -1 1 -1 4h-10v-11c7 1 11 3 11 7zM296 35l-3 -3zM182 143h-5l4 -2zM292 44h-12c-1 -5 -3 -11 -6 -20c3 1 8 3 14 6c-3 1 -5 2 -6 3v5c3 1 6 3 10 6zM194 125v7c0 1 -1 1 -6 1c-1 -4 -2 -8 -2 -12h5
c1 0 2 2 3 4zM206 114h-5l-1 -6c0 -3 1 -4 4 -4c0 3 1 7 2 10zM169 143v2h-4v-2h4zM223 92v2h-10v-2h10zM182 133c-3 2 -6 2 -7 2c-1 -3 -2 -5 -2 -8zM132 163l-19 41c-1 1 -2 1 -4 2c-1 -1 -2 -2 -2 -3c0 -2 8 -15 25 -40zM291 21c-4 -2 -10 -5 -18 -8l6 -2c4 3 8 6 12 10z
M191 105v8h-6v-8h6zM179 117c-1 2 -4 3 -7 5c-2 -7 -3 -12 -3 -15s1 -5 3 -8c0 6 1 7 7 7v11zM168 133h-5l-4 -36zM177 98v2h-4v-2h4zM220 -110v6h-2v-6h2zM340 488c-9 -12 -17 -18 -24 -18c-13 0 -35 9 -35 25c0 9 2 18 6 25l22 15c19 0 31 -19 31 -47zM210 507
c0 -12 -14 -24 -29 -24c-14 0 -29 10 -29 23c0 20 8 33 17 33l17 -2c16 0 24 -10 24 -30zM334 393c-2 -1 -6 -3 -9 -7c-92 3 -92 3 -115 5c-1 0 -7 0 -33 -4c-4 1 -17 4 -17 8c0 17 4 27 11 27c20 -4 20 -4 22 -4l69 2l53 -3c10 2 10 2 11 2c3 0 4 -2 5 -6z" />
</svg>