<?xml version="1.0" encoding="iso-8859-1"?>
<!DOCTYPE svg PUBLIC "-//W3C//DTD SVG 1.1//EN" "http://www.w3.org/Graphics/SVG/1.1/DTD/svg11.dtd">
<svg width="100.0" height="100.0" version="1.1" xmlns="http://www.w3.org/2000/svg" xmlns:xlink="http://www.w3.org/1999/xlink">
<path fill="#00f0ff" transform="scale(.1,-.1) translate (0, -800)" glyph-name="W" unicode="W" horiz-adv-x="1520" 
d="M1503 449c0 -27 -28 -54 -56 -54c-11 0 -25 5 -41 14c-3 -1 -7 -6 -10 -14c-5 0 -12 1 -17 3c-12 0 -24 -4 -37 -11c0 -62 0 -63 -14 -89c0 -34 -31 -90 -66 -112c-14 -9 -78 -43 -87 -37l-3 2c-137 -78 -139 -79 -249 -93c-21 -4 -38 -10 -53 -18c3 -21 12 -37 28 -48
c14 -9 21 -22 21 -37c0 -20 -24 -43 -51 -43c-11 0 -25 8 -42 25v45c2 2 6 6 6 8c0 1 -2 2 -6 4c-1 10 -4 20 -9 30c-26 -7 -96 -11 -166 -11c-75 0 -120 -3 -134 -8s-34 -7 -60 -7c-105 13 -127 16 -178 81c-9 11 -15 17 -18 17c-13 0 -25 -4 -38 -12
c-15 -35 -23 -46 -65 -46c-35 0 -52 16 -52 48c0 36 32 62 66 62c6 -1 24 -5 28 -6c7 0 29 12 66 36c0 24 0 31 26 52c0 37 8 53 39 79c28 56 211 160 246 160l6 -2c1 0 17 6 61 23c3 -2 5 -3 7 -3l70 20c9 0 17 -4 25 -12c0 33 -2 49 -9 73c-17 12 -18 15 -22 44
c0 30 22 59 46 59c27 0 58 -27 58 -51c0 -42 -2 -46 -15 -69c3 -10 3 -16 3 -25c5 -3 13 -5 23 -5c5 0 106 20 120 26c9 -2 15 -3 18 -3c28 0 29 0 68 14c34 -5 49 -7 54 -7c99 -5 126 -15 206 -100v-6c0 -1 2 -2 5 -4c29 6 58 14 87 23c7 23 46 49 63 49c7 0 52 -32 52 -64
zM1482 454c0 11 -25 30 -38 30c-14 0 -22 -37 -22 -42c13 -27 14 -27 30 -27c11 0 30 25 30 39zM1195 507l-11 4v-5l10 -3zM796 591v27c0 14 -16 30 -30 30c-19 0 -28 -10 -28 -31s25 -30 42 -30c8 0 13 1 16 4zM1066 326c0 15 -12 31 -23 31c-15 0 -23 -9 -23 -28
c0 -12 5 -21 16 -26c27 12 30 14 30 23zM1160 170v5h-10v-5h10zM1180 351c-21 -5 -51 -14 -90 -27c-25 -27 -40 -38 -56 -38c-17 0 -34 24 -34 46c0 24 30 51 53 51c12 -7 19 -11 20 -11c14 0 37 7 68 21c-19 8 -60 11 -123 11c-37 0 -38 0 -58 5c-41 0 -64 -5 -121 -23
c0 -2 1 -19 4 -67c9 -7 13 -12 13 -16c0 -2 0 -2 -14 -22c1 -3 3 -6 19 -29c0 -7 2 -17 5 -30c43 11 101 28 172 50c17 9 40 21 70 36c72 24 72 24 72 43zM1056 116c-5 -1 -12 -5 -19 -11h11zM1035 104l-2 4l-7 -3v-4zM1206 471c-5 1 -12 2 -20 5c-25 17 -55 28 -91 31
l-295 -43c-51 -7 -109 -17 -175 -30c-20 -16 -21 -16 -52 -23c-7 -5 -9 -6 -11 -8l-8 3c-14 0 -89 -39 -128 -70c-7 -6 -93 -91 -93 -121c0 -24 10 -38 31 -41c26 41 27 41 92 69c9 12 10 13 149 88c16 8 69 27 159 56l2 18c4 3 10 4 18 5c9 18 11 19 26 19
c10 0 17 -2 20 -5c1 -5 5 -11 10 -18c67 18 112 27 133 27c20 -5 24 -6 25 -6h34c96 3 134 -3 158 -23c19 0 30 -6 35 -18c8 8 9 10 13 40zM830 299c-12 4 -22 6 -31 6c5 -11 11 -17 16 -19c3 1 8 6 15 13zM1015 102c-8 -3 -14 -7 -18 -11h14zM1299 370c0 41 -5 48 -28 59
c-17 -51 -18 -51 -57 -87c-30 -26 -33 -28 -116 -55c-46 -34 -72 -44 -255 -86c-3 -2 -12 -8 -14 -10c-5 0 -20 2 -46 5l-267 -45l-111 -3c-42 0 -86 18 -94 39c-1 7 -2 17 -5 30c-11 -28 -16 -46 -16 -55c0 -71 86 -118 220 -118c3 0 49 7 136 22c30 0 46 0 158 25
c0 5 -3 15 -7 32c3 8 50 30 62 30c8 0 12 -5 12 -14c-5 -21 -7 -28 -7 -30c1 -3 3 -6 7 -10c102 0 318 93 383 161c0 5 1 10 2 15c41 54 43 58 43 95zM807 214v16c-6 12 -11 22 -11 24s1 3 8 14c-13 3 -22 14 -28 34c0 24 -1 27 -10 64c-111 -36 -199 -73 -265 -110
c-4 -2 -6 -6 -6 -13c20 10 21 10 35 11c16 0 32 -2 48 -7c3 -5 5 -10 5 -15c0 -22 -8 -32 -34 -58h21zM813 48v19h-11c0 -9 -2 -15 -6 -19h17zM896 -62v34c-9 4 -14 6 -15 6c-14 0 -37 -24 -39 -36c9 -7 19 -10 29 -10c3 0 12 2 25 6zM563 218c0 11 -7 16 -21 16
c-3 0 -4 0 -13 -4c6 -12 9 -23 9 -33c5 1 25 14 25 21zM529 173c-16 10 -27 15 -33 15c-13 0 -26 -6 -39 -19c31 0 55 1 72 4zM259 145l-2 4l-7 -4v-4zM201 71v16c-5 1 -10 7 -15 16l-34 13c-19 0 -28 -11 -28 -33c0 -18 12 -27 37 -27c15 0 28 5 40 15z" />
</svg>