<?xml version="1.0" encoding="iso-8859-1"?>
<!DOCTYPE svg PUBLIC "-//W3C//DTD SVG 1.1//EN" "http://www.w3.org/Graphics/SVG/1.1/DTD/svg11.dtd">
<svg width="100.0" height="100.0" version="1.1" xmlns="http://www.w3.org/2000/svg" xmlns:xlink="http://www.w3.org/1999/xlink">
<path fill="#00f0ff" transform="scale(.1,-.1) translate (0, -800)" glyph-name="a" unicode="a" horiz-adv-x="743" 
d="M742 374c-47 -65 -60 -87 -60 -121c0 -17 7 -35 20 -56l-10 -22c-46 -51 -52 -58 -54 -67c-6 -20 -13 -30 -20 -30l-15 5c-1 4 -6 11 -14 23h-4c-3 0 -4 2 -4 6s2 6 5 6c4 -1 7 -2 8 -5l15 14h-7l-40 71l-9 -12c3 -3 6 -10 7 -20c0 -2 -1 -4 -2 -5c5 -9 13 -21 25 -36v-6
h-8l-21 34c-13 -7 -36 -16 -69 -29l-46 -14c3 -9 8 -15 15 -17l7 -25c0 -26 -13 -42 -39 -48c7 -37 18 -92 31 -165c7 -5 12 -12 13 -22l-2 -9l-10 -8h-4l-14 15l1 7l11 11c-4 42 -29 168 -36 170c-42 0 -50 11 -61 54l7 17l11 7c-29 0 -39 1 -54 5l-6 6l-60 10l-7 -4
c-4 -18 -5 -24 -5 -68l-1 -11l7 -19l-10 -14c-20 0 -50 -20 -90 -61l-29 13c0 28 0 29 -49 101l-41 15l-5 -1l-9 3c0 6 2 9 5 10c1 26 4 65 8 118l7 4c3 0 4 -4 4 -11c0 -18 4 -50 12 -97c7 -3 16 -7 28 -14l7 20l-1 26c-17 27 -31 48 -44 63l6 7l72 -63
c-1 -25 -4 -45 -10 -58c30 -82 30 -83 35 -90c15 10 32 25 53 44h2c10 0 11 13 11 94l9 21l1 -4l4 32c9 7 20 18 31 31c11 4 22 6 32 6c13 0 26 -3 37 -10c1 3 2 6 3 10c-26 28 -93 124 -95 136c2 7 5 12 9 13c-46 25 -69 63 -69 112c0 18 7 37 22 56l-8 12l12 20
c-3 2 -4 4 -4 23l-14 19l6 16c-3 6 -8 16 -13 30l7 16c-3 39 -4 40 -9 44l13 13l5 -1v-22l-4 -2l3 -19l5 2l6 -7l-9 -9h-3c5 0 16 -8 16 -13c0 -3 0 -3 -21 -3l6 -10l13 4c5 0 6 -3 6 -12c0 -1 -5 -2 -14 -2l-2 -3c0 -2 4 -4 12 -5h3l10 -8l-1 -6c-2 -1 -5 -2 -7 -2
c-1 0 -4 0 -15 3l-4 -4c0 -2 0 -3 9 -3c6 0 9 -11 9 -35l21 -15c10 2 42 10 48 12c15 0 38 4 68 11c31 7 54 11 69 11c22 0 41 -5 57 -16l5 1l6 11c5 1 8 3 8 5l-2 7c-17 16 -18 19 -18 22l3 17c-4 8 -6 17 -6 26c0 4 8 45 11 61c0 9 -5 22 -14 38l9 10l12 -16l-4 -12l4 -24
c8 -1 12 -3 12 -5l-12 -12l-3 1l-5 -3c20 -2 22 -3 22 -5s-1 -4 -2 -5l-17 -7l-1 -4c0 -2 1 -3 3 -3s5 1 8 2l9 -9c-21 -4 -21 -5 -21 -13l4 -3l11 5c7 0 11 -3 11 -8c0 -1 -1 -3 -2 -4l-21 -6c0 -1 0 -2 24 -9v-3l-12 -8l-9 1l-5 -3c0 -1 1 -2 2 -2c5 0 7 1 7 3l12 -12
l-6 -7l2 -12c9 -8 13 -15 14 -20l-15 -19c12 -6 21 -31 27 -75c-3 -53 -10 -72 -29 -83v-20l5 -3l-56 -118l4 -5c20 7 50 16 60 19c11 -5 20 -8 23 -9c2 0 4 1 5 2l15 -6c13 -25 35 -62 65 -111h4c2 0 5 -1 8 -3c30 38 42 58 46 78c-3 2 -6 14 -8 37s-5 37 -10 42l1 12
c-15 16 -29 32 -44 49c42 80 45 86 47 86l6 -7c-2 -4 -6 -27 -14 -65l27 -26l28 45c-15 30 -23 45 -24 46l6 8l23 -19c0 -2 13 -16 38 -43zM727 372l-34 41c0 -6 7 -18 21 -37c-25 -18 -25 -19 -37 -50c5 -3 8 -5 9 -5c8 0 41 41 41 51zM497 564c-7 5 -9 6 -11 8
c-1 0 -3 -1 -6 -2v-5l-4 -6c0 -3 2 -5 5 -5c7 0 13 3 16 10zM663 326c-6 12 -14 21 -23 26c-7 0 -11 3 -11 8l11 21l3 21c-21 -39 -23 -46 -24 -53c7 -8 18 -20 33 -35c0 8 3 11 11 12zM657 294l-2 2zM683 219h-1l-4 25v32c-3 3 -6 5 -9 5l-6 -1c0 -3 -1 -6 -3 -7
c0 -18 1 -26 8 -61c3 1 8 3 15 7zM462 459c0 22 -20 67 -37 67c-5 0 -13 -3 -25 -10l-1 -3l-20 -10c-8 -5 -12 -11 -13 -17c-3 -3 -5 -9 -5 -15c0 -19 15 -50 39 -50c27 0 46 9 57 27zM482 373c0 2 -3 4 -6 7h-5c0 -2 -1 -3 -4 -10c0 -5 2 -7 6 -7c6 0 9 3 9 10zM506 458
c0 68 -31 102 -92 102c-31 0 -121 -11 -138 -19l-7 2c-28 0 -85 -33 -85 -62l-3 -1l-3 -22c0 -4 1 -13 3 -26l3 -2l1 -5l34 -46c15 -15 32 -18 69 -18v9c-67 0 -92 28 -102 94c0 33 6 36 72 70l6 -3c62 9 104 15 116 17c63 0 99 -17 107 -50c1 -9 2 -23 5 -41
c-4 -50 -13 -58 -64 -70l1 -6c54 0 77 22 77 77zM679 168v4c-8 5 -13 7 -14 7c-6 0 -19 -19 -40 -56c1 -1 4 -3 7 -5c19 17 34 33 47 50zM483 454c0 57 -7 65 -44 77c22 -25 33 -47 33 -66c0 -31 -32 -55 -72 -55c-17 0 -25 8 -46 39v27l-1 4c0 7 28 53 68 55
c-2 3 -17 4 -45 4c-23 -4 -79 -11 -85 -11c-53 0 -96 -30 -96 -69c10 -52 32 -79 75 -79c46 0 178 13 189 23c16 13 24 30 24 51zM482 358c-3 -1 -6 -2 -10 -5c-3 -8 -6 -18 -11 -29c-27 -44 -30 -57 -31 -69l3 -1c25 43 49 94 49 104zM210 542v8c-3 2 -5 3 -7 3
c-8 0 -12 -4 -12 -13c0 -3 2 -6 5 -8c2 3 7 6 14 10zM463 357l-5 19l-28 -7c2 -4 3 -9 3 -15c0 -16 -1 -17 -46 -27c0 -38 1 -63 4 -76l25 1c30 56 45 89 45 100c1 1 2 3 2 5zM423 354c0 2 -1 4 -2 6c-26 0 -27 0 -88 -13c-2 0 -4 1 -8 3c-7 -2 -11 -3 -13 -3
c-6 2 -8 2 -9 2c-3 0 -5 -3 -5 -9c0 -7 5 -11 14 -11c21 0 21 0 56 10l9 -1c28 0 46 8 46 16zM512 173v4c-10 7 -15 20 -15 37c0 3 -1 6 -2 7c-5 -2 -8 -9 -8 -20s10 -34 16 -34c2 0 5 2 9 6zM490 169c-6 7 -7 9 -10 32l2 1v15h-4c-5 -7 -7 -14 -7 -20c0 -27 2 -36 10 -36
c2 1 5 3 9 8zM382 247v67c0 3 -1 9 -4 16h-8l-1 -7c0 -32 0 -52 4 -59v-5l3 -12h6zM496 162c0 2 -2 3 -4 5v-5h4zM476 156c-10 7 -11 11 -11 54c-2 -1 -5 -3 -10 -5c-6 -25 -6 -26 -6 -29c0 -15 3 -22 10 -22c5 3 6 4 9 4c0 -2 0 -3 -2 -5h7zM454 148c-6 1 -12 25 -12 29
l3 22h-4c-1 -1 -3 -3 -6 -5l-1 -10c5 -33 6 -35 7 -36h5v-3zM366 243v26l-2 3c-1 20 -3 38 -6 55c-15 -6 -33 -9 -55 -9c-9 0 -14 8 -14 25l3 6l-2 5l-28 -1v-15c0 -3 2 -5 5 -7c0 -13 60 -104 69 -104zM255 348c0 2 -1 4 -2 6c-3 0 -8 2 -11 3c-4 0 -6 -3 -6 -8
c0 -9 3 -13 10 -13c6 0 9 4 9 12zM306 248c-9 13 -21 32 -38 58c0 5 0 6 -13 26l-6 -6c29 -45 48 -71 57 -78zM326 221c-3 3 -7 8 -11 16v-6c0 -1 3 -6 10 -13zM436 140l-8 50h-5l-3 -3l3 -32h6c0 -3 -1 -6 -7 -14c-4 6 -7 20 -10 43h-5v-18c0 -4 1 -11 4 -20l3 -2v-4
c0 -5 -2 -8 -5 -8c-2 0 -5 16 -10 47c-3 -1 -5 -6 -5 -14c0 -7 2 -17 7 -28c0 -4 -2 -6 -7 -6l-2 1c-5 16 -5 24 -5 43h-8c-2 -3 -3 -6 -3 -9l1 -24c3 -2 4 -3 4 -4c0 -6 -2 -9 -7 -9s-5 0 -6 43l-9 -1l-1 -29c3 -1 4 -3 4 -4c0 -7 -2 -11 -7 -12l-3 2v41h-9v-31
c3 -3 4 -5 4 -6s-1 -3 -3 -5c7 -3 12 -4 15 -4c43 0 47 1 77 17zM336 168h-7v-26c1 0 2 -4 5 -14zM324 155c0 7 -1 11 -4 14h-3c0 -6 -1 -16 -3 -31c-1 -1 -3 -3 -6 -4c3 -3 5 -4 8 -4h7zM310 158c0 13 -3 16 -16 16l3 -32v-7c2 0 4 -1 7 -2c0 7 0 7 6 25zM290 152
c0 10 -3 18 -8 25h-7c3 -10 5 -17 5 -20c-2 -5 -3 -12 -3 -16c9 -1 9 -1 11 -2c2 6 2 11 2 13zM236 116c-4 4 -10 10 -19 18l-2 -2c-3 -15 -5 -27 -5 -35v-48c0 -1 2 -3 5 -6c2 2 7 3 12 5c-3 4 -4 7 -4 9c2 4 6 25 13 59zM60 174c2 -8 14 -25 36 -52c-6 -6 -9 -11 -9 -15
c0 -9 1 -19 3 -29c1 -1 3 -1 6 -2c2 6 10 36 10 37c0 21 -4 28 -46 61zM210 8c-6 7 -6 8 -6 20c-11 -11 -17 -15 -23 -15c-7 -3 -19 -13 -38 -30c3 -2 5 -3 16 -20c13 15 14 15 51 41v4zM72 73c-37 15 -37 15 -37 18v45c0 4 -2 14 -5 29l-1 -60l-4 -2l-2 -26c7 0 7 0 37 -10
c4 0 8 2 12 6zM132 -15c-6 3 -12 11 -31 50h-12l-1 -2c4 -10 11 -22 21 -38c0 -5 5 -15 10 -21c1 7 5 11 13 11zM452 463c0 -23 -17 -35 -50 -35c-15 0 -25 8 -29 23l-2 1c-3 7 -4 13 -4 16c0 21 23 40 43 44c3 3 6 5 10 5c14 0 32 -28 32 -54zM333 453
c0 -23 -31 -45 -60 -45c-13 0 -27 10 -42 29c-1 -1 -2 -2 -4 -2c-3 0 -8 18 -8 21c0 43 25 60 84 60c15 -7 30 -38 30 -63zM317 472c0 16 -1 18 -17 34c-54 0 -70 -8 -70 -65c2 2 4 3 6 3s5 -3 11 -7c-3 5 -6 9 -11 12c0 19 14 47 44 47l11 3c7 0 9 -3 26 -27zM299 448
l-3 -2l2 -1zM322 453c0 3 -1 5 -4 8c-7 -21 -25 -36 -39 -36c-8 0 -17 2 -27 5c8 -8 16 -12 24 -12c24 0 46 16 46 35z" />
</svg>