<?xml version="1.0" encoding="iso-8859-1"?>
<!DOCTYPE svg PUBLIC "-//W3C//DTD SVG 1.1//EN" "http://www.w3.org/Graphics/SVG/1.1/DTD/svg11.dtd">
<svg width="100.0" height="100.0" version="1.1" xmlns="http://www.w3.org/2000/svg" xmlns:xlink="http://www.w3.org/1999/xlink">
<path fill="#00f0ff" transform="scale(.1,-.1) translate (0, -800)" glyph-name="b" unicode="b" horiz-adv-x="890" 
d="M886 392c-3 -23 -11 -30 -26 -34l-24 -25c24 -21 36 -40 36 -56l-4 -35c-42 -46 -43 -47 -82 -47l-2 -4c0 -5 0 -6 11 -55l-4 -21c-35 -35 -65 -53 -91 -53l-41 7l-29 40l8 26l-14 14h-13l2 -11c-11 -18 -31 -95 -31 -128c-37 -61 -38 -62 -68 -62h-27l-6 -40
c-11 -13 -25 -20 -42 -20c-29 0 -43 10 -43 30c0 9 1 20 3 39l-4 5c-53 9 -53 27 -53 59l23 153v12l-27 19c-3 -4 -7 -6 -11 -6c-2 0 -4 1 -6 2c-27 -32 -78 -51 -82 -51c-46 0 -82 29 -82 66c0 5 1 9 2 14l-5 6l-44 -27h-20l-44 11c-7 14 -19 31 -34 50c0 21 -3 39 -8 53
c6 13 7 22 7 33l68 59c-14 11 -21 32 -21 62c0 31 130 99 177 99c23 0 43 -12 60 -36v-7l-5 -4l-20 4l-19 -5c13 -15 26 -23 41 -25l5 -9c-7 -2 -9 -5 -9 -23c-58 3 -65 4 -87 11l-19 -8l-22 7l-1 4l-17 6c-11 0 -21 -9 -28 -28l8 -13l24 -6l20 -20l1 -9
c0 -7 -2 -8 -108 -69l-8 -30c0 -1 0 -4 9 -28l23 -21c18 -2 33 0 50 13l4 -1c40 45 70 67 89 67l29 -7l13 -25c-12 -13 -31 -30 -58 -52l-8 -25c5 -9 9 -15 10 -20l24 -13c11 3 22 9 31 16l1 11c10 14 28 27 54 39l25 -14c6 5 16 8 29 11c6 40 11 51 78 51l9 18l-55 7
c-2 6 -5 9 -8 9l-5 18c8 15 9 20 9 44h-23l-15 6l-3 -2c-34 12 -60 45 -60 76c0 70 30 95 111 102c38 3 61 7 70 11c18 -9 35 -10 52 -8c2 29 8 68 17 117l-10 25l18 31l14 -10l3 -23c0 -12 -6 -34 -18 -66c-11 -31 -17 -55 -17 -72c101 -4 165 -44 194 -120
c-4 -39 -49 -76 -104 -85c-4 -6 -6 -12 -6 -19c0 -5 1 -11 3 -17l-29 -33h-42v-5c30 0 69 -22 72 -37l5 -4c0 -24 0 -28 -6 -43l25 -11c3 -8 10 -15 19 -20c10 -14 12 -26 14 -56c0 -9 -1 -18 -3 -25l19 -11c24 0 36 13 36 39c-22 41 -25 47 -25 54c0 21 16 38 38 39l7 4
c6 -5 14 -8 25 -8c21 0 39 15 39 32l-32 20c-12 0 -17 4 -24 25c3 19 16 39 37 62v4l-7 -2c-40 28 -44 32 -44 49l10 27c21 -5 37 -13 48 -24l4 1c-1 10 -7 19 -18 26c-12 0 -16 2 -16 10l3 9l39 5c32 0 48 -24 48 -71zM568 746c0 5 -3 9 -8 12c-5 -3 -7 -8 -7 -13
c0 -9 5 -10 12 -10c2 2 3 6 3 11zM858 436c-3 4 -9 11 -9 12c0 17 -14 21 -32 21c-1 -1 -2 -2 -2 -3c14 -25 17 -29 20 -46h12c9 0 11 0 11 16zM691 540l-2 4l-2 -1zM818 411l-27 22c-3 1 -3 1 -9 1v-7c16 -24 20 -29 29 -30zM836 364l-20 1v-6c0 -6 2 -9 7 -9
c2 0 8 5 13 10v4zM602 574v3h-4v-3h4zM598 577c-8 5 -15 7 -22 7c-1 -1 -2 -2 -5 -2l16 -5h11zM821 338l-18 12c-1 -1 -2 -1 -4 -2c4 -9 10 -13 18 -13c3 0 4 1 4 3zM570 583l-6 2v-3l5 -1zM830 304l-2 3c-3 0 -6 -1 -7 -3h9zM818 318v5c-5 2 -22 11 -31 16
c-1 -4 -3 -11 -4 -21c1 2 3 4 6 7c14 -7 19 -7 22 -9c3 0 6 1 7 2zM855 262c-3 3 -7 5 -12 7c4 -6 8 -9 11 -10zM850 249c-5 3 -10 6 -16 8l-2 -8c2 -7 5 -10 10 -10h7zM844 230l-22 13c-3 0 -7 -2 -13 -6v-6c10 -12 13 -16 18 -16c4 0 10 5 17 15zM481 591
c-14 3 -25 4 -34 4c-5 0 -7 -1 -7 -4c4 -2 9 -3 14 -3c15 0 24 1 27 3zM659 421l-6 2c-11 0 -25 -3 -43 -10c3 -3 5 -4 7 -4c11 0 23 2 36 7c1 2 3 4 6 5zM694 483c0 5 -8 45 -13 48c-41 31 -122 47 -245 47c-9 0 -34 -10 -74 -30l3 -11c-10 -10 -15 -22 -15 -37
c0 -18 9 -27 40 -57l83 -12c35 -5 63 -8 84 -8c28 0 67 6 118 17v10c13 9 19 20 19 33zM813 213c-4 4 -11 9 -21 16c2 -13 6 -20 12 -20c3 0 5 2 9 4zM432 591h-8l6 -2zM619 396h-4v-4zM787 211c-3 15 -15 23 -34 23c-5 0 -10 -3 -14 -9c6 -1 13 -3 35 -19l11 2c0 1 1 2 2 3
zM399 580l-8 3c-3 -1 -7 -4 -12 -8c7 1 13 3 20 5zM765 186v13c-11 9 -18 13 -21 13h-11l-2 -10c1 -4 3 -7 5 -8h8c5 0 12 -3 21 -8zM771 165c-8 7 -14 13 -19 16h-5c1 -10 5 -15 10 -15zM520 412v2h-10v-2h10zM782 132c0 14 -10 20 -23 20l-2 -4c18 -13 21 -16 21 -24z
M508 414c-3 1 -20 4 -51 7c23 -6 36 -9 38 -9c3 0 8 1 13 2zM777 124c-1 -1 -2 -2 -3 -2l-14 10c-3 0 -7 -2 -12 -7c5 -5 12 -11 21 -18c7 3 8 9 8 17zM377 575c-51 -33 -51 -33 -57 -87c4 3 6 12 6 27c0 17 10 29 51 60zM618 368c-13 0 -43 2 -106 7c-10 -2 -17 -3 -21 -3
c-27 0 -33 0 -64 6c-6 0 -11 -2 -14 -5c0 -20 0 -20 67 -25c11 -3 19 -4 26 -4l87 -3c9 0 17 9 25 27zM756 96c-3 10 -7 15 -12 15h-8c4 -8 7 -14 8 -19c2 1 6 2 12 4zM665 194c-1 -4 -2 -10 -5 -17c5 -3 7 -7 7 -10c0 -16 -5 -25 -16 -28v-12l5 -2c0 1 1 2 5 3
c9 14 14 24 14 31c0 15 -3 26 -10 35zM656 167c-3 -2 -7 -6 -12 -11c3 -3 5 -4 8 -4l4 7v8zM732 82v15c-3 3 -5 5 -7 5h-9c0 -5 -1 -7 -8 -24l9 -2c0 1 5 3 15 6zM378 433c-5 2 -11 4 -18 6c0 2 -2 3 -4 5c-15 7 -16 8 -28 22c-3 0 -5 -1 -5 -4c12 -15 36 -31 45 -31
c5 0 8 1 10 2zM588 300c-7 5 -17 7 -29 7c0 -21 -46 -34 -53 -34c-1 0 -2 0 -8 5c-1 -2 -1 -2 -2 -2c-22 0 -35 10 -40 31h-33l2 -5v-7c6 -10 12 -13 40 -23l14 -9c3 2 3 2 7 5c17 -4 21 -5 25 -5c1 0 4 1 11 5c3 -4 3 -4 4 -5c44 10 45 11 62 37zM701 97l-10 2
c-6 -11 -12 -18 -19 -19c5 0 10 -2 17 -4c8 8 10 13 12 21zM680 104l-10 15c-8 -4 -12 -5 -26 -5v-12c0 -8 3 -12 10 -12c17 0 26 5 26 14zM269 550c-13 10 -14 11 -33 14c-14 0 -37 -12 -37 -20c13 -20 14 -22 14 -31l-1 -23c9 -2 16 -3 20 -3c11 4 12 4 14 4l15 2
c-5 10 -13 18 -25 25c-10 3 -15 7 -15 13c0 4 0 5 48 19zM128 520h-6c0 -3 2 -7 6 -13v13zM118 500c-2 11 -5 17 -9 19c-2 -1 -3 -3 -3 -5c0 -4 4 -9 12 -14zM109 489c-3 7 -7 15 -14 24c-3 -3 -5 -6 -7 -11c3 -4 9 -10 18 -17zM610 199c-10 29 -21 43 -32 43
c-15 0 -29 -3 -40 -10c-3 2 -6 4 -9 5c-4 0 -13 -9 -27 -28h-4c-9 15 -21 26 -34 35v5c-9 1 -24 4 -43 8c0 -4 0 -5 -21 -16c-3 -5 -8 -11 -17 -20l-10 -66l5 1c25 -30 33 -38 50 -39c2 -2 3 -6 4 -9c-76 -46 -78 -47 -78 -93c0 -35 14 -38 144 -54c34 0 37 1 61 19l11 39
c0 29 -14 45 -56 78c11 16 21 24 32 24c4 0 8 -1 11 -2c19 7 33 13 42 18c1 15 5 36 11 62zM337 243c0 5 -9 14 -14 14l-6 -3c4 -3 10 -8 18 -15c1 1 2 3 2 4zM103 473c-10 11 -18 18 -24 23c-3 -5 -4 -9 -4 -11c0 -6 13 -15 21 -15c3 0 5 1 7 3zM330 225c0 7 -5 12 -16 17
c2 -6 4 -14 7 -25h7c2 5 2 7 2 8zM105 453c0 1 0 1 -2 7c-7 0 -8 0 -27 6c-1 -1 -2 -2 -2 -3c0 -9 14 -17 23 -17c5 0 8 2 8 7zM123 433l-14 6c-1 -1 -6 -3 -15 -6c3 -2 7 -3 10 -3s9 1 19 3zM257 317c0 7 -8 13 -25 16v-11c0 1 2 2 4 2c3 0 4 -1 5 -4
c-5 -18 -11 -21 -29 -24c-9 -1 -13 -2 -13 -5c0 -6 4 -9 13 -9l-1 3l5 1c0 -1 1 -1 2 -1c11 0 39 22 39 32zM219 331c-5 -1 -12 -3 -21 -7c1 -3 2 -6 2 -12c19 10 19 10 19 19zM134 399c-1 1 -2 3 -2 7c-17 3 -17 3 -22 3c2 -8 8 -12 17 -12c3 0 6 1 7 2zM308 230
c-3 5 -8 8 -13 10c-5 -5 -7 -8 -7 -11c0 -1 0 -1 11 -23c2 2 4 3 6 3l-1 16c1 1 3 3 4 5zM375 141v9h-3v-9h3zM108 392c-1 4 -4 10 -7 17h-5c-2 -6 -2 -6 -2 -7c0 -7 2 -10 7 -10h7zM187 316c-3 -3 -7 -7 -11 -12c3 -2 5 -3 8 -3c2 6 3 11 3 15zM289 196c-2 1 -5 3 -8 6v6
c2 1 4 3 6 6c-2 0 -4 1 -6 3c-2 -3 -5 -7 -10 -12c2 -4 7 -9 13 -16c0 2 2 4 5 7zM89 386c-1 3 -3 7 -8 14c-3 -1 -7 -4 -12 -7c2 -7 4 -11 7 -13c7 2 11 4 13 6zM201 272c-5 3 -8 4 -9 4c-5 -8 -5 -9 -5 -10c0 -2 2 -5 7 -9c2 3 4 8 7 15zM175 289l-6 5c-3 0 -4 -2 -5 -7
c4 -4 7 -6 9 -6zM274 184c-6 9 -11 14 -16 14s-7 -2 -7 -7c3 -1 3 -2 8 -21c10 3 15 7 15 14zM68 373c-3 4 -6 10 -10 19c-2 -2 -5 -3 -9 -3v-10c4 -2 8 -7 13 -12zM195 230c0 5 -3 11 -9 16v-11c0 -3 3 -5 9 -5zM162 270c0 5 -2 8 -7 10c-7 -3 -10 -7 -10 -10s3 -7 9 -13
c5 4 8 8 8 13zM55 357c-5 0 -8 5 -18 20c-2 -3 -3 -5 -3 -8c0 -11 5 -17 15 -17zM246 182c-3 3 -7 5 -10 5v-2c0 -8 -11 -17 -21 -17c5 -3 10 -4 15 -4c4 0 8 1 13 4c-1 1 -2 3 -2 4c0 3 2 6 5 10zM201 208l-2 10c-15 0 -16 1 -27 16v-15c14 -11 19 -15 20 -15s5 2 9 4z
M142 247v7c-1 1 -3 4 -5 11c-2 0 -6 -1 -12 -3l7 -7c1 -3 2 -7 4 -12c1 1 3 3 6 4zM224 186v9c-2 0 -6 1 -12 3c-7 -1 -17 -3 -20 -4c-2 0 -8 0 -16 2c8 -13 17 -21 28 -24c0 3 2 7 7 11l3 -2c3 0 7 2 10 5zM46 339c-4 0 -5 1 -20 19c-3 -6 -5 -10 -5 -13
c0 -11 7 -21 19 -21c1 1 3 6 6 15zM127 240c0 7 -1 8 -23 19c3 -9 9 -19 17 -28c4 3 6 6 6 9zM47 290c-2 11 -4 20 -6 25c-1 -1 -3 -2 -6 -2c-2 1 -7 4 -15 9l-2 -10c0 -8 18 -20 29 -22zM108 228v5c-4 5 -8 10 -13 13c-5 -4 -7 -8 -7 -12v-8l10 -1c3 0 6 1 10 3zM66 266
l-12 12l-33 9c0 -9 4 -17 12 -25l4 4c7 -5 13 -7 17 -7c5 0 9 2 12 7zM83 255c-1 2 -4 4 -8 5v-2c0 -9 -6 -13 -18 -13c-3 0 -6 1 -17 5c1 -7 10 -14 27 -21c10 6 11 7 16 26zM652 494c0 -24 -13 -36 -40 -36c-4 0 -9 3 -14 10c0 5 -1 7 -7 26c0 10 13 25 35 25
c2 0 9 -3 20 -9c4 -8 6 -13 6 -16zM474 507c0 -15 -23 -36 -38 -36c-17 0 -32 16 -32 35c0 20 12 30 36 30c14 0 34 -16 34 -29zM587 170c0 -21 -8 -31 -24 -31c-20 0 -30 8 -30 24c0 21 11 32 34 32c15 0 20 -6 20 -25zM457 199c0 -25 -6 -38 -19 -38c-21 0 -31 10 -31 29
c2 10 2 16 2 17c5 7 14 10 28 10c13 0 20 -6 20 -18zM486 5l-4 -16c-2 -1 -11 -2 -26 -4v3c0 4 -1 5 -6 15c0 7 11 20 17 20c8 0 19 -10 19 -18zM559 172l-1 2l-4 -4l1 -2z" />
</svg>