<?xml version="1.0" encoding="UTF-8" standalone="no"?>
<!-- Created with Inkscape (http://www.inkscape.org/) -->

<svg
   xmlns:dc="http://purl.org/dc/elements/1.1/"
   xmlns:cc="http://creativecommons.org/ns#"
   xmlns:rdf="http://www.w3.org/1999/02/22-rdf-syntax-ns#"
   xmlns:svg="http://www.w3.org/2000/svg"
   xmlns="http://www.w3.org/2000/svg"
   xmlns:sodipodi="http://sodipodi.sourceforge.net/DTD/sodipodi-0.dtd"
   xmlns:inkscape="http://www.inkscape.org/namespaces/inkscape"
   width="1900"
   height="200"
   version="1.1"
   id="svg23"
   sodipodi:docname="jcem.svg"
   inkscape:version="0.92.3 (2405546, 2018-03-11)">
  <sodipodi:namedview
     pagecolor="#ffffff"
     bordercolor="#666666"
     borderopacity="1"
     objecttolerance="10"
     gridtolerance="10"
     guidetolerance="10"
     inkscape:pageopacity="0"
     inkscape:pageshadow="2"
     inkscape:window-width="1920"
     inkscape:window-height="1017"
     id="namedview25"
     showgrid="false"
     inkscape:zoom="0.43321335"
     inkscape:cx="316.07026"
     inkscape:cy="356.09264"
     inkscape:window-x="-8"
     inkscape:window-y="-8"
     inkscape:window-maximized="1"
     inkscape:current-layer="g68" />
  <defs
     id="defs4">
    <clipPath
       clipPathUnits="userSpaceOnUse"
       id="clipPath3020">
      <path
         d="M 0,0 H 4802 V 1298.75 H 0 Z"
         id="path3022"
         inkscape:connector-curvature="0" />
    </clipPath>
    <clipPath
       clipPathUnits="userSpaceOnUse"
       id="clipPath3020-5">
      <path
         d="M 0,0 H 4802 V 1298.75 H 0 Z"
         id="path3022-5"
         inkscape:connector-curvature="0" />
    </clipPath>
  </defs>
  <metadata
     id="metadata7">image/svg+xml<rdf:RDF>
  <cc:Work
     rdf:about="">
    <dc:format>image/svg+xml</dc:format>
    <dc:type
       rdf:resource="http://purl.org/dc/dcmitype/StillImage" />
    <dc:title></dc:title>
  </cc:Work>
</rdf:RDF>
</metadata>
  <g
     id="g131"
     transform="matrix(1.0355008,0,0,1.0355008,-393.86692,14.568124)"
     style="fill:#000000">
    <g
       aria-label="JEANCARLOEM"
       style="font-style:normal;font-weight:normal;font-size:10.58333302px;line-height:1.25;font-family:sans-serif;letter-spacing:0px;word-spacing:0px;fill:#000000;fill-opacity:1;stroke:none;stroke-width:0.26458332"
       id="g121"
       transform="matrix(16.704195,0,0,16.704195,161.31377,-3426.4949)">
      <path
         d="m 36.462891,206.26624 h 2.815332 v 4.94234 q 0,1.55649 -0.279053,2.36885 -0.272852,0.81235 -1.11001,1.37666 -0.830957,0.5643 -2.133203,0.5643 -1.37666,0 -2.133203,-0.37207 -0.756543,-0.37207 -1.172022,-1.0852 -0.409277,-0.71934 -0.483691,-1.77354 l 2.685107,-0.36587 q 0.0062,0.60152 0.10542,0.89297 0.09922,0.29146 0.334864,0.47129 0.16123,0.11782 0.458886,0.11782 0.471289,0 0.68833,-0.34726 0.223243,-0.35347 0.223243,-1.18443 z"
         style="font-style:normal;font-variant:normal;font-weight:900;font-stretch:normal;font-size:12.69999981px;font-family:Arial;-inkscape-font-specification:'Arial Heavy';fill:#000000;fill-opacity:1"
         id="path99"
         inkscape:connector-curvature="0" />
      <path
         d="m 41.003182,215.35716 v -7.57576 h 5.617228 v 1.28157 h -4.087606 v 1.67949 h 3.803385 v 1.27641 h -3.803385 v 2.06188 h 4.2323 v 1.27641 z"
         style="font-style:normal;font-variant:normal;font-weight:bold;font-stretch:normal;font-family:Arial;-inkscape-font-specification:'Arial Bold';fill:#000000;fill-opacity:1;stroke-width:0.26458332"
         id="path101"
         inkscape:connector-curvature="0" />
      <path
         d="m 54.904142,215.35716 h -1.663981 l -0.661459,-1.72082 h -3.028238 l -0.625285,1.72082 h -1.62264 l 2.950724,-7.57576 h 1.617472 z m -2.816366,-2.99723 -1.043864,-2.8112 -1.023193,2.8112 z"
         style="font-style:normal;font-variant:normal;font-weight:bold;font-stretch:normal;font-family:Arial;-inkscape-font-specification:'Arial Bold';fill:#000000;fill-opacity:1;stroke-width:0.26458332"
         id="path103"
         inkscape:connector-curvature="0" />
      <path
         d="m 55.736133,215.35716 v -7.57576 h 1.488281 l 3.100586,5.05912 v -5.05912 h 1.421102 v 7.57576 h -1.53479 l -3.054077,-4.94026 v 4.94026 z"
         style="font-style:normal;font-variant:normal;font-weight:bold;font-stretch:normal;font-family:Arial;-inkscape-font-specification:'Arial Bold';fill:#000000;fill-opacity:1;stroke-width:0.26458332"
         id="path105"
         inkscape:connector-curvature="0" />
      <path
         d="m 69.581282,211.64266 2.461865,0.74414 q -0.248047,1.0356 -0.781348,1.73013 -0.5333,0.69453 -1.32705,1.048 -0.787549,0.35346 -2.00918,0.35346 -1.48208,0 -2.424658,-0.42788 -0.936377,-0.43408 -1.618506,-1.51928 -0.682129,-1.08521 -0.682129,-2.77813 0,-2.25723 1.196826,-3.46645 1.203028,-1.21543 3.398242,-1.21543 1.717725,0 2.69751,0.69453 0.985987,0.69453 1.463477,2.1332 l -2.480469,0.5519 q -0.130225,-0.41547 -0.272852,-0.60771 -0.235644,-0.32246 -0.576709,-0.49609 -0.341064,-0.17364 -0.762744,-0.17364 -0.95498,0 -1.463476,0.76895 -0.384473,0.57051 -0.384473,1.79214 0,1.51308 0.458887,2.07739 0.458887,0.5581 1.289844,0.5581 0.806152,0 1.215429,-0.45268 0.415479,-0.45269 0.601514,-1.31465 z"
         style="font-style:normal;font-variant:normal;font-weight:900;font-stretch:normal;font-size:12.69999981px;font-family:Arial;-inkscape-font-specification:'Arial Heavy';fill:#000000;fill-opacity:1"
         id="path107"
         inkscape:connector-curvature="0" />
      <path
         d="m 80.07263,215.35716 h -1.663981 l -0.661458,-1.72082 h -3.028239 l -0.625285,1.72082 h -1.62264 l 2.950725,-7.57576 h 1.617472 z m -2.816365,-2.99723 -1.043864,-2.8112 -1.023193,2.8112 z"
         style="font-style:normal;font-variant:normal;font-weight:bold;font-stretch:normal;font-family:Arial;-inkscape-font-specification:'Arial Bold';fill:#000000;fill-opacity:1;stroke-width:0.26458332"
         id="path109"
         inkscape:connector-curvature="0" />
      <path
         d="m 80.894287,215.35716 v -7.57576 h 3.219442 q 1.214396,0 1.762166,0.2067 0.552938,0.20154 0.883667,0.72347 0.330729,0.52194 0.330729,1.19373 0,0.85266 -0.501261,1.41077 -0.501262,0.55293 -1.498617,0.69763 0.496094,0.28939 0.816488,0.63562 0.325561,0.34623 0.873332,1.2299 l 0.925008,1.47794 h -1.829346 l -1.105876,-1.64848 q -0.589111,-0.88366 -0.806152,-1.11104 -0.217041,-0.23254 -0.45992,-0.31523 -0.242879,-0.0879 -0.769979,-0.0879 h -0.310059 v 3.1626 z m 1.529622,-4.37182 h 1.131714 q 1.100708,0 1.374593,-0.093 0.273885,-0.093 0.428915,-0.3204 0.155029,-0.22737 0.155029,-0.56844 0,-0.3824 -0.206706,-0.61495 -0.201538,-0.23771 -0.573608,-0.29972 -0.186035,-0.0258 -1.116211,-0.0258 h -1.193726 z"
         style="font-style:normal;font-variant:normal;font-weight:bold;font-stretch:normal;font-family:Arial;-inkscape-font-specification:'Arial Bold';fill:#000000;fill-opacity:1;stroke-width:0.26458332"
         id="path111"
         inkscape:connector-curvature="0" />
      <path
         d="m 88.57857,215.35716 v -7.51375 h 1.529622 v 6.23734 h 3.803386 v 1.27641 z"
         style="font-style:normal;font-variant:normal;font-weight:bold;font-stretch:normal;font-family:Arial;-inkscape-font-specification:'Arial Bold';fill:#000000;fill-opacity:1;stroke-width:0.26458332"
         id="path113"
         inkscape:connector-curvature="0" />
      <path
         d="m 94.697061,211.61579 q 0,-1.15755 0.346232,-1.94303 0.258382,-0.57878 0.702799,-1.0387 0.449585,-0.45992 0.981853,-0.68213 0.707967,-0.29972 1.632975,-0.29972 1.67432,0 2.67684,1.03869 1.00769,1.0387 1.00769,2.88872 0,1.83451 -0.99736,2.8732 -0.99735,1.03353 -2.6665,1.03353 -1.689819,0 -2.687174,-1.02836 -0.997355,-1.03353 -0.997355,-2.8422 z m 1.576131,-0.0517 q 0,1.28675 0.594279,1.95337 0.594279,0.66146 1.508952,0.66146 0.914673,0 1.498616,-0.65629 0.589111,-0.66146 0.589111,-1.97921 0,-1.30224 -0.573608,-1.94303 -0.568441,-0.64079 -1.514119,-0.64079 -0.945679,0 -1.524455,0.65112 -0.578776,0.64596 -0.578776,1.95337 z"
         style="font-style:normal;font-variant:normal;font-weight:bold;font-stretch:normal;font-family:Arial;-inkscape-font-specification:'Arial Bold';fill:#000000;fill-opacity:1;stroke-width:0.26458332"
         id="path115"
         inkscape:connector-curvature="0" />
      <path
         d="m 103.388,206.26624 h 7.52822 v 1.94097 h -4.71289 v 1.44487 h 4.37183 v 1.85415 h -4.37183 v 1.79214 h 4.84932 v 2.05879 H 103.388 Z"
         style="font-style:normal;font-variant:normal;font-weight:900;font-stretch:normal;font-size:12.69999981px;font-family:Arial;-inkscape-font-specification:'Arial Heavy';fill:#000000"
         id="path117"
         inkscape:connector-curvature="0" />
      <path
         d="m 112.54093,206.26624 h 3.6959 l 1.42627,5.53145 1.42007,-5.53145 h 3.68349 v 9.09092 h -2.29443 v -6.93291 l -1.77974,6.93291 h -2.07739 l -1.77353,-6.93291 v 6.93291 h -2.30064 z"
         style="font-style:normal;font-variant:normal;font-weight:900;font-stretch:normal;font-size:12.69999981px;font-family:Arial;-inkscape-font-specification:'Arial Heavy';fill:#000000"
         id="path119"
         inkscape:connector-curvature="0" />
    </g>
    <g
       aria-label="/"
       style="font-style:normal;font-variant:normal;font-weight:bold;font-stretch:normal;font-size:40px;line-height:1.25;font-family:Arial;-inkscape-font-specification:'Arial Bold';letter-spacing:0px;word-spacing:0px;fill:#000000;fill-opacity:1;stroke:none"
       id="g125"
       transform="matrix(6.0715631,0,0,6.0715631,-4122.0046,-2918.8325)">
      <path
         d="m 773.62164,510.91165 7.08985,-29.60937 h 4.12109 l -7.16797,29.60937 z"
         style="fill:#000000"
         id="path123"
         inkscape:connector-curvature="0" />
    </g>
    <g
       transform="matrix(6.0715631,0,0,6.0715631,-4077.4575,-2918.8325)"
       id="g129"
       style="font-style:normal;font-variant:normal;font-weight:bold;font-stretch:normal;font-size:40px;line-height:1.25;font-family:Arial;-inkscape-font-specification:'Arial Bold';letter-spacing:0px;word-spacing:0px;fill:#000000;fill-opacity:1;stroke:none"
       aria-label="/">
      <path
         inkscape:connector-curvature="0"
         id="path127"
         style="fill:#000000"
         d="m 773.62164,510.91165 7.08985,-29.60937 h 4.12109 l -7.16797,29.60937 z" />
    </g>
  </g>
  <g
     id="g68"
     transform="translate(-4.862568,15.07186)"
     style="stroke:#000000;stroke-width:2;stroke-linejoin:round;stroke-miterlimit:4;stroke-dasharray:none;stroke-opacity:1">
    <g
       transform="matrix(17.195241,0,0,17.195241,-220.82868,-3532.7838)"
       id="text12"
       style="font-style:normal;font-weight:normal;font-size:10.58333302px;line-height:1.25;font-family:sans-serif;letter-spacing:0px;word-spacing:0px;fill:#000000;fill-opacity:1;stroke:#000000;stroke-width:0.1197304;stroke-linejoin:round;stroke-miterlimit:4;stroke-dasharray:none;stroke-opacity:1"
       aria-label="JEANCARLOEM">
      <path
         inkscape:connector-curvature="0"
         id="path24"
         style="font-style:normal;font-variant:normal;font-weight:900;font-stretch:normal;font-size:12.69999981px;font-family:Arial;-inkscape-font-specification:'Arial Heavy';fill:#2b92db;fill-opacity:1;stroke:#000000;stroke-width:0.1197304;stroke-linejoin:round;stroke-miterlimit:4;stroke-dasharray:none;stroke-opacity:1"
         d="m 36.462891,206.26624 h 2.815332 v 4.94234 q 0,1.55649 -0.279053,2.36885 -0.272852,0.81235 -1.11001,1.37666 -0.830957,0.5643 -2.133203,0.5643 -1.37666,0 -2.133203,-0.37207 -0.756543,-0.37207 -1.172022,-1.0852 -0.409277,-0.71934 -0.483691,-1.77354 l 2.685107,-0.36587 q 0.0062,0.60152 0.10542,0.89297 0.09922,0.29146 0.334864,0.47129 0.16123,0.11782 0.458886,0.11782 0.471289,0 0.68833,-0.34726 0.223243,-0.35347 0.223243,-1.18443 z" />
      <path
         inkscape:connector-curvature="0"
         id="path26"
         style="font-style:normal;font-variant:normal;font-weight:bold;font-stretch:normal;font-family:Arial;-inkscape-font-specification:'Arial Bold';fill:#2b92db;fill-opacity:1;stroke:#000000;stroke-width:0.1197304;stroke-linejoin:round;stroke-miterlimit:4;stroke-dasharray:none;stroke-opacity:1"
         d="m 41.003182,215.35716 v -7.57576 h 5.617228 v 1.28157 h -4.087606 v 1.67949 h 3.803385 v 1.27641 h -3.803385 v 2.06188 h 4.2323 v 1.27641 z" />
      <path
         inkscape:connector-curvature="0"
         id="path28"
         style="font-style:normal;font-variant:normal;font-weight:bold;font-stretch:normal;font-family:Arial;-inkscape-font-specification:'Arial Bold';fill:#2b92db;fill-opacity:1;stroke:#000000;stroke-width:0.1197304;stroke-linejoin:round;stroke-miterlimit:4;stroke-dasharray:none;stroke-opacity:1"
         d="m 54.904142,215.35716 h -1.663981 l -0.661459,-1.72082 h -3.028238 l -0.625285,1.72082 h -1.62264 l 2.950724,-7.57576 h 1.617472 z m -2.816366,-2.99723 -1.043864,-2.8112 -1.023193,2.8112 z" />
      <path
         inkscape:connector-curvature="0"
         id="path30"
         style="font-style:normal;font-variant:normal;font-weight:bold;font-stretch:normal;font-family:Arial;-inkscape-font-specification:'Arial Bold';fill:#2b92db;fill-opacity:1;stroke:#000000;stroke-width:0.1197304;stroke-linejoin:round;stroke-miterlimit:4;stroke-dasharray:none;stroke-opacity:1"
         d="m 55.736133,215.35716 v -7.57576 h 1.488281 l 3.100586,5.05912 v -5.05912 h 1.421102 v 7.57576 h -1.53479 l -3.054077,-4.94026 v 4.94026 z" />
      <path
         inkscape:connector-curvature="0"
         id="path32"
         style="font-style:normal;font-variant:normal;font-weight:900;font-stretch:normal;font-size:12.69999981px;font-family:Arial;-inkscape-font-specification:'Arial Heavy';fill:#2b92db;fill-opacity:1;stroke:#000000;stroke-width:0.1197304;stroke-linejoin:round;stroke-miterlimit:4;stroke-dasharray:none;stroke-opacity:1"
         d="m 69.581282,211.64266 2.461865,0.74414 q -0.248047,1.0356 -0.781348,1.73013 -0.5333,0.69453 -1.32705,1.048 -0.787549,0.35346 -2.00918,0.35346 -1.48208,0 -2.424658,-0.42788 -0.936377,-0.43408 -1.618506,-1.51928 -0.682129,-1.08521 -0.682129,-2.77813 0,-2.25723 1.196826,-3.46645 1.203028,-1.21543 3.398242,-1.21543 1.717725,0 2.69751,0.69453 0.985987,0.69453 1.463477,2.1332 l -2.480469,0.5519 q -0.130225,-0.41547 -0.272852,-0.60771 -0.235644,-0.32246 -0.576709,-0.49609 -0.341064,-0.17364 -0.762744,-0.17364 -0.95498,0 -1.463476,0.76895 -0.384473,0.57051 -0.384473,1.79214 0,1.51308 0.458887,2.07739 0.458887,0.5581 1.289844,0.5581 0.806152,0 1.215429,-0.45268 0.415479,-0.45269 0.601514,-1.31465 z" />
      <path
         inkscape:connector-curvature="0"
         id="path34"
         style="font-style:normal;font-variant:normal;font-weight:bold;font-stretch:normal;font-family:Arial;-inkscape-font-specification:'Arial Bold';fill:#2b92db;fill-opacity:1;stroke:#000000;stroke-width:0.1197304;stroke-linejoin:round;stroke-miterlimit:4;stroke-dasharray:none;stroke-opacity:1"
         d="m 80.07263,215.35716 h -1.663981 l -0.661458,-1.72082 h -3.028239 l -0.625285,1.72082 h -1.62264 l 2.950725,-7.57576 h 1.617472 z m -2.816365,-2.99723 -1.043864,-2.8112 -1.023193,2.8112 z" />
      <path
         inkscape:connector-curvature="0"
         id="path36"
         style="font-style:normal;font-variant:normal;font-weight:bold;font-stretch:normal;font-family:Arial;-inkscape-font-specification:'Arial Bold';fill:#2b92db;fill-opacity:1;stroke:#000000;stroke-width:0.1197304;stroke-linejoin:round;stroke-miterlimit:4;stroke-dasharray:none;stroke-opacity:1"
         d="m 80.894287,215.35716 v -7.57576 h 3.219442 q 1.214396,0 1.762166,0.2067 0.552938,0.20154 0.883667,0.72347 0.330729,0.52194 0.330729,1.19373 0,0.85266 -0.501261,1.41077 -0.501262,0.55293 -1.498617,0.69763 0.496094,0.28939 0.816488,0.63562 0.325561,0.34623 0.873332,1.2299 l 0.925008,1.47794 h -1.829346 l -1.105876,-1.64848 q -0.589111,-0.88366 -0.806152,-1.11104 -0.217041,-0.23254 -0.45992,-0.31523 -0.242879,-0.0879 -0.769979,-0.0879 h -0.310059 v 3.1626 z m 1.529622,-4.37182 h 1.131714 q 1.100708,0 1.374593,-0.093 0.273885,-0.093 0.428915,-0.3204 0.155029,-0.22737 0.155029,-0.56844 0,-0.3824 -0.206706,-0.61495 -0.201538,-0.23771 -0.573608,-0.29972 -0.186035,-0.0258 -1.116211,-0.0258 h -1.193726 z" />
      <path
         inkscape:connector-curvature="0"
         id="path38"
         style="font-style:normal;font-variant:normal;font-weight:bold;font-stretch:normal;font-family:Arial;-inkscape-font-specification:'Arial Bold';fill:#2b92db;fill-opacity:1;stroke:#000000;stroke-width:0.1197304;stroke-linejoin:round;stroke-miterlimit:4;stroke-dasharray:none;stroke-opacity:1"
         d="m 88.57857,215.35716 v -7.51375 h 1.529622 v 6.23734 h 3.803386 v 1.27641 z" />
      <path
         inkscape:connector-curvature="0"
         id="path40"
         style="font-style:normal;font-variant:normal;font-weight:bold;font-stretch:normal;font-family:Arial;-inkscape-font-specification:'Arial Bold';fill:#2b92db;fill-opacity:1;stroke:#000000;stroke-width:0.1197304;stroke-linejoin:round;stroke-miterlimit:4;stroke-dasharray:none;stroke-opacity:1"
         d="m 94.697061,211.61579 q 0,-1.15755 0.346232,-1.94303 0.258382,-0.57878 0.702799,-1.0387 0.449585,-0.45992 0.981853,-0.68213 0.707967,-0.29972 1.632975,-0.29972 1.67432,0 2.67684,1.03869 1.00769,1.0387 1.00769,2.88872 0,1.83451 -0.99736,2.8732 -0.99735,1.03353 -2.6665,1.03353 -1.689819,0 -2.687174,-1.02836 -0.997355,-1.03353 -0.997355,-2.8422 z m 1.576131,-0.0517 q 0,1.28675 0.594279,1.95337 0.594279,0.66146 1.508952,0.66146 0.914673,0 1.498616,-0.65629 0.589111,-0.66146 0.589111,-1.97921 0,-1.30224 -0.573608,-1.94303 -0.568441,-0.64079 -1.514119,-0.64079 -0.945679,0 -1.524455,0.65112 -0.578776,0.64596 -0.578776,1.95337 z" />
      <path
         inkscape:connector-curvature="0"
         id="path42"
         style="font-style:normal;font-variant:normal;font-weight:900;font-stretch:normal;font-size:12.69999981px;font-family:Arial;-inkscape-font-specification:'Arial Heavy';fill:#ffcc00;stroke:#000000;stroke-width:0.1197304;stroke-linejoin:round;stroke-miterlimit:4;stroke-dasharray:none;stroke-opacity:1"
         d="m 103.388,206.26624 h 7.52822 v 1.94097 h -4.71289 v 1.44487 h 4.37183 v 1.85415 h -4.37183 v 1.79214 h 4.84932 v 2.05879 H 103.388 Z" />
      <path
         inkscape:connector-curvature="0"
         id="path44"
         style="font-style:normal;font-variant:normal;font-weight:900;font-stretch:normal;font-size:12.69999981px;font-family:Arial;-inkscape-font-specification:'Arial Heavy';fill:#ffcc00;stroke:#000000;stroke-width:0.1197304;stroke-linejoin:round;stroke-miterlimit:4;stroke-dasharray:none;stroke-opacity:1"
         d="m 112.54093,206.26624 h 3.6959 l 1.42627,5.53145 1.42007,-5.53145 h 3.68349 v 9.09092 h -2.29443 v -6.93291 l -1.77974,6.93291 h -2.07739 l -1.77353,-6.93291 v 6.93291 h -2.30064 z" />
    </g>
    <g
       transform="matrix(6.2500461,0,0,6.2500461,-4630.0619,-3010.1979)"
       id="text57"
       style="font-style:normal;font-variant:normal;font-weight:bold;font-stretch:normal;font-size:40px;line-height:1.25;font-family:Arial;-inkscape-font-specification:'Arial Bold';letter-spacing:0px;word-spacing:0px;fill:#00ffff;fill-opacity:1;stroke:#000000;stroke-width:0.32940447;stroke-linejoin:round;stroke-miterlimit:4;stroke-dasharray:none;stroke-opacity:1"
       aria-label="/">
      <path
         inkscape:connector-curvature="0"
         id="path59"
         style="fill:#00ffff;stroke:#000000;stroke-width:0.32940447;stroke-linejoin:round;stroke-miterlimit:4;stroke-dasharray:none;stroke-opacity:1"
         d="m 773.62164,510.91165 7.08985,-29.60937 h 4.12109 l -7.16797,29.60937 z" />
    </g>
    <g
       aria-label="/"
       style="font-style:normal;font-variant:normal;font-weight:bold;font-stretch:normal;font-size:40px;line-height:1.25;font-family:Arial;-inkscape-font-specification:'Arial Bold';letter-spacing:0px;word-spacing:0px;fill:#00ffff;fill-opacity:1;stroke:#000000;stroke-width:0.32940447;stroke-linejoin:round;stroke-miterlimit:4;stroke-dasharray:none;stroke-opacity:1"
       id="g82"
       transform="matrix(6.2500461,0,0,6.2500461,-4584.2052,-3010.1979)">
      <path
         d="m 773.62164,510.91165 7.08985,-29.60937 h 4.12109 l -7.16797,29.60937 z"
         style="fill:#00ffff;stroke:#000000;stroke-width:0.32940447;stroke-linejoin:round;stroke-miterlimit:4;stroke-dasharray:none;stroke-opacity:1"
         id="path80"
         inkscape:connector-curvature="0" />
    </g>
    <path
       id="path891-2"
       d="m 75.345505,146.9793 c 0,0.81886 -0.94168,1.47394 -2.129015,1.47394 -1.351104,0.12283 -2.292783,-0.53225 -2.292783,-1.47394 0,-0.81884 0.941679,-1.47392 2.129013,-1.47392 1.228278,-0.12283 2.292785,0.53225 2.292785,1.47392 z m -12.733141,-1.84241 c -0.286598,0.81885 0.532254,1.76054 1.760531,2.00619 1.064508,0.40943 2.292784,0 2.538439,-0.81886 0.245656,-0.81884 -0.532252,-1.76053 -1.76053,-2.12901 -1.064507,-0.2866 -2.251841,0.12283 -2.53844,0.94168 z m 18.096617,-0.69602 c -1.187335,0.2866 -2.006185,1.06451 -1.883358,2.00618 0.122828,0.81886 1.187334,1.35111 2.415611,1.06451 1.187335,-0.28659 2.006187,-1.06451 1.883358,-1.88336 -0.122827,-0.7779 -1.228277,-1.31016 -2.415611,-1.18733 z M 107.64919,-12.451066 c -56.787343,0 -100.22741,43.112528 -100.22741,99.899875 0,45.405311 28.577915,84.259811 69.397656,97.934631 5.24065,0.94168 7.083066,-2.29279 7.083066,-4.95405 0,-2.53844 -0.122828,-16.5408 -0.122828,-25.13874 0,0 -28.6598,6.14138 -34.678358,-12.20088 0,0 -4.667453,-11.91429 -11.382033,-14.98499 0,0 -9.375848,-6.42798 0.655081,-6.30516 0,0 10.194699,0.81886 15.803831,10.56319 8.966423,15.80383 23.992347,11.25921 29.847135,8.557 0.941679,-6.55082 3.602946,-11.09544 6.55081,-13.79765 -22.886897,-2.53844 -45.978506,-5.85479 -45.978506,-45.241541 0,-11.259207 3.111635,-16.909282 9.662446,-24.115175 -1.064507,-2.661267 -4.544625,-13.633875 1.064507,-27.800006 8.556997,-2.661267 28.250375,11.054494 28.250375,11.054494 8.188508,-2.292783 16.991168,-3.480118 25.711928,-3.480118 8.72077,0 17.52342,1.187335 25.71194,3.480118 0,0 19.69338,-13.756703 28.25037,-11.054494 5.60914,14.207072 2.12902,25.138739 1.06451,27.800006 6.55081,7.246835 10.56319,12.896911 10.56319,24.115175 0,39.509591 -24.11518,42.662161 -47.00208,45.241541 3.76672,3.23446 6.96024,9.37585 6.96024,18.99735 0,13.79764 -0.12282,30.8707 -0.12282,34.22799 0,2.66127 1.88335,5.89573 7.08305,4.95405 40.94257,-13.59293 68.70164,-52.44743 68.70164,-97.852741 0,-56.787347 -46.06039,-99.899875 -102.84774,-99.899875 z M 47.217958,128.75986 c -0.532254,0.40943 -0.409425,1.35111 0.286598,2.12901 0.655081,0.65509 1.59676,0.94169 2.129014,0.40943 0.532253,-0.40943 0.409425,-1.3511 -0.286598,-2.12901 -0.655081,-0.65508 -1.59676,-0.94168 -2.129014,-0.40943 z m -4.421798,-3.31634 c -0.286598,0.53224 0.122828,1.18733 0.941679,1.59675 0.655082,0.40943 1.473933,0.28661 1.760531,-0.2866 0.286598,-0.53224 -0.122828,-1.18732 -0.941679,-1.59675 -0.818852,-0.24566 -1.473933,-0.12283 -1.760531,0.2866 z m 13.265393,14.57555 c -0.655081,0.53226 -0.409425,1.76053 0.532254,2.53844 0.941679,0.94167 2.129013,1.06451 2.661267,0.40943 0.532253,-0.53226 0.286598,-1.76053 -0.532254,-2.53845 -0.900736,-0.94167 -2.129013,-1.0645 -2.661267,-0.40942 z m -4.667452,-6.01855 c -0.655082,0.40941 -0.655082,1.47392 0,2.41561 0.65508,0.94167 1.760529,1.3511 2.292783,0.94167 0.655081,-0.53226 0.655081,-1.59676 0,-2.53844 -0.573196,-0.94167 -1.637703,-1.3511 -2.292783,-0.81884 z"
       inkscape:connector-curvature="0"
       style="fill:#00ffff;stroke-width:0.81885147" />
  </g>
</svg>
