<?xml version="1.0" encoding="UTF-8" standalone="no"?>
<svg
   xmlns:dc="http://purl.org/dc/elements/1.1/"
   xmlns:cc="http://creativecommons.org/ns#"
   xmlns:rdf="http://www.w3.org/1999/02/22-rdf-syntax-ns#"
   xmlns:svg="http://www.w3.org/2000/svg"
   xmlns="http://www.w3.org/2000/svg"
   xmlns:sodipodi="http://sodipodi.sourceforge.net/DTD/sodipodi-0.dtd"
   xmlns:inkscape="http://www.inkscape.org/namespaces/inkscape"
   width="975"
   height="179.2"
   version="1.1"
   id="svg4"
   sodipodi:docname="2p.svg"
   inkscape:version="0.92.3 (2405546, 2018-03-11)">
  <metadata
     id="metadata10">
    <rdf:RDF>
      <cc:Work
         rdf:about="">
        <dc:format>image/svg+xml</dc:format>
        <dc:type
           rdf:resource="http://purl.org/dc/dcmitype/StillImage" />
        <dc:title></dc:title>
      </cc:Work>
    </rdf:RDF>
  </metadata>
  <defs
     id="defs8" />
  <sodipodi:namedview
     pagecolor="#ffffff"
     bordercolor="#666666"
     borderopacity="1"
     objecttolerance="10"
     gridtolerance="10"
     guidetolerance="10"
     inkscape:pageopacity="0"
     inkscape:pageshadow="2"
     inkscape:window-width="958"
     inkscape:window-height="1008"
     id="namedview6"
     showgrid="false"
     inkscape:zoom="0.46561719"
     inkscape:cx="352.64026"
     inkscape:cy="487.77708"
     inkscape:window-x="-7"
     inkscape:window-y="0"
     inkscape:window-maximized="0"
     inkscape:current-layer="svg4"
     showguides="false" />
  <g
     id="g36"
     transform="translate(34,9.1552734e-6)">
    <path
       style="fill:#1adf00;fill-opacity:1;stroke-width:0.10829606"
       inkscape:connector-curvature="0"
       id="path2"
       d="m 854.65519,104.82245 9.89006,-9.714388 q 1.08173,-1.062513 2.47252,-1.062513 1.39079,0 2.47251,1.062513 l 14.8351,14.571598 14.8351,-14.571598 q 1.08172,-1.062513 2.47251,-1.062513 1.39079,0 2.47252,1.062513 l 9.89006,9.714398 q 1.08173,1.06251 1.08173,2.4286 0,1.36609 -1.08173,2.4286 l -14.83509,14.5716 14.83509,14.5716 q 1.08173,1.06252 1.08173,2.4286 0,1.36609 -1.08173,2.4286 l -9.89006,9.71441 q -1.08172,1.0625 -2.47251,1.0625 -1.39079,0 -2.47252,-1.0625 l -14.8351,-14.57162 -14.83509,14.57162 q -1.08173,1.0625 -2.47252,1.0625 -1.39079,0 -2.47252,-1.0625 l -9.89006,-9.71441 q -1.08173,-1.06251 -1.08173,-2.4286 0,-1.36609 1.08173,-2.42861 l 14.8351,-14.5716 -14.8351,-14.5716 q -1.08173,-1.06251 -1.08173,-2.4286 0,-1.36608 1.08173,-2.4286 z m -49.45032,-38.8576 q 4.0951,-4.022369 9.89007,-4.022369 5.79496,0 9.89006,4.022369 4.0951,4.02237 4.0951,9.714402 0,5.692033 -4.0951,9.714401 -4.0951,4.022367 -9.89006,4.022367 -5.79497,0 -9.89007,-4.022367 -4.0951,-4.022368 -4.0951,-9.714401 0,-5.692032 4.0951,-9.714402 z m 0,-38.857602 q 4.09509,-4.02237 9.89006,-4.02237 5.79495,0 9.89006,4.02237 4.09511,4.02237 4.09511,9.714402 0,5.692032 -4.09511,9.714402 -4.09511,4.022368 -9.89006,4.022368 -5.79496,-4e-6 -9.89006,-4.022373 -4.0951,-4.02237 -4.09511,-9.714397 0,-5.692032 4.09511,-9.714402 z m -29.67019,-9.714406 q -16.38042,16.089478 -16.38042,38.857607 0,22.768129 16.38042,38.857602 14.83509,14.571599 36.00601,15.937699 l 16.99855,16.69662 q 1.39079,20.79489 16.22589,35.36649 16.38041,16.08949 39.56025,16.08949 23.17984,0 39.56026,-16.08949 16.38042,-16.08947 16.38042,-38.8576 0,-22.76812 -16.38042,-38.857601 L 854.65518,17.392846 Q 838.27477,1.3033677 815.09493,1.3033677 q -23.17984,0 -39.56025,16.0894743 z"
       horiz-adv-x="1920"
       unicode=""
       glyph-name="gamepad" />
    <rect
       transform="scale(-1,1)"
       y="84.284744"
       x="-546.72083"
       height="20.501694"
       width="187.68349"
       id="rect3731"
       style="fill:#00ffff;stroke-width:1.0092411" />
    <rect
       transform="scale(-1,1)"
       y="83.90509"
       x="-752.42273"
       height="20.501694"
       width="19.597477"
       id="rect3731-0"
       style="fill:#00ffff;stroke-width:0.32612345" />
    <g
       id="flowRoot3750"
       style="font-style:normal;font-weight:normal;font-size:40px;line-height:1.25;font-family:sans-serif;letter-spacing:0px;word-spacing:0px;fill:#1adf00;fill-opacity:1;stroke:none"
       transform="matrix(0.95011971,0,0,1,344.64075,-55.430508)"
       aria-label="P2">
      <path
         inkscape:connector-curvature="0"
         id="path3778"
         style="font-style:normal;font-variant:normal;font-weight:900;font-stretch:normal;font-size:109.33333588px;font-family:Arial;-inkscape-font-specification:'Arial Heavy';fill:#1adf00;fill-opacity:1"
         d="m 228.10417,127.90547 h 40.19922 q 13.13281,0 19.64583,6.24609 6.56641,6.24609 6.56641,17.77734 0,11.85157 -7.15365,18.52474 -7.10026,6.67318 -21.72786,6.67318 h -13.23959 v 29.04167 h -24.29036 z m 24.29036,33.36588 h 5.92578 q 6.99349,0 9.82292,-2.40234 2.82943,-2.45573 2.82943,-6.2461 0,-3.68359 -2.45573,-6.24609 -2.45573,-2.5625 -9.23568,-2.5625 h -6.88672 z" />
      <path
         inkscape:connector-curvature="0"
         id="path3780"
         style="font-size:170.66667175px;fill:#1adf00;fill-opacity:1"
         d="M 399.23188,206.16849 H 297.39855 q 1.75,-15.08334 10.58333,-28.33334 8.91667,-13.33333 33.33333,-31.41666 14.91667,-11.08334 19.08334,-16.83334 4.16667,-5.75 4.16667,-10.91666 0,-5.58334 -4.16667,-9.5 -4.08333,-4 -10.33333,-4 -6.50001,0 -10.66667,4.08333 -4.08334,4.08333 -5.5,14.41667 l -34,-2.75 q 2,-14.33334 7.33333,-22.333338 5.33333,-8.083333 15,-12.333334 9.75,-4.333333 26.91667,-4.333333 17.91667,0 27.83333,4.083333 10,4.083334 15.66667,12.583334 5.75,8.416668 5.75,18.916668 0,11.16667 -6.58333,21.33333 -6.5,10.16667 -23.75,22.33334 -10.25,7.08333 -13.75,9.91666 -3.41667,2.83334 -8.08334,7.41667 h 53 z" />
    </g>
    <rect
       y="67.579659"
       x="417.81018"
       height="53.152538"
       width="69.098297"
       id="rect3731-5"
       style="fill:#00ffff;stroke-width:0.98601329" />
  </g>
  <g
     transform="translate(-0.427124,-0.10169068)"
     id="g34">
    <path
       style="fill:#ff0000;stroke-width:0.10869568"
       inkscape:connector-curvature="0"
       id="path2-6"
       d="m 87.147217,104.82245 -9.963185,-9.714388 q -1.089725,-1.062513 -2.490798,-1.062513 -1.401073,0 -2.490797,1.062513 L 57.257652,109.67966 42.312867,95.108062 q -1.089723,-1.062513 -2.490798,-1.062513 -1.401073,0 -2.490796,1.062513 l -9.963191,9.714398 q -1.089724,1.06251 -1.089724,2.4286 0,1.36609 1.089724,2.4286 l 14.944785,14.5716 -14.944785,14.5716 q -1.089724,1.06252 -1.089724,2.4286 0,1.36609 1.089724,2.4286 l 9.963185,9.71441 q 1.089725,1.0625 2.490798,1.0625 1.401073,0 2.490798,-1.0625 l 14.944784,-14.57162 14.944785,14.57162 q 1.089724,1.0625 2.490798,1.0625 1.401073,0 2.490798,-1.0625 l 9.963189,-9.71441 q 1.089724,-1.06251 1.089724,-2.4286 0,-1.36609 -1.089724,-2.42861 l -14.944785,-14.5716 14.944785,-14.5716 q 1.089724,-1.06251 1.089724,-2.4286 0,-1.36608 -1.089724,-2.4286 z m 49.815943,-38.8576 q -4.12538,-4.022369 -9.96319,-4.022369 -5.83781,0 -9.96319,4.022369 -4.12538,4.02237 -4.12538,9.714402 0,5.692033 4.12538,9.714401 4.12538,4.022367 9.96319,4.022367 5.83781,0 9.96319,-4.022367 4.12538,-4.022368 4.12538,-9.714401 0,-5.692032 -4.12538,-9.714402 z m 0,-38.857602 q -4.12537,-4.02237 -9.96318,-4.02237 -5.8378,0 -9.96319,4.02237 -4.12539,4.02237 -4.12539,9.714402 0,5.692032 4.12539,9.714402 4.12539,4.022368 9.96319,4.022368 5.8378,-4e-6 9.96318,-4.022373 4.12538,-4.02237 4.12539,-9.714397 0,-5.692032 -4.12539,-9.714402 z m 29.88957,-9.714406 q 16.50153,16.089478 16.50153,38.857607 0,22.768129 -16.50153,38.857602 -14.94478,14.571599 -36.27224,15.937699 l -17.12423,16.69662 q -1.40107,20.79489 -16.345854,35.36649 -16.501532,16.08949 -39.852759,16.08949 -23.351226,0 -39.852759,-16.08949 -16.5015295,-16.08947 -16.5015295,-38.8576 0,-22.76812 16.5015335,-38.857601 L 87.147222,17.392846 Q 103.64875,1.3033677 126.99998,1.3033677 q 23.35122,0 39.85275,16.0894743 z"
       horiz-adv-x="1920"
       unicode=""
       glyph-name="gamepad" />
    <rect
       y="84.284744"
       x="387.25424"
       height="20.501694"
       width="195.14575"
       id="rect3731-59"
       style="fill:#00ffff;stroke-width:1.02910924" />
    <rect
       y="83.90509"
       x="190.13559"
       height="20.501694"
       width="19.742376"
       id="rect3731-0-9"
       style="fill:#00ffff;stroke-width:0.32732686" />
    <g
       id="flowRoot3750-0"
       style="font-style:normal;font-weight:normal;font-size:40px;line-height:1.25;font-family:sans-serif;letter-spacing:0px;word-spacing:0px;fill:#ff0000;fill-opacity:1;stroke:none"
       transform="translate(-1.0372881,-55.430508)"
       aria-label="P1">
      <path
         inkscape:connector-curvature="0"
         id="path3773"
         style="font-style:normal;font-variant:normal;font-weight:900;font-stretch:normal;font-size:109.33333588px;font-family:Arial;-inkscape-font-specification:'Arial Heavy';fill:#ff0000"
         d="m 228.10417,127.90547 h 40.19922 q 13.13281,0 19.64583,6.24609 6.56641,6.24609 6.56641,17.77734 0,11.85157 -7.15365,18.52474 -7.10026,6.67318 -21.72786,6.67318 h -13.23959 v 29.04167 h -24.29036 z m 24.29036,33.36588 h 5.92578 q 6.99349,0 9.82292,-2.40234 2.82943,-2.45573 2.82943,-6.2461 0,-3.68359 -2.45573,-6.24609 -2.45573,-2.5625 -9.23568,-2.5625 h -6.88672 z" />
      <path
         inkscape:connector-curvature="0"
         id="path3775"
         style="font-size:170.66667175px;fill:#ff0000"
         d="M 371.13022,81.918485 V 206.16849 h -34.33334 v -81.41667 q -8.33333,6.33333 -16.16667,10.25 -7.75,3.91667 -19.5,7.5 v -27.83333 q 17.33334,-5.58334 26.91667,-13.41667 9.58333,-7.833335 15,-19.333335 z" />
    </g>
    <rect
       y="67.681358"
       x="453.13898"
       height="53.152538"
       width="69.098297"
       id="rect3731-5-8"
       style="fill:#00ffff;stroke-width:0.98601329" />
  </g>
</svg>
