<?xml version="1.0" encoding="UTF-8" standalone="no"?>
<svg
   xmlns:dc="http://purl.org/dc/elements/1.1/"
   xmlns:cc="http://creativecommons.org/ns#"
   xmlns:rdf="http://www.w3.org/1999/02/22-rdf-syntax-ns#"
   xmlns:svg="http://www.w3.org/2000/svg"
   xmlns="http://www.w3.org/2000/svg"
   xmlns:sodipodi="http://sodipodi.sourceforge.net/DTD/sodipodi-0.dtd"
   xmlns:inkscape="http://www.inkscape.org/namespaces/inkscape"
   width="975"
   height="179.2"
   version="1.1"
   id="svg4"
   sodipodi:docname="surv.svg"
   inkscape:version="0.92.3 (2405546, 2018-03-11)">
  <metadata
     id="metadata10">
    <rdf:RDF>
      <cc:Work
         rdf:about="">
        <dc:format>image/svg+xml</dc:format>
        <dc:type
           rdf:resource="http://purl.org/dc/dcmitype/StillImage" />
        <dc:title />
      </cc:Work>
    </rdf:RDF>
  </metadata>
  <defs
     id="defs8" />
  <sodipodi:namedview
     pagecolor="#ffffff"
     bordercolor="#666666"
     borderopacity="1"
     objecttolerance="10"
     gridtolerance="10"
     guidetolerance="10"
     inkscape:pageopacity="0"
     inkscape:pageshadow="2"
     inkscape:window-width="958"
     inkscape:window-height="1008"
     id="namedview6"
     showgrid="false"
     inkscape:zoom="0.93123439"
     inkscape:cx="793.60994"
     inkscape:cy="-25.974066"
     inkscape:window-x="953"
     inkscape:window-y="0"
     inkscape:window-maximized="0"
     inkscape:current-layer="svg4" />
  <g
     id="g34"
     transform="translate(0,3.0517578e-6)">
    <path
       style="fill:#ff0000;stroke-width:0.10869568"
       inkscape:connector-curvature="0"
       id="path2"
       d="m 87.147217,104.82245 -9.963185,-9.714388 q -1.089725,-1.062513 -2.490798,-1.062513 -1.401073,0 -2.490797,1.062513 L 57.257652,109.67966 42.312867,95.108062 q -1.089723,-1.062513 -2.490798,-1.062513 -1.401073,0 -2.490796,1.062513 l -9.963191,9.714398 q -1.089724,1.06251 -1.089724,2.4286 0,1.36609 1.089724,2.4286 l 14.944785,14.5716 -14.944785,14.5716 q -1.089724,1.06252 -1.089724,2.4286 0,1.36609 1.089724,2.4286 l 9.963185,9.71441 q 1.089725,1.0625 2.490798,1.0625 1.401073,0 2.490798,-1.0625 l 14.944784,-14.57162 14.944785,14.57162 q 1.089724,1.0625 2.490798,1.0625 1.401073,0 2.490798,-1.0625 l 9.963189,-9.71441 q 1.089724,-1.06251 1.089724,-2.4286 0,-1.36609 -1.089724,-2.42861 l -14.944785,-14.5716 14.944785,-14.5716 q 1.089724,-1.06251 1.089724,-2.4286 0,-1.36608 -1.089724,-2.4286 z m 49.815943,-38.8576 q -4.12538,-4.022369 -9.96319,-4.022369 -5.83781,0 -9.96319,4.022369 -4.12538,4.02237 -4.12538,9.714402 0,5.692033 4.12538,9.714401 4.12538,4.022367 9.96319,4.022367 5.83781,0 9.96319,-4.022367 4.12538,-4.022368 4.12538,-9.714401 0,-5.692032 -4.12538,-9.714402 z m 0,-38.857602 q -4.12537,-4.02237 -9.96318,-4.02237 -5.8378,0 -9.96319,4.02237 -4.12539,4.02237 -4.12539,9.714402 0,5.692032 4.12539,9.714402 4.12539,4.022368 9.96319,4.022368 5.8378,-4e-6 9.96318,-4.022373 4.12538,-4.02237 4.12539,-9.714397 0,-5.692032 -4.12539,-9.714402 z m 29.88957,-9.714406 q 16.50153,16.089478 16.50153,38.857607 0,22.768129 -16.50153,38.857602 -14.94478,14.571599 -36.27224,15.937699 l -17.12423,16.69662 q -1.40107,20.79489 -16.345854,35.36649 -16.501532,16.08949 -39.852759,16.08949 -23.351226,0 -39.852759,-16.08949 -16.5015295,-16.08947 -16.5015295,-38.8576 0,-22.76812 16.5015335,-38.857601 L 87.147222,17.392846 Q 103.64875,1.3033677 126.99998,1.3033677 q 23.35122,0 39.85275,16.0894743 z"
       horiz-adv-x="1920"
       unicode=""
       glyph-name="gamepad" />
    <rect
       y="84.284744"
       x="387.25424"
       height="20.501694"
       width="195.14575"
       id="rect3731"
       style="fill:#00ffff;stroke-width:1.02910924" />
    <rect
       y="83.90509"
       x="190.13559"
       height="20.501694"
       width="19.742376"
       id="rect3731-0"
       style="fill:#00ffff;stroke-width:0.32732686" />
    <g
       id="flowRoot3750"
       style="font-style:normal;font-weight:normal;font-size:40px;line-height:1.25;font-family:sans-serif;letter-spacing:0px;word-spacing:0px;fill:#ff0000;fill-opacity:1;stroke:none"
       transform="translate(-1.0372881,-55.430508)"
       aria-label="P1">
      <path
         inkscape:connector-curvature="0"
         id="path3773"
         style="font-style:normal;font-variant:normal;font-weight:900;font-stretch:normal;font-size:109.33333588px;font-family:Arial;-inkscape-font-specification:'Arial Heavy';fill:#ff0000"
         d="m 228.10417,127.90547 h 40.19922 q 13.13281,0 19.64583,6.24609 6.56641,6.24609 6.56641,17.77734 0,11.85157 -7.15365,18.52474 -7.10026,6.67318 -21.72786,6.67318 h -13.23959 v 29.04167 h -24.29036 z m 24.29036,33.36588 h 5.92578 q 6.99349,0 9.82292,-2.40234 2.82943,-2.45573 2.82943,-6.2461 0,-3.68359 -2.45573,-6.24609 -2.45573,-2.5625 -9.23568,-2.5625 h -6.88672 z" />
      <path
         inkscape:connector-curvature="0"
         id="path3775"
         style="font-size:170.66667175px;fill:#ff0000"
         d="M 371.13022,81.918485 V 206.16849 h -34.33334 v -81.41667 q -8.33333,6.33333 -16.16667,10.25 -7.75,3.91667 -19.5,7.5 v -27.83333 q 17.33334,-5.58334 26.91667,-13.41667 9.58333,-7.833335 15,-19.333335 z" />
    </g>
    <rect
       y="67.681358"
       x="453.13898"
       height="53.152538"
       width="69.098297"
       id="rect3731-5"
       style="fill:#00ffff;stroke-width:0.98601329" />
  </g>
  <g
     aria-label="SURVIVOR"
     style="font-style:normal;font-weight:normal;font-size:40px;line-height:1.25;font-family:sans-serif;letter-spacing:0px;word-spacing:0px;fill:#ff0000;fill-opacity:1;stroke:none"
     id="text25"
     transform="matrix(1.640186,0,0,2.5194992,-394.85258,52.644069)">
    <path
       d="m 613.83541,17.843439 1.68,0.32 q 0.08,0 0.32,0.08 0.28,0.04 0.56,0.12 0.32,0.04 0.56,0.12 0.28,0.04 0.36,0.04 l 1.48,-0.24 q 0.68,-0.08 1.44,-0.04 0.8,0 1.04,-0.08 0.28,-0.04 0.32,-0.28 0.08,-0.24 0.08,-0.8 0,-0.6 -0.16,-1.08 -0.08,-0.24 -0.32,-0.24 -0.24,0 -0.4,-0.24 -0.08,-0.2 -0.08,-0.6 0,-0.44 -0.2,-0.6 -0.2,-0.2 -0.6,-0.16 -0.4,0 -0.72,-0.16 -0.2,-0.12 -0.32,-0.4 -0.12,-0.28 -0.24,-0.48 -0.2,-0.32 -0.8,-0.32 -0.32,0 -0.68,0.04 -0.32,0.04 -0.76,0.08 -0.44,0 -0.64,-0.32 -0.16,-0.36 -0.6,-0.56 -0.36,-0.12 -0.8,-0.16 -0.4,-0.04 -0.84,-0.04 -0.44,-0.04 -0.84,-0.04 -0.4,-0.04 -0.68,-0.16 -0.4,-0.12 -0.52,-0.48 -0.08,-0.4 -0.52,-0.6 -0.36,-0.2 -0.76,-0.28 -0.36,-0.12 -0.8,-0.4000001 -0.44,-0.32 -0.72,-0.84 -0.24,-0.52 -0.52,-0.96 -0.2,-0.24 -0.28,-0.36 -0.08,-0.16 -0.08,-0.56 0,-0.36 0,-0.84 0.04,-0.48 0.04,-0.92 0.04,-0.48 0.04,-0.84 0.04,-0.4 0.04,-0.6 0,-0.68 -0.08,-1.72 -0.04,-1.04 -0.04,-2.12000003 0,-1.15999997 0.12,-2.19999997 0.16,-1.08 0.6,-1.76 0.24,-0.36 0.92,-0.84 0.68,-0.48 1.16,-1.04 0.4,-0.52 0.52,-0.68 0.16,-0.2 0.84,-0.2 0.52,0 1.16,-0.04 0.64,-0.04 1.28,-0.12 0.68,-0.12 1.24,-0.32 0.6,-0.2 1,-0.56 0.04,-0.08 0.16,-0.12 0.12,-0.08 0.52,-0.12 0.4,-0.08 1.16,-0.12 0.76,-0.04 2.12,-0.04 0.72,0 1.64,0.12 0.96,0.12 2.12,0.16 0.64,0 1.32,-0.08 0.72,-0.08 1.76,-0.08 0.12,0 0.36,0.04 0.24,0 0.52,0.04 0.32,0.04 0.6,0.08 0.28,0.04 0.4,0.08 0.48,0.08 0.64,0.12 0.2,0.04 0.2,0.48 0,0.32 0.12,0.44 0.12,0.12 0.24,0.2 0.16,0.08 0.32,0.16 0.16,0.04 0.28,0.2 0,0.84 0.04,2.08 0.08,1.2 0.08,2.44 0,1.31999997 -0.12,2.07999997 -0.12,0.76000003 -0.12,1.08000003 0,0.12 0.04,0.36 0.08,0.24 0.16,0.56 0.12,0.32 0.16,0.64 0.08,0.28 0.08,0.52 0,0.08 -0.12,0.4 -0.12,0.28 -0.28,0.6 -0.16,0.32 -0.36,0.6 -0.16,0.24 -0.32,0.24 -0.2,0 -0.32,-0.2 -0.12,-0.2 -0.2,-0.48 -0.08,-0.28 -0.16,-0.56 -0.08,-0.28 -0.2,-0.4 -0.32,-0.4 -0.84,-0.6 -0.48,-0.2 -1.6,-0.28 -0.52,0 -0.92,0.16 -0.4,0.16 -0.76,0.36 -0.32,0.16 -0.68,0.32 -0.36,0.12 -0.84,0.12 -0.36,0 -0.6,-0.24 -0.2,-0.28 -0.4,-0.6 -0.16,-0.32 -0.44,-0.56 -0.24,-0.28 -0.72,-0.28 -0.24,0 -0.76,0.12 -0.52,0.08 -1.08,0.24 -0.52,0.12 -1.04,0.24 -0.52,0.12 -0.76,0.16 -0.08,0 -0.24,0.16 -0.12,0.12 -0.12,0.2 0,0.68 0.2,1.04 0.24,0.32 0.8,0.56 0.6,0.24 1.44,0.24 0.84,0 1.48,0.08 0.48,0.04 0.68,0.16 0.2,0.08 0.28,0.24 0.08,0.16 0.12,0.32 0.08,0.16 0.36,0.32 0.16,0.08 0.44,0.12 0.28,0 0.96,0 0.52,0 0.96,0.12 0.32,0.08 0.6,0.44 0.32,0.36 0.64,0.48 0.44,0.12 0.76,0.2 0.36,0.08 0.56,0.28 0.04,0 0.16,0.2 0.12,0.16 0.24,0.4 0.16,0.2 0.28,0.4 0.12,0.16 0.2,0.16 l 0.68,-0.52 q 0.56,0.16 1.4,0.88 0.84,0.7200001 1.32,1.6400001 0.08,0.16 0.12,0.36 0.08,0.16 0.12,0.48 0.04,0.32 0.04,0.88 0.04,0.52 0.04,1.36 v 11.24 q 0,1.12 -0.08,2 -0.08,0.88 -0.2,1.64 -0.08,0.72 -0.16,1.36 -0.08,0.64 -0.08,1.24 0,0.56 0.12,1.16 0.12,0.64 0.16,1.32 0,0.44 0.08,1.32 0.08,0.92 0.08,1.96 0,0.64 -0.08,1.24 -0.04,0.64 -0.2,1.12 -0.12,0.48 -0.4,0.76 -0.28,0.28 -0.68,0.28 -0.68,0 -1.04,-1.2 -0.36,-1.16 -0.36,-2.72 0,-1.28 0.08,-2.36 0.08,-1.08 0.16,-2.08 0.04,-0.32 0.24,-1.24 0.2,-0.96 0.2,-1.88 0,-0.76 -0.28,-1.32 -0.24,-0.56 -0.92,-0.56 -1.04,0 -1.52,0.48 -0.48,0.44 -0.84,1 -0.32,0.52 -0.72,0.96 -0.4,0.44 -1.2,0.44 -0.44,0 -0.68,-0.24 -0.24,-0.24 -0.44,-0.48 -0.16,-0.28 -0.36,-0.52 -0.16,-0.24 -0.52,-0.24 -0.16,0 -0.48,0.32 -0.28,0.28 -0.28,0.6 0,0.32 0.04,0.88 0.08,0.56 0.08,1 l -0.16,2.6 q 0,0.56 -0.16,1.16 -0.12,0.6 -0.88,0.6 -0.36,0 -0.6,-0.24 -0.2,-0.2 -0.32,-0.56 -0.12,-0.32 -0.16,-0.76 -0.04,-0.4 -0.04,-0.76 0,-0.32 0,-0.56 0.04,-0.24 0.04,-0.44 0,-0.56 0.08,-0.84 0.12,-0.32 0.12,-0.64 0,-0.4 -0.32,-0.92 -0.44,-0.64 -0.84,-1.2 -0.4,-0.6 -1.32,-0.6 -0.64,0 -0.96,0.4 -0.32,0.36 -0.56,0.84 -0.24,0.48 -0.56,0.88 -0.28,0.36 -0.8,0.36 -0.44,0 -0.68,-0.32 -0.24,-0.36 -0.48,-0.72 -0.24,-0.4 -0.56,-0.72 -0.32,-0.36 -0.84,-0.36 -0.92,0 -1.32,0.76 -0.4,0.72 -0.56,2.12 -0.04,0.2 -0.08,0.56 0,0.36 -0.08,0.72 -0.08,0.36 -0.24,0.6 -0.12,0.28 -0.36,0.28 -0.32,0 -0.6,-0.4 -0.24,-0.4 -0.24,-1.16 0,-0.44 0.08,-0.8 0.12,-0.36 0.24,-0.68 0.12,-0.36 0.2,-0.72 0.12,-0.36 0.12,-0.8 l -0.52,-5.36 q 0,-0.68 0.08,-1.16 0.08,-0.48 0.16,-0.84 0.08,-0.36 0.16,-0.72 0.08,-0.36 0.08,-0.8 0,-0.08 -0.2,-0.44 -0.16,-0.36 -0.16,-0.48 0,-0.6 0.48,-1.08 0.52,-0.52 0.96,-0.52 z m 1.52,18.44 q 0.32,0 0.56,0.4 0.24,0.44 0.36,0.96 0.16,0.56 0.24,1.08 0.08,0.52 0.08,0.68 0,0.92 -0.44,1.4 -0.4,0.52 -0.84,0.52 -0.4,0 -0.72,-0.4 -0.32,-0.36 -0.32,-1.12 0.04,-0.2 0.08,-0.8 0.04,-0.56 0.16,-1.16 0.12,-0.6 0.32,-1.08 0.2,-0.48 0.52,-0.48 z"
       style="font-style:normal;font-variant:normal;font-weight:normal;font-stretch:normal;font-family:'Pieces NFI';-inkscape-font-specification:'Pieces NFI';fill:#ff0000"
       id="path27"
       inkscape:connector-curvature="0" />
    <path
       d="m 653.91229,32.523439 q -0.6,0 -0.8,-0.56 -0.2,-0.56 -0.28,-1.2 -0.04,-0.68 -0.16,-1.24 -0.12,-0.56 -0.56,-0.56 h -2.52 q -0.12,0 -0.28,0.24 -0.12,0.2 -0.28,0.52 -0.12,0.32 -0.32,0.68 -0.16,0.36 -0.4,0.6 -0.32,0.4 -0.8,0.4 -0.36,0 -0.56,-0.4 -0.2,-0.4 -0.44,-0.84 -0.2,-0.44 -0.48,-0.8 -0.28,-0.4 -0.84,-0.4 -0.32,0 -0.52,0.12 -0.16,0.08 -0.32,0.2 -0.16,0.08 -0.36,0.2 -0.16,0.08 -0.44,0.08 -0.32,0 -0.52,-0.08 -0.2,-0.12 -0.4,-0.24 -0.16,-0.12 -0.36,-0.2 -0.2,-0.12 -0.48,-0.12 -0.48,0 -0.68,0.32 -0.16,0.32 -0.32,0.68 -0.12,0.36 -0.36,0.68 -0.2,0.32 -0.76,0.32 -0.56,0 -0.72,-0.6 -0.12,-0.6 -0.12,-1.08 0,-0.28 0,-0.48 0.04,-0.2 0.04,-0.36 -0.08,-0.32 -0.28,-0.52 -0.16,-0.24 -0.32,-0.52 l -1.68,-3.44 q -0.28,-0.6 -0.36,-1.16 -0.08,-0.56 -0.08,-1.04 0,-0.56 0.04,-1 0.08,-0.44 0.08,-0.88 v -0.24 q 0,-0.04 -0.12,-0.2 -0.08,-0.16 -0.24,-0.32 -0.12,-0.2 -0.24,-0.36 -0.12,-0.16 -0.12,-0.2 -0.48,-1.12 -0.64,-2.6 -0.16,-1.52 -0.16,-3.04 V 8.3234389 q 0,-0.28 0,-0.76 0.04,-0.52 0.04,-1 0,-0.52 0,-0.88 0.04,-0.4 0.04,-0.48 l 0.36,-0.36 v -8.28 q -0.32,-0.32 -0.48,-0.76 -0.12,-0.48 -0.12,-0.88 0,-0.88 0.48,-1.4 0.52,-0.56 1.4,-0.84 0.88,-0.32 2.08,-0.4 1.24,-0.12 2.64,-0.12 0.56,0 1.16,0 0.6,0 1.24,0.04 0.6,0.08 0.76,0.44 0.16,0.32 0.2,0.8 0.04,0.44 0.04,0.92 0.04,0.44 0.36,0.76 v 3.08 q 0,1.39999997 -0.08,2.92 -0.08,1.48 -0.16,3.52 0,0.56 0,1.8 0,1.2 0.08,3.7200001 l -0.24,4.04 q 0.04,0.6 0.16,0.92 0.12,0.28 0.28,0.48 0.16,0.2 0.32,0.44 0.16,0.2 0.32,0.68 0.12,0.04 0.48,0.12 0.36,0.04 0.76,0.12 0.4,0.04 0.76,0.08 0.36,0.04 0.52,0.04 0.16,0 0.56,-0.04 0.44,-0.04 0.88,-0.08 0.44,-0.08 0.84,-0.12 0.44,-0.08 0.6,-0.12 0.32,-0.08 0.4,-0.28 0.08,-0.24 0.08,-0.56 l -0.04,-1.08 q 0,-0.28 0.04,-0.52 0.04,-0.24 0.24,-0.44 V -7.8765611 h 8.64 q 0.04,0 0.28,0.64 0.28,0.64 1.16,2.36 0,1.72 0.08,3.08 0.12,1.35999997 0.12,2.59999997 0,0.56000003 -0.04,1.08000003 -0.04,0.48 -0.12,1.08 -0.04,0.56 -0.08,1.28 -0.04,0.72 -0.04,1.72 0,1.28 0.08,3 0.08,1.7200001 0.16,3.5600001 0.08,1.92 0.16,3.72 0.08,1.76 0.08,3.12 0,1.4 -0.12,2.72 -0.08,1.28 -0.32,2.64 -0.12,0.72 -0.4,1.48 -0.28,0.76 -0.28,1.52 0,0.6 0.24,1.16 0.28,0.56 0.28,1.24 0,0.2 -0.04,0.56 -0.04,0.36 -0.16,0.72 -0.08,0.32 -0.32,0.6 -0.2,0.24 -0.56,0.24 -0.2,0 -0.52,-0.16 -0.32,-0.16 -0.64,-0.48 -0.28,-0.32 -0.48,-0.76 -0.2,-0.48 -0.2,-1.08 0,-0.68 0.08,-1.48 0.12,-0.8 0.16,-1.72 -0.44,0 -1.12,0.24 -0.64,0.2 -1.28,0.56 -0.64,0.36 -1.16,0.84 -0.52,0.48 -0.68,1 0,0.08 0.04,0.44 0.04,0.36 0.04,0.8 0,0.72 -0.16,1.4 -0.16,0.68 -0.72,0.68 z m -1.12,2.6 q 0,-0.68 0.2,-1.28 0.2,-0.56 1.08,-0.56 0.28,0 0.52,0.64 0.28,0.68 0.44,1.52 0.16,0.84 0.24,1.64 0.12,0.84 0.12,1.12 0,0.52 -0.32,1.04 -0.32,0.56 -1,0.56 -0.84,0 -1.08,-0.8 -0.24,-0.8 -0.24,-1.64 0,-0.44 0,-0.8 0.04,-0.32 0.04,-0.56 z m 2.2,2.48 q -0.16,0 -0.24,0.12 -0.04,0.12 -0.04,0.24 0,0.36 0.28,0.36 0.28,0 0.28,-0.36 0,-0.12 -0.08,-0.24 -0.08,-0.12 -0.2,-0.12 z"
       style="font-style:normal;font-variant:normal;font-weight:normal;font-stretch:normal;font-family:'Pieces NFI';-inkscape-font-specification:'Pieces NFI';fill:#ff0000"
       id="path29"
       inkscape:connector-curvature="0" />
    <path
       d="m 686.52166,27.683439 q 0,-0.04 0.16,-0.24 0.2,-0.24 0.4,-0.56 0.24,-0.32 0.4,-0.68 0.16,-0.4 0.16,-0.8 -0.04,-0.28 -0.32,-0.48 -0.24,-0.2 -0.6,-0.4 -0.36,-0.2 -0.8,-0.48 -0.44,-0.28 -0.84,-0.68 h -1.2 q -0.08,0.64 -0.2,1.2 -0.08,0.56 -0.08,1.12 0,0.4 0.08,0.76 0.08,0.32 0.28,0.72 0.28,0.44 0.6,1.24 0.32,0.8 0.32,1.48 0,0.44 -0.24,0.72 -0.2,0.24 -0.84,0.24 -0.68,-0.08 -1.2,-0.44 -0.52,-0.4 -0.88,-0.96 -0.36,-0.56 -0.56,-1.24 -0.16,-0.72 -0.16,-1.4 0,-0.48 0.08,-0.92 0.08,-0.44 0.16,-0.92 0.08,-0.52 0.16,-1.16 0.08,-0.64 0.08,-1.52 -0.24,0.04 -0.52,0.04 -0.24,0 -0.44,0 -1.36,0 -2.28,-0.4 -0.88,-0.4 -1.64,-1.32 -0.4,-0.48 -0.8,-1.12 -0.4,-0.64 -0.84,-1.24 -0.4,-0.64 -0.88,-1.24 -0.44,-0.6 -0.96,-1.04 -0.08,0.04 -0.08,0.36 0,0.28 -0.04,0.52 0,0.32 -0.08,0.48 -0.08,0.16 -0.08,0.28 0,0.08 0.12,0.24 0.16,0.12 0.24,0.12 l 0.2,2.24 q 0,1.24 -0.32,2.32 -0.28,1.08 -0.28,2.28 0,0.64 0.04,1.24 0.08,0.6 0.16,1.24 0.08,0.44 0.28,1.32 0.24,0.84 0.24,1.6 0,0.56 -0.2,0.96 -0.2,0.36 -0.76,0.36 -0.44,0 -0.76,-0.48 -0.32,-0.52 -0.56,-1.2 -0.24,-0.72 -0.4,-1.48 -0.12,-0.76 -0.16,-1.32 0,-0.32 0,-0.88 0.04,-0.56 0.04,-1.12 0.04,-0.56 0.04,-1 0.04,-0.48 0.04,-0.68 -0.68,0 -1.2,0.56 -0.48,0.52 -0.48,2.24 0,1.64 0.24,3.28 0.28,1.6 0.28,3.12 0,0.4 -0.12,0.8 -0.08,0.44 -0.24,0.8 -0.16,0.36 -0.4,0.6 -0.24,0.24 -0.52,0.24 -0.32,0 -0.68,-0.32 -0.36,-0.32 -0.64,-0.8 -0.28,-0.48 -0.48,-1.04 -0.16,-0.56 -0.16,-1.08 0,-0.52 0.08,-1.16 0.08,-0.68 0.2,-1.28 0.12,-0.6 0.2,-1.04 0.12,-0.44 0.2,-0.6 0.04,-0.12 0.12,-0.56 0.08,-0.48 0.12,-0.96 0.04,-0.52 0.08,-0.96 0.04,-0.44 0.04,-0.56 0,-0.2 -0.04,-0.6 -0.04,-0.44 -0.12,-0.92 -0.04,-0.48 -0.12,-0.92 -0.04,-0.44 -0.08,-0.64 -0.56,-0.32 -1.16,-0.64 -0.6,-0.36 -0.96,-0.96 -0.24,-0.4 -0.36,-0.84 -0.12,-0.44 -0.2,-0.8 -0.08,-0.4 -0.12,-0.64 -0.04,-0.24 -0.08,-0.24 V -5.0765611 q 0.04,-0.08 0.08,-0.4 0.04,-0.32 0.08,-0.68 0.08,-0.36 0.2,-0.68 0.16,-0.32 0.36,-0.4 l 1.12,-0.08 q 1.32,-0.12 2.36,-0.2 1.08,-0.08 2.08,-0.12 1.04,-0.08 2.08,-0.12 1.08,-0.04 2.44,-0.04 h 3.96 q 0.4,0.6 1.04,0.8 0.64,0.2 1.32,0.32 0.72,0.12 1.4,0.28 0.72,0.12 1.28,0.6 0.04,0.04 0.04,0.08 0.04,0.04 0.12,0.08 0.28,0.28 0.8,0.76 0.56,0.48 1.12,1 0.56,0.52 1,1 0.48,0.44 0.68,0.64 0.24,0.28 0.4,0.88 0.2,0.55999997 0.32,1.23999997 0.12,0.64 0.16,1.24000003 0.08,0.56 0.08,0.84 0,0.8 -0.16,1.4 -0.16,0.6 -0.4,1.2 -0.2,0.56 -0.48,1.16 -0.24,0.56 -0.44,1.28 -0.08,0.28 -0.16,0.96 -0.08,0.64 -0.08,2.4000001 0,0.84 -0.28,1.32 -0.24,0.44 -1.08,0.44 -0.32,0 -0.56,-0.2 -0.2,-0.24 -0.36,-0.48 -0.12,-0.28 -0.28,-0.48 -0.12,-0.24 -0.28,-0.24 -0.04,0 -0.2,0.28 -0.16,0.28 -0.44,0.52 -0.28,0.28 -0.6,0.44 -0.28,0.16 -0.36,0.24 0.08,0.36 0.2,0.72 0.12,0.36 0.32,0.76 0.32,0.64 1.08,1.28 0.76,0.6 1.24,1.28 0.52,0.68 0.76,1.36 0.24,0.68 0.8,1.28 0.88,1.04 1.6,1.84 0.76,0.76 1.2,1.56 0.28,0.56 0.4,1.08 0.12,0.52 0.2,1.04 0.08,0.48 0.16,1.04 0.12,0.56 0.32,1.16 0,0.04 0.12,0.2 0.12,0.16 0.24,0.36 0.16,0.16 0.24,0.32 0.12,0.16 0.12,0.2 0,0.04 -0.08,0.16 -0.08,0.08 -0.2,0.4 -0.12,0.32 -0.28,0.96 -0.12,0.6 -0.24,1.6 -0.08,0.44 -0.12,1.08 0,0.6 -0.12,1.2 -0.08,0.64 -0.36,1.2 -0.24,0.6 -0.76,0.96 -0.64,-0.24 -1.2,-0.56 -0.52,-0.28 -0.92,-0.92 -0.36,-0.64 -0.6,-1.72 -0.2,-1.12 -0.2,-2.96 z m -13.32,-22.6800001 q 0,0.28 0.12,0.84 0.16,0.52 0.24,0.6 0.12,0.04 0.24,0.04 h 0.36 q 0.76,0 1.6,-0.16 0.88,-0.2 1.6,-0.6 0.76,-0.4 1.28,-1.04 0.56,-0.64 0.68,-1.6 0,-0.32 -0.24,-0.68 -0.2,-0.4 -0.64,-0.68 -0.4,-0.32 -0.96,-0.52 -0.56,-0.2 -1.2,-0.2 0.36,0.48 0.36,1.16 0,0.8 -0.36,1.36 -0.32,0.52 -0.96,0.52 -0.28,0 -0.56,-0.28 -0.24,-0.28 -0.44,-1.12 -0.12,-0.64 -0.12,-0.96 0.04,-0.32 -0.4,-0.44 -0.2,0.08 -0.32,0.64 -0.12,0.56 -0.2,1.24 -0.04,0.68 -0.08,1.24 0,0.56 0,0.64 z"
       style="font-style:normal;font-variant:normal;font-weight:normal;font-stretch:normal;font-family:'Pieces NFI';-inkscape-font-specification:'Pieces NFI';fill:#ff0000"
       id="path31"
       inkscape:connector-curvature="0" />
    <path
       d="m 698.84666,20.803439 q -0.2,-0.8 -0.4,-1.2 -0.2,-0.44 -0.48,-0.88 -0.24,-0.48 -0.56,-1.16 -0.08,-0.16 -0.28,-0.76 -0.2,-0.64 -0.6,-2 -0.4,-1.4 -1.04,-3.76 -0.64,-2.3600001 -1.64,-6.0400001 -0.12,-0.68 -0.4,-1.72 -0.24,-1.08 -0.52,-2.24 -0.24,-1.16000003 -0.44,-2.28 -0.16,-1.16 -0.16,-2 0,-0.04 0,-0.44 0.04,-0.44 0.04,-0.96 0.04,-0.52 0.08,-1 0.04,-0.48 0.04,-0.64 0.4,-0.04 0.52,-0.12 0.16,-0.12 0.24,-0.2 0.12,-0.12 0.24,-0.2 0.16,-0.12 0.56,-0.16 0.36,-0.04 1.2,-0.04 0.88,-0.04 1.84,-0.04 0.96,0 1.8,0.04 0.88,0 1.2,0.08 0.24,0.08 0.32,0.4 0.12,0.28 0.16,0.68 0.04,0.4 0.08,0.8 0.08,0.36 0.32,0.56 -0.04,0.08 -0.04,0.32 0,0.48 0.12,1.36 0.12,0.84 0.24,1.76 0.12,0.87999997 0.24,1.63999997 0.12,0.76000003 0.12,1.04000003 l 0.76,2.08 q 0.04,0.52 0.2,0.84 0.16,0.32 0.28,0.6 0.16,0.24 0.28,0.52 0.12,0.24 0.12,0.64 0,0.08 0,0.24 0,0.12 -0.04,0.44 0,0.64 0.24,1.28 0.24,0.64 0.4,0.64 l 1.08,2.0800001 q 0,1.08 0.08,2.4 0.12,1.28 0.76,2.12 0.12,0.12 0.28,0.28 0.16,0.12 0.24,0.12 0.32,0 0.56,-0.48 0.24,-0.52 0.56,-1.2 0.36,-0.84 0.68,-1.72 0.36,-0.92 0.56,-1.32 l 2.2,-6.9200001 q 0.08,-0.4 0.36,-1.2 0.32,-0.84 0.8,-1.72 0.32,-0.2 0.36,-0.48000003 0.08,-0.28 0.08,-0.64 v -0.76 q 0,-0.28 0.04,-0.55999997 0.04,-0.28 0.2,-0.56 0,-0.04 0.12,-0.36 0.12,-0.36 0.28,-0.88 0.16,-0.52 0.32,-1.12 0.2,-0.64 0.36,-1.24 0.32,-1.08 0.8,-1.36 0.48,-0.32 1.16,-0.32 0.24,0 0.52,0.04 0.32,0 0.92,0 0.44,0 1.12,0 0.68,-0.04 1.68,-0.08 0.56,0 1.08,0.04 0.56,0.04 1.08,0.2 -0.08,0.56 -0.24,1.76 -0.16,1.2 -0.36,2.52 -0.2,1.32 -0.4,2.51999997 -0.16,1.20000003 -0.2,1.72000003 -0.04,0.48 -0.2,1.32 -0.16,0.8 -0.44,1.64 -0.24,0.84 -0.6,1.56 -0.36,0.68 -0.76,0.88 0,0.2 -0.12,0.64 -0.08,0.44 -0.2,0.96 -0.08,0.48 -0.2,0.96 -0.08,0.4400001 -0.12,0.6400001 -0.04,0.2 -0.2,0.76 -0.12,0.56 -0.16,0.68 -0.08,0.12 -0.24,0.44 -0.12,0.28 -0.28,0.64 -0.16,0.32 -0.32,0.64 -0.16,0.28 -0.2,0.44 l -1.16,1.76 q 0,0.04 -0.08,0.24 -0.04,0.2 -0.12,0.48 -0.04,0.28 -0.12,0.56 -0.04,0.28 -0.12,0.44 -0.04,0.08 -0.36,0.4 -0.28,0.32 -0.28,0.4 -0.08,0.56 -0.24,1 -0.16,0.4 -0.32,0.8 -0.12,0.36 -0.28,0.76 -0.12,0.4 -0.2,0.92 l -0.28,2.28 q 0.12,0.48 0.32,1.04 0.24,0.52 0.48,1.08 0.24,0.56 0.4,1.16 0.16,0.56 0.16,1.08 -0.08,0.4 -0.24,1.04 -0.16,0.6 -0.48,1.2 -0.28,0.56 -0.72,1 -0.4,0.4 -0.96,0.4 -0.4,0 -0.64,-0.56 -0.24,-0.6 -0.36,-1.32 -0.12,-0.72 -0.16,-1.36 -0.04,-0.64 -0.04,-0.8 -0.36,0.12 -0.76,0.16 -0.36,0.04 -0.8,0.08 -0.24,0.88 -0.96,0.88 -0.52,0 -1,-0.2 -0.04,0.24 -0.04,0.48 0,0.2 0,0.52 0.04,0.2 0.08,0.44 0.04,0.24 0.04,0.56 0,0.56 -0.2,1.04 -0.16,0.48 -0.64,0.48 -0.08,0 -0.4,-0.08 -0.2,-0.08 -0.36,-0.56 -0.12,-0.52 -0.32,-0.8 l -0.36,0.36 q 0,0.04 -0.04,0.28 0,0.24 -0.04,0.52 0,0.32 0,0.6 0,0.32 0,0.48 0,1.44 0.28,2.64 0.28,1.2 0.28,2.56 0,0.32 -0.08,0.68 -0.04,0.36 -0.2,0.68 -0.12,0.32 -0.36,0.52 -0.2,0.24 -0.52,0.24 -0.48,0 -0.8,-0.32 -0.28,-0.32 -0.44,-0.84 -0.16,-0.48 -0.24,-1.12 -0.04,-0.6 -0.04,-1.2 0,-0.8 0.04,-1.52 0.08,-0.68 0.08,-0.92 0.08,-1.24 0.12,-2.24 0.04,-0.96 0.04,-1.96 0,-0.84 -0.12,-1.28 -0.08,-0.48 -0.2,-0.72 -0.12,-0.24 -0.24,-0.28 -0.12,-0.08 -0.2,-0.08 -0.12,0 -0.32,0.28 -0.16,0.24 -0.32,0.56 -0.12,0.32 -0.24,0.64 -0.08,0.28 -0.08,0.36 0,0.6 0.28,1.08 0.32,0.48 0.32,1.16 0,0.36 -0.04,0.72 0,0.4 -0.12,0.72 -0.12,0.32 -0.36,0.52 -0.24,0.2 -0.72,0.2 -0.56,0 -0.88,-0.52 -0.28,-0.48 -0.44,-1.2 -0.16,-0.68 -0.2,-1.44 0,-0.8 0,-1.4 0,-1.04 0.08,-1.64 0.12,-0.64 0.28,-1.16 z"
       style="font-style:normal;font-variant:normal;font-weight:normal;font-stretch:normal;font-family:'Pieces NFI';-inkscape-font-specification:'Pieces NFI';fill:#ff0000"
       id="path33"
       inkscape:connector-curvature="0" />
    <path
       d="m 724.76166,5.4834389 q 0,-0.72 0.04,-1.56 0.04,-0.84 0.04,-1.8 0,-0.84 -0.04,-1.72000003 -0.04,-0.92 -0.24,-1.95999997 -0.08,-0.44 -0.24,-0.84 -0.12,-0.44 -0.12,-0.96 0,-0.04 0,-0.12 0,-0.12 0,-0.4 0,-0.32 0,-0.88 0.04,-0.56 0.04,-1.56 0,0 0.04,-0.16 0.08,-0.2 0.12,-0.4 0.08,-0.2 0.12,-0.4 0.08,-0.2 0.12,-0.24 0.08,-0.08 0.4,-0.2 0.36,-0.16 0.4,-0.16 h 7.76 q 0.48,0 0.88,0.44 0.44,0.4 0.76,1 0.32,0.56 0.48,1.16 0.2,0.56 0.2,0.88 0,1.28 -0.32,2.56 -0.32,1.27999997 -0.76,2.47999997 -0.08,0.28 -0.12,0.72000003 0,0.44 0,1 0,0.32 0,0.68 0,0.36 -0.04,0.68 -0.08,0.48 -0.36,0.92 -0.24,0.4 -0.24,0.8 l 0.2,2.52 q 0,0.48 -0.12,0.84 -0.08,0.36 -0.12,0.8 -0.08,0.8400001 -0.16,1.6800001 -0.08,0.8 -0.08,1.36 0,0.48 0.16,0.96 0.2,0.48 0.4,1.4 0.2,0.92 0.2,1.48 0,0.6 -0.28,0.76 -0.28,0.12 -0.6,0.52 -0.68,0.8 -0.68,2.04 0,0.2 0.28,0.48 0.28,0.28 0.4,0.52 0.16,0.28 0.2,0.64 0.04,0.36 0.16,0.72 0.12,0.32 0.12,0.56 0.04,0.24 0.04,0.68 0,1.28 -1.04,1.8 -0.92,0.36 -0.92,1.4 0,0.32 0.04,0.48 0.08,0.4 0.2,0.72 0.16,0.28 0.32,0.68 0.16,0.36 0.24,0.88 0.12,0.48 0.12,1.28 0,0.6 -0.04,1.36 -0.04,0.76 -0.28,1.4 -0.24,0.68 -0.76,1.12 -0.48,0.48 -1.36,0.48 -0.96,0 -1.6,-0.88 -0.64,-0.88 -0.64,-1.84 0,-0.56 0.16,-1.16 0.16,-0.64 0.36,-1.24 0.2,-0.64 0.36,-1.28 0.16,-0.64 0.16,-1.28 0,-0.76 -0.08,-1.48 -0.08,-0.76 -0.08,-1.68 0,-0.56 -0.12,-1 -0.08,-0.48 -0.76,-1.04 -0.24,-0.16 -0.48,-0.24 -0.2,-0.08 -0.4,-0.16 -0.2,-0.12 -0.36,-0.28 -0.12,-0.16 -0.16,-0.48 -0.04,-0.2 -0.08,-0.36 -0.04,-0.16 -0.12,-0.36 -0.08,-0.16 -0.28,-0.16 -0.2,-0.04 -0.2,-0.32 0,-0.2 0.16,-0.36 0.2,-0.16 0.2,-0.4 0,-0.24 -0.04,-0.52 -0.04,-0.28 -0.16,-0.56 -0.04,-0.04 -0.24,-0.24 -0.16,-0.2 -0.4,-0.4 -0.2,-0.24 -0.4,-0.4 -0.2,-0.2 -0.2,-0.28 0,-0.04 -0.04,-0.44 -0.04,-0.44 -0.08,-1 -0.04,-0.56 -0.08,-1.12 -0.04,-0.56 -0.08,-0.88 -0.04,-0.08 -0.2,-0.36 -0.16,-0.32 -0.16,-1.2 0,-0.28 0.16,-0.84 0.2,-0.6 0.2,-1.0000001 0,-0.68 0.04,-1.36 0.08,-0.68 0.08,-1.84 z"
       style="font-style:normal;font-variant:normal;font-weight:normal;font-stretch:normal;font-family:'Pieces NFI';-inkscape-font-specification:'Pieces NFI';fill:#ff0000"
       id="path35"
       inkscape:connector-curvature="0" />
    <path
       d="m 744.08104,20.803439 q -0.2,-0.8 -0.4,-1.2 -0.2,-0.44 -0.48,-0.88 -0.24,-0.48 -0.56,-1.16 -0.08,-0.16 -0.28,-0.76 -0.2,-0.64 -0.6,-2 -0.4,-1.4 -1.04,-3.76 -0.64,-2.3600001 -1.64,-6.0400001 -0.12,-0.68 -0.4,-1.72 -0.24,-1.08 -0.52,-2.24 -0.24,-1.16000003 -0.44,-2.28 -0.16,-1.16 -0.16,-2 0,-0.04 0,-0.44 0.04,-0.44 0.04,-0.96 0.04,-0.52 0.08,-1 0.04,-0.48 0.04,-0.64 0.4,-0.04 0.52,-0.12 0.16,-0.12 0.24,-0.2 0.12,-0.12 0.24,-0.2 0.16,-0.12 0.56,-0.16 0.36,-0.04 1.2,-0.04 0.88,-0.04 1.84,-0.04 0.96,0 1.8,0.04 0.88,0 1.2,0.08 0.24,0.08 0.32,0.4 0.12,0.28 0.16,0.68 0.04,0.4 0.08,0.8 0.08,0.36 0.32,0.56 -0.04,0.08 -0.04,0.32 0,0.48 0.12,1.36 0.12,0.84 0.24,1.76 0.12,0.87999997 0.24,1.63999997 0.12,0.76000003 0.12,1.04000003 l 0.76,2.08 q 0.04,0.52 0.2,0.84 0.16,0.32 0.28,0.6 0.16,0.24 0.28,0.52 0.12,0.24 0.12,0.64 0,0.08 0,0.24 0,0.12 -0.04,0.44 0,0.64 0.24,1.28 0.24,0.64 0.4,0.64 l 1.08,2.0800001 q 0,1.08 0.08,2.4 0.12,1.28 0.76,2.12 0.12,0.12 0.28,0.28 0.16,0.12 0.24,0.12 0.32,0 0.56,-0.48 0.24,-0.52 0.56,-1.2 0.36,-0.84 0.68,-1.72 0.36,-0.92 0.56,-1.32 l 2.2,-6.9200001 q 0.08,-0.4 0.36,-1.2 0.32,-0.84 0.8,-1.72 0.32,-0.2 0.36,-0.48000003 0.08,-0.28 0.08,-0.64 v -0.76 q 0,-0.28 0.04,-0.55999997 0.04,-0.28 0.2,-0.56 0,-0.04 0.12,-0.36 0.12,-0.36 0.28,-0.88 0.16,-0.52 0.32,-1.12 0.2,-0.64 0.36,-1.24 0.32,-1.08 0.8,-1.36 0.48,-0.32 1.16,-0.32 0.24,0 0.52,0.04 0.32,0 0.92,0 0.44,0 1.12,0 0.68,-0.04 1.68,-0.08 0.56,0 1.08,0.04 0.56,0.04 1.08,0.2 -0.08,0.56 -0.24,1.76 -0.16,1.2 -0.36,2.52 -0.2,1.32 -0.4,2.51999997 -0.16,1.20000003 -0.2,1.72000003 -0.04,0.48 -0.2,1.32 -0.16,0.8 -0.44,1.64 -0.24,0.84 -0.6,1.56 -0.36,0.68 -0.76,0.88 0,0.2 -0.12,0.64 -0.08,0.44 -0.2,0.96 -0.08,0.48 -0.2,0.96 -0.08,0.4400001 -0.12,0.6400001 -0.04,0.2 -0.2,0.76 -0.12,0.56 -0.16,0.68 -0.08,0.12 -0.24,0.44 -0.12,0.28 -0.28,0.64 -0.16,0.32 -0.32,0.64 -0.16,0.28 -0.2,0.44 l -1.16,1.76 q 0,0.04 -0.08,0.24 -0.04,0.2 -0.12,0.48 -0.04,0.28 -0.12,0.56 -0.04,0.28 -0.12,0.44 -0.04,0.08 -0.36,0.4 -0.28,0.32 -0.28,0.4 -0.08,0.56 -0.24,1 -0.16,0.4 -0.32,0.8 -0.12,0.36 -0.28,0.76 -0.12,0.4 -0.2,0.92 l -0.28,2.28 q 0.12,0.48 0.32,1.04 0.24,0.52 0.48,1.08 0.24,0.56 0.4,1.16 0.16,0.56 0.16,1.08 -0.08,0.4 -0.24,1.04 -0.16,0.6 -0.48,1.2 -0.28,0.56 -0.72,1 -0.4,0.4 -0.96,0.4 -0.4,0 -0.64,-0.56 -0.24,-0.6 -0.36,-1.32 -0.12,-0.72 -0.16,-1.36 -0.04,-0.64 -0.04,-0.8 -0.36,0.12 -0.76,0.16 -0.36,0.04 -0.8,0.08 -0.24,0.88 -0.96,0.88 -0.52,0 -1,-0.2 -0.04,0.24 -0.04,0.48 0,0.2 0,0.52 0.04,0.2 0.08,0.44 0.04,0.24 0.04,0.56 0,0.56 -0.2,1.04 -0.16,0.48 -0.64,0.48 -0.08,0 -0.4,-0.08 -0.2,-0.08 -0.36,-0.56 -0.12,-0.52 -0.32,-0.8 l -0.36,0.36 q 0,0.04 -0.04,0.28 0,0.24 -0.04,0.52 0,0.32 0,0.6 0,0.32 0,0.48 0,1.44 0.28,2.64 0.28,1.2 0.28,2.56 0,0.32 -0.08,0.68 -0.04,0.36 -0.2,0.68 -0.12,0.32 -0.36,0.52 -0.2,0.24 -0.52,0.24 -0.48,0 -0.8,-0.32 -0.28,-0.32 -0.44,-0.84 -0.16,-0.48 -0.24,-1.12 -0.04,-0.6 -0.04,-1.2 0,-0.8 0.04,-1.52 0.08,-0.68 0.08,-0.92 0.08,-1.24 0.12,-2.24 0.04,-0.96 0.04,-1.96 0,-0.84 -0.12,-1.28 -0.08,-0.48 -0.2,-0.72 -0.12,-0.24 -0.24,-0.28 -0.12,-0.08 -0.2,-0.08 -0.12,0 -0.32,0.28 -0.16,0.24 -0.32,0.56 -0.12,0.32 -0.24,0.64 -0.08,0.28 -0.08,0.36 0,0.6 0.28,1.08 0.32,0.48 0.32,1.16 0,0.36 -0.04,0.72 0,0.4 -0.12,0.72 -0.12,0.32 -0.36,0.52 -0.24,0.2 -0.72,0.2 -0.56,0 -0.88,-0.52 -0.28,-0.48 -0.44,-1.2 -0.16,-0.68 -0.2,-1.44 0,-0.8 0,-1.4 0,-1.04 0.08,-1.64 0.12,-0.64 0.28,-1.16 z"
       style="font-style:normal;font-variant:normal;font-weight:normal;font-stretch:normal;font-family:'Pieces NFI';-inkscape-font-specification:'Pieces NFI';fill:#ff0000"
       id="path37"
       inkscape:connector-curvature="0" />
    <path
       d="m 780.95604,29.723439 q 0.12,-0.64 0.36,-1.2 0.24,-0.6 0.56,-1.12 0.2,-0.32 0.36,-0.56 0.2,-0.28 0.2,-0.64 0,-0.88 -0.2,-1.52 -0.16,-0.68 -0.4,-1.24 -0.76,-2 -2.76,-2 -0.56,0 -1.16,0.12 0.12,0.36 0.16,1.24 0.08,0.88 0.08,1.68 0,0.88 -0.08,1.28 -0.2,0.76 -0.52,1.08 -0.32,0.32 -0.68,0.32 -0.36,0 -0.68,-0.32 -0.32,-0.32 -0.4,-0.88 -0.12,-0.84 -0.12,-1.68 0,-0.4 0,-0.68 0.04,-0.32 0.04,-0.48 -0.08,-0.68 -0.24,-1.36 -0.16,-0.72 -0.28,-1.4 -0.24,-0.16 -0.4,-0.4 -0.12,-0.28 -0.24,-0.52 -0.12,-0.24 -0.32,-0.4 -0.16,-0.16 -0.48,-0.16 l -1.92,2.48 q -0.48,0 -0.84,-0.48 -0.32,-0.48 -0.32,-1.4 v -1.8 q 0,-2.2 -0.12,-3.12 -0.12,-0.92 -0.2,-1.16 -0.16,-1.04 -0.56,-2.2 -0.36,-1.2 -0.36,-2.4800001 v -1.8 q 0,-1.28 0.12,-2.52 0.12,-1.24 0.6,-2.4 0.24,-0.6 0.6,-1.36000003 0.36,-0.76 0.68,-1.56 0.36,-0.79999997 0.64,-1.59999997 0.28,-0.84 0.4,-1.52 l 3.08,-2.36 q 0.36,-0.28 0.84,-0.36 0.48,-0.12 0.92,-0.2 0.48,-0.12 0.84,-0.28 0.4,-0.2 0.6,-0.64 h 9 q 1.04,0.6 1.96,0.84 0.96,0.24 1.6,0.68 0.72,0.52 1.12,1.28 0.44,0.76 1,1.44 0.32,0.36 0.6,0.52 0.32,0.12 0.64,0.68 0.32,0.52 0.64,1.43999997 0.36,0.88 0.76,1.56 0.12,0.24 0.28,0.60000003 0.2,0.32 0.36,0.68 0.2,0.32 0.32,0.6 0.12,0.24 0.12,0.28 v 5.4 q -0.48,0.56 -0.64,1.4 -0.16,0.8400001 -0.16,1.7600001 0,0.68 0.04,1.4 0.04,0.72 0.04,1.56 0,0.36 -0.04,1.24 -0.04,0.84 -0.12,1.84 -0.04,0.96 -0.12,1.84 -0.04,0.88 -0.08,1.2 -0.12,0.08 -0.28,0.32 -0.16,0.2 -0.32,0.48 -0.16,0.28 -0.28,0.56 -0.08,0.24 -0.08,0.36 0,0.6 0.36,1.12 0.36,0.52 0.68,1.32 0.68,1.6 0.68,4.16 0,1.52 -0.64,2.52 -0.64,0.96 -1.4,1.28 -0.72,0 -1.16,-0.6 -0.44,-0.6 -0.68,-1.4 -0.24,-0.84 -0.32,-1.68 -0.08,-0.88 -0.08,-1.4 0,-1.04 0.32,-2.08 0.32,-1.08 0.32,-2.12 0,-0.4 -0.2,-0.56 -0.2,-0.16 -0.2,-0.64 l 0.32,-3.4 q -0.64,0 -1.2,0.48 -0.52,0.44 -1.08,0.88 -0.52,0.44 -0.96,0.72 -0.44,0.24 -0.64,0.76 -0.24,0.68 -0.24,1.2 0,0.6 0.12,1.12 0.16,0.48 0.16,0.92 0,0.32 -0.04,0.44 -0.24,0.88 -0.6,1.32 -0.36,0.4 -0.72,0.4 -0.8,0 -1.2,-1.44 0.16,-0.76 0.28,-1.4 0.12,-0.64 0.12,-1.36 0,-0.52 -0.32,-0.68 -0.32,-0.2 -0.8,-0.2 -0.96,0 -1.4,0.92 -0.4,0.88 -0.4,2.36 0.04,0.56 0.24,1.2 0.2,0.6 0.44,1.36 0.24,0.72 0.44,1.6 0.2,0.84 0.2,1.84 0,0.32 -0.2,0.72 -0.16,0.4 -0.44,0.76 -0.28,0.36 -0.64,0.6 -0.36,0.28 -0.68,0.28 -0.16,0 -0.24,-0.04 -0.48,-0.16 -0.92,-0.56 -0.4,-0.36 -0.76,-0.8 -0.32,-0.48 -0.52,-1 -0.2,-0.52 -0.2,-1 0,-0.08 0,-0.12 0.04,-0.08 0.04,-0.16 z m -2.88,-18.36 q 0.12,0.24 0.4,0.32 0.28,0.04 0.48,0.24 0.28,0.32 0.44,0.68 0.2,0.36 0.52,0.56 0.36,0.2 0.72,0.2 0.36,0 0.8,0.08 0.64,0.16 1.28,0.32 0.68,0.16 1.32,0.16 1.32,0 2.04,-0.68 0.72,-0.72 1.36,-1.84 0.44,-0.84 0.96,-1.8400001 0.52,-1.04 0.52,-1.96 0,-0.32 -0.2,-1 -0.16,-0.72 -0.36,-1.48 -0.2,-0.76 -0.4,-1.44 -0.16,-0.68 -0.16,-0.96 -0.28,0.2 -0.56,0.32 -0.28,0.12 -0.6,0.12 l 0.6,3.52 q 0,0.36 -0.04,0.8 -0.04,0.4 -0.2,0.8 -0.12,0.4 -0.36,0.76 -0.24,0.36 -0.64,0.52 -0.92,-0.6 -1.28,-1.24 -0.36,-0.68 -0.36,-1.68 l 0.56,-3.56 q 0,-0.6 -0.04,-1.24 -0.04,-0.64 -0.24,-1.12000003 -0.2,-0.52 -0.6,-0.84 -0.4,-0.32 -1.16,-0.32 0,0.52 0.08,1.52000003 0.12,0.96 0.12,2 0,0.72 -0.08,1.44 -0.08,0.68 -0.32,1.24 -0.2,0.52 -0.6,0.84 -0.4,0.32 -1,0.32 -0.44,0 -0.72,-0.32 -0.28,-0.32 -0.44,-0.84 -0.16,-0.52 -0.24,-1.12 -0.04,-0.6 -0.04,-1.2 0,-0.68 0.04,-1.24 0.04,-0.56 0.04,-0.76 -0.32,0 -0.68,0.24 -0.36,0.24 -0.72,0.6 -0.04,0.04 -0.08,0.24 0,0.2 -0.08,0.44 -0.04,0.24 -0.12,0.48 -0.04,0.2 -0.16,0.32 -0.04,0.04 -0.12,0.08 -0.08,0.04 -0.4,0.12 0,0.28 0.08,0.4 0.08,0.12 0.16,0.28 0.12,0.12 0.2,0.36 0.08,0.2 0.08,0.6 0,0.6 -0.28,1.2 -0.24,0.6 -0.24,1.16 0,0.12 0.08,0.56 0.12,0.44 0.24,0.96 0.12,0.48 0.24,0.9600001 0.12,0.44 0.16,0.56 z"
       style="font-style:normal;font-variant:normal;font-weight:normal;font-stretch:normal;font-family:'Pieces NFI';-inkscape-font-specification:'Pieces NFI';fill:#ff0000"
       id="path39"
       inkscape:connector-curvature="0" />
    <path
       d="m 821.44354,27.683439 q 0,-0.04 0.16,-0.24 0.2,-0.24 0.4,-0.56 0.24,-0.32 0.4,-0.68 0.16,-0.4 0.16,-0.8 -0.04,-0.28 -0.32,-0.48 -0.24,-0.2 -0.6,-0.4 -0.36,-0.2 -0.8,-0.48 -0.44,-0.28 -0.84,-0.68 h -1.2 q -0.08,0.64 -0.2,1.2 -0.08,0.56 -0.08,1.12 0,0.4 0.08,0.76 0.08,0.32 0.28,0.72 0.28,0.44 0.6,1.24 0.32,0.8 0.32,1.48 0,0.44 -0.24,0.72 -0.2,0.24 -0.84,0.24 -0.68,-0.08 -1.2,-0.44 -0.52,-0.4 -0.88,-0.96 -0.36,-0.56 -0.56,-1.24 -0.16,-0.72 -0.16,-1.4 0,-0.48 0.08,-0.92 0.08,-0.44 0.16,-0.92 0.08,-0.52 0.16,-1.16 0.08,-0.64 0.08,-1.52 -0.24,0.04 -0.52,0.04 -0.24,0 -0.44,0 -1.36,0 -2.28,-0.4 -0.88,-0.4 -1.64,-1.32 -0.4,-0.48 -0.8,-1.12 -0.4,-0.64 -0.84,-1.24 -0.4,-0.64 -0.88,-1.24 -0.44,-0.6 -0.96,-1.04 -0.08,0.04 -0.08,0.36 0,0.28 -0.04,0.52 0,0.32 -0.08,0.48 -0.08,0.16 -0.08,0.28 0,0.08 0.12,0.24 0.16,0.12 0.24,0.12 l 0.2,2.24 q 0,1.24 -0.32,2.32 -0.28,1.08 -0.28,2.28 0,0.64 0.04,1.24 0.08,0.6 0.16,1.24 0.08,0.44 0.28,1.32 0.24,0.84 0.24,1.6 0,0.56 -0.2,0.96 -0.2,0.36 -0.76,0.36 -0.44,0 -0.76,-0.48 -0.32,-0.52 -0.56,-1.2 -0.24,-0.72 -0.4,-1.48 -0.12,-0.76 -0.16,-1.32 0,-0.32 0,-0.88 0.04,-0.56 0.04,-1.12 0.04,-0.56 0.04,-1 0.04,-0.48 0.04,-0.68 -0.68,0 -1.2,0.56 -0.48,0.52 -0.48,2.24 0,1.64 0.24,3.28 0.28,1.6 0.28,3.12 0,0.4 -0.12,0.8 -0.08,0.44 -0.24,0.8 -0.16,0.36 -0.4,0.6 -0.24,0.24 -0.52,0.24 -0.32,0 -0.68,-0.32 -0.36,-0.32 -0.64,-0.8 -0.28,-0.48 -0.48,-1.04 -0.16,-0.56 -0.16,-1.08 0,-0.52 0.08,-1.16 0.08,-0.68 0.2,-1.28 0.12,-0.6 0.2,-1.04 0.12,-0.44 0.2,-0.6 0.04,-0.12 0.12,-0.56 0.08,-0.48 0.12,-0.96 0.04,-0.52 0.08,-0.96 0.04,-0.44 0.04,-0.56 0,-0.2 -0.04,-0.6 -0.04,-0.44 -0.12,-0.92 -0.04,-0.48 -0.12,-0.92 -0.04,-0.44 -0.08,-0.64 -0.56,-0.32 -1.16,-0.64 -0.6,-0.36 -0.96,-0.96 -0.24,-0.4 -0.36,-0.84 -0.12,-0.44 -0.2,-0.8 -0.08,-0.4 -0.12,-0.64 -0.04,-0.24 -0.08,-0.24 V -5.0765611 q 0.04,-0.08 0.08,-0.4 0.04,-0.32 0.08,-0.68 0.08,-0.36 0.2,-0.68 0.16,-0.32 0.36,-0.4 l 1.12,-0.08 q 1.32,-0.12 2.36,-0.2 1.08,-0.08 2.08,-0.12 1.04,-0.08 2.08,-0.12 1.08,-0.04 2.44,-0.04 h 3.96 q 0.4,0.6 1.04,0.8 0.64,0.2 1.32,0.32 0.72,0.12 1.4,0.28 0.72,0.12 1.28,0.6 0.04,0.04 0.04,0.08 0.04,0.04 0.12,0.08 0.28,0.28 0.8,0.76 0.56,0.48 1.12,1 0.56,0.52 1,1 0.48,0.44 0.68,0.64 0.24,0.28 0.4,0.88 0.2,0.55999997 0.32,1.23999997 0.12,0.64 0.16,1.24000003 0.08,0.56 0.08,0.84 0,0.8 -0.16,1.4 -0.16,0.6 -0.4,1.2 -0.2,0.56 -0.48,1.16 -0.24,0.56 -0.44,1.28 -0.08,0.28 -0.16,0.96 -0.08,0.64 -0.08,2.4000001 0,0.84 -0.28,1.32 -0.24,0.44 -1.08,0.44 -0.32,0 -0.56,-0.2 -0.2,-0.24 -0.36,-0.48 -0.12,-0.28 -0.28,-0.48 -0.12,-0.24 -0.28,-0.24 -0.04,0 -0.2,0.28 -0.16,0.28 -0.44,0.52 -0.28,0.28 -0.6,0.44 -0.28,0.16 -0.36,0.24 0.08,0.36 0.2,0.72 0.12,0.36 0.32,0.76 0.32,0.64 1.08,1.28 0.76,0.6 1.24,1.28 0.52,0.68 0.76,1.36 0.24,0.68 0.8,1.28 0.88,1.04 1.6,1.84 0.76,0.76 1.2,1.56 0.28,0.56 0.4,1.08 0.12,0.52 0.2,1.04 0.08,0.48 0.16,1.04 0.12,0.56 0.32,1.16 0,0.04 0.12,0.2 0.12,0.16 0.24,0.36 0.16,0.16 0.24,0.32 0.12,0.16 0.12,0.2 0,0.04 -0.08,0.16 -0.08,0.08 -0.2,0.4 -0.12,0.32 -0.28,0.96 -0.12,0.6 -0.24,1.6 -0.08,0.44 -0.12,1.08 0,0.6 -0.12,1.2 -0.08,0.64 -0.36,1.2 -0.24,0.6 -0.76,0.96 -0.64,-0.24 -1.2,-0.56 -0.52,-0.28 -0.92,-0.92 -0.36,-0.64 -0.6,-1.72 -0.2,-1.12 -0.2,-2.96 z m -13.32,-22.6800001 q 0,0.28 0.12,0.84 0.16,0.52 0.24,0.6 0.12,0.04 0.24,0.04 h 0.36 q 0.76,0 1.6,-0.16 0.88,-0.2 1.6,-0.6 0.76,-0.4 1.28,-1.04 0.56,-0.64 0.68,-1.6 0,-0.32 -0.24,-0.68 -0.2,-0.4 -0.64,-0.68 -0.4,-0.32 -0.96,-0.52 -0.56,-0.2 -1.2,-0.2 0.36,0.48 0.36,1.16 0,0.8 -0.36,1.36 -0.32,0.52 -0.96,0.52 -0.28,0 -0.56,-0.28 -0.24,-0.28 -0.44,-1.12 -0.12,-0.64 -0.12,-0.96 0.04,-0.32 -0.4,-0.44 -0.2,0.08 -0.32,0.64 -0.12,0.56 -0.2,1.24 -0.04,0.68 -0.08,1.24 0,0.56 0,0.64 z"
       style="font-style:normal;font-variant:normal;font-weight:normal;font-stretch:normal;font-family:'Pieces NFI';-inkscape-font-specification:'Pieces NFI';fill:#ff0000"
       id="path41"
       inkscape:connector-curvature="0" />
  </g>
</svg>
