<?xml version="1.0" encoding="iso-8859-1"?>
<!DOCTYPE svg PUBLIC "-//W3C//DTD SVG 1.1//EN" "http://www.w3.org/Graphics/SVG/1.1/DTD/svg11.dtd">
<svg width="50.0" height="100.0" version="1.1" xmlns="http://www.w3.org/2000/svg" xmlns:xlink="http://www.w3.org/1999/xlink">
<path fill="#00f0ff" transform="scale(.1,-.1) translate (0, -800)" glyph-name="two" unicode="2" horiz-adv-x="365" 
d="M201 -38c-81 -17 -140 -26 -178 -28l-10 6v3h-9l-6 4c-2 24 0 31 59 145c127 245 172 348 172 407c0 31 -27 94 -48 112c-25 -1 -61 -26 -108 -75c2 7 4 20 6 39c-6 -5 -12 -11 -17 -17c9 72 32 110 69 115c9 4 18 6 29 6c91 0 152 -99 152 -246
c0 -100 -31 -149 -199 -374c77 24 157 36 231 36l9 -4c5 -15 7 -37 7 -64c-4 -26 -17 -36 -159 -65zM97 591c-1 -4 -2 -8 -3 -13c21 20 41 34 59 41c-17 -3 -35 -12 -56 -28zM89 52c172 222 208 285 208 381c0 115 -41 205 -103 226c54 -32 89 -120 89 -224
c0 -103 -25 -137 -212 -389zM344 20c2 13 1 42 -3 60h-14c3 -12 4 -29 4 -52c-3 -15 -4 -18 -42 -30c31 9 49 16 55 22z" />
</svg>