<?xml version="1.0" encoding="iso-8859-1"?>
<!DOCTYPE svg PUBLIC "-//W3C//DTD SVG 1.1//EN" "http://www.w3.org/Graphics/SVG/1.1/DTD/svg11.dtd">
<svg width="50.0" height="100.0" version="1.1" xmlns="http://www.w3.org/2000/svg" xmlns:xlink="http://www.w3.org/1999/xlink">
<path fill="#00f0ff" transform="scale(.1,-.1) translate (0, -800)" glyph-name="three" unicode="3" horiz-adv-x="365" 
d="M126 281v12h-11l-6 6c0 29 10 57 19 63c55 -8 104 65 104 121c0 46 -25 97 -45 112c-26 0 -54 -19 -82 -43l5 48c-7 -4 -13 -9 -20 -15l5 45c17 21 35 31 52 31c16 0 31 -3 44 -10c69 -11 119 -91 119 -192c0 -56 -24 -96 -71 -120c79 -21 119 -85 119 -193
c0 -138 -100 -239 -238 -239c-45 0 -89 34 -116 85c15 27 31 51 49 72l11 -20l15 18c37 -72 62 -79 92 -82c46 0 100 86 100 153c0 57 -39 137 -118 137h-17zM126 609l-2 -22c17 13 35 20 52 22c-3 3 -7 6 -11 9c-16 0 -25 -2 -39 -9zM216 346c53 23 79 60 79 113
c0 69 -20 120 -60 155c29 -39 43 -85 43 -140s-21 -88 -79 -124c6 -1 13 -2 17 -4zM93 10c-6 8 -12 16 -17 25l-3 -3c7 -9 13 -16 20 -22zM82 -70c11 -5 24 -8 38 -8c128 0 223 95 223 224c0 70 -17 120 -52 150c23 -31 35 -76 35 -134c0 -138 -94 -232 -244 -232zM142 292
h-1l1 -7l32 -2c-11 5 -21 8 -32 9z" />
</svg>