<?xml version="1.0" encoding="iso-8859-1"?>
<!DOCTYPE svg PUBLIC "-//W3C//DTD SVG 1.1//EN" "http://www.w3.org/Graphics/SVG/1.1/DTD/svg11.dtd">
<svg width="50.0" height="100.0" version="1.1" xmlns="http://www.w3.org/2000/svg" xmlns:xlink="http://www.w3.org/1999/xlink">
<path fill="#00f0ff" transform="scale(.1,-.1) translate (0, -800)" glyph-name="five" unicode="5" horiz-adv-x="380" 
d="M183 542c-14 -43 -19 -77 -19 -122c107 0 206 -137 206 -274c0 -138 -100 -239 -237 -239c-22 0 -40 6 -54 18c-24 8 -44 25 -60 52c17 28 35 52 53 73c3 -7 5 -13 8 -18c7 9 14 17 22 26c23 -53 53 -82 91 -87c41 13 86 106 86 167c0 84 -71 172 -155 193l-4 -2l-15 3
l1 10c-3 1 -7 2 -11 3l-4 -2l-6 1c26 187 45 288 58 301c7 -2 13 -4 19 -6l7 8c60 -16 109 -35 148 -58c10 -11 11 -24 11 -74l-12 -7c-53 7 -98 19 -133 34zM149 419c-1 3 -2 7 -2 12c0 8 15 100 23 119l-15 6c-7 -37 -15 -83 -23 -138zM135 -78c127 1 220 96 220 224
c0 97 -72 227 -139 252c61 -43 119 -163 119 -246c0 -121 -83 -217 -200 -230zM143 -26c-18 13 -33 31 -45 56c-3 -3 -7 -7 -10 -12c15 -21 34 -36 55 -44z" />
</svg>