<?xml version="1.0" encoding="iso-8859-1"?>
<!DOCTYPE svg PUBLIC "-//W3C//DTD SVG 1.1//EN" "http://www.w3.org/Graphics/SVG/1.1/DTD/svg11.dtd">
<svg width="50.0" height="100.0" version="1.1" xmlns="http://www.w3.org/2000/svg" xmlns:xlink="http://www.w3.org/1999/xlink">
<path fill="#00f0ff" transform="scale(.1,-.1) translate (0, -800)" glyph-name="six" unicode="6" horiz-adv-x="386" 
d="M290 355c65 -27 97 -99 97 -214c0 -133 -86 -224 -212 -224c-44 0 -78 22 -101 66c-35 41 -52 107 -52 197c0 87 12 177 35 270c33 132 80 198 139 198c10 0 34 -7 73 -22v-6c6 -2 17 -6 33 -12v-56c-27 14 -43 21 -47 21c-60 0 -102 -79 -127 -237c20 31 44 46 72 46
c37 0 67 -9 90 -27zM285 577v21c-6 3 -11 5 -16 6v-16c-20 10 -33 15 -38 15c-83 0 -145 -173 -145 -374c6 27 13 50 22 69c17 175 75 290 147 290c5 0 15 -4 30 -11zM225 298c-49 0 -96 -90 -96 -177c0 -57 16 -100 47 -129c9 -3 18 -4 27 -4c51 0 99 91 99 164
c0 74 -34 146 -77 146zM138 19c-16 31 -24 65 -24 102c0 98 54 192 111 192c5 0 11 -1 16 -2c-13 11 -26 17 -41 17c-49 0 -62 -35 -99 -191l1 55c-3 -17 -5 -33 -5 -48c0 -51 14 -93 41 -125zM222 -42c-22 -7 -46 -11 -72 -11c-12 0 -23 2 -34 6c17 -14 36 -21 59 -21
c119 0 197 83 197 209c0 78 -15 134 -45 169c19 -35 28 -84 28 -146c0 -57 -18 -108 -55 -154c-34 -43 -42 -52 -78 -52z" />
</svg>