<?xml version="1.0" encoding="iso-8859-1"?>
<!DOCTYPE svg PUBLIC "-//W3C//DTD SVG 1.1//EN" "http://www.w3.org/Graphics/SVG/1.1/DTD/svg11.dtd">
<svg width="50.0" height="100.0" version="1.1" xmlns="http://www.w3.org/2000/svg" xmlns:xlink="http://www.w3.org/1999/xlink">
<path fill="#00f0ff" transform="scale(.1,-.1) translate (0, -800)" glyph-name="eight" unicode="8" horiz-adv-x="337" 
d="M169 659c80 0 141 -87 141 -199c0 -55 -23 -96 -69 -124c99 -75 122 -114 122 -210c0 -123 -98 -205 -229 -205c-25 0 -47 7 -65 20c-43 19 -64 63 -64 134c0 114 39 199 117 256c-39 43 -58 87 -58 133c0 137 34 195 105 195zM184 613c-22 0 -47 -49 -47 -88
c0 -48 24 -93 71 -134c-3 -7 -4 -11 -4 -14c22 27 33 58 33 91c0 38 -30 119 -53 145zM210 343l-5 -1c100 -74 127 -109 127 -211c0 -100 -72 -178 -177 -194c113 8 193 87 193 189c0 101 -31 135 -134 213c54 28 81 68 81 121c0 79 -36 153 -87 176c37 -28 71 -93 71 -171
c0 -54 -18 -83 -69 -122zM189 377c0 3 1 6 2 9c-46 41 -69 88 -69 139c0 40 22 86 46 99c-39 0 -61 -47 -61 -94c0 -50 23 -95 69 -136c-1 -5 -2 -9 -2 -12c0 -5 5 -13 14 -24c1 2 3 4 5 6c-3 4 -4 8 -4 13zM165 294l-6 1c-41 -57 -62 -113 -62 -169c0 -76 43 -134 102 -138
c38 14 79 82 79 131c0 38 -66 132 -113 175zM142 -6c-40 29 -60 73 -60 132c0 58 22 117 66 178c-3 3 -6 5 -8 9c-40 -32 -74 -116 -74 -182c0 -61 31 -118 76 -137z" />
</svg>