<?xml version="1.0" encoding="iso-8859-1"?>
<!DOCTYPE svg PUBLIC "-//W3C//DTD SVG 1.1//EN" "http://www.w3.org/Graphics/SVG/1.1/DTD/svg11.dtd">
<svg width="50.0" height="100.0" version="1.1" xmlns="http://www.w3.org/2000/svg" xmlns:xlink="http://www.w3.org/1999/xlink">
<path fill="#00f0ff" transform="scale(.1,-.1) translate (0, -800)" glyph-name="nine" unicode="9" horiz-adv-x="365" 
d="M60 -78c-1 5 -2 8 -3 10c-5 4 -7 9 -8 16h-7c-3 8 -3 10 -3 20l35 -1c23 0 115 67 140 100c21 29 40 107 49 200c-25 -45 -66 -68 -125 -68c-31 0 -56 15 -73 45c-28 27 -42 73 -42 137c0 143 50 286 114 286c19 0 36 -5 53 -14c113 -31 165 -252 165 -406
c0 -197 -91 -312 -273 -343c-8 5 -13 12 -15 19zM80 -66c1 -7 2 -11 5 -14c170 30 255 139 255 327c0 136 -44 293 -99 355c47 -68 83 -214 83 -337c0 -186 -81 -296 -244 -331zM104 424c0 -61 19 -122 45 -143c64 0 92 82 92 143c0 41 -25 125 -53 176c-6 5 -11 7 -16 7
c-29 0 -68 -84 -68 -183zM262 345c-19 -70 -59 -119 -161 -119c11 -8 23 -12 37 -12c67 0 127 55 127 104c0 3 -1 12 -3 27zM171 622c-7 7 -15 10 -23 10c-37 0 -75 -101 -75 -190c0 -59 20 -123 46 -147c-20 34 -30 77 -30 129c0 98 39 197 82 198z" />
</svg>